<svg xmlns="http://www.w3.org/2000/svg" width="47.003" height="74.004" viewBox="0 0 47.003 74.004">
  <g id="_01_foguete_icon01" data-name="01_foguete_icon01" transform="translate(0.001)">
    <g id="Group">
      <path id="Vector" d="M2.824,61.136a1.511,1.511,0,0,0,2.11.422L15.128,54.71H31.874l10.2,6.868a1.515,1.515,0,0,0,1.909-.207,2.053,2.053,0,0,0,.2-.242,17.453,17.453,0,0,0-2.137-21.7l-1.587-1.6a1.576,1.576,0,0,0-.565-.344l-.747-.254.093-.793A39.83,39.83,0,0,0,36.57,16.716,38.86,38.86,0,0,0,28.18,4.082L24.579.449a1.519,1.519,0,0,0-2.157,0l-3.6,3.629A38.965,38.965,0,0,0,7.764,36.443l.1.793-.751.254a1.526,1.526,0,0,0-.577.355l-1.576,1.59A17.452,17.452,0,0,0,2.824,61.136ZM36.57,46.877a38.205,38.205,0,0,0,1.607-4.907l.422-1.656,1.289,1.3a14.206,14.206,0,0,1,3.02,15.415l-.453,1.1L34.22,52.581ZM13.25,17.911A35.853,35.853,0,0,1,20.982,6.258L23.5,3.719,26.02,6.258a35.836,35.836,0,0,1,7.732,11.649,36.38,36.38,0,0,1,0,27.779L31.308,51.62H15.7l-2.443-5.934A36.353,36.353,0,0,1,13.25,17.911Zm-6.137,23.7,1.289-1.3.422,1.66a38.46,38.46,0,0,0,1.607,4.91l2.35,5.7L4.546,58.128l-.453-1.1A14.226,14.226,0,0,1,7.113,41.612Z" transform="translate(-0.001)" fill="#434343"/>
      <path id="Vector-2" data-name="Vector" d="M12.386,1.281A7.96,7.96,0,0,0,8.046,0a8.12,8.12,0,0,0,0,16.239,8.091,8.091,0,0,0,8.046-8.122A8.923,8.923,0,0,0,16.018,7a1.164,1.164,0,0,0-.449-.773A1.136,1.136,0,0,0,14.709,6a1.169,1.169,0,0,0-.991,1.32,6.032,6.032,0,0,1,.054.8,5.727,5.727,0,1,1-5.73-5.774,5.672,5.672,0,0,1,3.086.91A1.161,1.161,0,0,0,12.734,2.9,1.179,1.179,0,0,0,12.386,1.281Z" transform="translate(15.456 19.774)" fill="#434343"/>
      <path id="Vector-3" data-name="Vector" d="M22.873,2.133A1.336,1.336,0,0,0,21.8,0a1.306,1.306,0,0,0-.77.258l-.445.328c-.379.453-4.139,4.969-6.663,7.567-1.038,1.066-1.858,1.547-2.594,1.52A4.044,4.044,0,0,1,8.884,8.192L2.108.258A1.321,1.321,0,0,0,1.342,0a1.34,1.34,0,0,0-1.2.734A1.324,1.324,0,0,0,.261,2.129L8.477,13.493a3.446,3.446,0,0,0,2.78,1.2c.085,0,.136,0,.19,0a3.474,3.474,0,0,0,2.637-1.211Z" transform="translate(11.931 59.308)" fill="#434343"/>
    </g>
  </g>
</svg>
