<svg xmlns="http://www.w3.org/2000/svg" width="75.006" height="41.001" viewBox="0 0 75.006 41.001">
  <g id="_02_relogioicon" data-name="02_relogioicon" transform="translate(-435 -75)">
    <path id="Vector" d="M16.012,4.8,0,0,8.021,13.214l.205.3.066.118A6.522,6.522,0,0,0,19.1,14.767a6.205,6.205,0,0,0,1.383-4.7A6.427,6.427,0,0,0,16.012,4.8ZM9.368,10.124,6.04,4.643l9.139,2.741a3.59,3.59,0,0,1-.695,7.017,3.729,3.729,0,0,1-3.733-2.008L9.441,10.042Z" transform="translate(458.526 98.864)" fill="#323436"/>
    <path id="Vector-2" data-name="Vector" d="M69.063,25.861l.2.585a31.94,31.94,0,0,1,1.7,10.26,2.021,2.021,0,0,0,4.041,0,36.052,36.052,0,0,0-11-25.943A37.721,37.721,0,0,0,37.479,0C16.81,0,0,16.469,0,36.712a1.994,1.994,0,0,0,2.017,1.967,1.994,1.994,0,0,0,2.017-1.967A31.971,31.971,0,0,1,5.708,26.528l.2-.585,7.961,2.942c.145-.419.314-.851.5-1.294L6.39,24.638l.242-.561a33.084,33.084,0,0,1,9.344-12.41l.483-.4,5.213,6.61c.381-.307.743-.591,1.111-.857l-5.188-6.592.507-.354A33.68,33.68,0,0,1,36.229,4.023l.616-.041V12.31a11.284,11.284,0,0,1,1.413.006V3.987l.628.024a33.706,33.706,0,0,1,17.927,6l.513.354-5.194,6.586c.387.278.761.561,1.123.857l5.2-6.61.483.4A33.148,33.148,0,0,1,68.344,24l.242.567L60.606,27.52c.181.425.35.857.5,1.288Z" transform="translate(435 75)" fill="#323436"/>
  </g>
</svg>
