<svg xmlns="http://www.w3.org/2000/svg" width="80.081" height="66" viewBox="0 0 80.081 66">
  <g id="_03_Alvo" data-name="03_Alvo" transform="translate(0 -5)">
    <g id="Group">
      <path id="Vector" d="M53.717,20.828c1.779,4.549,1.835,9.054.7,14.15A25.686,25.686,0,1,1,34.935,4.284c5.089,1.134,8.547,2.641,11.979,6.2a2.033,2.033,0,0,0,2.916.378,1.547,1.547,0,0,0,.338-2.185c-3.9-4.305-8.361-6.612-14.439-7.968A29.38,29.38,0,1,0,57.986,35.777a26.572,26.572,0,0,0-1.163-16.7A1.619,1.619,0,0,0,54.5,18.43,1.646,1.646,0,0,0,53.717,20.828Z" transform="translate(0 12.227)" fill="#323436"/>
      <path id="Vector-2" data-name="Vector" d="M32.187,4.4C29.749,2.093,27.74,1.281,24.17.481A19.873,19.873,0,1,0,39.225,24.2a16.792,16.792,0,0,0-.169-9.5s-.6-1.238-2.356-.456a1.908,1.908,0,0,0-.941,2.585,12.8,12.8,0,0,1-.1,6.569A16.188,16.188,0,1,1,23.38,4.057a13.306,13.306,0,0,1,6.109,2.8,1.717,1.717,0,0,0,2.334-.017C33.48,5.551,32.187,4.4,32.187,4.4Z" transform="translate(9.567 21.752)" fill="#323436"/>
      <path id="Vector-3" data-name="Vector" d="M11.06,3.375c.36.091,1.323.235,1.718.282a1.333,1.333,0,0,0,1.566-.96C14.591,1.785,13.9.621,11.927.182,7.359-.839,1.506,2.524.252,8.154A10.444,10.444,0,0,0,8.161,20.618c5.619,1.256,11.033-1.664,12.287-7.294a8.186,8.186,0,0,0,.239-2.016,2.664,2.664,0,0,0-.4-1.521,1.508,1.508,0,0,0-2.538.456,10.882,10.882,0,0,0-.655,2.2,6.905,6.905,0,0,1-8.118,4.527A6.787,6.787,0,0,1,3.84,8.875C4.586,5.526,7.563,2.515,11.06,3.375Z" transform="translate(19.003 31.149)" fill="#323436"/>
      <path id="Vector-4" data-name="Vector" d="M52.462,13.753a1.861,1.861,0,0,0-1.419-1.512l-8.2-1.829L44.653,2.27A1.864,1.864,0,0,0,43.885.341,1.694,1.694,0,0,0,41.9.3L30.661,7.449a1.868,1.868,0,0,0-.82,1.173L27.775,17.9.837,35.05a1.833,1.833,0,0,0,.612,3.332,1.829,1.829,0,0,0,1.41-.243L29.8,21l9.194,2.051A1.829,1.829,0,0,0,40.4,22.8l11.241-7.151A1.806,1.806,0,0,0,52.462,13.753ZM33.246,10.182l6.872-4.375-1.085,4.87-6.872,4.375ZM39.03,19.3l-4.937-1.1,6.872-4.375,4.937,1.1Z" transform="translate(27.581 5)" fill="#323436"/>
    </g>
  </g>
</svg>
