<svg xmlns="http://www.w3.org/2000/svg" width="74" height="82.005" viewBox="0 0 74 82.005">
  <g id="_04_Lampada" data-name="04_Lampada" transform="translate(0 -30)">
    <g id="Group" transform="translate(0 30)">
      <g id="Group-2" data-name="Group">
        <path id="Vector" d="M8.454,0H1.473a1.469,1.469,0,1,0,0,2.937H8.45A1.469,1.469,0,1,0,8.454,0Z" transform="translate(0 38.14)" fill="#323436"/>
        <path id="Vector-2" data-name="Vector" d="M8.45,0H1.473a1.469,1.469,0,1,0,0,2.937H8.45A1.469,1.469,0,1,0,8.45,0Z" transform="translate(64.077 35.995)" fill="#323436"/>
        <path id="Vector-3" data-name="Vector" d="M8.941,4.564a1.463,1.463,0,0,0-.687-.89L2.212.2A1.458,1.458,0,0,0,1.478,0,1.481,1.481,0,0,0,.2.732,1.452,1.452,0,0,0,.052,1.846a1.485,1.485,0,0,0,.687.9L6.781,6.219a1.455,1.455,0,0,0,.734.2A1.475,1.475,0,0,0,8.941,4.564Z" transform="translate(4.839 18)" fill="#323436"/>
        <path id="Vector-4" data-name="Vector" d="M.052,1.086A1.433,1.433,0,0,0,.2,2.2L3.69,8.228A1.474,1.474,0,0,0,5.7,8.769,1.468,1.468,0,0,0,6.238,6.76L2.75.737a1.472,1.472,0,0,0-2.7.35Z" transform="translate(18.05 4.825)" fill="#323436"/>
        <path id="Vector-5" data-name="Vector" d="M1.473,0A1.474,1.474,0,0,0,0,1.469V8.424a1.473,1.473,0,0,0,2.946,0V1.469A1.471,1.471,0,0,0,1.473,0Z" transform="translate(36.105)" fill="#323436"/>
        <path id="Vector-6" data-name="Vector" d="M3.685.737.2,6.76A1.452,1.452,0,0,0,.052,7.874a1.485,1.485,0,0,0,.687.9,1.455,1.455,0,0,0,.734.2A1.474,1.474,0,0,0,2.75,8.228L6.238,2.205a1.452,1.452,0,0,0,.145-1.114,1.473,1.473,0,0,0-2.7-.354Z" transform="translate(50.67 4.821)" fill="#323436"/>
        <path id="Vector-7" data-name="Vector" d="M.2,5.688a1.47,1.47,0,0,0,2.015.536L8.255,2.746A1.472,1.472,0,0,0,7.512,0a1.494,1.494,0,0,0-.734.2L.736,3.674A1.474,1.474,0,0,0,.2,5.688Z" transform="translate(61.33 17.995)" fill="#323436"/>
        <path id="Vector-8" data-name="Vector" d="M.2.737A1.452,1.452,0,0,0,.052,1.851a1.485,1.485,0,0,0,.687.9L6.781,6.224a1.455,1.455,0,0,0,.734.2,1.472,1.472,0,0,0,.739-2.746L2.212.2A1.446,1.446,0,0,0,1.478,0,1.484,1.484,0,0,0,.2.737Z" transform="translate(61.332 50.513)" fill="#323436"/>
        <path id="Vector-9" data-name="Vector" d="M8.787.737a1.475,1.475,0,0,0-.9-.685A1.512,1.512,0,0,0,7.511,0a1.468,1.468,0,0,0-.734.2L.735,3.674A1.472,1.472,0,0,0,1.474,6.42a1.522,1.522,0,0,0,.739-.2L8.25,2.746A1.472,1.472,0,0,0,8.787.737Z" transform="translate(4.844 50.508)" fill="#323436"/>
      </g>
      <g id="Group-3" data-name="Group">
        <path id="Vector-10" data-name="Vector" d="M20.638,0C11.79,0,4.907,4.023,1.751,11.035c-3.465,7.7-1.683,17.483,4.428,24.34a18.777,18.777,0,0,1,4.265,8.2c.4,1.473,1.127,4.205,4.073,4.331H26.759c2.946-.126,3.685-2.881,4.082-4.359A18.666,18.666,0,0,1,35.1,35.375c6.116-6.858,7.893-16.639,4.428-24.34C36.368,4.019,29.485,0,20.638,0ZM32.015,32.639a23.138,23.138,0,0,0-5.172,9.874c-.065.242-.173.653-.281.96l-.108.312H14.821l-.108-.312c-.1-.284-.2-.657-.29-.988a22.98,22.98,0,0,0-5.158-9.841C4.21,26.97,2.7,18.965,5.515,12.718c2.46-5.469,7.973-8.6,15.123-8.6S33.3,7.254,35.76,12.718C38.571,18.965,37.065,26.97,32.015,32.639Z" transform="translate(16.365 18.131)" fill="#323436"/>
        <path id="Vector-11" data-name="Vector" d="M15.193,0H2.067a2.061,2.061,0,1,0,0,4.121H15.188a2.061,2.061,0,1,0,0-4.121Z" transform="translate(28.768 70.741)" fill="#323436"/>
        <path id="Vector-12" data-name="Vector" d="M15.193,0H2.067a2.061,2.061,0,1,0,0,4.121H15.188a2.061,2.061,0,1,0,0-4.121Z" transform="translate(28.768 77.883)" fill="#323436"/>
      </g>
    </g>
  </g>
</svg>
