<svg xmlns="http://www.w3.org/2000/svg" width="84.137" height="51.847" viewBox="0 0 84.137 51.847">
  <g id="Grupo_410" data-name="Grupo 410" transform="translate(-57.566 -88.849)">
    <path id="Caminho_311" data-name="Caminho 311" d="M172.738,133.826c-.174-.261-4.323-6.391-9.746-6.391-5.582,0-9.7,6.3-9.732,6.367a1.209,1.209,0,0,0-.028,1.479c.188.28,4.337,6.41,9.76,6.41,5.581,0,9.7-6.3,9.732-6.368l.028-.042a1.19,1.19,0,0,0-.01-1.45Zm-2.851.878c-1.059,1.294-3.842,4.3-6.817,4.3-3.323,0-6.265-3.588-6.821-4.308l-.107-.138.11-.136c.817-1.01,3.725-4.3,6.818-4.3,2.975,0,5.759,3.01,6.817,4.3l.115.14Z" transform="translate(-53.215 -21.517)" fill="#323436"/>
    <path id="Caminho_312" data-name="Caminho 312" d="M172.9,138.393a2.281,2.281,0,1,0,2.281,2.281A2.284,2.284,0,0,0,172.9,138.393Z" transform="translate(-63.042 -27.628)" fill="#323436"/>
    <path id="Caminho_313" data-name="Caminho 313" d="M141.446,130.331h0l-.129-.751-14.888-9.906.065-.166a17.928,17.928,0,0,0-.044-13.058,1.645,1.645,0,0,0-3.06,1.212,14.642,14.642,0,1,1-4.969-6.426,1.645,1.645,0,1,0,1.945-2.654,17.9,17.9,0,0,0-17.27-2.164l-.3.122V92.71a3.858,3.858,0,0,0-4.106-3.861h-.676a1.739,1.739,0,1,0,0,3.479h.676a1.127,1.127,0,0,1,.5.092l.145.073-.027.16.005.057V98.5l-.091.066a17.9,17.9,0,0,0,0,28.953l.091.066v8.091c0,.707-.776.913-.919.921H62.571c-1.341,0-1.526-.53-1.526-1.1V93.49c0-.682.242-.859.489-.983a1.971,1.971,0,0,1,.674-.179H82.853a1.739,1.739,0,0,0,0-3.479H62.209a5.31,5.31,0,0,0-2.229.545,4.388,4.388,0,0,0-2.413,4.1V135.5c0,2.28,1.547,4.582,5.005,4.582H98.392a4.475,4.475,0,0,0,4.4-4.4v-6.127l.3.123a17.87,17.87,0,0,0,16.578-1.693l.159-.106.127.143,10.882,12.153.5.139a11.792,11.792,0,0,0,2.986.385,7.447,7.447,0,0,0,5.16-1.757C141.463,137.157,142.123,134.261,141.446,130.331Zm-4.322,5.974a4.2,4.2,0,0,1-2.805.848,8.776,8.776,0,0,1-1.481-.13l-.075-.013-9.485-10.592,2.346-3.028,12.445,8.28.012.1C138.338,133.968,138.017,135.493,137.124,136.3Z" fill="#323436"/>
    <path id="Caminho_314" data-name="Caminho 314" d="M100.918,115.371H83.525a1.855,1.855,0,1,0,0,3.711h17.393a1.88,1.88,0,0,0,1.855-1.856A1.836,1.836,0,0,0,100.918,115.371Z" transform="translate(-13.441 -14.79)" fill="#323436"/>
    <path id="Caminho_315" data-name="Caminho 315" d="M96.764,142.562H83.525a1.855,1.855,0,1,0,0,3.711h13.24a1.855,1.855,0,0,0,0-3.711Z" transform="translate(-13.441 -29.953)" fill="#323436"/>
    <path id="Caminho_316" data-name="Caminho 316" d="M100.918,169.753H83.525a1.855,1.855,0,1,0,0,3.711h17.393a1.855,1.855,0,0,0,0-3.711Z" transform="translate(-13.441 -45.116)" fill="#323436"/>
  </g>
</svg>
