<svg xmlns="http://www.w3.org/2000/svg" width="83.443" height="83.46" viewBox="0 0 83.443 83.46"><defs><style>.a{fill:#323436;}</style></defs><g transform="translate(0 0)"><path class="a" d="M126.57,46.43H66.48A11.662,11.662,0,0,0,54.81,58.113V97.549a11.662,11.662,0,0,0,11.67,11.683h44.638v11.057c0,.8.326.721,1.876,1.288l11.477,4.176H69l11.894-4.4s.339-.1.858-.318c.223-.142.163-.519.163-.725v-5.683a1.992,1.992,0,0,0-2.12-1.807,1.914,1.914,0,0,0-2.056,1.816V118l-12.726,4.593a3.509,3.509,0,0,0-2.5,4.172,3.794,3.794,0,0,0,3.756,3.129h60.519a3.794,3.794,0,0,0,3.756-3.129,3.914,3.914,0,0,0-2.5-4.172L115.312,118V107.146a1.97,1.97,0,0,0-2.086-2.086H66.48a7.481,7.481,0,0,1-7.511-7.511V58.113A7.481,7.481,0,0,1,66.48,50.6h60.09a7.481,7.481,0,0,1,7.511,7.511V97.549a7.481,7.481,0,0,1-7.511,7.5,2.086,2.086,0,1,0,0,4.172,11.662,11.662,0,0,0,11.683-11.683V58.113A11.662,11.662,0,0,0,126.57,46.43Z" transform="translate(-54.81 -46.43)"/><path class="a" d="M147.54,172.622a2.086,2.086,0,1,0,0-4.172H137.106a2.086,2.086,0,0,0,0,4.172Z" transform="translate(-100.593 -116.077)"/><path class="a" d="M152.668,137.547a1.288,1.288,0,0,1-1.288-1.288V124.478a1.288,1.288,0,0,1,2.575,0V136.26A1.288,1.288,0,0,1,152.668,137.547Z" transform="translate(-109.931 -90.244)"/><path class="a" d="M173.708,128.877a1.288,1.288,0,0,1-1.288-1.288v-18.3a1.288,1.288,0,0,1,2.575,0v18.284a1.288,1.288,0,0,1-1.288,1.3Z" transform="translate(-121.94 -81.573)"/><path class="a" d="M194.758,132.1a1.288,1.288,0,0,1-1.288-1.288V114.928a1.288,1.288,0,1,1,2.575,0v15.881a1.288,1.288,0,0,1-1.288,1.288Z" transform="translate(-133.955 -84.793)"/><path class="a" d="M216.288,121.1A1.288,1.288,0,0,1,215,119.809V95.658a1.288,1.288,0,1,1,2.575,0v24.152a1.288,1.288,0,0,1-1.288,1.288Z" transform="translate(-146.244 -73.794)"/><path class="a" d="M138.285,94.839a1.288,1.288,0,0,1-.614-2.421l9.284-5.009,9.636-10.893a1.288,1.288,0,0,1,1.987.073l4.5,5.915,11.4-8.425a1.288,1.288,0,1,1,1.532,2.069l-12.4,9.181a1.288,1.288,0,0,1-1.79-.253L157.479,79.4l-8.747,9.872a1.313,1.313,0,0,1-.352.279l-9.486,5.116A1.249,1.249,0,0,1,138.285,94.839Z" transform="translate(-101.72 -62.055)"/><path class="a" d="M113.54,97.575H98.788a1.288,1.288,0,1,1,0-2.575H113.54a1.288,1.288,0,1,1,0,2.575Z" transform="translate(-79.177 -74.153)"/><path class="a" d="M113.54,77.785H98.788a1.288,1.288,0,1,1,0-2.575H113.54a1.288,1.288,0,1,1,0,2.575Z" transform="translate(-79.177 -62.857)"/><path class="a" d="M88.757,114.2a10.58,10.58,0,0,0-7.9,3.537h0l-.086.107a10.6,10.6,0,1,0,8-3.657Zm7.919,9.318H95.213a6.438,6.438,0,0,0-5.151-4.987V116.89A8.043,8.043,0,0,1,96.676,123.521ZM87.47,118.6a6.382,6.382,0,0,0-2.657,1.309l-1.232-1.232a8.031,8.031,0,0,1,3.889-1.786Zm1.446,2.4a3.863,3.863,0,1,1-3.863,3.863A3.863,3.863,0,0,1,88.916,121Zm-.159,11.838a8.013,8.013,0,0,1-6.867-12.2l1.288,1.288a6.374,6.374,0,0,0-.721,2.949A6.438,6.438,0,0,0,95.226,126.1h1.438A8.043,8.043,0,0,1,88.757,132.839Z" transform="translate(-68.151 -85.107)"/><path class="a" d="M81.714,96.679a3,3,0,1,1,3-3A3,3,0,0,1,81.714,96.679Zm0-4.266A1.288,1.288,0,1,0,83,93.7,1.288,1.288,0,0,0,81.714,92.413Z" transform="translate(-68.452 -71.682)"/><path class="a" d="M81.714,77.189a3,3,0,1,1,3-3A3,3,0,0,1,81.714,77.189Zm0-4.266A1.288,1.288,0,1,0,83,74.21,1.288,1.288,0,0,0,81.714,72.923Z" transform="translate(-68.452 -60.557)"/></g></svg>