<svg xmlns="http://www.w3.org/2000/svg" width="100.986" height="83.411" viewBox="0 0 100.986 83.411"><defs><style>.a{fill:#333536;}.b{fill:#323436;}</style></defs><g transform="translate(0 0)"><path class="a" d="M153.215,106.5a19.35,19.35,0,0,0,18.445-1.965l10.981,12.989a1.686,1.686,0,0,0,.673.485,9.935,9.935,0,0,0,3.53.648,7.2,7.2,0,0,0,6.237-3.17,8.21,8.21,0,0,0-.056-9.36,1.8,1.8,0,0,0-.4-.386l-14.1-9.656a19.419,19.419,0,0,0,.3-14.22,1.716,1.716,0,0,0-3.2,1.18,15.992,15.992,0,1,1-4.83-6.786,1.716,1.716,0,1,0,2.171-2.625A19.38,19.38,0,0,0,153.2,70.684a37.317,37.317,0,0,0-3.393,1.862,19.376,19.376,0,0,0,0,32.138A13,13,0,0,0,153.215,106.5Zm37.045,7.1c-1.493,2.239-4.29,1.664-5.311,1.368l-10.655-12.607a19.731,19.731,0,0,0,2.634-3.243l13.512,9.253a4.809,4.809,0,0,1-.18,5.229Z" transform="translate(-93.534 -59.433)"/><path class="b" d="M103.2,122.545l-12.719-4.59V107.111a2.089,2.089,0,0,0-2.085-2.085H41.689a7.5,7.5,0,0,1-7.507-7.507V58.106A7.507,7.507,0,0,1,41.689,50.6h60.055a7.472,7.472,0,0,1,6.756,4.2,2.033,2.033,0,0,0,1.845,1.124h.051a2.068,2.068,0,0,0,1.84-2.973,11.659,11.659,0,0,0-10.484-6.52H41.7A11.659,11.659,0,0,0,30,58.106V97.519A11.681,11.681,0,0,0,41.681,109.2H86.293v11.05c0,.8.326.721,1.875,1.287l11.47,4.174H44.19l11.887-4.393s.339-.1.858-.317c.223-.142.163-.519.163-.725v-5.679a1.99,1.99,0,0,0-2.119-1.806,1.9,1.9,0,0,0-2.05,1.815v3.354L40.2,122.545a3.507,3.507,0,0,0-2.5,4.169,3.792,3.792,0,0,0,3.753,3.127h60.484a3.8,3.8,0,0,0,3.753-3.127A3.921,3.921,0,0,0,103.2,122.545Z" transform="translate(-30 -46.43)"/><path class="b" d="M200.363,175.423a7.464,7.464,0,0,1-5.8,2.814,2.145,2.145,0,0,0-2.183,2.029,1.973,1.973,0,0,0,2.085,2.145,11.638,11.638,0,0,0,9.145-4.405,2.068,2.068,0,0,0-1.57-3.346h-.051a2.025,2.025,0,0,0-1.626.764Z" transform="translate(-122.721 -119.654)"/><path class="b" d="M122.748,167.759a2.085,2.085,0,1,0,0-4.169H112.325a2.085,2.085,0,1,0,0,4.169Z" transform="translate(-75.82 -113.333)"/><path class="a" d="M84.318,111.434a1.128,1.128,0,0,0-.695.24l-11.518-9.986a.969.969,0,0,0,.047-.3,1.132,1.132,0,1,0-2.265,0,.641.641,0,0,0,0,.09L53.87,110.645a1.132,1.132,0,1,0,.184.618,1.219,1.219,0,0,0,0-.219l15.983-9.137a1.124,1.124,0,0,0,1.892.18L83.366,112a1.1,1.1,0,0,0-.172.588,1.132,1.132,0,1,0,1.132-1.132Z" transform="translate(-42.443 -77.169)"/><path class="a" d="M61.33,121.814v11.119a2.145,2.145,0,1,0,4.29,0V119.36Z" transform="translate(-47.891 -88.076)"/><path class="a" d="M65.448,112.093a2.145,2.145,0,0,0-4.118.832v1.523Z" transform="translate(-47.891 -83.181)"/><path class="a" d="M91.949,96.709a1.99,1.99,0,0,1,3.934.369l.2.172V95.1a2.145,2.145,0,1,0-4.29,0v1.716Z" transform="translate(-65.284 -73)"/><path class="a" d="M94.746,106.623a2.02,2.02,0,0,1-2.025-.193l-.931.532v18.587a2.145,2.145,0,1,0,4.29,0V107.777Z" transform="translate(-65.284 -80.692)"/><path class="a" d="M124.746,122.42a2.145,2.145,0,0,0-1.1.309l.566.493a1.9,1.9,0,0,1,.562-.082,1.99,1.99,0,1,1-1.99,1.99,1.669,1.669,0,0,1,0-.292l-.206-.176V134.68a2.145,2.145,0,1,0,4.29,0V124.565a2.145,2.145,0,0,0-2.123-2.145Z" transform="translate(-82.867 -89.823)"/><path class="a" d="M172.731,96.655c-3.908-.107-7.58,2.08-10.939,6.5a1.716,1.716,0,0,0-.094,1.922c.18.3,4.53,7.241,10.908,7.352h.159c3.861,0,7.43-2.458,10.651-7.292a1.716,1.716,0,0,0,0-1.9C183.232,102.965,179,96.827,172.731,96.655Zm-.056,12.367c-3.346-.051-6.156-3.157-7.4-4.774,2.406-2.844,4.877-4.247,7.344-4.187,3.307.082,6.027,2.741,7.258,4.182C177.522,107.452,175.081,109.056,172.675,109.022Z" transform="translate(-105.062 -75.108)"/><path class="a" d="M183.828,108.83a2.668,2.668,0,1,0,2.668,2.647,2.668,2.668,0,0,0-2.668-2.647Z" transform="translate(-116.318 -82.063)"/></g></svg>