<svg xmlns="http://www.w3.org/2000/svg" width="85" height="64.61" viewBox="0 0 85 64.61">
  <g id="Grupo_411" data-name="Grupo 411" transform="translate(-45.101 -65.011)">
    <g id="Grupo_411-2" data-name="Grupo 411" transform="translate(45.101 110.15)">
      <path id="Caminho_317" data-name="Caminho 317" d="M49.55,170.308a5.079,5.079,0,0,0-2.129.521,4.211,4.211,0,0,0-2.32,3.929v10.626c0,2.188,1.479,4.395,4.782,4.395H75.141a4.3,4.3,0,0,0,4.229-4.229V174.044a3.726,3.726,0,0,0-3.96-3.736h-.619a1.794,1.794,0,0,0,0,3.589h.619a.87.87,0,0,1,.369.062c0,.009,0,.039,0,.085v11.506c0,.523-.644.64-.651.641H49.883c-1.1,0-1.194-.382-1.194-.807V174.758c0-.551.186-.644.336-.719a1.643,1.643,0,0,1,.526-.142H61.338a1.794,1.794,0,0,0,0-3.589H49.55Z" transform="translate(-45.101 -170.308)" fill="#323436"/>
    </g>
    <g id="Grupo_412" data-name="Grupo 412" transform="translate(95.832 110.15)">
      <path id="Caminho_318" data-name="Caminho 318" d="M167.89,170.308a5.076,5.076,0,0,0-2.128.521,4.21,4.21,0,0,0-2.321,3.929v10.626c0,2.188,1.479,4.395,4.783,4.395h25.257a4.3,4.3,0,0,0,4.229-4.229V174.044a3.726,3.726,0,0,0-3.96-3.736h-.619a1.794,1.794,0,1,0,0,3.589h.619a.869.869,0,0,1,.369.062c0,.009,0,.039,0,.085v11.506c0,.523-.644.64-.651.641H168.224c-1.1,0-1.194-.382-1.194-.807V174.758c0-.551.186-.644.336-.719a1.646,1.646,0,0,1,.526-.142h11.788a1.794,1.794,0,1,0,0-3.589H167.89Z" transform="translate(-163.441 -170.308)" fill="#323436"/>
    </g>
    <g id="Grupo_413" data-name="Grupo 413" transform="translate(70.695 65.011)">
      <path id="Caminho_319" data-name="Caminho 319" d="M109.253,65.011a5.079,5.079,0,0,0-2.129.521,4.211,4.211,0,0,0-2.32,3.929V80.087c0,2.188,1.479,4.395,4.782,4.395h25.257a4.3,4.3,0,0,0,4.229-4.229V68.747a3.726,3.726,0,0,0-3.96-3.736h-.619a1.794,1.794,0,0,0,0,3.589h.619a.869.869,0,0,1,.369.062c0,.009,0,.039,0,.085V80.252c0,.523-.644.64-.651.641H109.586c-1.1,0-1.194-.382-1.194-.806V69.461c0-.551.186-.644.336-.719a1.646,1.646,0,0,1,.526-.142h11.788a1.794,1.794,0,0,0,0-3.589H109.253Z" transform="translate(-104.804 -65.011)" fill="#323436"/>
    </g>
    <path id="Caminho_320" data-name="Caminho 320" d="M134.221,126.568H117.3v-6.421a2.143,2.143,0,1,0-4.287,0v6.421H95.081a2.143,2.143,0,0,0,0,4.287h17.934V139.5a2.143,2.143,0,0,0,4.287,0v-8.641h16.919a2.143,2.143,0,1,0,0-4.287Z" transform="translate(-27.33 -30.276)" fill="#323436"/>
    <rect id="Retângulo_166" data-name="Retângulo 166" width="2.793" height="2.793" rx="1.392" transform="translate(53.158 118.813)" fill="#323436"/>
    <rect id="Retângulo_167" data-name="Retângulo 167" width="8.379" height="2.793" rx="1.397" transform="translate(62.934 118.813)" fill="#323436"/>
    <rect id="Retângulo_168" data-name="Retângulo 168" width="2.793" height="2.793" rx="1.392" transform="translate(103.889 118.813)" fill="#323436"/>
    <rect id="Retângulo_169" data-name="Retângulo 169" width="8.379" height="2.793" rx="1.397" transform="translate(113.664 118.813)" fill="#323436"/>
    <rect id="Retângulo_170" data-name="Retângulo 170" width="2.793" height="2.793" rx="1.392" transform="translate(78.244 73.35)" fill="#323436"/>
    <rect id="Retângulo_171" data-name="Retângulo 171" width="8.379" height="2.793" rx="1.397" transform="translate(88.02 73.35)" fill="#323436"/>
  </g>
</svg>
