<svg xmlns="http://www.w3.org/2000/svg" width="57.999" height="58" viewBox="0 0 57.999 58">
  <path id="Caminho_321" data-name="Caminho 321" d="M93.692,67.851a29,29,0,1,0,29,29A29.032,29.032,0,0,0,93.692,67.851Zm24.91,27H107.693c-.272-9.046-2.374-16.714-5.6-21.54A25.049,25.049,0,0,1,118.6,94.85Zm-24.91-23c4.527,0,9.543,9.346,10,23H83.7C84.15,81.2,89.166,71.854,93.692,71.854Zm-8.4,1.456c-3.227,4.826-5.329,12.494-5.6,21.54H68.783A25.05,25.05,0,0,1,85.292,73.31ZM68.783,98.852H79.692c.271,9.046,2.374,16.714,5.6,21.539A25.049,25.049,0,0,1,68.783,98.852Zm24.91,23c-4.526,0-9.543-9.346-9.995-23h19.99C103.235,112.5,98.219,121.848,93.692,121.848Zm8.4-1.457c3.227-4.826,5.329-12.493,5.6-21.539H118.6A25.048,25.048,0,0,1,102.093,120.392Z" transform="translate(-64.693 -67.851)" fill="#323436"/>
</svg>
