<svg xmlns="http://www.w3.org/2000/svg" width="100.14" height="83.698" viewBox="0 0 100.14 83.698"><defs><style>.a{fill:#333536;}.b{fill:#323436;}.c{fill:none;stroke:#333536;stroke-linecap:round;stroke-linejoin:round;stroke-width:2px;}</style></defs><g transform="translate(0 0)"><path class="a" d="M187.57,73.646a19.438,19.438,0,0,0-19.834-2.957,37.367,37.367,0,0,0-3.422,1.868c-.43.293-.861.6-1.257.93a1.722,1.722,0,0,0-.125,2.535h0a1.722,1.722,0,0,0,2.264.133,16.012,16.012,0,0,1,20.149.108,1.765,1.765,0,0,0,2.221.047,1.722,1.722,0,0,0,0-2.664Z" transform="translate(-109.067 -59.399)"/><path class="a" d="M199.39,121.589a1.782,1.782,0,0,0-.4-.383l-14.153-9.689a19.5,19.5,0,0,0,.34-14.183,1.76,1.76,0,0,0-1.9-1.184,1.722,1.722,0,0,0-1.343,2.281,16.038,16.038,0,1,1-30.707,8.992,1.722,1.722,0,0,0-1.666-1.326h0a1.722,1.722,0,0,0-1.674,2.049,19.49,19.49,0,0,0,8.122,11.979,13.033,13.033,0,0,0,3.422,1.842A19.417,19.417,0,0,0,177.941,120l11.019,13.034a1.649,1.649,0,0,0,.646.478,9.956,9.956,0,0,0,3.568.659,7.2,7.2,0,0,0,6.259-3.181A8.225,8.225,0,0,0,199.39,121.589Zm-2.789,7.5c-1.494,2.247-4.3,1.67-5.324,1.373l-10.692-12.65a19.8,19.8,0,0,0,2.639-3.254l13.563,9.284a4.817,4.817,0,0,1-.185,5.247Z" transform="translate(-100.765 -74.74)"/><path class="b" d="M111.895,122.806,99.128,118.2V107.319a2.092,2.092,0,0,0-2.092-2.092H50.166a7.528,7.528,0,0,1-7.533-7.533V58.146a7.533,7.533,0,0,1,7.533-7.533h60.261a7.5,7.5,0,0,1,6.771,4.214,2.04,2.04,0,0,0,1.851,1.128h.052a2.075,2.075,0,0,0,1.847-2.983,11.7,11.7,0,0,0-10.52-6.543H50.166A11.695,11.695,0,0,0,38.45,58.146V97.695a11.716,11.716,0,0,0,11.716,11.716H94.932V120.5c0,.8.327.723,1.881,1.291l11.51,4.188H52.676L64.6,121.571s.34-.1.882-.319c.224-.142.164-.521.164-.727v-5.7a2,2,0,0,0-2.126-1.812,1.911,1.911,0,0,0-2.057,1.821V118.2L48.7,122.806a3.518,3.518,0,0,0-2.514,4.184,3.809,3.809,0,0,0,3.766,3.138h60.691a3.809,3.809,0,0,0,3.766-3.138,3.926,3.926,0,0,0-2.518-4.184Z" transform="translate(-38.45 -46.43)"/><path class="b" d="M208.788,175.436a7.485,7.485,0,0,1-5.8,2.824A2.152,2.152,0,0,0,200.8,180.3a1.98,1.98,0,0,0,2.092,2.152,11.678,11.678,0,0,0,9.181-4.412,2.07,2.07,0,0,0-1.571-3.357h-.052a2.04,2.04,0,0,0-1.661.758Z" transform="translate(-130.914 -119.475)"/><path class="b" d="M131.211,167.774a2.092,2.092,0,1,0,0-4.184h-10.46a2.092,2.092,0,1,0,0,4.184Z" transform="translate(-84.135 -113.16)"/><path class="c" d="M56.2,96.4c0,.065,4.92.065,4.92,0l4.735,15.616,1.98-34.232L72.182,96.4h5.023l3.6-9.956,4.27,17.966,3.237-8.01H92.86L97.19,77.46l7.774,23.571,2.251-4.64h4.068l4.05-13.232,4.489,20.661,2.505-7.434h4.231" transform="translate(-48.56 -64.104)"/></g></svg>