<svg id="Layer_3" data-name="Layer 3" xmlns="http://www.w3.org/2000/svg" viewBox="0 0 283.46 283.46"><defs><style>.cls-1{fill:#323436;}</style></defs><path class="cls-1" d="M243.42,119.31l-20-11a5,5,0,0,0-6.66,1.75l-12,19.35a5,5,0,0,0,1.63,6.88A4.93,4.93,0,0,0,209,137a5,5,0,0,0,4.26-2.37l5.51-8.91A74.28,74.28,0,0,1,147.27,220c-18.35,0-37.92-8.08-52.34-21.63a5,5,0,1,0-6.85,7.29C104.31,220.86,126.44,230,147.27,230a84.29,84.29,0,0,0,81-107.58l10.36,5.69a5,5,0,0,0,4.82-8.76Z"/><path class="cls-1" d="M90.35,157a5,5,0,0,0-6.88,1.62l-6.54,10.59A85.3,85.3,0,0,1,73,145.71,74.25,74.25,0,0,1,199.6,93a5,5,0,1,0,7.05-7.1A84.25,84.25,0,0,0,63,145.71,92.75,92.75,0,0,0,66.72,170l-8.55-4.71A5,5,0,1,0,53.35,174l20,11A5,5,0,0,0,80,183.26l12-19.35A5,5,0,0,0,90.35,157Z"/></svg>