<?xml version="1.0" encoding="utf-8"?>
<!-- Generator: Adobe Illustrator 25.3.1, SVG Export Plug-In . SVG Version: 6.00 Build 0)  -->
<svg version="1.1" id="Camada_1" xmlns="http://www.w3.org/2000/svg" xmlns:xlink="http://www.w3.org/1999/xlink" x="0px" y="0px"
	 viewBox="0 0 582 201.9" style="enable-background:new 0 0 582 201.9;" xml:space="preserve">
<style type="text/css">
	.st0{fill-rule:evenodd;clip-rule:evenodd;fill:#212120;}
	.st1{fill-rule:evenodd;clip-rule:evenodd;fill:#FFE100;}
	.st2{fill-rule:evenodd;clip-rule:evenodd;}
	.st3{fill-rule:evenodd;clip-rule:evenodd;fill:#C84439;}
	.st4{fill-rule:evenodd;clip-rule:evenodd;fill:#616160;}
	.st5{fill-rule:evenodd;clip-rule:evenodd;fill:#798085;}
	.st6{fill-rule:evenodd;clip-rule:evenodd;fill:#3D3D3D;}
</style>
<path class="st4" d="M256,47.7h21.1l0.3,0.3v91.8l-0.3,0.3H256c-0.3,0-0.3-0.3-0.3-0.3V48C255.8,48,255.8,47.7,256,47.7L256,47.7z"
	/>
<path class="st4" d="M249,47.7c0,0,0.3,0.3,0,0.5l-27.9,45.3c-0.3,0.3-0.3,0.8,0,1.3l28.2,44.8c0.3,0.3,0,0.5,0,0.5h-26.2
	c-0.3,0-0.5-0.3-0.8-0.3l-16.9-27.7c-0.3-0.3-0.3-0.3-0.5,0l-15.9,27.4c-0.3,0.3-0.5,0.5-0.8,0.5H164c-0.5,0-0.5-0.3-0.3-0.3
	l28.7-47.6c0.5-0.5,0.5-1,0-1.5l-25.2-42.5c-0.3-0.3,0-0.5,0-0.5h25.4c0.3,0,0.5,0.3,0.5,0.5l15.3,25.7c0.3,0.3,0.3,0.3,0.5,0
	l15.9-25.7c0-0.3,0.3-0.5,0.5-0.5H249L249,47.7z"/>
<polygon class="st5" points="429.6,21.6 505.6,140.1 439.7,140.1 414.8,101.3 411.8,101.3 410,98.6 380.3,98.6 429.6,21.6 "/>
<polygon class="st6" points="424.9,94.8 454,140.1 361.2,140.1 390.4,94.8 424.9,94.8 "/>
<polygon class="st4" points="417.3,94.8 446.5,140.1 353.7,140.1 382.8,94.8 417.3,94.8 "/>
<path class="st4" d="M155.6,47.7H136c-0.3,0-0.5,0.3-0.5,0.5l-59.1,91.6c0,0,0,0.3,0.3,0.3h23.9c0.3,0,0.5,0,0.5-0.3l8.1-12.6
	c0.3,0,0.3-0.3,0.5-0.3h25.2c0.3,0,0.3,0.3,0.3,0.3v12.3c0,0.3,0,0.5,0.3,0.5h20.6l0.3-0.3V48.2C156.2,48,155.9,47.7,155.6,47.7
	L155.6,47.7z M135,108.9c0,0.3,0,0.3,0,0.3h-15.6c-0.3,0-0.3,0-0.3-0.3l16.6-26.4l0,0L135,108.9L135,108.9z"/>
<path class="st4" d="M289.8,140.1h27.9c3.5-0.3,7-0.8,10.3-1.8c12.8-4,19.6-16.9,19.6-27.7c0-17.4-13.6-23.4-29.7-30.2
	c-2.8-1.3-6.3-3-6.3-6.8c0-3.8,3.8-5.8,7.8-5.8h21.9c0.3,0,0.3,0,0.3-0.3V47.7c0-0.3,0-0.3-0.3-0.3h-22.9
	c-19.1,0-30.4,11.3-30.4,27.2c0,13.8,8.8,20.6,21.6,25.9c9.1,3.5,14.8,5,14.8,12.3c0,3.8-2.3,7.5-7,7.5c0,0-27.4,0-27.7,0l0,0
	c0,0,0,19.1,0,19.4C289.8,140.1,290,140.1,289.8,140.1L289.8,140.1z"/>
<path class="st4" d="M359.4,47.2c-4.3,0-7.5,3.5-7.5,7.8c0,4,3.3,7.5,7.5,7.5c4.3,0,7.8-3.5,7.8-7.5
	C367.2,50.8,363.7,47.2,359.4,47.2L359.4,47.2z M359.4,61.8c-3.8,0-6.8-3-6.8-6.8c0-4,3-7,6.8-7c4,0,7,3,7,7
	C366.5,58.8,363.5,61.8,359.4,61.8L359.4,61.8z"/>
<path class="st4" d="M363.2,59.3l-1.8-4c1-0.3,1.5-1.3,1.5-2.3c0-0.8-0.3-1.5-1-2c-0.5-0.5-1.3-0.5-2-0.5h-3.3v8.8h1v-3.8h2.5
	l1.8,3.8H363.2L363.2,59.3z M357.7,54.5v-3.3h2.3c0.5,0,1.2-0.1,1.5,0.4c0.5,0.3,0.6,0.6,0.6,1.3c0,0.3-0.3,0.8-0.5,1
	c-0.5,0.5-1,0.5-1.5,0.5H357.7L357.7,54.5z"/>
<path class="st4" d="M95,174.3c-2.5,1.3-4.5,1.8-7.3,1.8c-7.3,0-10.8-4.5-10.8-9.1c0-4.8,4-9.3,11.1-9.3c2.8,0,5,0.5,6.8,1.5v4
	c-2-1-4-1.8-6.3-1.8c-4,0-6.8,2.3-6.8,5.5c0,3,2.8,5.3,6.5,5.3c2.5,0,4-0.5,6.8-1.8V174.3L95,174.3z"/>
<path class="st4" d="M121.4,176.1c-6.8,0-10.6-4.5-10.6-9.1c0-4.5,3.8-9.3,10.6-9.3c7,0,10.6,5,10.6,9.3
	C132,171.5,128.2,176.1,121.4,176.1L121.4,176.1z M121.4,161.5c-3.5,0-5.8,2.3-5.8,5.5c0,3.3,2.3,5.3,5.8,5.3c3.5,0,5.8-2,5.8-5.3
	C127.2,163.7,125,161.5,121.4,161.5L121.4,161.5z"/>
<polygon class="st4" points="164,157.9 167.7,157.9 167.7,175.8 163.2,175.8 163.2,164.7 158.2,170.3 157.7,170.3 152.6,164.7 
	152.6,175.8 148.1,175.8 148.1,157.9 151.9,157.9 157.9,164.7 164,157.9 "/>
<polygon class="st4" points="201.7,157.9 205.7,157.9 205.7,175.8 201.2,175.8 201.2,164.7 196.2,170.3 195.4,170.3 190.4,164.7 
	190.4,175.8 185.8,175.8 185.8,157.9 189.9,157.9 195.9,164.7 201.7,157.9 "/>
<path class="st4" d="M240.9,157.9v10.3c0,5.8-4.3,7.8-9.3,7.8c-5.3,0-9.1-2.3-9.1-7.8v-10.3h4.5v10.3c0,2.5,2,4,4.5,4
	c2.5,0,4.8-1,4.8-4.3v-10.1H240.9L240.9,157.9z"/>
<polygon class="st4" points="276.4,175.8 272.6,175.8 262.3,164.5 262.3,175.8 257.8,175.8 257.8,157.9 262.1,157.9 271.9,169 
	271.9,157.9 276.4,157.9 276.4,175.8 "/>
<polygon class="st4" points="294,175.8 298.6,175.8 298.6,157.9 294,157.9 294,175.8 "/>
<path class="st4" d="M331.8,174.3c-2.5,1.3-4.5,1.8-7.3,1.8c-7,0-10.8-4.5-10.8-9.1c0-4.8,4-9.3,11.1-9.3c2.8,0,5,0.5,6.8,1.5v4
	c-2-1-4-1.8-6.3-1.8c-4,0-6.8,2.3-6.8,5.5c0,3,2.8,5.3,6.5,5.3c2.5,0,4-0.5,6.8-1.8V174.3L331.8,174.3z"/>
<path class="st4" d="M364.7,175.8h-4.8l-1.5-3.5h-8.3l-1.5,3.5h-4.8l7.3-17.9h5.5L364.7,175.8L364.7,175.8z M353.9,162.2l-2.5,7h5.5
	L353.9,162.2L353.9,162.2z"/>
<polygon class="st4" points="391.7,161.2 385.1,161.2 385.1,175.8 380.3,175.8 380.3,161.2 373.8,161.2 373.8,157.9 391.7,157.9 
	391.7,161.2 "/>
<polygon class="st4" points="405.7,175.8 410.3,175.8 410.3,157.9 405.7,157.9 405.7,175.8 "/>
<path class="st4" d="M434.9,176.1c-6.8,0-10.6-4.5-10.6-9.1c0-4.5,3.5-9.3,10.6-9.3c6.8,0,10.6,5,10.6,9.3
	C445.5,171.5,441.5,176.1,434.9,176.1L434.9,176.1z M434.9,161.5c-3.5,0-5.8,2.3-5.8,5.5c0,3.3,2.3,5.3,5.8,5.3c3.5,0,5.8-2,5.8-5.3
	C440.7,163.7,438.4,161.5,434.9,161.5L434.9,161.5z"/>
<polygon class="st4" points="477.7,175.8 473.9,175.8 463.6,164.5 463.6,175.8 459.1,175.8 459.1,157.9 463.4,157.9 473.2,169 
	473.2,157.9 477.7,157.9 477.7,175.8 "/>
<path class="st4" d="M504.6,162.7c-2.8-1.3-4.3-1.8-6-1.8c-1.5,0-2.5,0.8-2.5,1.5c0,2.8,9.3,2,9.3,8.3c0,3.3-3,5.3-7,5.3
	c-3.3,0-4.8-0.8-6.8-1.8v-3.8c2.8,1.8,4.3,2.3,6.3,2.3c1.8,0,2.8-0.5,2.8-1.5c0-3-9.3-2-9.3-8.3c0-3.3,2.8-5.3,7-5.3
	c2,0,3.8,0.5,6.3,1.5V162.7L504.6,162.7z"/>
</svg>
