<svg xmlns="http://www.w3.org/2000/svg" xmlns:xlink="http://www.w3.org/1999/xlink" width="910" height="821" viewBox="0 0 910 821"><defs><style>.a{fill:#fff;}.b{clip-path:url(#a);}.c{fill:#cececa;}</style><clipPath id="a"><rect class="a" width="910" height="821" transform="translate(1010 83)"/></clipPath></defs><g class="b" transform="translate(-1010 -83)"><g transform="translate(521.464 942.011)"><path class="c" d="M847.076-765.507l-13.13-5.529a.391.391,0,0,0-.177-.042.38.38,0,0,0-.358.251.365.365,0,0,0,.086.393l16.137,15.957a3.8,3.8,0,0,0,2.515.937,3.863,3.863,0,0,0,3.151-1.632l18.573-27.775c.049-.085.694-1.189.157-1.805a.513.513,0,0,0-.414-.221,1.457,1.457,0,0,0-.736.279l-18.2,18.028A6.526,6.526,0,0,1,847.076-765.507Z" transform="translate(119.95 18.048)"/><path class="c" d="M833.723-444.692a.361.361,0,0,0-.313.25.366.366,0,0,0,.086.393l16.137,15.956a3.8,3.8,0,0,0,2.515.937,3.853,3.853,0,0,0,3.15-1.632l18.58-27.785s.707-1.158.151-1.8a.516.516,0,0,0-.415-.221,1.463,1.463,0,0,0-.733.279l-18.2,18.03a6.524,6.524,0,0,1-7.606,1.158l-13.13-5.527a.375.375,0,0,0-.177-.044" transform="translate(119.95 137.336)"/><path class="c" d="M819.036-64.263m-4.456,0M1256.7-312.752l-128.272-74.058v-95.256a31.72,31.72,0,0,0,6.639-1.2,31.735,31.735,0,0,0,21.487-39.345,31.95,31.95,0,0,0-2.163-5.41l126.5-73.038,150.456,86.726-152.683,88.041v102.034a38.4,38.4,0,0,0-8.43,2.22,32.211,32.211,0,0,0-13.3,9.423Zm-314.165-2.757-123.5-71.3V-481.4a31.525,31.525,0,0,0,12.034-2.649,31.506,31.506,0,0,0,13.7-11.551l.061.035L969.275-423.72V-331.5c-.709.056-1.427.123-2.164.214-.231.029-.456.07-.684.1l-.071.011a31.671,31.671,0,0,0-23.1,16.083ZM664.342-706.2a32.186,32.186,0,0,0,8.375-1.659,32.2,32.2,0,0,0,18.157-15.587l.866.5,122.842,70.923v107.166a31.1,31.1,0,0,0-3.392.74,30.576,30.576,0,0,0-3.177.874,31.016,31.016,0,0,0-15.235,11.318l-.59.819-.873-.505L664.342-604.917ZM791.105-496.907a31.75,31.75,0,0,0,23.475,15.277v94.819l-.557.322-149.682,86.42V-423.72l.557-.321ZM997.385-314.5h0a2,2,0,0,0-.339.12,1.951,1.951,0,0,0-.923,2.6,27.786,27.786,0,0,1,2.478,8.519,27.829,27.829,0,0,1-24.154,31.014A27.827,27.827,0,0,1,943.439-296.4a27.827,27.827,0,0,1,24.153-31.013c8.548-1.062,14.56.534,20.107,5.34a1.952,1.952,0,0,0,2.753-.2,1.952,1.952,0,0,0-.2-2.754,25.7,25.7,0,0,0-16.524-6.571v-94.7l-126.771-73.19a31.635,31.635,0,0,0,.433-26.324,31.685,31.685,0,0,0-5.48-8.506,1.951,1.951,0,0,0-2.757-.145,1.952,1.952,0,0,0-.143,2.757,27.755,27.755,0,0,1,4.8,7.46,27.8,27.8,0,0,1-2.62,26.968c-.057.082-.112.167-.171.249q-.32.453-.658.893a28.1,28.1,0,0,1-13.076,9.284,28.231,28.231,0,0,1-9.145,1.525q-1.126,0-2.238-.089l-.169-.019c-.43-.036-.855-.1-1.281-.152a27.8,27.8,0,0,1-21.565-16.36A27.826,27.826,0,0,1,807.2-538.552c7.89-3.455,14.108-3.638,20.794-.612a1.954,1.954,0,0,0,2.583-.974,1.953,1.953,0,0,0-.974-2.583,26.157,26.157,0,0,0-10.572-2.465V-652.023l.557-.321,127.5-73.611.6.681q.506.571,1.035,1.114a31.759,31.759,0,0,0,20.548,9.684v112.12l2.788,1.618,125.854,72.663a31.575,31.575,0,0,0-2.2,23.322,31.751,31.751,0,0,0,28.252,22.7v95.245l-.557.322ZM975.7-714.661A31.581,31.581,0,0,0,996-725.906l.179.1,127.789,73.778V-545.5a39.718,39.718,0,0,0-6.766,1.4,31.537,31.537,0,0,0-16.991,12.2l-.433-.249L973.731-604.917V-714.472C974.385-714.517,975.04-714.575,975.7-714.661Zm277.114-9.176a32.217,32.217,0,0,0,25.851,17.415v101.5l-.557.321-126,72.748a1.945,1.945,0,0,0-2.626-.388,1.951,1.951,0,0,0-.493,2.716,27.769,27.769,0,0,1,3.818,8.009,27.827,27.827,0,0,1-18.84,34.5,27.827,27.827,0,0,1-34.5-18.84,27.827,27.827,0,0,1,18.841-34.5c8.264-2.426,14.455-1.819,20.7,2.03a1.954,1.954,0,0,0,2.687-.638,1.952,1.952,0,0,0-.639-2.686,25.671,25.671,0,0,0-12.631-4.021V-652.023l.557-.321Zm52.709,410.859a1.983,1.983,0,0,0-1.625.4,1.976,1.976,0,0,0-.295,2.786,28.034,28.034,0,0,1,4.483,7.8,27.971,27.971,0,0,1,.023,19.748,28.755,28.755,0,0,1-1.329,2.913,28.143,28.143,0,0,1-16.675,13.858,28.278,28.278,0,0,1-8.364,1.27,28.214,28.214,0,0,1-27.084-19.959,28.161,28.161,0,0,1-1.065-11.68,28.353,28.353,0,0,1,18.042-22.494c8.207-3.1,14.538-2.975,21.172.427a2,2,0,0,0,2.679-.857,1.971,1.971,0,0,0-.851-2.665,26.412,26.412,0,0,0-11.514-3.078V-423.72l.556-.322L1433.6-510.479v123.668Zm-22.4-291.939v-101.42a32.319,32.319,0,0,0,9.851-2.052,32.235,32.235,0,0,0,17.015-14.895L1433.6-652.025v133.846ZM1126.2-829.148l.557.321,127.415,73.563a32.057,32.057,0,0,0-3.121,27.23L1126.2-655.949l-.557-.322-127-73.327a31.539,31.539,0,0,0,4.386-20.6,31.792,31.792,0,0,0-1.7-6.852ZM658.216-301.033,509.648-386.811V-652.023l.556-.321L633.444-723.5l.554.972a32.441,32.441,0,0,0,16.622,14.19c.105.041.209.082.315.122q.414.154.831.295.654.225,1.315.423c.042.012.083.026.126.037a32.255,32.255,0,0,0,6.679,1.233V-602.4l2.8,1.671,127.285,73.488-.407.916c-.02.045-.037.091-.057.136a31.625,31.625,0,0,0-.4,25.293l-.467.269-128.75,74.334v126.224ZM814.581-208.1V-72.005L691.888-142.843a31.609,31.609,0,0,0-.033-25.3,31.655,31.655,0,0,0-5.478-8.507,1.952,1.952,0,0,0-2.757-.143,1.952,1.952,0,0,0-.145,2.757,27.726,27.726,0,0,1,4.8,7.46,27.826,27.826,0,0,1-14.312,36.61,27.827,27.827,0,0,1-36.611-14.312,27.827,27.827,0,0,1,14.312-36.61c7.89-3.456,14.108-3.639,20.794-.613a1.951,1.951,0,0,0,2.583-.974,1.949,1.949,0,0,0-.974-2.582,26.406,26.406,0,0,0-9.729-2.44V-294.839l.557-.322,151.91-87.706.556.321L941.354-310.96a31.478,31.478,0,0,0-1.789,15.044,31.5,31.5,0,0,0,4.641,12.979l-.337.194Zm154.139,49.674L819.036-72.005V-205.528l.557-.321,127.271-73.478a31.758,31.758,0,0,0,22.41,11.144v109.437Zm309.389,0L1154.447-88.073l.007,0a1.94,1.94,0,0,0-.542.229,1.944,1.944,0,0,0-.6,2.693,27.44,27.44,0,0,1,3.524,8.123,27.894,27.894,0,0,1-20.313,33.764,27.9,27.9,0,0,1-33.957-19.992,27.9,27.9,0,0,1,20.314-33.766c8.409-2.134,14.612-1.314,20.743,2.745a1.98,1.98,0,0,0,2.727-.543,1.934,1.934,0,0,0-.535-2.7,25.966,25.966,0,0,0-17.387-4.409V-208.1L998.08-283.355a31.533,31.533,0,0,0,4.4-20.384,31.729,31.729,0,0,0-1.875-7.486L1126.2-382.867l.557.321,127.5,73.615a32.054,32.054,0,0,0-2.858,28.379,32.167,32.167,0,0,0,27.266,20.608v101.2Zm121.079-72.1-87.328-50.418a31.9,31.9,0,0,0-.053-22.45,32.008,32.008,0,0,0-3.146-6.161l.475-.274,128.919-74.438V-654.722l-126.2-72.694a31.907,31.907,0,0,0-.05-22.458,31.954,31.954,0,0,0-3.949-7.341L1399.187-808v-5.146l-94.928,53.857h0a1.953,1.953,0,0,0-.359.231,1.976,1.976,0,0,0-.295,2.786,28.046,28.046,0,0,1,4.483,7.8,28.123,28.123,0,0,1-3.154,25.873c-.37.534-.743,1.065-1.147,1.569-.073.092-.149.179-.221.269a28.1,28.1,0,0,1-13.458,9.027,28.214,28.214,0,0,1-8.364,1.271,28.214,28.214,0,0,1-27.084-19.959,28.187,28.187,0,0,1-1-12.284,28.347,28.347,0,0,1,17.979-22.11c8.207-3.1,14.538-2.977,21.172.426a2,2,0,0,0,2.679-.856,1.972,1.972,0,0,0-.851-2.667c-7.633-3.915-15.158-4.1-24.4-.606a32.212,32.212,0,0,0-13.425,9.576l-130.63-75.417L998.125-760.977a1.934,1.934,0,0,0-.6.171,1.951,1.951,0,0,0-.908,2.607,27.776,27.776,0,0,1,2.532,8.5,27.827,27.827,0,0,1-23.959,31.164,27.825,27.825,0,0,1-31.163-23.959,27.825,27.825,0,0,1,23.958-31.163,32.6,32.6,0,0,1,8.46-.122,28.146,28.146,0,0,1,9.819,3.885c.627.447,1.247.926,1.86,1.45a1.953,1.953,0,0,0,2.753-.214,1.951,1.951,0,0,0-.214-2.751,25.759,25.759,0,0,0-16.935-6.474l-4.456.154q-.881.082-1.793.2a31.671,31.671,0,0,0-23.795,16.434l-1.859,4.122a31.434,31.434,0,0,0-1.1,3.67c-.016.068-.036.137-.052.2-.021.09-.037.182-.057.272a31.082,31.082,0,0,0-.71,8.807,30.892,30.892,0,0,0,3.98,13.424l.545.961L816.809-655.949l-.557-.322L692.7-727.6a32.473,32.473,0,0,0,.171-21.519,32.662,32.662,0,0,0-3.153-6.651s-1.472-3.217-2.775-3.5a1.9,1.9,0,0,0-1.809.437,2.149,2.149,0,0,0-.3,2.951,28.652,28.652,0,0,1,4.266,8.048,28.506,28.506,0,0,1-17.675,36.181,28.505,28.505,0,0,1-36.1-17.837,28.506,28.506,0,0,1,17.673-36.183c8.332-2.843,14.684-2.485,21.241,1.193a1.99,1.99,0,0,0,2.716-.769,2.012,2.012,0,0,0-.774-2.727,26.423,26.423,0,0,0-11.836-3.542l-4.456.142a38.751,38.751,0,0,0-8.186,1.908,32.1,32.1,0,0,0-14.495,10.051l-2.62,3.684a32.713,32.713,0,0,0-3.295,7.271,31.993,31.993,0,0,0-.212,19.125c.045.153.1.307.147.46l.4,1.215-.781.452L505.192-654.634l.071,270.452,154.623,89.344v107.52a35.611,35.611,0,0,0-9.785,2.852,31.538,31.538,0,0,0-15.224,14.108c-.073.134-.15.262-.221.4a31.054,31.054,0,0,0-2.223,23.819c.171.556.371,1.131.627,1.808l.333.885,2,4.015.575.9c.19.3.4.578.6.867.163.239.324.479.49.714l.083.111a31.748,31.748,0,0,0,38.395,10.455,31.51,31.51,0,0,0,14.29-12.471L816.9-65.116l154.049-89.423,2.784-1.727V-268.251c.4-.036.8-.068,1.2-.119a31.58,31.58,0,0,0,20.553-11.336l.214.123,128.27,74.056v104.267c-.675.139-1.356.292-2.052.468a31.815,31.815,0,0,0-23.167,38.508,31.646,31.646,0,0,0,25.219,23.291l4.454.475a32.055,32.055,0,0,0,9.052-.965,31.813,31.813,0,0,0,23.168-38.507,31.4,31.4,0,0,0-2.963-7.462l.209-.152,123-69.257L1399.187-86.7l1,.339.021-5.185-117.085-67.2V-259.86a32.238,32.238,0,0,0,9.851-2.052,32.232,32.232,0,0,0,17.047-14.952l89.169,51.482" transform="translate(0)"/></g></g></svg>