<svg xmlns="http://www.w3.org/2000/svg" width="683.173" height="582.839" viewBox="0 0 683.173 582.839"><defs><style>.a{fill:#cececa;}</style></defs><g transform="translate(-505.192 834.355)"><path class="a" d="M843.412-770.717l-9.616-4.049a.287.287,0,0,0-.13-.031.278.278,0,0,0-.262.184.267.267,0,0,0,.063.288l11.818,11.686a2.78,2.78,0,0,0,1.842.686,2.829,2.829,0,0,0,2.308-1.2l13.6-20.341c.036-.062.508-.871.115-1.322a.375.375,0,0,0-.3-.162,1.067,1.067,0,0,0-.539.2l-13.328,13.2A4.779,4.779,0,0,1,843.412-770.717Z"/><path class="a" d="M833.633-448.412a.265.265,0,0,0-.229.183.268.268,0,0,0,.063.288l11.818,11.685a2.78,2.78,0,0,0,1.842.686,2.822,2.822,0,0,0,2.307-1.2l13.607-20.348s.518-.848.111-1.315a.378.378,0,0,0-.3-.162,1.071,1.071,0,0,0-.537.2l-13.329,13.2a4.778,4.778,0,0,1-5.57.848l-9.616-4.048a.275.275,0,0,0-.13-.032"/><path class="a" d="M735.033-270.385m-3.263,0,323.78-181.979L961.611-506.6v-69.76a23.228,23.228,0,0,0,4.862-.878,23.241,23.241,0,0,0,15.736-28.814,23.4,23.4,0,0,0-1.584-3.962l92.644-53.489,110.185,63.513-111.816,64.476v74.724a28.126,28.126,0,0,0-6.174,1.626,23.59,23.59,0,0,0-9.739,6.9Zm-230.076-2.019L735.033-506.6v-69.274a23.087,23.087,0,0,0,8.813-1.94,23.073,23.073,0,0,0,10.034-8.459l.045.026,91.134,52.617v67.537c-.519.041-1.045.09-1.585.157-.169.021-.334.051-.5.075l-.052.008a23.194,23.194,0,0,0-16.914,11.778ZM621.744-740.5a23.571,23.571,0,0,0,6.133-1.215,23.578,23.578,0,0,0,13.3-11.415l.634.365,89.962,51.94v78.482a22.766,22.766,0,0,0-2.484.542,22.392,22.392,0,0,0-2.327.64,22.714,22.714,0,0,0-11.157,8.289l-.432.6-.639-.37-92.987-53.685Zm92.834,153.273A23.252,23.252,0,0,0,731.77-576.04v69.44l-.408.236L621.744-443.075V-533.63l.408-.235ZM865.645-453.644h0a1.469,1.469,0,0,0-.248.088,1.429,1.429,0,0,0-.676,1.9,20.351,20.351,0,0,1,1.815,6.239A20.38,20.38,0,0,1,848.85-422.7a20.379,20.379,0,0,1-22.712-17.689A20.379,20.379,0,0,1,843.826-463.1c6.26-.778,10.663.391,14.725,3.911a1.43,1.43,0,0,0,2.016-.144,1.43,1.43,0,0,0-.144-2.017,18.82,18.82,0,0,0-12.1-4.812v-69.353l-92.84-53.6a23.168,23.168,0,0,0,.317-19.278,23.205,23.205,0,0,0-4.013-6.229,1.429,1.429,0,0,0-2.019-.106,1.43,1.43,0,0,0-.105,2.019,20.33,20.33,0,0,1,3.518,5.463,20.361,20.361,0,0,1-1.919,19.75c-.042.06-.082.122-.125.182q-.234.332-.482.654a20.576,20.576,0,0,1-9.576,6.8,20.674,20.674,0,0,1-6.7,1.117q-.825,0-1.639-.065l-.124-.014c-.315-.026-.626-.071-.938-.111a20.358,20.358,0,0,1-15.793-11.981,20.378,20.378,0,0,1,10.481-26.812c5.778-2.53,10.332-2.664,15.228-.448a1.431,1.431,0,0,0,1.892-.713,1.43,1.43,0,0,0-.713-1.892,19.155,19.155,0,0,0-7.742-1.8v-78.242l.408-.235,93.37-53.908.442.5q.371.418.758.816a23.258,23.258,0,0,0,15.048,7.092v82.11l2.042,1.185,92.168,53.214a23.123,23.123,0,0,0-1.61,17.08,23.252,23.252,0,0,0,20.69,16.621V-506.6l-.408.236ZM849.764-746.7a23.128,23.128,0,0,0,14.869-8.235l.131.076,93.585,54.031v78.011a29.087,29.087,0,0,0-4.955,1.028,23.1,23.1,0,0,0-12.443,8.937l-.317-.182-92.312-53.3V-746.56C848.8-746.593,849.281-746.635,849.764-746.7Zm202.942-6.72a23.594,23.594,0,0,0,18.932,12.754v74.336l-.408.235-92.277,53.276a1.424,1.424,0,0,0-1.923-.284,1.429,1.429,0,0,0-.361,1.989,20.336,20.336,0,0,1,2.8,5.865,20.379,20.379,0,0,1-13.8,25.266,20.379,20.379,0,0,1-25.266-13.8,20.379,20.379,0,0,1,13.8-25.266c6.052-1.777,10.586-1.332,15.161,1.487a1.431,1.431,0,0,0,1.968-.467,1.429,1.429,0,0,0-.468-1.967,18.8,18.8,0,0,0-9.25-2.945v-77.89l.408-.235Zm38.6,300.889a1.452,1.452,0,0,0-1.19.294,1.447,1.447,0,0,0-.216,2.04,20.53,20.53,0,0,1,3.283,5.713,20.484,20.484,0,0,1,.017,14.462,21.057,21.057,0,0,1-.973,2.133,20.61,20.61,0,0,1-12.212,10.149,20.708,20.708,0,0,1-6.125.93,20.663,20.663,0,0,1-19.835-14.617,20.624,20.624,0,0,1-.78-8.554,20.764,20.764,0,0,1,13.213-16.473c6.01-2.273,10.647-2.179,15.505.313a1.461,1.461,0,0,0,1.962-.628,1.443,1.443,0,0,0-.623-1.952,19.342,19.342,0,0,0-8.432-2.254V-533.63l.407-.236,109.8-63.3V-506.6Zm-16.406-213.8V-740.6a23.667,23.667,0,0,0,7.214-1.5,23.607,23.607,0,0,0,12.461-10.908l90.527,52.186v98.021ZM959.98-830.542l.408.235,93.311,53.873a23.477,23.477,0,0,0-2.286,19.942L959.98-703.7l-.408-.236-93.01-53.7a23.1,23.1,0,0,0,3.212-15.089,23.28,23.28,0,0,0-1.244-5.018ZM617.258-443.781,508.455-506.6V-700.826l.407-.235,90.254-52.107.406.712A23.757,23.757,0,0,0,611.7-742.064c.077.03.153.06.231.089q.3.112.609.216.479.165.963.31c.031.009.061.019.092.027a23.622,23.622,0,0,0,4.891.9v76.034l2.05,1.224,93.216,53.818-.3.671c-.015.033-.027.067-.042.1a23.16,23.16,0,0,0-.295,18.523l-.342.2-94.289,54.438v92.439ZM731.77-375.722v99.667l-89.853-51.877a23.149,23.149,0,0,0-.024-18.53,23.182,23.182,0,0,0-4.012-6.23,1.43,1.43,0,0,0-2.019-.105,1.43,1.43,0,0,0-.106,2.019,20.306,20.306,0,0,1,3.518,5.463A20.378,20.378,0,0,1,628.793-318.5a20.378,20.378,0,0,1-26.812-10.481A20.379,20.379,0,0,1,612.462-355.8c5.778-2.531,10.332-2.665,15.228-.449a1.429,1.429,0,0,0,1.892-.713,1.428,1.428,0,0,0-.713-1.891,19.338,19.338,0,0,0-7.125-1.787v-78.609l.408-.236L733.4-503.712l.407.235,90.8,52.426a23.053,23.053,0,0,0-1.31,11.017,23.066,23.066,0,0,0,3.4,9.505l-.247.142Zm112.882,36.378L735.033-276.055v-97.784l.408-.235,93.206-53.811a23.257,23.257,0,0,0,16.412,8.161v80.145Zm226.578,0-90.562,51.522,0,0a1.42,1.42,0,0,0-.4.168,1.424,1.424,0,0,0-.442,1.972,20.1,20.1,0,0,1,2.581,5.949A20.428,20.428,0,0,1,967.539-255a20.429,20.429,0,0,1-24.868-14.641,20.43,20.43,0,0,1,14.877-24.728c6.158-1.563,10.7-.962,15.191,2.01a1.45,1.45,0,0,0,2-.4,1.416,1.416,0,0,0-.392-1.979,19.016,19.016,0,0,0-12.733-3.229v-77.754l-95.457-55.113a23.093,23.093,0,0,0,3.222-14.928A23.234,23.234,0,0,0,868-451.245l91.977-52.467.408.235,93.375,53.911a23.475,23.475,0,0,0-2.093,20.783,23.557,23.557,0,0,0,19.968,15.092v74.112Zm88.671-52.8-63.954-36.923a23.362,23.362,0,0,0-.039-16.441,23.438,23.438,0,0,0-2.3-4.512l.348-.2,94.413-54.514V-702.8l-92.42-53.237a23.367,23.367,0,0,0-.037-16.447,23.4,23.4,0,0,0-2.892-5.376l66.885-37.189v-3.769l-69.52,39.442h0a1.431,1.431,0,0,0-.263.169,1.447,1.447,0,0,0-.216,2.04,20.539,20.539,0,0,1,3.283,5.712,20.6,20.6,0,0,1-2.31,18.948c-.271.391-.544.78-.84,1.149-.053.067-.109.131-.162.2a20.576,20.576,0,0,1-9.856,6.611,20.661,20.661,0,0,1-6.125.931,20.663,20.663,0,0,1-19.835-14.617,20.642,20.642,0,0,1-.734-9,20.759,20.759,0,0,1,13.167-16.192c6.01-2.273,10.647-2.18,15.505.312a1.461,1.461,0,0,0,1.962-.627,1.444,1.444,0,0,0-.623-1.953c-5.59-2.867-11.1-3-17.869-.444a23.59,23.59,0,0,0-9.832,7.013l-95.666-55.231-93.779,53.738a1.415,1.415,0,0,0-.437.125,1.429,1.429,0,0,0-.665,1.909,20.34,20.34,0,0,1,1.854,6.227,20.379,20.379,0,0,1-17.546,22.823,20.377,20.377,0,0,1-22.822-17.546A20.377,20.377,0,0,1,844.116-789.9a23.875,23.875,0,0,1,6.2-.089,20.612,20.612,0,0,1,7.191,2.845c.459.327.913.678,1.362,1.062a1.43,1.43,0,0,0,2.016-.157,1.429,1.429,0,0,0-.157-2.015,18.864,18.864,0,0,0-12.4-4.741l-3.263.113q-.645.06-1.313.146A23.194,23.194,0,0,0,826.32-780.7l-1.361,3.019a23.014,23.014,0,0,0-.808,2.688c-.012.05-.026.1-.038.149-.015.066-.027.133-.042.2a22.763,22.763,0,0,0-.52,6.45,22.624,22.624,0,0,0,2.915,9.831l.4.7L733.4-703.7l-.408-.236-90.481-52.24a23.782,23.782,0,0,0,.125-15.759,23.92,23.92,0,0,0-2.309-4.871s-1.078-2.356-2.032-2.56a1.393,1.393,0,0,0-1.325.32,1.574,1.574,0,0,0-.223,2.161,20.983,20.983,0,0,1,3.124,5.894,20.876,20.876,0,0,1-12.944,26.5,20.876,20.876,0,0,1-26.438-13.063,20.876,20.876,0,0,1,12.943-26.5c6.1-2.082,10.754-1.82,15.556.874a1.457,1.457,0,0,0,1.989-.563,1.474,1.474,0,0,0-.567-2,19.35,19.35,0,0,0-8.668-2.594l-3.263.1a28.376,28.376,0,0,0-5.995,1.4,23.5,23.5,0,0,0-10.615,7.361l-1.919,2.7a23.957,23.957,0,0,0-2.413,5.325,23.43,23.43,0,0,0-.155,14.006c.033.112.071.225.108.337l.292.89-.572.331-92.02,53.149.052,198.063,113.237,65.43V-360.5a26.079,26.079,0,0,0-7.166,2.089,23.1,23.1,0,0,0-11.149,10.332c-.053.1-.11.192-.162.29a22.742,22.742,0,0,0-1.628,17.444c.125.407.272.828.459,1.324l.244.648,1.466,2.94.421.656c.139.217.29.423.436.635.119.175.237.351.359.523l.061.081a23.25,23.25,0,0,0,28.118,7.657,23.076,23.076,0,0,0,10.465-9.133l93.062,54.008L846.283-336.5l2.039-1.265v-82.011c.293-.026.587-.05.881-.087a23.128,23.128,0,0,0,15.052-8.3l.157.09,93.937,54.234v76.359c-.494.1-.993.214-1.5.343a23.3,23.3,0,0,0-16.966,28.2,23.176,23.176,0,0,0,18.469,17.057l3.262.348a23.477,23.477,0,0,0,6.629-.707,23.3,23.3,0,0,0,16.967-28.2,23,23,0,0,0-2.17-5.465l.153-.111,90.079-50.72,86.632,49.916.731.248.015-3.8L1074.9-339.579v-74.05a23.608,23.608,0,0,0,7.214-1.5,23.6,23.6,0,0,0,12.484-10.95l65.3,37.7"/></g></svg>