<svg xmlns="http://www.w3.org/2000/svg" width="656.344" height="584.858" viewBox="0 0 656.344 584.858">
  <g id="Grupo_487" data-name="Grupo 487" transform="translate(-1732.215 -1508.625)">
    <path id="Caminho_926" data-name="Caminho 926" d="M2056.885,1507.273c0-.007.7-1.1.08-1.814a.788.788,0,0,0-.613-.3,1.475,1.475,0,0,0-.779.283l-13.41,13.277a4.267,4.267,0,0,1-5.1.782l-9.6-4.036-.02-.008-.018-.01a.688.688,0,0,0-.331-.085.667.667,0,0,0-.081,0,.688.688,0,0,0-.411,1.164l11.852,11.719a3.236,3.236,0,0,0,4.782-.565Z" transform="translate(34.82 52.966)" fill="#eb0020"/>
    <path id="Caminho_927" data-name="Caminho 927" d="M2027.016,1915.5a.688.688,0,0,0-.411,1.165l11.852,11.719a3.237,3.237,0,0,0,4.782-.566l13.646-20.407c0-.006.7-1.1.08-1.814a.787.787,0,0,0-.613-.3,1.477,1.477,0,0,0-.779.282l-13.41,13.277a4.265,4.265,0,0,1-5.1.782l-9.6-4.036-.02-.008-.018-.01a.691.691,0,0,0-.332-.085C2027.07,1915.5,2027.043,1915.5,2027.016,1915.5Z" transform="translate(34.82 -19.98)" fill="#eb0020"/>
    <path id="Caminho_928" data-name="Caminho 928" d="M2174.192,1526.618a23.5,23.5,0,0,0,17.357,11.722l.355.047v74.849l-.2.118-92.95,53.664-.078.045-.09.008a1.476,1.476,0,0,0-1.1,2.277,20.4,20.4,0,1,1-21.152-8.866,20.617,20.617,0,0,1,4.088-.413,20.142,20.142,0,0,1,8.5,1.876,1.483,1.483,0,0,0,1.244-2.693,23.23,23.23,0,0,0-7.371-2.021l-.367-.038v-78.072l.2-.118,91.005-52.542.359-.207Zm-187.2-5.465a23.292,23.292,0,0,0,1.716-18.531l-.1-.316.288-.166,91.283-52.7.2-.118.2.118,93.386,53.917.347.2-.194.351a23.164,23.164,0,0,0-1.877,18.185l.1.312-.272.194-91.487,52.819-.2.119-.2-.119-93.029-53.71-.347-.2ZM1968.85,1613v-79.826l.362-.042a23.28,23.28,0,0,0,14.993-7.969l.221-.256.293.17,93.41,53.93.2.118V1657.2l-.365.038c-.851.09-1.56.195-2.23.33a23.318,23.318,0,0,0-14.019,8.865l-.218.289-.314-.181-92.133-53.192-.2-.118Zm-24.61-111.138.292.169-.111.319a23.323,23.323,0,0,0,1.753,19.057l.2.353-.352.2-92.584,53.453-.2.119-.2-.119-90.21-52.082-.287-.166.1-.315a24.011,24.011,0,0,0,.2-14.406,24.275,24.275,0,0,0-2.223-5.182l-.2-.354-1.138-1.728s-.891-1.32-1.743-1.369c-.105-.006-.105,0-.105,0a1.542,1.542,0,0,0-1.182,2.5,21.093,21.093,0,0,1-16.574,34.118,21.09,21.09,0,0,1,.008-42.18,20.921,20.921,0,0,1,7.064,1.232,1.559,1.559,0,0,0,.524.091,1.55,1.55,0,0,0,.52-3.009,24.249,24.249,0,0,0-5.713-1.288l-.367-.037-4.089.015-.368.038a24.51,24.51,0,0,0-4.488.873,24.082,24.082,0,0,0-11.188,7.143l-.222.25-1.35,1.694-1.072,1.667-.2.354a23.959,23.959,0,0,0-2.243,18.968c.041.138.087.273.132.409l.067.2.1.315-.287.166-90.2,52.08-.2.118-1.993,1.088-.051,2.5v196.692l2.249,1.268,111.119,64.156.2.118v78.891l-.364.041a23.7,23.7,0,0,0-4.366.894,23.389,23.389,0,0,0-15.408,29.226c.128.415.277.844.468,1.351l.123.324a36.821,36.821,0,0,0,1.842,3.677l.211.328a23.592,23.592,0,0,0,19.692,10.774,23.329,23.329,0,0,0,19.576-10.665l.211-.326.337.194,88.593,51.15,2.658,1.535,2.284,1.4,4.463-2.938,108.666-62.738,2.249-1.394v-82.713l.362-.042a23.314,23.314,0,0,0,14.646-7.574l.222-.246.287.165,93.763,54.134.2.118v76.288l-.323.07a23.355,23.355,0,0,0,0,45.669l2.1.409,2.721.121h.08a23.365,23.365,0,0,0,21.332-32.908l-.15-.336.319-.185,89.333-51.576.2-.118.2.118,86.235,49.686v-4.74L2251.759,1973l-55.561-32.078-.2-.119v-74.674l.377-.029a23.285,23.285,0,0,0,18.211-11.276l.207-.345.348.2,65.252,37.673v-4.721l-63.578-36.707-.292-.169.11-.319a23.16,23.16,0,0,0,.249-14.534,23.477,23.477,0,0,0-2.141-4.872l-.207-.355.356-.205,65.5-37.736v-4.784l-68.792,39.634-.072.042-.083.01a1.478,1.478,0,0,0-.978,2.4,20.459,20.459,0,1,1-9.262-6.506,1.483,1.483,0,0,0,.486.082,1.46,1.46,0,0,0,.646-.15,1.484,1.484,0,0,0-.165-2.737,23.372,23.372,0,0,0-5.8-1.2l-.377-.03v-72.754l.2-.118,84.191-48.608v-4.721l-88.484,51.086V1819.6l-.355.047a23.689,23.689,0,0,0-3.9.846,23.263,23.263,0,0,0-10.748,7.037l-.222.256-.292-.169-93.764-54.135-.2-.118v-69.62l.367-.037c.763-.08,1.513-.194,2.229-.339a23.38,23.38,0,0,0,16.521-32.806l-.159-.34.325-.188,92.041-53.14.2-.118.2.118,86.235,49.686v-4.722l-84.191-48.5-.2-.118V1538.5l.377-.029a23.281,23.281,0,0,0,18.259-11.351l.206-.348.35.2,65.2,37.566v-4.771l-63.533-36.6-.292-.168.109-.318a23.164,23.164,0,0,0,.206-14.405,23.519,23.519,0,0,0-2.148-4.886l-.208-.356.357-.205,65.509-37.74v-4.721l-68.763,39.585-.075.043-.087.009a1.48,1.48,0,0,0-1,2.4,20.461,20.461,0,1,1-9.262-6.507,1.483,1.483,0,0,0,.968-2.8,23.331,23.331,0,0,0-25.268,6.812l-.221.256-.293-.169-93.761-54.132-2.219-1.233-93.9,54.128h0l-.189.116-.8.375a1.214,1.214,0,0,0-.725.724,1.948,1.948,0,0,0,.186,1.294,20.408,20.408,0,0,1-17.207,29.02c-.424.026-.852.039-1.276.039a20.395,20.395,0,0,1-1.249-40.75c.429-.026.863-.04,1.291-.04a20.288,20.288,0,0,1,10.975,3.222,1.483,1.483,0,1,0,1.6-2.5,23.028,23.028,0,0,0-9.911-3.529l-2.556-.167-2.267.108a23.456,23.456,0,0,0-17.907,11.263l-.208.345-.348-.2M1741.706,1613V1539.44l.368-.037a24.1,24.1,0,0,0,18.572-12.079l.2-.357.357.205,89.778,51.833.2.118v78.186l-.349.051a23.665,23.665,0,0,0-4.2,1,23.18,23.18,0,0,0-11.385,8.457l-.216.3-.321-.186-92.81-53.583-.2-.118Zm-4.7,223.221-108.666-62.739-.2-.118V1579.123l.2-.118,89.767-51.827.356-.2.2.357a24.263,24.263,0,0,0,18.586,12.072l.368.038v76.11l2.254,1.346,92.817,53.587.319.184-.15.336a23.274,23.274,0,0,0-.764,17.022c.129.379.273.766.428,1.151l.132.33-.307.177-94.729,54.692v92.2Zm97.224-142.9.332-.191.213.318a23.447,23.447,0,0,0,16.067,10.134l.349.051v69.732l-.2.118-108.665,62.739-.613.354v-89.837l.2-.118Zm16.961,211.249v99.443l-.614-.354-88.812-51.276-.3-.175.126-.326a23.345,23.345,0,0,0-3.575-23.016,1.484,1.484,0,1,0-2.312,1.86,20.459,20.459,0,1,1-9.263-6.507,1.491,1.491,0,0,0,.487.083,1.484,1.484,0,0,0,.482-2.886,23.4,23.4,0,0,0-5.331-1.168l-.368-.037v-78.85l.2-.118,111.118-64.156.2-.118.2.118,90.678,52.354.287.166-.1.315a23.272,23.272,0,0,0,2.158,19.165l.214.356-.36.208Zm4.088-131.2v-69.556l.384-.024a23.277,23.277,0,0,0,17.406-9.563l.217-.3.319.184,90.954,52.513.2.118v67.1l-.372.034a23.416,23.416,0,0,0-18.091,11.575l-.2.353-.354-.2-90.257-52.11Zm109.484,87.436v80l-.2.119-108.666,62.738-.613.354v-97.083l.2-.118,93.383-53.913.282-.164.222.24a23.335,23.335,0,0,0,15.021,7.42l.372.034Zm3.018-3.318c-.424.026-.852.039-1.276.039a20.4,20.4,0,0,1-1.249-40.75c.429-.026.864-.04,1.292-.04a20.283,20.283,0,0,1,10.975,3.222,1.481,1.481,0,0,0,.8.236,1.522,1.522,0,0,0,.319-.034,1.484,1.484,0,0,0,.486-2.7,23.043,23.043,0,0,0-9.911-3.528l-.362-.042v-69.509l-93.194-53.8-.32-.185.152-.338a23.343,23.343,0,0,0-3.51-24.742,1.483,1.483,0,1,0-2.257,1.926,20.473,20.473,0,1,1-9.449-6.234,1.488,1.488,0,0,0,.447.069,1.487,1.487,0,0,0,1.412-1.041,1.482,1.482,0,0,0-.972-1.859,23.411,23.411,0,0,0-5.5-1.021l-.384-.024v-78l.2-.118,93.025-53.708.29-.167.222.25a23.282,23.282,0,0,0,15.371,7.812l.372.034v82.36l2.249,1.306,92.053,53.148.326.187-.16.34a23.348,23.348,0,0,0,18.738,33.14l.366.038v69.617l-.2.118-91.492,52.824-.105.061-.122-.007-.1,0a1.434,1.434,0,0,0-.614.132,1.483,1.483,0,0,0-.712,1.973,20.408,20.408,0,0,1-17.207,29.02Zm224.126,8.893V1940.8l-.2.119-89.731,51.806-.148.086-.164-.046a1.573,1.573,0,0,0-.408-.055,1.448,1.448,0,0,0-.792.234,1.484,1.484,0,0,0-.435,2.053,20.414,20.414,0,0,1-13.05,31.111,20.386,20.386,0,0,1-24.039-15.938,20.417,20.417,0,0,1,15.938-24.039,20.676,20.676,0,0,1,4.088-.412,20.139,20.139,0,0,1,8.5,1.876,1.484,1.484,0,0,0,1.245-2.693,23.065,23.065,0,0,0-9.739-2.134h-.13l-.412,0v-78.2l-95.554-55.169-.356-.205.207-.355a23.351,23.351,0,0,0,2.11-18.649l-.1-.313.283-.163,91.158-52.631.2-.118.2.118L2173.959,1831l.347.2-.193.351a23.167,23.167,0,0,0-1.868,18.17,23.453,23.453,0,0,0,19.305,16.251l.355.047Z" transform="translate(108.17 64)" fill="#eb0020"/>
  </g>
</svg>
