<svg xmlns="http://www.w3.org/2000/svg" xmlns:xlink="http://www.w3.org/1999/xlink" width="655" height="583" viewBox="0 0 655 583"><defs><style>.a{fill:#fff;}.b{clip-path:url(#a);}.c{fill:#d8d8d7;}</style><clipPath id="a"><rect class="a" width="655" height="583" transform="translate(711 122)"/></clipPath></defs><g class="b" transform="translate(-711 -122)"><g transform="translate(737.371 121.006)"><path class="c" d="M336.3,65.361l-9.616-4.048a.283.283,0,0,0-.129-.032.277.277,0,0,0-.262.185.266.266,0,0,0,.062.288l11.818,11.685a2.78,2.78,0,0,0,1.842.686,2.83,2.83,0,0,0,2.308-1.194l13.6-20.342c.037-.062.508-.87.115-1.322a.375.375,0,0,0-.3-.162,1.067,1.067,0,0,0-.539.205l-13.328,13.2A4.779,4.779,0,0,1,336.3,65.361Z"/><path class="c" d="M326.718,387.284a.278.278,0,0,0-.166.47L338.37,399.44a2.778,2.778,0,0,0,1.842.686,2.826,2.826,0,0,0,2.307-1.2l13.606-20.348s.518-.848.112-1.315a.377.377,0,0,0-.3-.163,1.068,1.068,0,0,0-.537.2l-13.33,13.2a4.777,4.777,0,0,1-5.569.848l-9.616-4.049a.3.3,0,0,0-.131-.031"/><path class="c" d="M548.06,382.757l-93.938-54.236v-69.76a23.166,23.166,0,0,0,19.013-33.654l92.644-53.489,110.185,63.513L564.148,299.607v74.724a28.123,28.123,0,0,0-6.174,1.626,23.6,23.6,0,0,0-9.739,6.9Zm-230.076-2.019-90.441-52.217V259.247a23.143,23.143,0,0,0,18.848-10.4l.044.026,91.135,52.617v67.537c-.52.041-1.046.09-1.586.157-.169.021-.333.051-.5.075l-.053.008a23.194,23.194,0,0,0-16.914,11.778ZM114.254,94.62a23.575,23.575,0,0,0,19.43-12.63l.634.365,89.962,51.94v78.482a22.83,22.83,0,0,0-2.484.542,22.218,22.218,0,0,0-2.327.641,22.706,22.706,0,0,0-11.157,8.288l-.432.6-.638-.37-92.988-53.685Zm92.834,153.274a23.251,23.251,0,0,0,17.192,11.187v69.44l-.407.236L114.254,392.046V301.491l.408-.235ZM358.155,381.477h0a1.416,1.416,0,0,0-.925,1.994,20.359,20.359,0,1,1-20.9-11.45c6.259-.778,10.662.391,14.724,3.911a1.43,1.43,0,0,0,1.872-2.161,18.82,18.82,0,0,0-12.1-4.812V299.607l-92.84-53.6a23.205,23.205,0,0,0-3.7-25.507,1.429,1.429,0,1,0-2.124,1.913,20.368,20.368,0,0,1,1.6,25.213c-.042.06-.082.122-.125.182q-.234.332-.482.654a20.71,20.71,0,0,1-16.272,7.916q-.826,0-1.639-.065l-.125-.014c-.315-.026-.626-.071-.937-.111a20.35,20.35,0,0,1-5.313-38.793c5.778-2.53,10.332-2.664,15.228-.448a1.43,1.43,0,0,0,1.179-2.605,19.171,19.171,0,0,0-7.742-1.8V134.295l.408-.235,93.371-53.908.441.5q.371.418.758.816a23.259,23.259,0,0,0,15.049,7.092v82.11l2.041,1.185,92.168,53.214a23.192,23.192,0,0,0,19.08,33.7v69.752l-.408.236ZM342.274,88.423a23.126,23.126,0,0,0,14.869-8.235l.131.076,93.585,54.031v78.011a29.085,29.085,0,0,0-4.955,1.028,23.1,23.1,0,0,0-12.443,8.938l-.317-.183-92.312-53.3V88.561C341.311,88.529,341.791,88.486,342.274,88.423ZM545.216,81.7a23.6,23.6,0,0,0,18.932,12.754v74.336l-.408.235L471.463,222.3a1.426,1.426,0,0,0-2.284,1.705,20.36,20.36,0,1,1-22.469-7.932c6.052-1.777,10.586-1.332,15.162,1.487a1.43,1.43,0,0,0,1.5-2.434,18.8,18.8,0,0,0-9.25-2.945v-77.89l.407-.235Zm38.6,300.889a1.449,1.449,0,0,0-1.407,2.334,20.557,20.557,0,0,1,3.3,20.175,21.016,21.016,0,0,1-.973,2.133A20.661,20.661,0,1,1,559,378.669c6.01-2.273,10.647-2.179,15.506.313a1.461,1.461,0,0,0,1.961-.628,1.443,1.443,0,0,0-.623-1.952,19.339,19.339,0,0,0-8.432-2.254V301.491l.408-.236,109.794-63.3v90.567Zm-16.407-213.8V94.519a23.669,23.669,0,0,0,19.675-12.411l90.527,52.186v98.021ZM452.49,4.579l.408.235,93.311,53.873a23.477,23.477,0,0,0-2.286,19.942L452.49,131.42l-.408-.236-93.01-53.7a23.089,23.089,0,0,0,1.968-20.106ZM109.768,391.34.965,328.521V134.295l.408-.235L91.626,81.953l.407.712a23.755,23.755,0,0,0,12.172,10.392l.231.09q.3.111.609.215.479.165.964.31c.03.009.06.019.091.027a23.634,23.634,0,0,0,4.891.9v76.034l2.05,1.224,93.216,53.818-.3.671c-.015.033-.027.067-.042.1a23.164,23.164,0,0,0-.3,18.523l-.342.2-94.289,54.437v92.439ZM224.28,459.4v99.667l-89.853-51.877a23.214,23.214,0,0,0-4.036-24.76,1.43,1.43,0,0,0-2.125,1.914,20.359,20.359,0,1,1-23.294-5.018c5.778-2.531,10.333-2.665,15.229-.449a1.429,1.429,0,0,0,1.179-2.6,19.363,19.363,0,0,0-7.126-1.787V395.876l.408-.236,111.25-64.231.408.235,90.8,52.426a23.149,23.149,0,0,0,2.089,20.522l-.247.142Zm112.882,36.378L227.543,559.066V461.282l.408-.235,93.206-53.811A23.257,23.257,0,0,0,337.57,415.4v80.145Zm226.578,0L473.178,547.3l.005,0a1.449,1.449,0,0,0-.4.168,1.423,1.423,0,0,0-.441,1.972,20.123,20.123,0,0,1,2.581,5.949,20.5,20.5,0,1,1-24.868-14.642c6.158-1.562,10.7-.962,15.192,2.01a1.45,1.45,0,0,0,2-.4,1.416,1.416,0,0,0-.393-1.978,19.01,19.01,0,0,0-12.732-3.23V459.4l-95.458-55.112a23.177,23.177,0,0,0,1.849-20.411l91.977-52.467.408.235,93.375,53.911a23.463,23.463,0,0,0,17.875,35.875v74.112Zm88.671-52.8L588.457,406.05a23.285,23.285,0,0,0-2.342-20.953l.348-.2,94.413-54.515V132.319L588.455,79.082a23.328,23.328,0,0,0-2.929-21.823L652.411,20.07V16.3l-69.52,39.442h0a1.406,1.406,0,0,0-.264.169,1.448,1.448,0,0,0-.216,2.04,20.582,20.582,0,0,1,.974,24.66c-.272.391-.545.78-.841,1.149-.053.067-.109.131-.162.2A20.663,20.663,0,1,1,559,51.7c6.01-2.273,10.647-2.18,15.506.312a1.46,1.46,0,0,0,1.961-.627,1.444,1.444,0,0,0-.623-1.953c-5.59-2.867-11.1-3-17.869-.444A23.589,23.589,0,0,0,548.142,56L452.476.766,358.7,54.5a1.415,1.415,0,0,0-1.1,2.034A20.359,20.359,0,1,1,336.627,45.22a23.868,23.868,0,0,1,6.195-.089,20.637,20.637,0,0,1,7.192,2.845c.458.327.912.678,1.361,1.062a1.429,1.429,0,1,0,1.859-2.172,18.86,18.86,0,0,0-12.4-4.741l-3.262.113q-.646.06-1.314.146A23.2,23.2,0,0,0,318.83,54.419l-1.361,3.019a23,23,0,0,0-.808,2.688c-.012.05-.026.1-.038.15s-.027.132-.042.2a22.825,22.825,0,0,0,2.4,16.281l.4.7L225.912,131.42l-.408-.236-90.481-52.24a23.815,23.815,0,0,0-2.183-20.63s-1.079-2.356-2.033-2.56a1.394,1.394,0,0,0-1.325.32,1.574,1.574,0,0,0-.223,2.161,20.8,20.8,0,1,1-23.315-7.17c6.1-2.082,10.754-1.82,15.557.874a1.456,1.456,0,0,0,1.988-.563,1.474,1.474,0,0,0-.567-2,19.358,19.358,0,0,0-8.668-2.594l-3.263.1a28.354,28.354,0,0,0-5.994,1.4,23.5,23.5,0,0,0-10.616,7.361l-1.919,2.7a23.956,23.956,0,0,0-2.413,5.325,23.43,23.43,0,0,0-.155,14.006c.033.112.071.225.108.337l.292.89-.571.331L-2.3,132.383l.052,198.063,113.237,65.43v78.741a26.079,26.079,0,0,0-7.166,2.089,23.1,23.1,0,0,0-11.149,10.332c-.053.1-.11.192-.161.29a22.742,22.742,0,0,0-1.629,17.444c.125.407.272.828.459,1.324l.244.648,1.466,2.94.421.656c.139.217.29.423.436.635.119.175.237.351.36.523l.06.081a23.193,23.193,0,0,0,38.583-1.476l93.062,54.008,112.816-65.488,2.039-1.265V415.347c.294-.025.587-.05.881-.087a23.124,23.124,0,0,0,15.052-8.3l.157.09,93.937,54.234v76.359c-.494.1-.993.214-1.5.343a23.121,23.121,0,0,0,1.5,45.258l3.263.348a23.4,23.4,0,0,0,23.6-28.907,22.957,22.957,0,0,0-2.17-5.465l.154-.111,90.078-50.72L652.411,548.3l.731.248.015-3.8-85.746-49.212v-74.05a23.67,23.67,0,0,0,19.7-12.453l65.3,37.7"/></g></g></svg>