<?xml version="1.0" encoding="utf-8"?>
<!-- Generator: Adobe Illustrator 25.3.1, SVG Export Plug-In . SVG Version: 6.00 Build 0)  -->
<svg version="1.1" id="Camada_1" xmlns="http://www.w3.org/2000/svg" xmlns:xlink="http://www.w3.org/1999/xlink" x="0px" y="0px"
	 viewBox="0 0 841.89 595.28" style="enable-background:new 0 0 841.89 595.28;" xml:space="preserve">
<style type="text/css">
	.st0{fill:#373C42;}
</style>
<g>
	<path class="st0" d="M708.04,344.08c15.04,7.21,30.26,11.42,46.61,10.51c4.4-0.24,8.65-1.16,12.62-3.1
		c11.74-5.73,13.47-20.04,3.42-28.38c-6.55-5.43-14.45-8.25-22.28-11.13c-9.51-3.5-18.55-7.82-26.78-13.83
		c-28.48-20.78-23.44-61.41,3.73-78.09c14.53-8.92,30.48-11.15,47.06-10.47c11.78,0.48,23.21,2.77,34.22,7.16
		c2.43,0.97,2.84,1.9,1.6,4.29c-4.07,7.85-7.96,15.79-11.77,23.78c-0.9,1.89-1.67,2.14-3.65,1.46c-11.07-3.82-22.41-5.84-34.17-4.15
		c-3.87,0.56-7.54,1.73-10.76,3.98c-8.38,5.85-8.9,16.75-1.05,23.32c5.83,4.87,12.85,7.55,19.79,10.33
		c8.78,3.51,17.61,6.88,25.71,11.91c17,10.56,25.53,25.7,23.96,45.76c-1.61,20.6-12.76,34.7-31.54,42.74
		c-17.01,7.29-34.85,7.89-52.9,5.54c-9.91-1.29-19.54-3.71-28.73-7.8c-2.2-0.98-2.87-1.91-2.19-4.48
		C703.47,363.78,705.66,354.06,708.04,344.08z"/>
	<path class="st0" d="M475.24,209.8c15.12,0.12,31.77,6.2,46.56,17.64c1.6,1.24,2.27,2.2,1.09,4.25
		c-4.29,7.45-8.44,14.99-12.5,22.57c-1.21,2.25-1.98,2.62-4.35,1.02c-31.73-21.48-76.8-5.09-82.58,36.09
		c-5.6,39.89,34.78,71.38,72.2,55.44c3.79-1.62,7.51-3.39,10.82-5.86c1.62-1.21,2.46-0.99,3.39,0.71
		c4.29,7.88,8.55,15.78,13.02,23.56c1.3,2.26-0.28,2.85-1.46,3.79c-28.47,22.53-68.41,23.28-97.75,1.84
		c-52.27-38.19-47.09-120.37,9.54-151.44C444.63,213.15,458.26,209.73,475.24,209.8z"/>
	<path class="st0" d="M588.02,314.47c0-22.61-0.06-45.21,0.07-67.82c0.02-2.92-0.71-3.74-3.68-3.71
		c-15.35,0.16-30.7-0.01-46.06,0.14c-2.98,0.03-4.24-0.54-3.99-3.82c0.37-4.84-0.04-9.76,0.45-14.58c0.8-7.9,7.59-14.15,15.5-14.76
		c1.49-0.12,2.99-0.14,4.49-0.14c39.82-0.01,79.63,0.03,119.45-0.08c3.21-0.01,4.27,0.64,4.16,4.05
		c-0.27,8.61-0.22,17.24-0.02,25.85c0.07,2.9-0.86,3.49-3.59,3.47c-15.98-0.13-31.95,0.03-47.93-0.14
		c-3.21-0.04-3.84,0.95-3.83,3.97c0.1,40.22,0.07,80.43,0.07,120.65c0,11.95-7.12,19.18-18.97,19.26c-4.24,0.03-8.5-0.19-12.73,0.07
		c-2.84,0.18-3.48-0.69-3.47-3.48C588.08,360.43,588.02,337.45,588.02,314.47z"/>
	<path class="st0" d="M370.14,298.32c0,28.34-0.05,56.68,0.07,85.02c0.01,2.95-0.76,3.74-3.69,3.68
		c-9.35-0.19-18.71-0.16-28.07-0.01c-2.5,0.04-3.07-0.75-3.07-3.14c0.06-52.31,0.03-104.62,0.07-156.93
		c0.01-9.33,7.07-16.61,16.39-17.01c4.98-0.22,9.99,0.09,14.96-0.21c2.99-0.19,3.4,0.96,3.39,3.6
		C370.11,241.65,370.14,269.99,370.14,298.32z"/>
	<g>
		<path class="st0" d="M239.66,194.43l-30.83,51.25c13.33,13.28,21.58,31.65,21.58,51.95c0,40.5-32.83,73.33-73.33,73.33
			c-7.54,0-14.81-1.14-21.66-3.26l-30.84,51.26c16.09,6.97,33.84,10.85,52.5,10.85c73,0,132.18-59.18,132.18-132.18
			C289.27,255.88,269.9,218.66,239.66,194.43z"/>
		<path class="st0" d="M106.4,350.59c-13.94-13.35-22.63-32.13-22.63-52.95c0-40.5,32.83-73.33,73.33-73.33
			c8.05,0,15.79,1.32,23.04,3.71l30.77-51.15c-16.44-7.34-34.65-11.42-53.81-11.42c-73,0-132.18,59.18-132.18,132.18
			c0,42.27,19.84,79.9,50.72,104.1L106.4,350.59z"/>
	</g>
</g>
</svg>
