<svg xmlns="http://www.w3.org/2000/svg" xmlns:xlink="http://www.w3.org/1999/xlink" width="434.673" height="332.834" viewBox="0 0 434.673 332.834">
  <defs>
    <clipPath id="clip-path">
      <path id="Caminho_787" data-name="Caminho 787" d="M437.443,710.759c2.187,4.135,4.267,20.936,5.739,26.92s-2.35,3.475-4.314,5.224c-1.181,1.051-1.975,2.172-2.9,7.217-.567,3.1-3.583,3.732-5.279,6.657-1.351,2.33,3.379,4.079-1.971,8.951-3.888,3.541-.725,4.242,1.951,6.462,3.89,3.228,6.347,1.5,6.347,1.5s16.941-19.44,20.621-26.251.765-8.257,0-15.24c-.374-3.42-4.54-15.207-5.9-18.449-4.965-11.846-4.138-9.276-4.138-9.276l-8.007-4Z" transform="translate(-426.904 -700.48)" fill="none"/>
    </clipPath>
  </defs>
  <g id="Grupo_486" data-name="Grupo 486" transform="translate(15.741 -416.166)">
    <g id="ilustracao_Home_01" data-name="ilustracao Home 01" transform="translate(-273.761 205.451)" opacity="0.999">
      <path id="Caminho_774" data-name="Caminho 774" d="M300.182,544.918c-7.716-38.852-34.2-134.344,39.1-164.613s105.653,18.536,147.993-35.6,51.359-82.135,107.936-66.842,127.31,47.244,128.6,117.237S672.27,542.622,672.27,542.622Z" transform="translate(-31.137 -37.617)" fill="#e9f3fe" opacity="0.701"/>
      <g id="Grupo_481" data-name="Grupo 481" transform="translate(259.018 210.715)">
        <rect id="Retângulo_226" data-name="Retângulo 226" width="47.376" height="46.737" transform="translate(312.796 236.842)" fill="#7ba3f3"/>
        <rect id="Retângulo_228" data-name="Retângulo 228" width="192.583" height="11.804" transform="translate(0 283.579)" fill="#7ba3f3"/>
        <path id="Caminho_775" data-name="Caminho 775" d="M931,894.6H817.517l.009-11.8H931Z" transform="translate(-570.83 -599.215)" fill="#367fd3"/>
        <g id="Grupo_469" data-name="Grupo 469" transform="translate(49.23 166.244)">
          <path id="Caminho_776" data-name="Caminho 776" d="M517.326,859.809c-.733.888-.757,1.565,2.1,2.08,2.736.493,2,.995,2.107,1.547l-3.243-.042s-.784,0-2.811-.019c-1.919-.016-1.67-1.759-1.248-3.475.32-1.3,3.817-8.763,3.817-8.763l3.956,1.706S518.779,858.047,517.326,859.809Z" transform="translate(-444.573 -747.16)" fill="#ad5a49"/>
          <rect id="Retângulo_230" data-name="Retângulo 230" width="8.587" height="1.022" transform="translate(77.788 117.323) rotate(-179.735)" fill="#90a3f5"/>
          <path id="Caminho_777" data-name="Caminho 777" d="M463.926,722.61c6.3,2.527,15.695,16.052,20.7,21.211s-5.175,4.114-3.617,9.078c.958,3.052-3.44,2.98-3.966,6.187-.419,2.555,4.387,1.308.4,7.368-2.9,4.4,1.311,4.1,3.763,7.125,2.33,2.869,7.806,2.35,7.806,2.35s8.583-18.913,9.477-26.307-1.373-10.361-6.04-16.652c-2.286-3.081-10.325-5.372-13.728-8.009-12.432-9.633-13.628-16.556-13.628-16.556s-9.754-2.533-10.22.649a26.992,26.992,0,0,0,.619,9.612Z" transform="translate(-410.314 -664.1)" fill="#233775"/>
          <path id="Caminho_778" data-name="Caminho 778" d="M522.119,873.726s.193-.922-1.433-1.377-3.85-1.248-3.85-1.248-.335-.738-.173-1.095c.605-1.325-1.485-1.549-1.536-.216-.031.819-.218,1.009-.218,1.009l-1.4.114.024,2.773Z" transform="translate(-444.326 -757.425)" fill="#262626"/>
          <path id="Caminho_779" data-name="Caminho 779" d="M525.42,876.929a.434.434,0,0,1-.288-.759,4.269,4.269,0,0,1,1.833-.766.435.435,0,0,1,.186.85,3.688,3.688,0,0,0-1.451.574A.438.438,0,0,1,525.42,876.929Z" transform="translate(-450.96 -761.182)" fill="#fff"/>
          <path id="Caminho_780" data-name="Caminho 780" d="M521.185,875.777a.434.434,0,0,1-.288-.759,4.266,4.266,0,0,1,1.834-.765.435.435,0,0,1,.186.85,3.682,3.682,0,0,0-1.451.574A.437.437,0,0,1,521.185,875.777Z" transform="translate(-448.511 -760.516)" fill="#fff"/>
          <path id="Caminho_781" data-name="Caminho 781" d="M517.3,874.193a.434.434,0,0,1-.288-.76,4.28,4.28,0,0,1,1.833-.765.435.435,0,1,1,.186.849,3.692,3.692,0,0,0-1.451.575A.437.437,0,0,1,517.3,874.193Z" transform="translate(-446.264 -759.601)" fill="#fff"/>
          <path id="Caminho_782" data-name="Caminho 782" d="M428.632,861.426c-.733.888-.757,1.565,2.1,2.08,2.736.493,2,.995,2.107,1.548l-3.244-.042s-.784,0-2.811-.02c-1.918-.017-1.67-1.759-1.248-3.475.32-1.3,3.817-8.762,3.817-8.762l3.957,1.705S430.085,859.665,428.632,861.426Z" transform="translate(-393.303 -748.096)" fill="#ad5a49"/>
          <path id="Caminho_783" data-name="Caminho 783" d="M424.906,881.324l8.587-.011,0-1.022-8.587-.04Z" transform="translate(-393.108 -763.99)" fill="#90a3f5"/>
          <path id="Caminho_784" data-name="Caminho 784" d="M433.472,873.726s.193-.922-1.433-1.377-3.85-1.248-3.85-1.248-.335-.738-.173-1.095c.6-1.325-1.486-1.549-1.536-.216-.031.819-.218,1.009-.218,1.009l-1.4.114.024,2.773Z" transform="translate(-393.083 -757.425)" fill="#262626"/>
          <path id="Caminho_785" data-name="Caminho 785" d="M437.443,708.208c2.187,4.135,4.267,20.936,5.739,26.92s-2.35,3.475-4.314,5.224c-1.181,1.051-1.975,2.172-2.9,7.217-.567,3.1-3.583,3.732-5.279,6.656-1.351,2.331,3.379,4.079-1.971,8.951-3.888,3.541-.725,4.242,1.951,6.462,3.89,3.228,6.347,1.5,6.347,1.5s16.941-19.44,20.621-26.251,1.941-8.846,1.177-15.828c-.374-3.419-5.717-14.619-7.076-17.861-4.965-11.846-4.138-9.276-4.138-9.276l-4.007-5.859Z" transform="translate(-394.263 -657.52)" fill="#415996"/>
          <g id="Grupo_468" data-name="Grupo 468" transform="translate(32.64 40.408)">
            <g id="Grupo_467" data-name="Grupo 467" clip-path="url(#clip-path)">
              <path id="Caminho_786" data-name="Caminho 786" d="M425.119,772.395a1.789,1.789,0,0,1-1.146-.445.435.435,0,1,1,.588-.641.85.85,0,0,0,.751.186c.321-.1.926-.587,1.378-2.638.472-2.141,2.138-3.127,3.608-4,1.786-1.057,3.329-1.969,2.878-4.691-.873-5.266.011-7.248,3.938-8.835,2.157-.871,2-2.842,1.831-4.928a10.587,10.587,0,0,1-.007-2.592c.26-1.476,1.973-1.863,3.484-2.2,1.731-.392,2.779-.7,2.737-1.682-.028-.667-.363-3-.825-6.229-1.386-9.678-3.968-27.694-3.363-36.155a.435.435,0,0,1,.868.062c-.6,8.369,1.975,26.324,3.357,35.97.484,3.375.8,5.6.833,6.315.075,1.778-1.779,2.2-3.414,2.567-1.368.309-2.66.6-2.819,1.508a9.972,9.972,0,0,0,.017,2.372c.168,2.091.377,4.694-2.373,5.8-3.314,1.339-4.271,2.667-3.406,7.886.548,3.309-1.493,4.516-3.294,5.581-1.446.855-2.811,1.662-3.2,3.435-.424,1.923-1.068,3-1.971,3.282A1.473,1.473,0,0,1,425.119,772.395Z" transform="translate(-425.128 -698.549)" fill="#fff"/>
            </g>
          </g>
          <path id="Caminho_788" data-name="Caminho 788" d="M509,660.578c-.333,7.513,4.023,33.768,3.519,39.4-.809,9.059-5.875,9.368-7.5,9.837s-1.714-3.276-1.714-3.276l3.47-6.606s-1.857-30.762-1.756-32.464S509,660.578,509,660.578Z" transform="translate(-438.428 -637.006)" fill="#ad5a49"/>
          <path id="Caminho_789" data-name="Caminho 789" d="M475.507,660.185c-6.662,14.89-2.494,25.972,2.543,29.16s-7.5-.46-13.062.7-3.942,4.541-8.1,5.106-5.9-5.37-7.983-12.284c-2.861-9.513,6.951-30.948,9.667-35.02,3.663-5.492,14.021-3.464,17.752,1.113C478.952,652.191,476.573,657.8,475.507,660.185Z" transform="translate(-406.68 -627.736)" fill="#fff"/>
          <path id="Caminho_790" data-name="Caminho 790" d="M362.9,834.479l-13.352-1.951c3.933-26.919,12.691-49.842,25.325-66.29,11.338-14.759,25.5-23.582,38.864-24.208l.63,13.479C394.876,756.421,370.214,784.408,362.9,834.479Z" transform="translate(-349.546 -684.09)" fill="#e5605f"/>
          <path id="Caminho_791" data-name="Caminho 791" d="M489.316,677.545c-2.961,4.436-4.79,13.095-3.789,15.782,0,0-8.143,2-9.057,1.834s-.479-16.208-.479-16.421,2.271-4.607,2.877-4.863S489.316,677.545,489.316,677.545Z" transform="translate(-422.579 -644.687)" fill="#233775"/>
          <path id="Caminho_792" data-name="Caminho 792" d="M479.837,699.866c-6.213,2.628-6.257,1.338-8.695.17s-9.783-15.82-11.176-23.327,4.06-24.772,5.913-27.348c2.478-3.445,8.474-2.685,7,4.344s-6.436,17.689-5.973,21.839,6.931,22.175,7.718,22.714a7.611,7.611,0,0,0,2,.854Z" transform="translate(-413.245 -629.371)" fill="#ad5a49"/>
          <path id="Caminho_793" data-name="Caminho 793" d="M501.1,640.278c-.108-.118-1.332-1.909-1.332-1.909l1.568-3.967-.575-1.362-4.625-3.6-4.335,6.435s3.884,3.233,5.364,3.82A13.41,13.41,0,0,0,501.1,640.278Z" transform="translate(-431.777 -619.004)" fill="#ad5a49"/>
          <path id="Caminho_794" data-name="Caminho 794" d="M496.867,620.674a5.338,5.338,0,0,1,1.308-7.531,5.6,5.6,0,0,1,7.768.695c1.784,2.272,1.313,6.841-.675,8.338C503.252,623.695,498.651,622.946,496.867,620.674Z" transform="translate(-434.109 -608.872)" fill="#ad5a49"/>
          <path id="Caminho_795" data-name="Caminho 795" d="M504.76,609.048c.208,2.584-4.4,1.253-4.6,1.765,0,0,.632,3.567,1.2,4.332l-.927.331s-.858-1.464-1.446-1.272-.283,1.195.261,1.578-.792,1.066-.792,1.066a4.954,4.954,0,0,1-2.285-2.794c-.45-1.813-1.255-5.95-1.255-5.95s6.031-2.581,6.053-3.391C500.968,604.713,504.634,607.475,504.76,609.048Z" transform="translate(-433.578 -604.713)" fill="#424242"/>
          <path id="Caminho_796" data-name="Caminho 796" d="M439.891,877.937a.434.434,0,0,1-.288-.759,4.26,4.26,0,0,1,1.833-.765.435.435,0,1,1,.186.85,3.687,3.687,0,0,0-1.451.574A.435.435,0,0,1,439.891,877.937Z" transform="translate(-401.519 -761.765)" fill="#fff"/>
          <path id="Caminho_797" data-name="Caminho 797" d="M435.655,876.784a.434.434,0,0,1-.288-.759,4.273,4.273,0,0,1,1.833-.766.435.435,0,1,1,.186.849,3.688,3.688,0,0,0-1.451.575A.437.437,0,0,1,435.655,876.784Z" transform="translate(-399.07 -761.098)" fill="#fff"/>
          <path id="Caminho_798" data-name="Caminho 798" d="M431.768,875.2a.434.434,0,0,1-.288-.759,4.28,4.28,0,0,1,1.833-.766.435.435,0,0,1,.186.85,3.681,3.681,0,0,0-1.451.575A.438.438,0,0,1,431.768,875.2Z" transform="translate(-396.824 -760.183)" fill="#fff"/>
        </g>
        <rect id="Retângulo_231" data-name="Retângulo 231" width="47.376" height="57.408" transform="translate(163.003 179.481)" fill="#367fd3"/>
        <rect id="Retângulo_232" data-name="Retângulo 232" width="47.376" height="104.459" transform="translate(237.9 179.12)" fill="#7ba3f3"/>
        <path id="Caminho_799" data-name="Caminho 799" d="M496.721,462.75l-.938-13.461c23.423-1.632,28.512-15.458,35.49-39.754,5.118-17.82,10.919-38.018,29.7-51.414,17.716-12.636,43.591-8.318,57.493-6,2.878.48,5.6.933,6.841.977,54.778,1.926,79.178-27.769,124.71-117.982l12.047,6.079c-22.05,43.689-41.037,77.006-62.031,97.6-20.708,20.317-43.9,28.886-75.2,27.786a75.622,75.622,0,0,1-8.589-1.153c-11.976-2-34.269-5.718-47.437,3.674-14.948,10.662-19.838,27.687-24.567,44.152-3.387,11.792-6.586,22.93-13.206,32.011C523.238,455.966,512.013,461.684,496.721,462.75Z" transform="translate(-384.849 -224.821)" fill="#e5605f"/>
        <path id="Caminho_800" data-name="Caminho 800" d="M498.012,765.374c-5.6-.42-5.347-6.207-3.64-7.556,2.881-2.278,4.113-.836,4.6,1.925s1.529,3.044,1.529,3.044-.457-2.859.151-3.8,2.5,2.893,3.228,3.47S499.394,765.477,498.012,765.374Z" transform="translate(-383.412 -526.32)" fill="#ad5a49"/>
        <g id="Grupo_470" data-name="Grupo 470" transform="translate(312.795 62.999)">
          <path id="Caminho_801" data-name="Caminho 801" d="M1035.367,743.79s.313,2.963.364,4.326c.043,1.164.263,1.777-2.628,2.344-2.766.542-2.881,1.567-2.978,2.127,0,0,6.528.051,8.586,0,0,0-.174-5.562-.174-6.327,0-1.354.033-6.762.033-6.762l-3.3,2.257Z" transform="translate(-1006.525 -579.38)" fill="#fff"/>
          <path id="Caminho_802" data-name="Caminho 802" d="M1051.59,559.66c.233.838,5.775,9.078,5.733,10.282-.782,22.309-6.7,33.235-6.521,35.643.2,2.689,8.922,10.094,8.218,15.089s2.141,7.72,2.509,10.172-1.456,5.907.474,8.739-4.784,4.543-4.784,4.543-14.531-26.768-16-32.957c-1.095-4.622-3.8-42.291-3.8-42.291S1050.644,556.256,1051.59,559.66Z" transform="translate(-1010.745 -475.087)" fill="#415996"/>
          <rect id="Retângulo_233" data-name="Retângulo 233" width="8.587" height="0.633" transform="translate(23.599 173.206)" fill="#232323"/>
          <path id="Caminho_803" data-name="Caminho 803" d="M1034.725,561.4s-1.884,44.5-1.155,47.127,4.049,37.391,4.049,37.391,2.6-2.667,5.36-2.134a2.973,2.973,0,0,0,3.422-2.464,8.43,8.43,0,0,0-.153-4.348c-.8-2.436-1.234-4.332.031-10.871s-3.669-10.758-2.5-15.207,11.22-39.61,11.22-39.61Z" transform="translate(-1008.42 -476.43)" fill="#233775"/>
          <path id="Caminho_804" data-name="Caminho 804" d="M1078.009,755.358l1.294,2.281s-4.175,1.626-4.394,2.173a3.375,3.375,0,0,0,.041,1.574l4.848-.732,3.869-1.889-2.124-4.612Z" transform="translate(-1032.363 -587.852)" fill="#fff"/>
          <path id="Caminho_805" data-name="Caminho 805" d="M1083.847,764.779l-3.837,1.824-4.96.831-.168-.758,5-.83,3.623-1.758Z" transform="translate(-1032.398 -593.595)" fill="#262626"/>
          <path id="Caminho_806" data-name="Caminho 806" d="M1052.424,494.318c2.112,5.149,3.25,36.05.812,50.62-.355,2.124-5.843,2.289-10.956,1.511-.9-.138-1.467-10.591-1.467-10.591s-3.233,9.583-4.1,9.281c-2.025-.7-3.375-1.545-3.308-2.394.841-10.742-.876-47.1-.876-47.1C1040.04,493.709,1050.218,488.939,1052.424,494.318Z" transform="translate(-1007.913 -436.22)" fill="#fff"/>
          <path id="Caminho_807" data-name="Caminho 807" d="M1056.408,428.656c-3.385-11.319-12.378-49.513-12.613-50.406l-4.379.612a66.075,66.075,0,0,0,.648,7.169c.665,5.374,2.838,9.719,2.65,12.87s.1,8.936,2.217,12.282c3.6,5.7,4.707,20.836,4.707,20.836Z" transform="translate(-1011.897 -370.559)" fill="#fff"/>
          <path id="Caminho_808" data-name="Caminho 808" d="M1000.341,479.833c-2.233.16-13.639,1.641-14.933.552s-7.429-15.337-7.429-15.337l-2.28,2.3s-1.774,4.47-.422,5.814-1.349,7.177,2.221,7.721,4.012,7.286,7.562,7.854a120.325,120.325,0,0,0,16.987,1.776Z" transform="translate(-974.527 -420.733)" fill="#fff"/>
          <path id="Caminho_809" data-name="Caminho 809" d="M1051.639,482.831a23,23,0,0,1-7.305,1.531l-.562-8.6,4.192-1.117Z" transform="translate(-1014.414 -426.278)" fill="#7b4935"/>
          <path id="Caminho_810" data-name="Caminho 810" d="M1034.372,459.415a5.445,5.445,0,0,1,7.549-1.008,5.273,5.273,0,0,1,.4,7.5c-1.973,2.351-6.508,3.265-8.25,1.843C1032.308,466.311,1032.4,461.766,1034.372,459.415Z" transform="translate(-1008.082 -416.259)" fill="#7b4935"/>
          <path id="Caminho_811" data-name="Caminho 811" d="M1040.692,463.585c-2.441.244-4.64-.226-4.831-.563a23.531,23.531,0,0,1-.68-2.531,1.235,1.235,0,0,0,.523-1.752c-.264-.568-.914-1.032-1.34-.334a5.041,5.041,0,0,0-.487,1.935l-.975.019s-.135-2.124-.241-2.528-1.641-.554-1.641-.554-2.114-2.111-2.11-4.379,5-3.656,6.4-1.686a4.293,4.293,0,0,1,3.657-.945,2.539,2.539,0,0,1,1.849,3.348s2.875-.543,2.847,1.415-1.215,2.374-1.215,2.374Z" transform="translate(-1005.823 -412.128)" fill="#262626"/>
          <path id="Caminho_812" data-name="Caminho 812" d="M1042.66,367.713s-.328-5.454-1.965-7.093c-.776-.776-3.777-1.467-3.159,2.487.323,2.067.746,5.218.746,5.218Z" transform="translate(-1010.761 -360.021)" fill="#7b4935"/>
          <path id="Caminho_813" data-name="Caminho 813" d="M977.647,456.744c-.25-1.643,1.172-3.792-.57-5.539s-3.455,1.329-2.7,2.77-.488,3.019.99,5.065Z" transform="translate(-974.194 -412.429)" fill="#7b4935"/>
          <path id="Caminho_814" data-name="Caminho 814" d="M1037.12,375.5c-.994-1.367-2.126-3.171-1.495-3.063a2.519,2.519,0,0,1,1.18.686l1.091,1.359Z" transform="translate(-1009.599 -367.194)" fill="#7b4935"/>
          <path id="Caminho_815" data-name="Caminho 815" d="M982.551,455.519a11.091,11.091,0,0,1,.871-1.26c.174-.129.324.618-.4,1.991s-.648,1.605-.648,1.605Z" transform="translate(-978.924 -414.488)" fill="#7b4935"/>
        </g>
        <g id="Grupo_472" data-name="Grupo 472" transform="translate(260.634 218.885)">
          <path id="Caminho_816" data-name="Caminho 816" d="M1070.468,877.457c-.573-.269-.724-.674.135-2.226s1.051-1.893,1.051-1.893l6.248.945.974,3.178Z" transform="translate(-977.413 -812.634)" fill="#e88e73"/>
          <path id="Caminho_817" data-name="Caminho 817" d="M1090.177,860.58c.924-1.528,1.626-1.293,1.626-1.293l.76-.011s-.04,8.395-.047,10.056H1089.7l-.974-3.178a.144.144,0,0,0,.031-.018C1089.149,865.671,1089.259,862.1,1090.177,860.58Z" transform="translate(-988.241 -804.504)" fill="#ddd"/>
          <rect id="Retângulo_234" data-name="Retângulo 234" width="10.056" height="0.97" transform="matrix(-0.005, 1, -1, -0.005, 104.323, 54.771)" fill="#262626"/>
          <path id="Caminho_818" data-name="Caminho 818" d="M1009.639,864.262l3.594-1.251.74.979s1.388,1.786,1.806,2.268l-2.762,1.568Z" transform="translate(-942.522 -806.664)" fill="#4d66a1"/>
          <path id="Caminho_819" data-name="Caminho 819" d="M1025.844,871.1c1.591.548,1.474,1.262,1.474,1.262l.137.688-9.388,1.62-.424-2.4,2.762-1.568.021.026C1020.819,871.179,1024.252,870.552,1025.844,871.1Z" transform="translate(-947.149 -811.113)" fill="#7288e8"/>
          <path id="Caminho_820" data-name="Caminho 820" d="M1018.279,875.792l9.387-1.62.156.882-9.387,1.62Z" transform="translate(-947.516 -813.116)" fill="#262626"/>
          <path id="Caminho_821" data-name="Caminho 821" d="M875.947,828.31c1.676,1.088,4.773,1.288,6.5-.669L900.1,807.662c3.6-3.215,6.4-5.265,7.274-2.97.892,2.354-.055,3.984,3.307,5.657s4.634,2.5,5.255,5.252c.878,3.893,5.013,1.746,6.673,4.524s3.049,5.13,7.826,3.722,5.322-2.939,5.322-2.939-19.532-24.594-23.2-28.562-6.367-4.015-10.915-.5c-3.851,2.975-14.581,12.44-20.8,17.609C877.583,812.159,872.765,826.245,875.947,828.31Z" transform="translate(-864.638 -764.048)" fill="#5876ca"/>
          <path id="Caminho_822" data-name="Caminho 822" d="M925.386,789.792c.933-2.849,2.407-3.971,2.988-3.705.249.114-.65,1.089-.533,1.306a17.463,17.463,0,0,0,4.387.022c.755-.144,2.646.365.258,1.02a13.07,13.07,0,0,0-4.336,2.286Z" transform="translate(-893.819 -762.175)" fill="#e88e73"/>
          <path id="Caminho_823" data-name="Caminho 823" d="M871.2,759.93l.428-3.66-1.016-2.026-5.552-2.528-1.145,6.936Z" transform="translate(-858.283 -742.329)" fill="#e88e73"/>
          <path id="Caminho_824" data-name="Caminho 824" d="M888.2,789.837c-7.041,11.143-9.117,16.254-12.332,18.425s-19.589-20.452-19.589-20.452l2.372-3.289c5.8-.244,10.275,17.939,12.545,16.013.728-.618,1.731-.058,1.894-.552.857-2.592,2-.724,3.1-2.049,2-2.42,9.44-9.639,9.44-9.639Z" transform="translate(-853.872 -761.292)" fill="#415996"/>
          <path id="Caminho_825" data-name="Caminho 825" d="M864.781,865.071c9.825.262,40.3.5,43.428,0s11.423,5.939,16.9,3.867,9.458.248,12.366-.007,6.278-3.116,10.1-1.8,3.691-6.311,3.691-6.311-35-8.452-42.5-8.382c-5.6.052-48.389-.963-48.389-.963S860.61,864.959,864.781,865.071Z" transform="translate(-856.237 -799.994)" fill="#415996"/>
          <path id="Caminho_826" data-name="Caminho 826" d="M871.29,776.53c-.447,6.721,3.9,27.2,4.048,29.482-6.8,2.5-7.166,4.514-9.335,7.9-2.725,4.252-7.981,4.26-7.981,4.26-4.546-3.2-2.551-3.975-6.844-31.339-1.243-7.924-1.615-14.333,9.6-14.8a21.608,21.608,0,0,1,7.782,1.37Z" transform="translate(-850.572 -754.065)" fill="#233775"/>
          <path id="Caminho_827" data-name="Caminho 827" d="M869.374,771.611l-.917-2.752-7.943-.705-2.479,3.5Z" transform="translate(-854.886 -751.831)" fill="#424242"/>
          <path id="Caminho_828" data-name="Caminho 828" d="M864.327,740.193a5.285,5.285,0,0,1,2.02-7.246,5.428,5.428,0,0,1,7.156,2.576c1.419,2.713.493,7.187-1.516,8.209C869.947,744.769,865.745,742.9,864.327,740.193Z" transform="translate(-858.135 -731.174)" fill="#e88e73"/>
          <path id="Caminho_829" data-name="Caminho 829" d="M867.415,729.5a17.9,17.9,0,0,1,2.686,2.416s.042,1.981.045,3.139-1.358,2.559-1.6,2.752c0,0-.57-.921-1.293-.746s-.428,1.369.334,1.7-.14,2.289-.8,2.324a29,29,0,0,1-3.924-.909s-1.756-4.793-2.371-5.89C861.687,731.054,863.66,729.192,867.415,729.5Z" transform="translate(-856.303 -729.47)" fill="#424242"/>
          <g id="Grupo_471" data-name="Grupo 471" transform="translate(31.567 13.013)">
            <path id="Caminho_830" data-name="Caminho 830" d="M952.511,772.281a1.028,1.028,0,0,1-.888.5l-25.732,0a.466.466,0,0,1-.505-.5v-.411l26.22-.1,6.526-11.116c.144-.245.1-.169.2-.346.541.307.746.723.511,1.183Z" transform="translate(-925.386 -760.31)" fill="#262626"/>
            <path id="Caminho_831" data-name="Caminho 831" d="M958.965,760.6l14.638-.289-6.731,11.464-15.074.058Z" transform="translate(-940.654 -760.31)" fill="#424242"/>
            <path id="Caminho_832" data-name="Caminho 832" d="M974.046,761.8l-13.087.258-6.387,10.012,13.474-.052Z" transform="translate(-942.258 -761.17)" fill="#fff"/>
          </g>
          <path id="Caminho_833" data-name="Caminho 833" d="M969.97,790.115c2.615-.978,2.28-.344,6.294-2.159,2.427-1.1.479-2.326-1.5-1.74s-1.9-.618-1.9-.618.518-1.063.124-1.181-.94.511-1.192,1.3-3.482,2.415-3.482,2.415Z" transform="translate(-918.631 -761.224)" fill="#e88e73"/>
          <path id="Caminho_834" data-name="Caminho 834" d="M920.68,783.857c1.568.59,1.244,2.515,2.221,4.142,0,0-15.863,6.849-17.736,7.608s-3.458-.285-5.7-1.87-13.042-4.243-14.3-5.111-1.586-13.141,3.24-10.393c1.827,1.04,7.257,3.115,11.556,6.393,2.353,1.794,2.972,2.252,3.071,3.106.2,1.681,2.215-.383,3.057-.1s.793,1.3,2.221.888S920.68,783.857,920.68,783.857Z" transform="translate(-870.102 -757.426)" fill="#233775"/>
          <path id="Caminho_835" data-name="Caminho 835" d="M980.229,764.729l-2.885,4.591h-1.981l3.039-4.591Z" transform="translate(-922.708 -749.851)" fill="#e5605f"/>
          <path id="Caminho_836" data-name="Caminho 836" d="M972.322,779.6c.375.333,1.131.108,1.689-.5s.707-1.377.333-1.71-1.131-.108-1.689.5S971.947,779.267,972.322,779.6Z" transform="translate(-920.831 -757.08)" fill="#e5605f"/>
        </g>
        <g id="Grupo_474" data-name="Grupo 474" transform="translate(165.874 114.566)">
          <path id="Caminho_840" data-name="Caminho 840" d="M681.158,538.9c4.354,0,10.21-2.574,10.769-2.668a58.811,58.811,0,0,1,9.167-.616s-12.4,6.589-17.317,8.354-3.032-2.592-3.032-2.592Z" transform="translate(-657.437 -513.088)" fill="#773024"/>
          <path id="Caminho_841" data-name="Caminho 841" d="M650.427,553.618c.5-3.166-1.416-9.152,0-9.776s13.033-.894,14.494-.367c1.409.508,1.221,4.789,1.221,5.292l-3.846,6.08Z" transform="translate(-639.81 -517.473)" fill="#773024"/>
          <path id="Caminho_842" data-name="Caminho 842" d="M786.627,663.267l3.929-.65.583,1.14s1.1,2.085,1.445,2.657l-3.13,1.124Z" transform="translate(-718.849 -586.506)" fill="#773024"/>
          <path id="Caminho_843" data-name="Caminho 843" d="M801.983,672.985c1.538.847,1.288,1.562,1.288,1.562l.015.732h-9.961v-2.541l3.13-1.124.018.03C796.8,672.173,800.445,672.138,801.983,672.985Z" transform="translate(-722.72 -591.707)" fill="#fff"/>
          <rect id="Retângulo_235" data-name="Retângulo 235" width="9.961" height="0.935" transform="translate(80.565 83.572) rotate(180)" fill="#262626"/>
          <path id="Caminho_844" data-name="Caminho 844" d="M808.741,674.623a.426.426,0,0,1-.317-.712l.856-.951a.427.427,0,0,1,.634.571l-.856.951A.426.426,0,0,1,808.741,674.623Z" transform="translate(-731.385 -592.404)" fill="#262626"/>
          <path id="Caminho_845" data-name="Caminho 845" d="M804.7,673.95a.426.426,0,0,1-.317-.712l.855-.951a.427.427,0,0,1,.634.571l-.856.951A.425.425,0,0,1,804.7,673.95Z" transform="translate(-729.047 -592.014)" fill="#262626"/>
          <path id="Caminho_846" data-name="Caminho 846" d="M800.79,673.426a.427.427,0,0,1-.317-.712l.856-.951a.426.426,0,1,1,.634.57l-.856.951A.427.427,0,0,1,800.79,673.426Z" transform="translate(-726.789 -591.712)" fill="#262626"/>
          <path id="Caminho_847" data-name="Caminho 847" d="M668.057,521.69a5.153,5.153,0,0,1,.594-7.32A5.32,5.32,0,0,1,676,515.55c1.865,2.347,1.807,6.809.069,8.153C674.3,525.068,669.922,524.038,668.057,521.69Z" transform="translate(-649.591 -500.237)" fill="#773024"/>
          <path id="Caminho_848" data-name="Caminho 848" d="M747.594,717.156l3.467,1.934-.274,1.247s-.473,2.306-.571,2.962l-3.15-1.07Z" transform="translate(-695.98 -618.033)" fill="#773024"/>
          <path id="Caminho_849" data-name="Caminho 849" d="M751.416,734.747c.655,1.614.005,2.013.005,2.013l-.456.578-7.741-6.184,1.621-1.975,3.15,1.07-.005.034C747.9,730.9,750.761,733.134,751.416,734.747Z" transform="translate(-693.759 -624.983)" fill="#fff"/>
          <path id="Caminho_850" data-name="Caminho 850" d="M743.821,732.137l7.741,6.184-.6.727-7.741-6.184Z" transform="translate(-693.759 -626.693)" fill="#262626"/>
          <path id="Caminho_851" data-name="Caminho 851" d="M758.28,740.023a.427.427,0,0,1-.068-.848l1.272-.208a.427.427,0,1,1,.137.842l-1.272.207A.438.438,0,0,1,758.28,740.023Z" transform="translate(-702.216 -630.638)" fill="#262626"/>
          <path id="Caminho_852" data-name="Caminho 852" d="M755.16,737.282a.426.426,0,0,1-.068-.847l1.272-.208a.426.426,0,0,1,.137.842l-1.272.207A.467.467,0,0,1,755.16,737.282Z" transform="translate(-700.413 -629.054)" fill="#262626"/>
          <path id="Caminho_853" data-name="Caminho 853" d="M752.541,733.661a.427.427,0,0,1-.068-.848l1.272-.208a.427.427,0,0,1,.138.842l-1.272.208A.431.431,0,0,1,752.541,733.661Z" transform="translate(-698.899 -626.961)" fill="#262626"/>
          <path id="Caminho_854" data-name="Caminho 854" d="M703.337,607.139c-.014,2.4-2.809,3.011.075,5.372s3.934,3.433,3.95,6.134c.023,3.818,4.457,2.828,5.468,5.8s-.1,3.878,4.8,3.728,6.678-1.047,6.678-1.047S714.7,607.287,712.045,601.7c-2.47-5.2-5.365-5.889-13.513-4.781a259.692,259.692,0,0,1-29.016,2.127S703.35,604.812,703.337,607.139Z" transform="translate(-651.152 -548.267)" fill="#5876ca"/>
          <path id="Caminho_855" data-name="Caminho 855" d="M644.809,600.177c.282,2.049,2.249,4.6,5,4.6h28.079c5.04.59,8.6,1.362,7.368,3.614-1.267,2.309-3.22,2.694-2.247,6.456s1.188,5.317-.586,7.692c-2.506,3.357,2.048,5.1.969,8.294s-2,5.893,2.4,8.64,6,2.118,6,2.118,6.23-32.072,6.881-37.647-1.166-7.707-7.094-8.83c-5.021-.951-19.949-2.791-28.352-4.079-4.4-.674-6.5-11.186-14.236-8.747C649,582.283,644.273,596.286,644.809,600.177Z" transform="translate(-636.845 -539.857)" fill="#233775"/>
          <path id="Caminho_856" data-name="Caminho 856" d="M647.756,560.486c.106-.555-1.365,14.021-2.483,21.185,0,0,2.174-3.724,5.216-3.056,2.948.647,5.237-2.653,8.353-2.146s5.4-4.156,5.4-4.156-.108-11.811-.422-14.489-.543-2.746-.543-2.746C658.239,554.94,647.756,560.486,647.756,560.486Z" transform="translate(-637.138 -524.341)" fill="#5876ca"/>
          <path id="Caminho_857" data-name="Caminho 857" d="M660.617,538.256a79.828,79.828,0,0,1,5.888-7.541l3.164,3.54-.633,3.612Z" transform="translate(-646.008 -510.259)" fill="#773024"/>
          <path id="Caminho_858" data-name="Caminho 858" d="M644.531,506.515c-4.911,5.358-20.987.378-18.22-14.6,2.175-11.776,21.015-13.272,24.846-1.928a5.845,5.845,0,0,1-.052,3.486c2.232-.115,4.069.252,4.105,1.636.08,3.038-3.5,3.647-5.154,3.573-2.068-.092-1.615-1.124-2.335-.731-1.12.612-.677,4.509-.949,4.948s-1.228-1.091-2.193-.939.137,1.824.688,2.149S645.154,505.835,644.531,506.515Z" transform="translate(-625.993 -482.235)" fill="#262626"/>
          <path id="Caminho_859" data-name="Caminho 859" d="M670.862,517.53c-1.195-4.507,1.767-7.776,5.376-8.908a5.927,5.927,0,0,0-4.484.651c-2.027,1.351-2.989,4.978-1.695,7.848Z" transform="translate(-651.126 -497.383)" fill="#f86e52"/>
          <path id="Caminho_860" data-name="Caminho 860" d="M659.569,543.637c2.106-.1,4.933,6.188,4.933,6.188l.5-.179a33.948,33.948,0,0,0-2.353-4.179c-1.675-2.446-2.778-2.276-2.778-2.276Z" transform="translate(-645.402 -517.469)" fill="#5876ca"/>
          <path id="Caminho_861" data-name="Caminho 861" d="M681.231,543.337a18.017,18.017,0,0,1,2.044,4.977l.379-.025s-1.05-3.911-2.01-4.926Z" transform="translate(-657.924 -517.555)" fill="#5876ca"/>
        </g>
        <g id="Grupo_475" data-name="Grupo 475" transform="translate(155.374 234.31)">
          <rect id="Retângulo_236" data-name="Retângulo 236" width="47.376" height="46.737" transform="translate(7.63 2.282)" fill="#367fd3"/>
          <path id="Caminho_862" data-name="Caminho 862" d="M661.88,798.787c4.167,4.549,8.716,12.971,10.116,13.613s13.759-6.267,13.759-6.267l.743,2.623s-13.136,8.064-15.06,8.871-11.383-12.908-11.383-12.908Z" transform="translate(-635.182 -784.965)" fill="#dfb09e"/>
          <path id="Caminho_863" data-name="Caminho 863" d="M739.246,972.905l3.986.842.119,1.3s.254,2.394.361,3.064l-3.408-.094Z" transform="translate(-680.959 -885.615)" fill="#dfb09e"/>
          <path id="Caminho_864" data-name="Caminho 864" d="M748.568,988.478c1.14,1.378.629,1.964.629,1.964l-.265.7-9.478-3.7.971-2.418,3.408.094.006.036C743.942,985.777,747.428,987.1,748.568,988.478Z" transform="translate(-681.079 -892.621)" fill="#424242"/>
          <path id="Caminho_865" data-name="Caminho 865" d="M680.343,776.254a5.322,5.322,0,0,0-4.049-6.365,5.386,5.386,0,0,0-6.1,4.5c-.567,3,1.626,7.022,3.848,7.43C676.3,782.234,679.777,779.255,680.343,776.254Z" transform="translate(-640.99 -768.213)" fill="#dfb09e"/>
          <path id="Caminho_866" data-name="Caminho 866" d="M620.815,863.689c6.81-.4,13.133,4.9,19.992,7.538s7.862,4.591,7.538,7.294c-.195,1.625-2.119,2.248,1.709,6.081,6.057,6.066,1.058.535,1.161,11.393.051,5.432,4.939,6.161,8.526,7.917,3.408,1.668,8.079-1.222,8.079-1.222s-6.377-23.154-8.975-30.482-4.682-10.77-11.759-14.623a59.4,59.4,0,0,0-13.246-5.063c-15.574-3.578-18.508-2.671-18.508-2.671l-14.2,4.849a12.344,12.344,0,0,0,.779,5.054c1.561,4.767,9.527,3.937,9.527,3.937Z" transform="translate(-601.106 -814.423)" fill="#415996"/>
          <path id="Caminho_867" data-name="Caminho 867" d="M658.735,852.187c13.36,2.024,24.211.441,29.076,1.839,3.487,1,4.992,6.466,2.89,8.732-2.932,3.159-7.084,2.572-25.524,10.343,1.815-2.743-6.915-7.635,0-11.813,2.954-1.784,5.859,1.878,5.73-1.59-.065-1.756,8.106-1.421,8.106-1.421Z" transform="translate(-634.419 -815.833)" fill="#233775"/>
          <path id="Caminho_868" data-name="Caminho 868" d="M739.454,989.56l.35-.873,9.393,3.872-.266.7Z" transform="translate(-681.079 -894.738)" fill="#232323"/>
          <path id="Caminho_869" data-name="Caminho 869" d="M667.73,878.7c.872-1.688,2.435-2.474,2.4-.981s-.233,3.322.243,4.111,1.468,5.044,0,5.572-1.673-3.086-2.217-5.237A11.354,11.354,0,0,1,667.73,878.7Z" transform="translate(-639.612 -830.135)" fill="#233775"/>
          <path id="Caminho_870" data-name="Caminho 870" d="M663.028,878.8a11.961,11.961,0,0,0,.243,4.111l-1.959.674s-2.223.993-2.834,1.305l-3.04-2.548Z" transform="translate(-632.513 -831.219)" fill="#dfb09e"/>
          <path id="Caminho_871" data-name="Caminho 871" d="M658.693,893.736c.439,1.725-.276,2.042-.276,2.042l-.543.525-6.986-7.324,1.92-1.782,3.612,2.273h0C656.245,890.078,658.254,892.011,658.693,893.736Z" transform="translate(-629.883 -836.071)" fill="#424242"/>
          <path id="Caminho_872" data-name="Caminho 872" d="M650.888,890.54l.693-.643,6.835,7.442-.606.586Z" transform="translate(-629.883 -837.631)" fill="#232323"/>
          <path id="Caminho_873" data-name="Caminho 873" d="M601.178,854.841l14.2-4.85h0l-13.217.233Z" transform="translate(-601.148 -814.563)" fill="#415996"/>
          <path id="Caminho_874" data-name="Caminho 874" d="M603.5,816.565s5.494-13.605,8.029-17.754c5.679-9.293,16.039-8.191,19.508-3.589,1.745,2.316-.624,8.64-2.751,10.6-4.279,3.935-10.714,10.5-10.714,10.5Z" transform="translate(-602.488 -780.905)" fill="#fff"/>
          <path id="Caminho_875" data-name="Caminho 875" d="M624.486,800.175C621.2,803,618.764,810.366,620.971,810c6.676-1.109,8.119-7.021,9.126-9.4S628.436,796.783,624.486,800.175Z" transform="translate(-612.099 -784.605)" fill="#dfb09e"/>
          <path id="Caminho_876" data-name="Caminho 876" d="M708.024,829.484,697.59,841.878h13.163l9.958-12.393Z" transform="translate(-656.879 -802.71)" fill="#ddd"/>
          <path id="Caminho_877" data-name="Caminho 877" d="M627.382,806.492c.325,2.644,6.151,14.412,9.281,19.488.531.861,1.724,2.55,3.263,2.427,6.1-.488,15.253-3.878,17.079-4.416,2.881-.848,4.327.3,5.969-.743s2.686-4.187.708-3.646a16.127,16.127,0,0,0-3.487,1.425s1.346-1.276,1.016-1.736-1.788,1.1-2.224,1.449c-.906.732-16.255,2.95-17.82,2.815s-5.589-21.546-6.717-23.25S627.382,806.492,627.382,806.492Z" transform="translate(-616.295 -785.703)" fill="#dfb09e"/>
          <path id="Caminho_878" data-name="Caminho 878" d="M719.02,816.286c1.781-1.479,3-.752,3.952.8s-.57,2.955-.991,2.256a2.107,2.107,0,0,0-1.35-.845Z" transform="translate(-669.267 -794.614)" fill="#dfb09e"/>
          <path id="Caminho_879" data-name="Caminho 879" d="M721.216,818.927a.435.435,0,0,1-.347-.171l-4.184-5.446a.437.437,0,0,1,.692-.532l4.184,5.447a.436.436,0,0,1-.345.7Z" transform="translate(-667.866 -792.954)" fill="#262626"/>
          <path id="Caminho_880" data-name="Caminho 880" d="M720.239,821.1c1.231-.084,2.461-.815,1.548-1.122a6.853,6.853,0,0,0-1.922-.306Z" transform="translate(-669.756 -797.036)" fill="#dfb09e"/>
          <path id="Caminho_881" data-name="Caminho 881" d="M651.758,785.558c-1.025.57.212,8.278,3.3,10.381,2.772,1.891,3.144-6.64,3.523-7.5s4.237-4.749,4.237-4.749l-2.856-2.668S655.195,783.646,651.758,785.558Z" transform="translate(-630.181 -774.699)" fill="#dfb09e"/>
          <path id="Caminho_882" data-name="Caminho 882" d="M645.214,783.866c-5.468,1.325-6.092,6.6-1.221,9.416,0,0,4.343-.411,4.871-4.055C649.375,785.7,645.214,783.866,645.214,783.866Z" transform="translate(-623.991 -776.339)" fill="#424242"/>
          <path id="Caminho_883" data-name="Caminho 883" d="M643.032,803.611c-3.771.578-6.884,6.317.439,8.465C649.958,807.844,643.032,803.611,643.032,803.611Z" transform="translate(-623.03 -787.753)" fill="#424242"/>
          <path id="Caminho_884" data-name="Caminho 884" d="M645.488,821.846c-4.256,4.578-1.263,6.2,2.577,7.905C649.676,826.473,649.394,824.949,645.488,821.846Z" transform="translate(-625.559 -798.294)" fill="#424242"/>
          <path id="Caminho_885" data-name="Caminho 885" d="M647.277,804.6a.433.433,0,0,1-.173-.036,6.293,6.293,0,0,0-2.646-.439.436.436,0,0,1-.072-.87,7.031,7.031,0,0,1,3.066.508.436.436,0,0,1-.174.836Z" transform="translate(-625.893 -787.537)" fill="#fff"/>
          <path id="Caminho_886" data-name="Caminho 886" d="M647.484,822.76a.428.428,0,0,1-.119-.016,5.246,5.246,0,0,0-1.9.011.436.436,0,0,1-.13-.863,5.889,5.889,0,0,1,2.27.011.436.436,0,0,1-.118.857Z" transform="translate(-626.456 -798.266)" fill="#fff"/>
          <path id="Caminho_887" data-name="Caminho 887" d="M649.954,773.764c-.491-2.243,3.39-1.774,5.88-4.122s10.242-5.851,12.938-1.661,1.707,8.271-.307,8.56-6.192-.546-5.89-1.955-.822-2.227-1.4-1.409-.57,1.53-1.01,1.68c-5.976,2.029-7.406-1.269-9.017-.082S649.954,773.764,649.954,773.764Z" transform="translate(-629.315 -766.028)" fill="#424242"/>
          <path id="Caminho_888" data-name="Caminho 888" d="M651.022,784.4a.436.436,0,0,1-.312-.131,3.107,3.107,0,0,0-2.488-.918.437.437,0,0,1-.184-.853,3.943,3.943,0,0,1,3.3,1.162.436.436,0,0,1-.312.741Z" transform="translate(-628.036 -775.509)" fill="#fff"/>
        </g>
        <g id="Grupo_477" data-name="Grupo 477" transform="translate(49.23 141.39)">
          <path id="Caminho_891" data-name="Caminho 891" d="M599.714,246.9l3.262,9.3,8.2-2.87-3.262-9.3,4.39-1.536-11.489-6.261-5.568,12.227Z" transform="translate(-595.252 -236.234)" fill="#aed0f3"/>
          <rect id="Retângulo_237" data-name="Retângulo 237" width="8.708" height="2.733" transform="translate(8.115 21.076) rotate(-19.28)" fill="#aed0f3"/>
          <rect id="Retângulo_238" data-name="Retângulo 238" width="8.709" height="1.968" transform="matrix(0.944, -0.33, 0.33, 0.944, 9.41, 24.767)" fill="#aed0f3"/>
        </g>
        <path id="Caminho_892" data-name="Caminho 892" d="M1037.93,223.445l49.426,22.365-13.262-35.1Z" transform="translate(-698.242 -210.715)" fill="#e5605f"/>
        <path id="Caminho_893" data-name="Caminho 893" d="M591.99,596.891c-2.845-.4-4.935,2.177-2.845,4.353s1.974-1.388,2.148-2.2A19.066,19.066,0,0,1,591.99,596.891Z" transform="translate(-438.329 -433.923)" fill="#773024"/>
        <path id="Caminho_894" data-name="Caminho 894" d="M749.533,502.631c-1.742.867-.581,3.5,2.032,2.986s3.309-1.963,2.322-2.986S749.533,502.631,749.533,502.631Z" transform="translate(-531.053 -379.197)" fill="#773024"/>
        <path id="Caminho_918" data-name="Caminho 918" d="M638.358,544.728c-5.614,9.154-5.751,18.595-7.393,20.51l-1.949,4.027s2.925.044,6-3.7,5.7-13.032,5.7-13.032l-2.26-7.261Z" transform="translate(-461.866 -403.794)" fill="#773024"/>
        <g id="Group_479" data-name="Group 479" transform="translate(236.751 20.203)">
          <path id="Path_895" data-name="Path 895" d="M543.24,430.97c-4.475,1.089-18.519-3.171-18.519-3.171l1.572-4.475a41.146,41.146,0,0,0,16.365,3.288c1.7-.075,10.557-16.233,12.436-17.158,2.11-1.038,5.448,3.444-1.81,6.929C553.284,416.382,547.715,429.882,543.24,430.97Z" transform="translate(-497.602 -378.032)" fill="#ffe0d9"/>
          <path id="Path_896" data-name="Path 896" d="M509.944,506.065l-2.008-3.434s-2.731,7.093-3.624,8.122c-1.179,1.357-2.211,2.815-.471,3.681,1.839.914,2.552,1.264,2.552,1.264l3.743,1.867c.151-.547.253-1.062-2.012-2.719-2.367-1.732-1.9-2.192-1.359-3.226.642-1.21,2.2-3.756,2.2-3.756Z" transform="translate(-502 -359.212)" fill="#ffe0d9"/>
          <path id="Path_897" data-name="Path 897" d="M502.624,511.882l7.662,3.824-.471.918-7.662-3.824Z" transform="translate(-502.153 -357.346)" fill="#3a3a3a"/>
          <path id="Path_898" data-name="Path 898" d="M506.242,511.62l-1.491,1.637,2.764,1.383.841-1.149Z" transform="translate(-501.629 -357.399)" fill="#4f8895"/>
          <path id="Path_899" data-name="Path 899" d="M525.076,506.461l-3.365-2.174s.8,7.548.472,8.862c-.432,1.735-.689,3.5,1.259,3.5h7.05c-.112-.556-.258-1.061-3.037-1.534-2.9-.494-2.7-1.113-2.687-2.277.013-1.364.254-4.334.254-4.334Z" transform="translate(-498.209 -358.878)" fill="#ffe0d9"/>
          <rect id="Rectangle_239" data-name="Rectangle 239" width="8.587" height="1.03" transform="translate(23.696 157.768)" fill="#3a3a3a"/>
          <path id="Path_900" data-name="Path 900" d="M524.926,512.8l-.584,2.124,3.1.007.228-1.4Z" transform="translate(-497.678 -357.161)" fill="#4f8895"/>
          <path id="Path_901" data-name="Path 901" d="M516.068,442.014s2.615,41.8,3.789,45.9-3.75,7.977-2.472,14,.847,7.772.054,10.015a7.178,7.178,0,0,0-.144,4.005,2.974,2.974,0,0,0,3.427,2.277c2.76-.484,5.675,1.978,5.675,1.978s2.935-32.017,3.659-34.437-1.253-43.415-1.253-43.415Z" transform="translate(-499.347 -371.435)" fill="#394f8a"/>
          <path id="Path_902" data-name="Path 902" d="M518.8,442.015a102.389,102.389,0,0,0-3.678,12.978c-1.459,7.639,2.174,26.927-.876,30.522-5.945,7.009,2.3,7.765-5.262,12.835-5.194,3.482.216,7.555-3.834,11.022s-2.23,4.936-2.23,4.936.523.817,3.287,1.841a5.431,5.431,0,0,1,3.032,3.605s17.311-28.386,18.676-36.369,3.961-33.668,3.623-41.041Z" transform="translate(-502.081 -371.435)" fill="#20306a"/>
          <path id="Path_903" data-name="Path 903" d="M507.8,502.526c-2.313-1.2-3.834-1.541-4.806-2.426a1.907,1.907,0,0,0-.12,2.637,5.069,5.069,0,0,0,3.035,1.9,5.371,5.371,0,0,1,3.355,3.4s.549-.817,1.39-2.311A6.343,6.343,0,0,0,507.8,502.526Z" transform="translate(-502.104 -359.722)" fill="#4e6bc2"/>
          <path id="Path_904" data-name="Path 904" d="M521.477,505.293a8.529,8.529,0,0,1-4.388-1.758,7.018,7.018,0,0,0,.888,2.743c.664.846,1.454,1.1,4.086,1.291a6.009,6.009,0,0,1,4,1.808l.166-2.03C525.675,506.412,524.4,505.436,521.477,505.293Z" transform="translate(-499.141 -359.029)" fill="#4e6bc2"/>
          <rect id="Rectangle_240" data-name="Rectangle 240" width="1.517" height="12.745" transform="matrix(0.026, -1, 1, 0.026, 16.715, 70.577)" fill="#d7d7d7"/>
          <path id="Path_905" data-name="Path 905" d="M516.724,444.959s-2.594-1.585-3.183-6.948c-.537-4.887-1.437-14.427,1.825-16.9a2.87,2.87,0,0,1,1.059-.507c4.5-1.108,12.125-1.418,14.492,2.257s-1.063,5.7-.046,12.825.121,5.751-1.411,9.613Z" transform="translate(-499.964 -375.904)" fill="#fff"/>
          <path id="Path_906" data-name="Path 906" d="M521.109,415.582l-2.388,5.287s2.974,2.713,4.807,2.69,1.527-2.513,1.527-2.513a40.243,40.243,0,0,1,.542-4.875Z" transform="translate(-498.812 -376.766)" fill="#ffe0d9"/>
          <path id="Path_907" data-name="Path 907" d="M525.483,419.9c2.213-.455,4.318-4.523,3.685-7.51a5.39,5.39,0,0,0-6.2-4.369l-.026.006a5.32,5.32,0,0,0-3.884,6.443C519.693,417.458,523.237,420.363,525.483,419.9Z" transform="translate(-498.775 -378.305)" fill="#ffe0d9"/>
          <path id="Path_908" data-name="Path 908" d="M531.1,409.645c-1.336-2.062-3.217-2.151-4.958-2.206s-5.323,1.175-7.256,6.729c-3.837,11.035-13.33,11.938-13.33,11.938,3.541,6.734,8.307,7.318,8.307,7.318s6.881-3.9,9.753-9.212a26.284,26.284,0,0,0,2.665-11.761l.893,1.933a14.025,14.025,0,0,0,4.792-.579A5.9,5.9,0,0,0,531.1,409.645Z" transform="translate(-501.466 -378.408)" fill="#202020"/>
          <path id="Path_909" data-name="Path 909" d="M520.014,413.152c-.084.709.961,1.847.961,1.847s.985-1.067.7-1.847C521.5,412.679,520.1,412.443,520.014,413.152Z" transform="translate(-498.552 -377.346)" fill="#ffe0d9"/>
          <path id="Path_910" data-name="Path 910" d="M518.113,417.1l-6.311,3.329-1.263-1.675s6.288-3.759,7.57-6.225Z" transform="translate(-500.462 -377.382)" fill="#202020"/>
          <g id="Group_478" data-name="Group 478" transform="translate(59.516 2.717)">
            <path id="Path_911" data-name="Path 911" d="M570.1,394.191l20.068,3.3-8.283,6.849,8.687,9.253s-25-2.3-24.862-4.89a12.583,12.583,0,0,1,.456-1.875Z" transform="translate(-548.853 -383.796)" fill="#f07467"/>
            <path id="Path_912" data-name="Path 912" d="M567.808,403.9l-1.214-.751-.912,3.748c.309-1.259,1.649-.541,2.12-1.682A4.5,4.5,0,0,0,567.808,403.9Z" transform="translate(-548.858 -381.989)" fill="#f07467"/>
            <path id="Path_913" data-name="Path 913" d="M551.681,404.8a21.131,21.131,0,0,1,16.734,1.727,6.186,6.186,0,0,1,2.205,2.243s5.814-15.894,6.069-17.205-5.841-9.493-20.412-4.326Z" transform="translate(-551.681 -385.541)" fill="#f66348"/>
          </g>
          <rect id="Rectangle_241" data-name="Rectangle 241" width="57.73" height="1.384" transform="translate(51.12 55.879) rotate(-75.451)" fill="#3a3a3a"/>
          <path id="Path_914" data-name="Path 914" d="M534.982,441.361c-4.579-.507-16.26-9.3-16.26-9.3l2.508-3.8s6.849,6.335,14.735,8.818c1.621.511,15.6-11.622,17.688-11.85,2.344-.255,3.9,5.09-4.13,5.881C549.523,431.1,539.561,441.868,534.982,441.361Z" transform="translate(-498.812 -374.823)" fill="#ffe0d9"/>
        </g>
      </g>
    </g>
  </g>
</svg>
