<?xml version="1.0" encoding="utf-8"?>
<!-- Generator: Adobe Illustrator 25.3.1, SVG Export Plug-In . SVG Version: 6.00 Build 0)  -->
<svg version="1.1" id="Capa_1" xmlns="http://www.w3.org/2000/svg" xmlns:xlink="http://www.w3.org/1999/xlink" x="0px" y="0px"
	 viewBox="0 0 141.7 56.7" style="enable-background:new 0 0 141.7 56.7;" xml:space="preserve">
<style type="text/css">
	.st0{fill:#1F3C71;}
	.st1{fill:#33A2DC;}
	.st2{fill:#383D43;}
	.st3{fill:#798085;}
	.st4{fill:#F9B621;}
	.st5{fill:#E95E41;}
	.st6{fill:#F19AA3;}
	.st7{fill:#458940;}
	.st8{fill:#77C5D5;}
	.st9{fill:#E31E2D;}
	.st10{fill:#F7F8F7;}
	.st11{fill:#616362;}
	.st12{fill:#393D43;}
</style>
<path class="st11" d="M50.6,51.3l10.8-13.4H43l3.6-4.4h18.3l3.7-4.5H43L32.2,42.4h18.4L47,46.9H28.6L25,51.3 M28.6,29h7.2L25,42.4
	h-7.2L28.6,29z M54.2,20.1H35.8l-3.6,4.5h18.4L54.2,20.1z M35.8,11.2h18.4l-3.6,4.5H39.4L35.8,11.2z"/>
<path class="st3" d="M54.2,11.2l-3.6-4.5H25l10.8,13.4h18.4l3.6,4.5H39.4L43,29h25.6L57.8,15.7H39.4l-3.6-4.5 M35.8,29h-7.2L25,24.6
	h7.2L35.8,29z M28.6,46.9L25,42.4h18.3l3.6,4.5H28.6z M61.4,37.9H43l3.6-4.4h11.2L61.4,37.9z"/>
<path class="st11" d="M106.2,13.1v7.5H93.9c-1.3,0-1.3,4.6,0,4.6h7c9.1,0,9.1,19.7,0,19.7H87.4v-7.5h12.4c1.3,0,1.3-4.7,0-4.7h-6.9
	c-9.1,0-9.1-19.7,0-19.7"/>
<rect x="74.8" y="13.1" class="st11" width="7.5" height="31.9"/>
<path class="st11" d="M129.7,13.1v7.5h-12.4c-1.2,0-1.3,4.6,0,4.6h7c9.1,0,9.1,19.7,0,19.7h-13.5v-7.5h12.4c1.3,0,1.3-4.7,0-4.7h-7
	c-9.1,0-9.1-19.7,0-19.7"/>
</svg>
