<?xml version="1.0" encoding="utf-8"?>
<!-- Generator: Adobe Illustrator 25.3.1, SVG Export Plug-In . SVG Version: 6.00 Build 0)  -->
<svg version="1.1" id="Camada_1" xmlns="http://www.w3.org/2000/svg" xmlns:xlink="http://www.w3.org/1999/xlink" x="0px" y="0px"
	 viewBox="0 0 841.89 595.28" style="enable-background:new 0 0 841.89 595.28;" xml:space="preserve">
<style type="text/css">
	.st0{fill:#373C42;}
	.st1{fill:#952D74;}
</style>
<g>
	<path class="st0" d="M739.32,506.37c-3.91,8.24-11.48,10.25-19.51,11.23c-7.18,0.88-14.23,0.19-20.92-2.83
		c-2.05-0.93-3.9-2.14-5.53-3.72c-3.09-3-3.36-6.8-3.24-10.74c0.02-0.65,0.38-0.8,0.95-0.78c0.73,0.02,1.45,0,2.18,0.01
		c1.33,0.01,2.94-0.44,3.92,0.15c1.16,0.69,0.26,2.44,0.46,3.71c0.29,1.87,1.55,2.95,3.06,3.8c4,2.26,8.39,3,12.89,3.14
		c4.82,0.15,9.51-0.48,13.98-2.43c3.01-1.31,4.83-3.2,4.48-6.78c-0.23-2.28-0.04-4.59-0.04-6.89c-0.01-3.03-1.01-4.52-3.87-5.64
		c-2.9-1.13-5.98-1.45-9.03-1.81c-5.58-0.66-11.21-0.89-16.7-2.21c-1.52-0.36-3.03-0.83-4.47-1.44c-4.74-2.02-7.61-5.44-7.7-10.79
		c-0.06-3.45-0.09-6.89-0.1-10.34c0-4.61,2.3-7.87,6.1-10.23c4.36-2.71,9.18-3.92,14.23-4.36c6.46-0.56,12.8-0.06,18.89,2.32
		c4.59,1.8,8.35,4.5,9.98,9.44c0,2.18,0,4.36,0,6.54c-2.21,0.96-4.5,0.51-6.76,0.3c-0.7-0.06-0.87-0.76-0.95-1.38
		c-0.09-0.66-0.05-1.33-0.09-1.99c-0.1-1.77-0.89-3.07-2.44-3.98c-3.03-1.77-6.32-2.78-9.78-3.12c-5.4-0.54-10.75-0.38-15.88,1.7
		c-0.79,0.32-1.53,0.72-2.29,1.09c-2.14,1.02-3.17,2.64-3.07,5.06c0.1,2.35,0,4.72,0.03,7.07c0.04,3.22,1.14,4.74,4.21,5.77
		c3,1.01,6.14,1.32,9.26,1.66c4.26,0.46,8.55,0.75,12.78,1.48c2.51,0.43,4.99,1,7.34,1.99c4.06,1.71,7.09,4.33,7.64,9.03
		C739.32,495.72,739.32,501.04,739.32,506.37z"/>
	<path class="st0" d="M119.85,425.04c2.02,0,7.59,0,7.59,0s0.02,1.66,0.01,2.12c-0.06,23.84-0.04,47.68-0.03,71.51
		c0,2.24,0.02,6.88,0.02,6.88s0.38,3.51,3.56,3.63c0.92,0,1.72,0.01,2.57,0.02c13.25,0.01,28.18,0.03,41.43-0.02
		c0,1.31,0,1.76,0,1.76l0.01,5.62c0,0-3.74,0-5.59,0c-12.28,0.03-24.57,0.01-36.85,0.02c-1.52,0-5.12-0.03-5.12-0.03
		c-4.98,0.09-7.59-3.59-7.59-9.84C119.85,479.5,119.85,452.27,119.85,425.04z"/>
	<path class="st0" d="M436.13,455.86c-3.41,0-11.48,0-11.48,0s-0.02,0.22-0.01,1.89c0.08,14.1,0.05,28.2,0.05,42.3
		c0,1.63-0.02,3.27,0,4.9c0.04,2.76,1.48,4.22,4.28,4.26c2.78,0.04,5.57,0.04,8.35-0.01c0.96-0.02,1.43,0.13,1.37,1.25
		c-0.1,1.63-0.09,3.27,0,4.9c0.06,1.08-0.35,1.3-1.34,1.28c-3.09-0.06-6.17,0.01-9.26-0.03c-6.08-0.06-10.9-4.91-10.91-11
		c-0.02-15.91-0.04-31.83,0.04-47.74c0-0.75-0.03-1.99-0.03-1.99h-2.13c0,0-5.54-0.06-7.65,0c0-0.88-0.05-0.18,0.01-1.27
		c0-1.79,0-3.39,0-5.08c-0.02-0.45-0.01-1.18-0.01-1.18s0.77-0.02,1.27-0.01c2.24,0.06,8.52,0.01,8.52,0.01s0-0.26,0.03-1.72
		c-0.09-6.59-0.01-13.19-0.07-19.79c-0.01-1.23,0.27-1.74,1.58-1.63c1.44,0.11,2.91,0.11,4.35,0c1.27-0.09,1.64,0.32,1.63,1.61
		c-0.06,6.53,0.03,13.07-0.07,19.6c0,1.61,0.01,1.93,0.01,1.93l17.98-0.01l1.69,0.01l0.33,1.89c0,0,4.75,27.41,7.08,41.16
		c0.88,5.18,2.84,16.03,2.95,16.71c2.23-5.72,4.4-11.17,6.52-16.59c3.9-10,7.79-20.01,11.69-30.01c1.3-3.34,3.33-4.78,6.7-4.8
		c3.39-0.02,5.47,1.47,6.8,4.89c5.84,15,18.16,46.44,18.16,46.44s3.08-17.62,4.55-26.34c1.82-10.72,3.93-22.63,5.71-33.35
		c0.27,0,0.27,0,0.27,0s0.35-0.02,0.82-0.01c1.63,0.05,6.61,0.01,6.61,0.01s-3.8,21.91-5.52,32.03c-1.76,10.36-3.54,20.72-5.3,31.08
		c-0.59,3.51-2.56,5.46-5.91,5.8c-3.73,0.38-6.29-1.1-7.6-4.46c-4.96-12.76-9.91-25.52-14.86-38.29c-1.09-2.81-2.18-5.62-3.26-8.44
		c-0.11-0.3-0.25-0.55-0.6-0.67c-6.11,15.73-12.22,31.46-18.34,47.2c-1.67,4.3-6.33,6.03-10.41,3.85c-1.62-0.87-2.68-2.19-3-4.07
		c-2.89-16.97-5.8-33.93-8.71-50.9c-0.24-1.43-0.76-4.34-0.76-4.34l-0.22-1.25"/>
	<path class="st0" d="M232.61,432.69c0,0,0-7.65,0-7.65s-0.48,0-1.83,0c-15.67,0.05-31.35,0.05-47.02,0c-0.74,0-1.7,0-1.7,0
		s0.01,1.27,0.01,1.9c0.04,13.31,0.05,26.63,0,39.94c0,0.71-0.01,1.79-0.01,1.79s1.08,0.01,1.79,0c8.65-0.07,17.31-0.05,25.96,0.03
		c3.99,0.03,7.98,0.32,11.79,1.69c4.76,1.71,6.78,4.51,6.8,9.54c0.03,6.47-0.01,12.95,0.02,19.42c0.01,3.11-1.35,5.45-3.81,7.22
		c-1.48,1.07-3.13,1.81-4.86,2.4c-5.49,1.86-11.14,2.09-16.84,1.58c-4.13-0.37-8.12-1.3-11.71-3.49c-2.42-1.48-4.14-3.49-4.53-6.44
		c-0.15-1.55-0.1-4.84-0.1-4.84h-5.17c0,0-0.97,0.02-1.45,0c-0.32-0.01-0.93,0-0.93,0s0.02,0.66,0.01,0.97
		c-0.45,6.62,1.52,12.14,7.19,16.02c5.14,3.53,10.95,4.95,17.09,5.31c0.61-0.01,1.22-0.02,1.83-0.03c1.6,0,3.2,0,4.8,0
		c0.61,0.01,1.23,0.03,1.84,0.04c6.26-0.39,12.19-1.82,17.36-5.56c4.34-3.13,6.79-7.33,6.84-12.75c0.05-6.78,0.06-13.56,0-20.33
		c-0.07-7.48-3.97-13.07-10.92-15.79c-3.64-1.43-7.44-2.08-11.32-2.29c-7.44-0.4-24.12-0.22-24.12-0.22v-28.44c0,0,1.08-0.01,1.79,0
		c11.74,0.06,23.48,0.05,35.22,0.01C228.54,432.7,232.61,432.69,232.61,432.69z"/>
	<path class="st0" d="M658.82,480.08c7.6,2.62,14.33,6.49,19.39,12.85c5.32,6.69,7.06,14.41,6.66,22.78
		c-0.04,0.75-0.31,0.91-0.97,0.89c-1.75-0.03-3.51-0.09-5.26,0.02c-1.2,0.07-1.41-0.42-1.36-1.47c0.16-3.64-0.03-7.25-1.25-10.74
		c-2.29-6.58-6.88-11.11-12.89-14.34c-5.82-3.14-12.14-4.66-18.64-5.53c-1.38-0.18-1.74,0.13-1.73,1.54
		c0.06,9.56,0,19.12,0.07,28.68c0.01,1.51-0.35,2.01-1.88,1.87c-1.5-0.14-3.02-0.07-4.53-0.02c-0.81,0.03-1.11-0.26-1.02-1.04
		c0.03-0.3,0.01-0.6,0.01-0.91c0-29.17,0.01-58.33-0.04-87.5c0-1.58,0.34-2.17,1.97-1.98c1.73,0.2,4.04-0.71,5.08,0.32
		c1.13,1.11,0.34,3.43,0.35,5.22c0.03,14.34,0.05,28.68-0.02,43.02c-0.01,1.73,0.22,2.18,2.12,1.86
		c9.02-1.53,17.37-4.62,24.65-10.26c3.54-2.75,6.46-6,7.52-10.56c0.4-1.74,0.24-3.5,0.22-5.24c-0.01-0.97,0.32-1.26,1.26-1.23
		c1.69,0.06,3.39,0.08,5.08-0.01c1.1-0.06,1.21,0.41,1.28,1.36c0.7,9.63-4.04,16.49-11.2,22.12c-4.21,3.32-8.94,5.7-13.93,7.62
		C659.44,479.54,659.01,479.49,658.82,480.08z"/>
	<path class="st0" d="M282.99,453.17c8.6-5.66,18.12-6.5,27.86-5.78c5.78,0.43,11.3,1.9,16.33,4.9c6.09,3.63,9.28,8.76,9.19,16.08
		c-0.17,15.48-0.07,30.97-0.03,46.45c0,0.7,0.03,1.76,0.03,1.76h-7.59c0,0,0.01-0.91,0.01-1.5c0.04-8.89,0.02-17.78,0.02-26.67
		c0-6.9-0.06-13.79,0.03-20.69c0.04-3.32-1.29-5.84-3.87-7.76c-3.99-2.96-8.57-4.39-13.43-4.95c-6.93-0.8-13.75-0.43-20.27,2.37
		c-1.45,0.62-2.82,1.37-4.11,2.29c-2.86,2.03-4.31,4.72-4.29,8.31c0.05,15.61,0,31.21,0.06,46.82c0,0.75,0.03,1.83,0.03,1.83
		l-1.91,0.01l-3.81,0l-1.84-0.01c0,0-0.01-1.03,0-1.74c0.1-5.02,0.04-10.04,0.04-15.06c0-16.51,0.03-33.02-0.04-49.54
		c0-0.82,0-2.12,0-2.12h7.59C282.99,448.15,282.93,451.61,282.99,453.17z"/>
	<path class="st0" d="M602.79,453.34c8.16-5.63,17.16-6.41,26.39-6.18c1.17,0.03,1.64,0.33,1.53,1.54c-0.12,1.26-0.12,2.53-0.13,3.8
		c-0.02,2.4-0.01,2.4-2.42,2.24c-4.55-0.3-9.06,0-13.47,1.19c-3.24,0.87-6.23,2.3-8.73,4.59c-2.11,1.94-3.19,4.27-3.18,7.2
		c0.04,15.66-0.01,31.33,0.07,46.99c-0.04,1.74-0.04,0.38-0.04,1.86c-1.74,0-7.46,0-7.46,0s0.02-3.7,0.02-5.44
		c-0.01-20.26,0.02-40.52-0.05-60.78c0-0.79,0.03-2.03,0.03-2.03s1.2-0.11,2.08-0.02c1.44,0.14,2.9,0.07,4.35,0.01
		c0.39-0.01,1.04,0.01,1.04,0.01s0.03,0.62,0.01,1.02C602.75,450.55,602.79,451.76,602.79,453.34z"/>
	<path class="st0" d="M253.66,517.32c-3.1-0.03-5.5-2.5-5.44-5.59c0.06-3.06,2.57-5.43,5.68-5.36c3,0.06,5.36,2.5,5.33,5.51
		C259.19,515,256.79,517.35,253.66,517.32z"/>
	<path class="st0" d="M400.79,501.81c-0.18,0.18-0.42,0.46-0.79,0.86c-2.5,2.71-5.48,4.73-9.04,5.8c-7,2.11-14.14,2.5-21.34,1.38
		c-4.44-0.69-8.69-2.04-12.47-4.6c-2.91-1.97-4.45-4.66-4.37-8.25c0.07-2.96,0.08-5.93-0.02-8.89c-0.05-1.39,0.3-1.83,1.76-1.81
		c6.83,0.08,13.67,0.04,20.5,0.04c6.9,0,13.79,0.03,20.69-0.01c5.78-0.04,9.92-4.21,9.96-9.97c0.02-2.66,0.02-5.09,0.02-7.98
		c0.32-7.3-3.06-12.47-9.15-16.09c-6.14-3.66-12.92-4.95-19.95-5.07c-7.96-0.13-15.66,1.08-22.59,5.36
		c-5.71,3.53-8.8,8.51-8.71,15.44c0.13,10.04,0.03,20.08,0.04,30.12c0.01,4.18,1.5,7.75,4.45,10.75c2.64,2.69,5.85,4.47,9.3,5.8
		c8.54,3.29,17.39,3.83,26.39,2.73c7.65-0.94,14.49-3.57,19.85-9.4c0.32-0.35,0.52-0.54,0.8-0.89
		C404.24,505.18,401.32,502.34,400.79,501.81z M352.77,468.23c-0.13-4.04,1.69-6.94,4.99-9.03c4.67-2.96,9.85-4.16,15.3-4.4
		c6.86-0.3,13.52,0.42,19.6,3.98c3.67,2.15,5.66,5.14,5.66,9.61c0.04,2.55,0.06,4.71-0.16,7.26c-0.01,2.49-0.63,3.13-3.08,3.13
		c-6.77,0-13.55,0-20.32,0c-6.84,0-13.67-0.03-20.51,0.03c-1.19,0.01-1.53-0.31-1.5-1.5C352.85,474.28,352.87,471.25,352.77,468.23z
		"/>
	<path class="st0" d="M586.27,482.56c0-5.26,0.01-10.53,0-15.79c-0.01-4.19-1.52-7.76-4.4-10.79c-2.6-2.72-5.77-4.56-9.23-5.9
		c-7.81-3.02-15.88-3.46-24.09-2.33c-5.45,0.75-10.59,2.42-15.13,5.63c-4.92,3.48-7.53,8.13-7.46,14.29
		c0.1,9.68,0.18,19.36-0.02,29.04c-0.16,7.4,3.13,12.61,9.32,16.19c7.66,4.42,16.03,5.41,24.68,4.85
		c6.74-0.44,13.12-2.04,18.76-5.93c5.02-3.46,7.72-8.15,7.59-14.38C586.19,492.48,586.27,487.52,586.27,482.56z M578.86,497
		c0.04,3.83-1.54,6.61-4.62,8.67c-4.55,3.05-9.68,4.31-15.04,4.63c-6.78,0.4-13.38-0.31-19.51-3.6c-4.26-2.29-6.59-5.56-6.31-10.64
		c0.25-4.52,0.05-9.07,0.05-13.6c0-4.84,0.06-9.68-0.02-14.51c-0.06-3.52,1.36-6.19,4.17-8.17c4.86-3.43,10.39-4.72,16.21-4.98
		c6.36-0.29,12.54,0.42,18.31,3.37c4.46,2.28,6.94,5.54,6.79,10.9C578.63,478.37,578.75,487.68,578.86,497z"/>
	<g>
		<path class="st0" d="M562.07,304.86c0-2.54,0-5.08,0-7.62c0-4.84,0-9.68,0-14.52c0-3.51,0-7.02,0-10.53c0-2.18,0-4.36,0-6.54
			c0-2.66,0-5.33,0-7.99c0-2.66,0-5.33,0-7.99c0-2.42,0-4.84,0-7.26c0-2.3,0-4.6,0-6.9c0-1.94,0-3.87,0-5.81c0-4.72,0-9.44,0-14.16
			c0-2.42,0-4.84,0-7.26c0-2.18,0-4.36,0-6.54c0-5.2,0-10.41,0-15.61c0-4.84,0-9.68,0-14.52c0-1.21,0-2.42,0-3.63
			c0-2.66-0.01-5.33-0.01-7.99c0,0,0,0,0,0c0.06-2.33-0.14-4.63-0.64-6.91c0.01-0.75,0.08-1.5-0.33-2.19
			c0.01-0.41,0.11-0.85-0.38-1.08c-0.03-0.24-0.05-0.47-0.08-0.71c-0.2-2.12-0.69-4.17-1.4-6.17c-0.35-1.8-0.88-3.53-1.88-5.08
			c0.18-0.86-0.25-1.52-0.69-2.18c-0.51-1.57-1.17-3.07-2.13-4.43c-0.4-1.18-1.02-2.24-1.79-3.22h0l0,0
			c-1.72-3.16-3.8-6.07-6.22-8.73c-1.08-1.2-1.92-2.62-3.29-3.56c-0.96-0.88-1.91-1.77-2.87-2.65c-0.84-0.87-1.67-1.74-2.51-2.61
			c-0.36-0.21-0.73-0.41-1.09-0.62c-2.8-2.71-5.84-5.12-9.14-7.19c-2.29-1.36-4.59-2.72-6.88-4.08c-1.04-0.7-2.02-1.49-3.27-1.82
			c-0.88-0.63-1.79-1.21-2.88-1.43c-2.12-1.46-4.53-2.32-6.9-3.27c-2.88-1.58-5.95-2.66-9.07-3.63c-0.16-0.41-0.54-0.41-0.88-0.51
			c-3.29-1.03-6.59-2.07-9.88-3.11c-7.29-2.3-14.8-3.67-22.31-5.02c-7.31-1.31-14.72-1.9-22.14-2.31c-0.72,0-1.22-0.06-1.82-0.1
			c-0.61,0-1.21-0.13-1.81-0.13c-1.22-0.01-1.87-0.05-2.92-0.05c-4.72,0-9.44,0-14.16,0c-0.97,0.39-1.98,0.09-2.96,0.19
			c-0.71,0-1.42,0-2.13,0c-0.61,0.05-1.23-0.12-1.82,0.13c-12.29,0.67-24.46,2.22-36.43,5.11c-6.22,1.5-12.43,3.08-18.38,5.49
			c-3.25,0.96-6.35,2.31-9.43,3.71c-2.36,0.96-4.72,1.91-6.91,3.22c-0.9,0.36-1.82,0.7-2.57,1.35c-1.2,0.64-2.41,1.28-3.61,1.92
			c-2.37,1.33-4.72,2.69-6.9,4.33c-3.24,2.01-6.29,4.27-9.09,6.84c-0.24,0.23-0.49,0.46-0.73,0.69c-1.05,0.76-2.06,1.58-2.89,2.6
			c-1.08,0.85-2.05,1.82-2.9,2.91c-1.26,1.05-2.23,2.36-3.28,3.59h0c-2.16,2.61-4.36,5.2-5.85,8.28c-1.05,1.37-2.04,2.77-2.5,4.47
			c-1.91,3.45-3.53,7.01-4.33,10.9c-1.58,4.69-2.43,9.51-2.58,14.46c-0.02,0.14-0.03,0.26-0.05,0.38c-0.58,4.6-0.22,9.23-0.23,13.84
			c0,2.06,0,4.12,0,6.17c0,3.03,0,6.05,0,9.08c0,5.57,0,11.13,0,16.7c0,4.48,0,8.96,0,13.43c0,4.96,0,9.92,0,14.89
			c0,1.45,0,2.9,0,4.36c0,2.3,0,4.6,0,6.9c0,3.39,0,6.78,0,10.17c0,3.03,0,6.05,0,9.08c0,2.54,0,5.08,0,7.62c0,3.75,0,7.5,0,11.26
			c0,3.39,0,6.78,0,10.17c0,1.33,0,2.66,0,3.99c0,2.06,0,4.11,0,6.17c0,1.09,0,2.18,0,3.27c0.01,0.25,0.01,0.5,0.02,0.74
			c-0.01,0.95-0.07,1.91,0.09,2.85c0.01,0.26,0.09,0.52,0.19,0.79c0.02,0.48,0.05,0.95,0.07,1.43c0.03,1.61,0.18,3.19,0.66,4.74
			c0.03,2.63,0.95,5.08,1.52,7.6c0.88,2.48,1.49,5.06,2.78,7.39c0.07,0.97,0.55,1.76,1.11,2.52c0.72,1.95,1.65,3.78,2.91,5.43
			c0.11,0.76,0.65,1.25,1.1,1.8c-0.02,0.54,0.32,0.83,0.73,1.09c0.02,0.74,0.63,1.06,1.06,1.51c0,0,0,0,0,0
			c0.68,1.31,1.64,2.41,2.61,3.5c1.07,1.47,2.13,2.94,3.59,4.07c1.87,2.23,3.97,4.23,6.21,6.07c0.06,0.08,0.14,0.11,0.24,0.09l0,0
			c0.96,1.16,2.22,1.95,3.38,2.87c1.71,1.48,3.5,2.83,5.46,3.95c0.6,0.39,0.97,1.12,1.79,1.18c0.73,0.48,1.46,0.96,2.19,1.44
			c1.77,1.15,3.51,2.35,5.47,3.17c3.76,2.08,7.55,4.08,11.57,5.61c2.47,1.26,5.03,2.27,7.68,3.1c7.33,3.04,14.97,5.05,22.71,6.71
			c13.68,2.95,27.52,4.4,41.51,4.66c21.51,0.4,42.77-1.26,63.54-7.25c4.33-1.25,8.71-2.39,12.78-4.4c2.57-0.59,4.93-1.71,7.26-2.9
			c0.22-0.06,0.46-0.09,0.67-0.18c3.74-1.59,7.33-3.49,10.94-5.35l0,0c1.95-1.19,3.9-2.38,5.85-3.57c0.59-0.38,1.18-0.76,1.77-1.14
			l0,0h0c0.65-0.43,1.46-0.64,1.87-1.39c2.09-0.96,3.81-2.42,5.45-4c1.32-0.55,2.23-1.62,3.26-2.54c0,0,0,0,0,0c0,0,0,0,0,0
			c0.11-0.11,0.23-0.23,0.34-0.34c0,0,0,0,0,0c2.5-1.75,4.5-4.04,6.65-6.17c0.81-1.54,2.54-2.35,3.2-4.01
			c1.38-0.88,1.87-2.49,2.94-3.62h0h0c0.35-0.25,0.61-0.57,0.7-1l0,0c0.36-0.29,0.63-0.64,0.71-1.1l0,0
			c0.5-0.44,0.81-0.99,1.02-1.61c1.95-2.64,3.07-5.7,4.37-8.67c2.34-5.21,3.8-10.65,4.36-16.33
			C561.98,310.69,562.22,307.79,562.07,304.86z M510.41,297.18c-0.4,0.09-0.58,0.4-0.72,0.73c-0.87,1.96-1.58,3.98-2.5,5.92
			c-0.12,0.26-0.17,0.54-0.06,0.81c-0.47,0.29-0.79,0.75-1.08,1.25c-1.26,2.14-2.6,4.22-4.04,6.25c-0.26,0.36-0.69,0.72-0.53,1.23
			c-0.91,0.45-1.53,1.26-2.17,2.03c-3.83,4.62-8.54,8.15-13.64,11.22c-0.73,0.44-1.63,0.69-1.99,1.58
			c-1.15-0.11-2.12,0.49-3.12,0.91c-9.93,4.22-20.17,5.62-30.84,3.71c-2.54-0.46-4.99-1.45-7.61-1.43
			c-1.69-1.47-3.75-1.99-5.94-2.21c0.09-0.4-0.34-0.67-0.79-0.91c-3.11-1.64-6.06-3.52-8.94-5.53c-0.47-0.33-0.97-0.6-1.53-0.67
			c-0.04-0.71-0.55-1.14-1.02-1.54c-1.77-1.51-11.35-15.43-12.45-16.04c-0.01,0-1.97-3.83-2.12-4.34c-0.27-0.93-0.68-1.81-1-2.72
			c-0.28-0.81-1.85-7.26-1.94-7.93c-0.28-2.12-0.63-4.24-0.63-6.39c0-0.68-0.08-2.5-0.06-2.92c0.13-3-0.17-6-0.27-8.99
			c-0.02-0.48-0.04-5.31-2.82-5.38c-0.6-0.02-1.21-0.01-1.81-0.01c-11.49,0-22.98-0.04-34.47,0.02c-3.75,0.02-7.16-0.9-10.34-2.84
			c-0.82-0.5-1.61-1.06-2.56-1.31c-0.05-0.39-0.31-0.68-0.59-0.93c-1.95-1.82-3.4-3.98-4.51-6.4c-0.21-0.47-0.41-1.02-1.07-1.08
			c0.35-0.49,0.24-1.07,0.12-1.63c-0.47-2.3-0.8-4.62-0.79-6.97c0-0.59-0.04-1.2-0.5-1.64c0.93-2.29,0.83-4.59,0.01-6.89
			c0.79-1.38,0.79-2.77,0.01-4.15c0.02-0.01,0.04-0.02,0.06-0.04c0.43-0.56,0.47-1.22,0.48-1.89c0.03-3.78,0.04-7.56,0-11.34
			c-0.01-0.65-0.06-1.3-0.5-1.83c0.46-0.49,0.49-1.12,0.5-1.75c0.04-3.25,0.04-6.51,0-9.76c-0.01-0.62-0.03-1.26-0.5-1.74
			c0.01-0.01,0.02-0.01,0.03-0.02c0.42-0.56,0.47-1.23,0.47-1.89c0.03-4.38,0.04-8.76,0-13.14c-0.01-0.65-0.06-1.31-0.51-1.84
			c0.74-0.88,0.56-1.97,0.5-2.97c-0.13-2.05,0.53-4.17-0.53-6.13c0.86-1.98,0.86-3.96,0-5.93c0.02-0.01,0.03-0.02,0.05-0.03
			c0.36-0.45,0.46-0.99,0.47-1.53c0.07-3.08,0.05-6.16,0.01-9.24c-0.01-0.58-0.07-1.16-0.52-1.6c0.7-0.78,0.51-1.78,0.49-2.69
			c-0.12-4.07,0.18-8.07,1.69-11.9c0.19-0.47,0.31-0.96,0.1-1.43c0.69-0.01,0.85-0.66,1.13-1.1c2.99-4.72,7.26-7.6,12.66-8.9
			c0.39-0.09,0.9-0.06,1.17-0.37c0.01,0,0.02,0,0.03,0.01c1.66,0.06,3.32,0.13,4.96-0.14c0.07-0.02,0.14-0.03,0.22-0.05
			c0.24,0.19,0.54,0.29,0.84,0.33c2.82,0.45,5.38,1.55,7.82,2.97c0.37,0.21,0.76,0.33,1.17,0.34c0.4,1.11,1.34,1.58,2.45,1.85
			c0.01,0,0.01,0,0.02,0c-0.03,0.06-0.03,0.12,0.01,0.19c0.95,1.78,1.86,3.6,3.57,4.8c-0.16,0.28-0.18,0.59-0.06,0.91
			c0.66,1.72,0.9,3.59,1.88,5.19c-0.42,0.61-0.26,1.13,0.42,1.56c-0.51,0.7-0.53,1.4,0,2.11c-0.76,2.3-0.92,4.59,0.02,6.87
			c-0.01,0.01-0.03,0.02-0.04,0.03c-0.78,2.73-0.88,5.45,0.04,8.17c-0.73,1.14-0.73,2.29-0.02,3.43c0,0,0,0,0,0
			c-0.79,1.65-0.78,3.3,0,4.95c0.02,0.02,0.05,0.03,0.07,0.04c0,3.34,0,6.68,0,10.02c0,6.17,0,12.35,0,18.52
			c-0.03,6.46-0.01,12.92-0.11,19.37c-0.02,1.43,0.47,1.68,1.76,1.66c5.37-0.07,10.75-0.08,16.12,0.01c1.4,0.02,1.71-0.44,1.7-1.75
			c-0.05-8.93-0.02-17.87-0.03-26.8c0-1.81-0.07-3.61-0.11-5.42c0,0,0,0,0,0c0.23-1.58,0.45-3.16,0.68-4.74c0,0,0,0,0,0
			c1.22-4.1,3.56-7.48,6.67-10.35c0,0,0.01,0,0.01,0c0.96-0.08,1.68-0.66,2.44-1.15c3.15-2.01,6.64-2.94,10.33-2.95
			c22.14-0.03,44.27-0.04,66.41,0.01c2.73,0.01,5.41,0.45,7.95,1.58c4.61,2.06,8.02,5.31,10.16,9.9c0.38,0.82,0.57,1.87,1.56,2.25
			c-0.45,0.57-0.29,1.22-0.16,1.84c0.9,4.07,0.4,8-1.06,11.86c-0.18,0.49-0.09,0.6-0.43,1.4c-2.08,4.38-5.27,6.14-5.8,6.55
			c-4.01,3.09-8.59,4.18-13.59,4.16c-13.72-0.06-27.44-0.03-41.15-0.01c-1.05,0-2.2-0.29-3.09,0.61c0,0.02,0,0.04,0,0.06
			c-1.14,0.09-0.86,1.1-0.88,1.76c-0.09,3.02-0.07,6.04-0.03,9.06c0.03,2.24,0.43,2.65,2.66,2.68c3.8,0.05,7.61,0.03,11.41,0.01
			c5.87-0.02,11.51,1.17,17.03,3.06c0.85,0.29,1.67,0.7,2.59,0.65c0.2,0.38,0.6,0.55,0.99,0.71c2.96,1.21,5.66,2.89,8.33,4.63
			c0.49,0.32,0.97,0.73,1.61,0.65c0.08,0.48,0.49,0.84,0.92,1.16c2.11,1.6,4,3.45,5.96,5.21c0.3,0.27,0.6,0.48,0.93,0.54
			c-0.07,0.29,0.03,0.56,0.22,0.77c1.73,1.93,3.29,4,4.85,6.07c0.15,0.2,0.33,0.36,0.59,0.36c-0.08,0.54,0.22,1.05,0.48,1.53
			c0.96,1.78,2.07,3.47,2.93,5.3c0.19,0.41,0.45,0.74,0.83,0.89c0.24,2.7,1.43,5.09,2.58,7.48c0.05,0.1,0.14,0.17,0.23,0.23
			c-0.37,2.25,0.27,4.3,1.25,6.29c0.01,0.02,0.06,0.02,0.11,0.02c-0.29,0.36-0.29,0.83-0.26,1.3c0.24,0.86,0.27,1.72,0.17,2.6
			c-0.02,1.13-0.05,2.26,0.01,3.39c0.05,1.06-0.28,2.21,0.52,3.14c-0.45,0.45-0.45,1.07-0.49,1.68c0.04,0.73,0.04,1.46-0.24,2.15
			c-0.66,3.03-1.12,6.11-2.02,9.09c-0.17,0.57-0.27,1.18,0.09,1.64C510.42,297.18,510.41,297.18,510.41,297.18z"/>
		<path class="st0" d="M495.33,256.2c-3.41-5.45-7.89-9.8-13.42-13.08c-6.75-4.41-14.2-6.55-22.22-6.56
			c-25.74-0.04-51.48-0.01-77.23-0.02c-3.83,0-5.7-1.49-6.34-5.04c-0.02-9.66-0.03-19.33-0.05-28.99l0,0c0-5.23,0-10.46,0-15.69
			c0-9.17,0-18.34,0-27.51c0.03-2.17,0.08-4.34,0.08-6.51c-0.01-5.44-4.16-9.77-9.46-9.9c-5.39-0.14-9.86,4.02-10.05,9.51
			c-0.1,3.01,0.01,6.03,0.02,9.05c0,7.99,0,15.98,0,23.96c0,7.75,0,15.49,0,23.24c0,7.5,0,15.01,0,22.51c0,3.99,0,7.99,0,11.98
			c-0.95,8.6,4.21,13.07,12.14,13.01c29.26-0.22,58.53-0.07,87.8-0.11c3.52,0,6.99,0.17,10.38,1.21c4.64,1.92,8.62,4.69,11.61,8.82
			c3.45,4.77,4.69,10.12,4.47,15.9l0,0v0c-0.53,5.53-2.75,10.32-6.33,14.52c-0.27,0.23-0.56,0.45-0.81,0.7
			c-4.74,4.57-10.4,6.9-16.99,6.9c-6.74-0.01-12.4-2.64-17.23-7.24c-3.9-4.34-6.16-9.39-6.7-15.2c0.01-0.6,0.05-1.21,0.03-1.81
			c-0.17-6.87-7.28-11.44-13.57-8.73c-4.62,1.99-6.8,6.73-5.68,12.37c0,0,0,0,0,0c0.17,5,1.4,9.74,3.59,14.24c0,0,0,0,0,0
			c0.98,3.1,2.8,5.71,4.78,8.23c2.06,3.13,4.75,5.67,7.6,8.05c2.45,2.11,5.17,3.87,8.07,5.24c8.38,3.96,17.21,5.31,26.38,3.78
			c7.47-1.24,14.09-4.46,20.01-9.14c3.08-2.12,5.55-4.82,7.66-7.88c2.04-2.71,3.69-5.65,5.06-8.75c2.59-5.52,3.74-11.34,3.57-17.42
			C502.58,271.19,500.2,263.31,495.33,256.2z"/>
		<path class="st0" d="M416.67,225.05c-0.01,1.18,0.84,0.96,1.53,0.96c5.5,0.01,11.01-0.03,16.51,0.03
			c1.22,0.01,1.52-0.38,1.51-1.55c-0.06-5.08,0-10.16-0.04-15.24c-0.01-1.47,0.17-2.88,0.67-4.26c1.38-1.94,3.24-2.63,5.62-2.62
			c16.69,0.06,33.39,0.03,50.08,0.03c3,0,5.58-1.03,7.56-3.3c2.71-3.12,3.35-6.71,1.63-10.46c-1.74-3.8-4.89-5.77-9.09-5.78
			c-13.91-0.04-27.82-0.01-41.73-0.01c-8.1,0-16.21-0.03-24.31,0.01c-4.89,0.02-9.15,3.53-9.67,8.14c-0.51,4.45-0.32,8.93-0.1,13.39
			C416.48,211.28,416.75,218.17,416.67,225.05z"/>
		<path class="st0" d="M451.04,290.85c4.48,3.29,9.41,3.72,14.32,1.06c4.58-2.48,7.14-6.37,7.06-11.75
			c0.39-6.35-4.65-12.6-11.05-13.4c-4.93-0.62-9.9-0.12-14.85-0.25c-0.88-0.02-0.96,0.45-0.95,1.14c0.04,4.17,0.05,8.34,0.07,12.51
			l0,0C445.55,284.68,447.5,288.25,451.04,290.85z"/>
	</g>
	<path class="st0" d="M422.69,77.2"/>
</g>
<path class="st1" d="M512.3,186.63"/>
</svg>
