<svg xmlns="http://www.w3.org/2000/svg" width="82.66" height="66.13" viewBox="0 0 82.66 66.13"><defs><style>.a{fill:#393939;}.b{fill:#3a3d3e;}.c{fill:#393b3e;}</style></defs><g transform="translate(-6.47 -15.8)"><path class="a" d="M82.25,22.69H51.94V19.93a4.131,4.131,0,0,0-4.13-4.13H17.5a4.131,4.131,0,0,0-4.13,4.13v4.13a1.383,1.383,0,0,0,1.38,1.38h0a1.383,1.383,0,0,0,1.38-1.38V19.93a1.383,1.383,0,0,1,1.38-1.38H47.82a1.383,1.383,0,0,1,1.38,1.38v3.52a1.989,1.989,0,0,0,1.99,1.99H82.26a4.131,4.131,0,0,1,4.13,4.13V74.9a4.2,4.2,0,0,1-3.52,4.23,4.086,4.086,0,0,1-4.75-4.09V36.47a6.89,6.89,0,0,0-6.89-6.89H13.36a6.89,6.89,0,0,0-6.89,6.89V75.04a6.89,6.89,0,0,0,6.89,6.89H82.24a6.89,6.89,0,0,0,6.89-6.89V29.58a6.813,6.813,0,0,0-6.88-6.89ZM13.36,79.18a4.131,4.131,0,0,1-4.13-4.13V36.47a4.131,4.131,0,0,1,4.13-4.13H71.22a4.131,4.131,0,0,1,4.13,4.13V75.2a3.8,3.8,0,0,1-3.77,3.97H13.36Zm0,0"/><path class="a" d="M82.25,32.34h0a1.383,1.383,0,0,1,1.38,1.38V73.67a1.383,1.383,0,0,1-1.38,1.38h0a1.383,1.383,0,0,1-1.38-1.38V33.71A1.374,1.374,0,0,1,82.25,32.34Z"/><path class="b" d="M51.08,56.74a1.061,1.061,0,0,0,1.06-1.06v-.91a3.43,3.43,0,0,0-2.65-3.33V48.38l-.01-.08a7.256,7.256,0,0,0-14.37.34v2.8a3.42,3.42,0,0,0-2.65,3.33v8.49a3.425,3.425,0,0,0,3.42,3.42H48.74a3.425,3.425,0,0,0,3.42-3.42,1.06,1.06,0,0,0-2.12,0,1.293,1.293,0,0,1-1.29,1.29H35.86a1.293,1.293,0,0,1-1.29-1.29V54.77a1.293,1.293,0,0,1,1.29-1.29H48.72a1.293,1.293,0,0,1,1.29,1.29v.91A1.082,1.082,0,0,0,51.08,56.74ZM42.31,44.32a5.094,5.094,0,0,1,5.05,4.23v2.79H37.22V48.81A5.13,5.13,0,0,1,42.31,44.32Z"/><path class="b" d="M42.3,64.02a1.061,1.061,0,0,0,1.06-1.06V61.75a3.65,3.65,0,1,0-2.12,0v1.21A1.048,1.048,0,0,0,42.3,64.02Zm-1.53-5.76a1.53,1.53,0,1,1,1.64,1.52c-.04,0-.07-.01-.11-.01s-.07.01-.11.01A1.514,1.514,0,0,1,40.77,58.26Z"/><path class="c" d="M42.3,76.12a20.37,20.37,0,0,1,0-40.74c6.23,0,10.63,1.8,14.26,5.83a1.253,1.253,0,1,1-1.86,1.68c-3.15-3.5-6.86-5-12.4-5A17.822,17.822,0,1,0,59.26,50.12a1.259,1.259,0,1,1,2.39-.79A20.391,20.391,0,0,1,42.3,76.12Z"/></g></svg>