<?xml version="1.0" encoding="utf-8"?>
<!-- Generator: Adobe Illustrator 25.3.1, SVG Export Plug-In . SVG Version: 6.00 Build 0)  -->
<svg version="1.1" id="Camada_1" xmlns="http://www.w3.org/2000/svg" xmlns:xlink="http://www.w3.org/1999/xlink" x="0px" y="0px"
	 viewBox="0 0 595.3 168" style="enable-background:new 0 0 595.3 168;" xml:space="preserve">
<style type="text/css">
	.st0{fill:#747776;}
	.st1{fill:#444647;}
	.st2{fill:#606060;}
	.st3{fill:#545757;}
</style>
<polygon class="st0" points="124.2,67.5 62.2,67.5 42.8,15.3 "/>
<polygon class="st1" points="84.8,67.5 72.4,40.2 69.5,38.9 78.8,67.5 80.5,67.5 60.3,112.6 80.6,101.9 91.7,67.5 "/>
<polygon class="st0" points="131.2,72.3 54.6,112.9 48.5,123.6 "/>
<polygon class="st2" points="80.6,78.3 73.8,96.6 124.2,67.5 118.6,67.5 78,43.7 71.7,33.8 42.8,15.3 73.2,67.5 79.1,67.5 
	72.5,40.5 92,67.5 "/>
<polygon class="st0" points="124.2,67.5 84.6,67.5 80.2,79.3 "/>
<polygon class="st0" points="124.2,67.5 105.8,60.5 110.8,67.5 "/>
<polygon class="st0" points="124.2,67.5 110.8,67.5 107,72.1 "/>
<polygon class="st3" points="198.2,102.8 210.6,102.8 210.6,86.8 198.2,88.2 "/>
<polygon class="st3" points="143.8,102.8 156.2,102.8 156.2,93 143.8,94.4 "/>
<path class="st3" d="M348.9,90.6h-22.4c-9,0-16.9-6.1-19.1-14.8l-12.2,1.4c3.2,15,16.5,25.7,31.9,25.7h28.6c3.1,0,5.6-2.6,5.7-5.7
	l0,0V69.6L348.9,71V90.6z"/>
<path class="st3" d="M499.6,75h-42.1v-7.3c0-3.3,0.9-6.5,2.5-9.4l-13.7,1.6c-0.7,2.4-1,4.9-1.1,7.4v35.5h12.3V87.3h42.1v15.5h12.4
	V52.4l-12.4,1.4V75z"/>
<path class="st3" d="M219.1,87c0.2,8.8,7.4,15.7,16.1,15.8h50.6V90.6h-50.4c-2.2,0-4-1.8-4-4v-2.2l-12.3,1.4L219.1,87L219.1,87z"/>
<path class="st3" d="M369.8,102.8h12.4V67.2l-12.4,1.4V102.8z"/>
<path class="st3" d="M415.4,68.4h-28.7v12.2h8.5l24.5,22.1h18.6l-24.5-22.1h1.4c11.1-0.1,20.3-8.6,21.3-19.7l-12.8,1.5
	C422.3,65.9,419.1,68.2,415.4,68.4z"/>
<path class="st0" d="M210.6,41.7c0-3.1-2.5-5.7-5.7-5.7h-28.6c-17.5-0.1-31.9,13.8-32.5,31.3v27.1l12.3-1.4v-5.7h42.1v0.9l12.4-1.4
	V41.7L210.6,41.7z M198.2,75h-42.1v-7.3c0.1-10.8,8.9-19.5,19.7-19.5h22.4V75z"/>
<polygon class="st0" points="348.9,36 348.9,71 361.2,69.6 361.2,36 "/>
<path class="st0" d="M306.8,71.1V36h-12.3v35.5c0,1.9,0.3,3.8,0.6,5.6l12.2-1.4C307,74.2,306.8,72.6,306.8,71.1z"/>
<path class="st0" d="M511.9,41.7c0-3.1-2.5-5.7-5.7-5.7h-28.6c-14.6,0-27.5,9.7-31.4,23.8l13.7-1.5c3.5-6.2,10.1-10,17.2-10h22.4
	v5.5l12.4-1.4L511.9,41.7L511.9,41.7z"/>
<path class="st0" d="M235.5,48.3h50.4V36h-50.5c-8.9,0-16.2,7.1-16.3,16v33.7l12.3-1.4V52.3C231.5,50.1,233.3,48.3,235.5,48.3
	C235.5,48.3,235.5,48.3,235.5,48.3z"/>
<path class="st0" d="M436.6,49.8c0-7.3-5.7-13.3-13-13.7h-47.2c-3.6,0-6.6,3-6.6,6.7v25.9l12.4-1.4V48.3h41.3c0.5,0,0.8,0.3,0.9,0.8
	c0,0,0,9.8,0,9.9c0,1.2-0.2,2.3-0.7,3.4l12.9-1.5c0-0.6,0.1-1.2,0.1-1.8C436.6,57.3,436.6,51.2,436.6,49.8z"/>
<path class="st3" d="M548.2,48.3c0,0.3,0,0.6,0,0.9v5.1c0,1.1-0.1,2.2-0.5,3.2c-0.3,0.8-0.7,1.5-1.3,2.2l-5.7-4.9
	c0.5-0.2,1.1-0.4,1.6-0.7c0.5-0.3,1-0.7,1.4-1.1c0.4-0.5,0.8-1.1,1-1.7c0.3-0.7,0.4-1.5,0.4-2.3v-0.4l-4.2,0.5
	c0.1,0.8-0.5,1.5-1.3,1.6c-0.1,0-0.3,0-0.4,0h-5.3v4.3h0.7l8.1,7c-0.5,0.1-1,0.2-1.5,0.3c-0.4,0-0.7,0-0.9,0h-7.6h-0.9
	c-0.5-0.1-1.1-0.2-1.6-0.3c-0.7-0.2-1.3-0.4-1.9-0.8c-0.7-0.4-1.3-0.8-1.8-1.4c-0.6-0.7-1.1-1.4-1.4-2.2c-0.4-1.1-0.6-2.2-0.5-3.3
	V51l-4.2,0.5v2.8c0,1.5,0.2,2.9,0.6,4.3c0.4,1.2,0.9,2.2,1.6,3.2c0.7,0.9,1.4,1.6,2.3,2.3c1.6,1.1,3.4,1.9,5.4,2.3
	c0.8,0.1,1.6,0.2,2.4,0.2h7.7c0.8,0,1.6-0.1,2.4-0.2c0.9-0.2,1.8-0.4,2.7-0.8c1-0.4,1.9-0.9,2.7-1.4c0.9-0.6,1.7-1.4,2.3-2.3
	c0.7-1,1.3-2.1,1.6-3.2c0.4-1.4,0.6-2.9,0.6-4.3v-5.1c0-0.5,0-0.9,0-1.4L548.2,48.3z"/>
<polygon class="st3" points="532.3,50.2 528,50.6 528,59.3 532.3,59.3 "/>
<path class="st0" d="M524.5,51v-1.8c0-1.1,0.2-2.3,0.5-3.3c0.3-0.8,0.8-1.6,1.4-2.3c0.5-0.6,1.1-1,1.8-1.4c1.1-0.6,2.3-0.9,3.5-1
	l0.9-0.1h7.7c0.4,0,0.8,0.1,1.3,0.2c0.4,0.1,0.9,0.2,1.3,0.3c0.5,0.1,1,0.3,1.5,0.6c2.3,1.1,3.9,3.5,3.9,6.1l4.2-0.5
	c-0.1-1-0.3-2-0.5-2.9c-0.4-1.2-0.9-2.3-1.6-3.2c-0.6-0.9-1.4-1.7-2.3-2.3c-0.8-0.6-1.7-1.1-2.7-1.5c-0.9-0.4-1.8-0.6-2.7-0.8
	c-0.8-0.1-1.6-0.2-2.4-0.2h-7.7c-0.8,0-1.6,0.1-2.4,0.2c-0.9,0.2-1.8,0.4-2.7,0.8c-0.9,0.4-1.8,0.9-2.7,1.5
	c-0.9,0.6-1.7,1.4-2.3,2.3c-0.7,1-1.3,2.1-1.6,3.2c-0.4,1.4-0.6,2.8-0.6,4.3v2.3L524.5,51z"/>
<path class="st0" d="M543.9,44.5c-0.4-0.4-0.8-0.7-1.3-1c-0.6-0.3-1.2-0.4-1.8-0.4h-10.7c-1.2,0-2.1,1-2.1,2.1v5.3l4.2-0.5v-2.8h8.5
	v1.8l4.2-0.5v-1.4c0-0.5-0.1-1-0.3-1.5C544.6,45.3,544.3,44.9,543.9,44.5z"/>
<path class="st2" d="M101,149.3v-10.1l-8.8-13.9h5.7l5.7,9.5l5.6-9.5h5.6l-8.9,13.9v10L101,149.3z"/>
<path class="st2" d="M116,140.6c0-3.2,0.9-5.6,2.7-7.1c1.5-1.3,3.5-2,5.5-1.9c2.2-0.1,4.3,0.8,5.9,2.3c1.6,1.8,2.4,4.1,2.3,6.5
	c0.1,1.8-0.3,3.6-1,5.3c-0.7,1.3-1.7,2.3-3,3c-1.3,0.7-2.8,1.1-4.2,1.1c-2.2,0.1-4.4-0.8-5.9-2.3C116.8,145.8,116,143.6,116,140.6z
	 M119,140.6c-0.1,1.8,0.4,3.6,1.5,5c1.8,2,4.9,2.2,6.9,0.4c0.2-0.1,0.3-0.3,0.4-0.4c1.1-1.5,1.6-3.3,1.5-5.1
	c0.1-1.8-0.4-3.5-1.5-4.9c-1.8-2-4.9-2.2-6.9-0.4c-0.1,0.1-0.3,0.3-0.4,0.4C119.4,137.1,118.9,138.9,119,140.6L119,140.6z"/>
<path class="st2" d="M147.5,149.3v-2.6c-1.2,1.9-3.3,3-5.6,2.9c-1,0-2-0.2-2.9-0.6c-0.8-0.3-1.5-0.8-2-1.5c-0.5-0.7-0.8-1.4-0.9-2.2
	c-0.1-0.9-0.2-1.8-0.2-2.8V132h3v9.6c0,1,0,2.1,0.2,3.1c0.2,0.7,0.6,1.4,1.2,1.8c0.7,0.5,1.4,0.7,2.2,0.7c0.9,0,1.7-0.2,2.5-0.7
	c0.7-0.4,1.3-1.1,1.7-1.9c0.4-1.1,0.5-2.2,0.5-3.4V132h3v17.4L147.5,149.3L147.5,149.3z"/>
<path class="st2" d="M155,149.3V132h2.7v2.6c0.4-0.9,1.1-1.8,1.9-2.4c0.6-0.4,1.2-0.6,1.9-0.6c1.1,0,2.1,0.4,3.1,1l-1,2.7
	c-0.7-0.4-1.4-0.6-2.2-0.6c-0.6,0-1.2,0.2-1.7,0.6c-0.5,0.4-0.9,1-1.1,1.6c-0.3,1.1-0.5,2.3-0.5,3.4v9.1L155,149.3z"/>
<path class="st2" d="M181.6,149.3v-19.9h-7.2v-4.1h19.2v4.1h-7.1v19.9H181.6z"/>
<path class="st2" d="M196.7,149.3V132h2.7v2.6c0.4-0.9,1.1-1.8,1.9-2.4c0.6-0.4,1.2-0.6,1.9-0.6c1.1,0,2.1,0.4,3.1,1l-1,2.7
	c-0.7-0.4-1.4-0.6-2.2-0.6c-0.6,0-1.2,0.2-1.8,0.6c-0.5,0.4-0.9,1-1.1,1.6c-0.3,1.1-0.5,2.3-0.5,3.4v9.1L196.7,149.3z"/>
<path class="st2" d="M219.6,149.3v-2.6c-1.2,1.9-3.3,3-5.6,2.9c-1,0-2-0.2-2.9-0.6c-0.8-0.3-1.5-0.8-2-1.5c-0.5-0.7-0.8-1.4-0.9-2.2
	c-0.1-0.9-0.2-1.8-0.2-2.8V132h3v9.6c0,1,0,2.1,0.2,3.1c0.2,0.7,0.6,1.4,1.2,1.8c0.7,0.5,1.4,0.7,2.2,0.7c0.9,0,1.7-0.2,2.5-0.7
	c0.7-0.4,1.3-1.1,1.7-1.9c0.4-1.1,0.5-2.2,0.5-3.4V132h3v17.4L219.6,149.3L219.6,149.3z"/>
<path class="st2" d="M225.9,144.1l2.9-0.5c0.1,1,0.6,2,1.4,2.7c0.9,0.7,2,1,3.2,0.9c1.1,0.1,2.1-0.2,3-0.8c0.6-0.5,1-1.2,1-1.9
	c0-0.6-0.3-1.2-0.9-1.6c-1-0.5-2-0.8-3-1c-1.5-0.3-3.1-0.8-4.5-1.4c-0.8-0.3-1.5-0.9-2-1.6c-0.4-0.7-0.7-1.5-0.6-2.3
	c0-0.7,0.2-1.5,0.5-2.1c0.4-0.6,0.9-1.2,1.5-1.6c0.6-0.4,1.2-0.7,1.9-0.9c0.8-0.2,1.7-0.4,2.6-0.4c1.2,0,2.5,0.2,3.6,0.6
	c0.9,0.3,1.7,0.9,2.3,1.6c0.5,0.8,0.9,1.7,1,2.7l-2.9,0.4c-0.1-0.8-0.5-1.6-1.1-2.1c-0.8-0.5-1.7-0.8-2.7-0.7c-1-0.1-2,0.1-2.9,0.7
	c-0.5,0.3-0.9,0.9-0.9,1.6c0,0.4,0.1,0.7,0.4,1c0.3,0.4,0.7,0.6,1.1,0.8c0.3,0.1,1.2,0.4,2.6,0.8c1.5,0.4,3,0.8,4.4,1.4
	c0.8,0.3,1.5,0.9,1.9,1.6c0.5,0.7,0.7,1.6,0.7,2.5c0,1-0.3,2-0.9,2.8c-0.6,0.9-1.5,1.6-2.5,2c-1.2,0.5-2.4,0.7-3.7,0.7
	c-1.8,0.1-3.7-0.4-5.2-1.4C226.9,147.2,226.1,145.8,225.9,144.1z"/>
<path class="st2" d="M250.6,146.7l0.4,2.6c-0.7,0.2-1.5,0.2-2.2,0.3c-0.9,0-1.7-0.1-2.5-0.5c-0.6-0.3-1-0.8-1.2-1.3
	c-0.3-1.1-0.4-2.3-0.4-3.5v-10h-2.2V132h2.2v-4.3l3-1.8v6.1h3v2.3h-3v10.1c0,0.5,0,1.1,0.1,1.6c0.1,0.2,0.3,0.4,0.5,0.6
	c0.3,0.2,0.7,0.2,1,0.2C249.8,146.8,250.2,146.8,250.6,146.7z"/>
<path class="st2" d="M265.6,143.7l3.1,0.4c-0.4,1.6-1.3,3.1-2.7,4.1c-1.5,1-3.2,1.5-5,1.5c-2.3,0.1-4.5-0.7-6.1-2.3
	c-1.6-1.8-2.4-4.2-2.2-6.6c-0.1-2.5,0.7-4.9,2.3-6.8c1.5-1.6,3.7-2.5,5.9-2.4c2.2-0.1,4.3,0.8,5.7,2.4c1.6,1.8,2.4,4.2,2.2,6.7
	c0,0.2,0,0.4,0,0.8h-13.1c0,1.6,0.6,3.2,1.6,4.4c0.9,1,2.3,1.6,3.7,1.5c1,0,2-0.3,2.8-0.9C264.7,145.8,265.3,144.8,265.6,143.7z
	 M255.9,139h9.8c0-1.2-0.4-2.3-1.1-3.3c-0.9-1.1-2.3-1.7-3.7-1.7c-1.3,0-2.5,0.5-3.4,1.4C256.5,136.3,255.9,137.6,255.9,139z"/>
<path class="st2" d="M284,149.3v-2.2c-1,1.7-2.9,2.7-4.9,2.6c-1.4,0-2.7-0.4-3.8-1.1c-1.2-0.8-2.1-1.9-2.7-3.2c-0.7-1.5-1-3.1-1-4.7
	c0-1.6,0.3-3.2,0.9-4.7c0.5-1.3,1.4-2.5,2.6-3.2c1.2-0.8,2.5-1.1,3.9-1.1c1,0,1.9,0.2,2.8,0.7c0.8,0.4,1.5,1,2,1.7v-8.6h3v24
	L284,149.3z M274.6,140.7c-0.1,1.8,0.4,3.6,1.4,5c1.4,1.9,4.1,2.2,5.9,0.8c0.3-0.2,0.5-0.4,0.7-0.7c1-1.4,1.5-3.1,1.3-4.8
	c0-2.4-0.5-4.1-1.4-5.2c-0.8-1.1-2.1-1.7-3.4-1.7c-1.3,0-2.5,0.6-3.3,1.6C275,136.7,274.6,138.4,274.6,140.7L274.6,140.7z"/>
<path class="st2" d="M301.3,149.3v-24h10.3c1.9-0.1,3.8,0.1,5.6,0.7c1.2,0.4,2.2,1.2,2.8,2.3c0.7,1.1,1.1,2.4,1.1,3.8
	c0.1,1.6-0.5,3.2-1.6,4.5c-1.3,1.3-3,2.1-4.8,2.2c1,0.5,1.8,1.2,2.6,2c1,1.2,2,2.5,2.8,3.9l2.9,4.7h-5.8l-3.5-5.2
	c-0.8-1.2-1.6-2.4-2.6-3.5c-0.4-0.4-0.9-0.8-1.5-1c-0.8-0.2-1.6-0.3-2.5-0.3h-1v10L301.3,149.3L301.3,149.3z M306.2,135.5h3.6
	c1.5,0.1,2.9,0,4.4-0.3c0.6-0.2,1-0.5,1.4-1c0.3-0.5,0.5-1.2,0.5-1.8c0-0.7-0.2-1.4-0.6-1.9c-0.5-0.5-1.1-0.9-1.8-0.9
	c-0.4-0.1-1.6-0.1-3.6-0.1h-3.8V135.5L306.2,135.5z"/>
<path class="st2" d="M325.9,149.3v-24h16.6v4.1h-11.7v5.7h10.1v4.1h-10.1v10.2L325.9,149.3z"/>
<path class="st2" d="M346.5,149.3v-24h4.9v24H346.5z"/>
<path class="st2" d="M356.2,125.3h8.9c1.5,0,3.1,0.1,4.6,0.5c1.4,0.4,2.7,1.2,3.6,2.2c1,1.1,1.8,2.4,2.3,3.9
	c0.6,1.8,0.8,3.7,0.8,5.7c0,1.7-0.2,3.5-0.8,5.1c-0.5,1.6-1.4,3-2.6,4.2c-1,0.9-2.2,1.5-3.4,1.9c-1.4,0.4-2.9,0.6-4.3,0.5h-9.2
	L356.2,125.3L356.2,125.3z M361.1,129.4v15.9h3.6c1,0,2,0,3-0.2c0.7-0.2,1.4-0.5,2-1c0.6-0.6,1.1-1.4,1.3-2.3
	c0.4-1.4,0.5-2.9,0.5-4.4c0.1-1.4-0.1-2.9-0.5-4.3c-0.3-0.9-0.7-1.7-1.4-2.3c-0.6-0.6-1.4-1-2.3-1.1c-1.3-0.2-2.7-0.3-4-0.2
	L361.1,129.4z"/>
<path class="st2" d="M390.3,149.3v-24h7.8c1.9-0.1,3.9,0,5.8,0.4c1.4,0.4,2.6,1.2,3.5,2.4c1,1.4,1.5,3,1.4,4.7
	c0,1.3-0.2,2.6-0.8,3.7c-0.5,0.9-1.2,1.7-2,2.4c-0.8,0.5-1.6,0.9-2.5,1.1c-1.7,0.3-3.4,0.4-5.1,0.3h-3.2v9L390.3,149.3z
	 M395.1,129.4v6.8h2.7c1.3,0.1,2.6-0.1,3.9-0.4c0.6-0.2,1.1-0.6,1.5-1.2c0.4-0.6,0.6-1.2,0.5-1.9c0-0.8-0.2-1.6-0.8-2.2
	c-0.5-0.6-1.2-0.9-2-1.1c-1.2-0.1-2.3-0.2-3.5-0.2H395.1z"/>
<path class="st2" d="M424.1,147.2c-0.9,0.8-2,1.5-3.2,2c-1,0.4-2.2,0.6-3.3,0.6c-1.6,0.1-3.2-0.4-4.4-1.4c-1-0.9-1.6-2.2-1.5-3.6
	c0-1.6,0.8-3.1,2.1-4c0.7-0.4,1.4-0.8,2.1-1c0.9-0.2,1.7-0.3,2.6-0.4c1.8-0.2,3.6-0.5,5.3-1c0-0.4,0-0.7,0-0.8
	c0.1-0.9-0.2-1.9-0.8-2.5c-1-0.7-2.2-1.1-3.4-1c-1.1-0.1-2.2,0.2-3.1,0.7c-0.8,0.7-1.3,1.6-1.5,2.6l-2.9-0.4c0.2-1.1,0.6-2.1,1.3-3
	c0.7-0.8,1.6-1.4,2.6-1.8c1.3-0.4,2.6-0.6,4-0.6c1.2,0,2.5,0.1,3.6,0.5c0.8,0.3,1.5,0.7,2.1,1.3c0.5,0.6,0.8,1.3,0.9,2
	c0.1,0.9,0.2,1.8,0.1,2.7v3.9c0,1.7,0,3.5,0.2,5.2c0.1,0.7,0.4,1.4,0.8,2.1h-3.1C424.4,148.7,424.2,147.9,424.1,147.2z M423.9,140.6
	c-1.6,0.6-3.2,0.9-4.8,1.1c-0.9,0.1-1.8,0.3-2.6,0.6c-0.5,0.2-0.9,0.6-1.2,1c-0.7,1.1-0.5,2.5,0.5,3.4c0.7,0.6,1.7,0.9,2.6,0.8
	c1,0,2.1-0.2,3-0.7c0.9-0.4,1.6-1.1,2-2c0.4-0.9,0.5-1.9,0.5-2.9V140.6L423.9,140.6z"/>
<path class="st2" d="M431.6,149.3V132h2.7v2.6c0.4-0.9,1.1-1.8,1.9-2.4c0.6-0.4,1.2-0.6,1.9-0.6c1.1,0,2.1,0.4,3,1l-1,2.7
	c-0.7-0.4-1.4-0.6-2.2-0.6c-0.6,0-1.2,0.2-1.8,0.6c-0.5,0.4-0.9,1-1.1,1.6c-0.3,1.1-0.5,2.3-0.5,3.4v9.1L431.6,149.3z"/>
<path class="st2" d="M449.5,146.7l0.4,2.6c-0.7,0.2-1.5,0.2-2.2,0.3c-0.9,0-1.7-0.1-2.5-0.5c-0.6-0.3-1-0.8-1.2-1.3
	c-0.3-1.1-0.4-2.3-0.4-3.5v-10h-2.2V132h2.2v-4.3l2.9-1.8v6.1h3v2.3h-3v10.1c0,0.5,0,1.1,0.2,1.6c0.1,0.2,0.3,0.4,0.5,0.6
	c0.3,0.2,0.7,0.2,1,0.2C448.7,146.8,449.1,146.8,449.5,146.7z"/>
<path class="st2" d="M452.6,149.3V132h2.7v2.5c1.2-1.9,3.3-3,5.6-2.9c1,0,2,0.2,2.9,0.6c0.8,0.3,1.5,0.8,2,1.5
	c0.5,0.7,0.8,1.4,0.9,2.2c0.1,0.9,0.2,1.9,0.2,2.9v10.7h-3v-10.6c0-0.9-0.1-1.8-0.4-2.7c-0.2-0.6-0.7-1.1-1.2-1.4
	c-0.6-0.4-1.3-0.5-2.1-0.5c-1.2,0-2.4,0.4-3.3,1.2c-0.9,0.8-1.4,2.3-1.4,4.5v9.5L452.6,149.3z"/>
<path class="st2" d="M483.5,143.7l3.1,0.4c-0.4,1.6-1.4,3.1-2.7,4.1c-1.5,1-3.2,1.5-5,1.5c-2.3,0.1-4.5-0.7-6.1-2.3
	c-1.6-1.8-2.4-4.2-2.2-6.6c-0.2-2.5,0.7-4.9,2.3-6.8c1.5-1.6,3.7-2.5,5.9-2.4c2.2-0.1,4.3,0.8,5.7,2.4c1.6,1.9,2.4,4.2,2.2,6.7
	c0,0.2,0,0.4,0,0.8h-13.1c0,1.6,0.6,3.2,1.6,4.4c0.9,1,2.3,1.6,3.7,1.5c1,0,2-0.3,2.8-0.9C482.6,145.7,483.2,144.8,483.5,143.7z
	 M473.8,139h9.8c0-1.2-0.4-2.3-1.1-3.3c-0.9-1.1-2.2-1.7-3.7-1.7c-1.3,0-2.5,0.5-3.4,1.4C474.4,136.3,473.8,137.6,473.8,139z"/>
<path class="st2" d="M490.5,149.3V132h2.7v2.6c0.4-0.9,1.1-1.8,1.9-2.4c0.6-0.4,1.2-0.6,1.9-0.6c1.1,0,2.1,0.4,3,1l-1,2.7
	c-0.7-0.4-1.4-0.6-2.2-0.6c-0.6,0-1.2,0.2-1.8,0.6c-0.5,0.4-0.9,1-1.1,1.6c-0.3,1.1-0.5,2.3-0.5,3.4v9.1L490.5,149.3z"/>
</svg>
