<svg id="Layer_3" data-name="Layer 3" xmlns="http://www.w3.org/2000/svg" viewBox="0 0 283.46 283.46"><defs><style>.cls-1{fill:#323436;}</style></defs><path class="cls-1" d="M173.9,153.49l-34.19,26a8.78,8.78,0,0,1-10.66.22l-20.48-11.95a2.42,2.42,0,0,0-1.44-.48,2.49,2.49,0,0,0-2,4l23.28,29.92h0a8.28,8.28,0,0,0,12.36.2h0l36.78-42s2.39-2.78.79-5.19S173.9,153.49,173.9,153.49Z"/><path class="cls-1" d="M131.27,235.06a53,53,0,0,0,54-68.9,3.2,3.2,0,0,0-6.1,1.94,46.57,46.57,0,0,1-44.31,60.68c-1.06,0-2.12,0-3.19-.11a46.53,46.53,0,1,1,33.13-82,3.2,3.2,0,0,0,4.13-4.9c-1.16-1-2.39-1.92-3.64-2.8l-1.85-1.31,38.41-68.07a3.54,3.54,0,0,0-1.36-4.8l-.19-.1-14.7-7h.19l-18.3-8.79a3.7,3.7,0,0,0-1.75-.41h0l-8.47,11.94-23.4,40.54-23.4-40.54L101.93,48.3l-.33,0a3.58,3.58,0,0,0-1.51.34l-32.78,16a3.51,3.51,0,0,0-1.83,2,3.47,3.47,0,0,0,.14,2.7l.09.17,39,69.16L103,140a52.91,52.91,0,0,0,28.29,95ZM167.52,55.62,194,68.37l-36.29,65-2.07-.89c-.81-.34-1.66-.68-2.54-1l-.85-.31L138.3,107ZM73.76,68.38l26.46-12.75,42.12,73-4.61-.25a52.88,52.88,0,0,0-24.85,4.72l-2.09,1Z"/></svg>