<svg xmlns="http://www.w3.org/2000/svg" width="90.894" height="67.795" viewBox="0 0 90.894 67.795"><defs><style>.a{fill:#393b3e;}.b{fill:#3a3d3e;}</style></defs><g transform="translate(-2.55 -14.863)"><path class="a" d="M88.3,21.46a1.6,1.6,0,1,0-3.18.32,4.134,4.134,0,1,1-3.32-3.64.847.847,0,0,1,.17.04,1.6,1.6,0,1,0,.75-3.11c-.1-.02-.2-.05-.31-.07a7.359,7.359,0,0,0-8.13,4.25,7.688,7.688,0,0,0-.62,3.14,7.334,7.334,0,0,0,14.53,1.22A7.056,7.056,0,0,0,88.3,21.46Z"/><path class="b" d="M67.69,41.29a6.335,6.335,0,0,0-4.94-6.2l-.46-.11-.02-6.78a14.182,14.182,0,0,0-28.09.65l-.01,6.13-.46.11a6.413,6.413,0,0,0-4.94,6.2V58.6a6.38,6.38,0,0,0,6.37,6.37H61.35a6.38,6.38,0,0,0,6.37-6.37,1.565,1.565,0,1,0-3.13,0,3.239,3.239,0,0,1-3.24,3.24H35.12a3.239,3.239,0,0,1-3.24-3.24V41.29a3.239,3.239,0,0,1,3.24-3.24H61.33a3.239,3.239,0,0,1,3.24,3.24v1.85a1.565,1.565,0,0,0,3.13,0V41.29Zm-8.53-6.37H37.29V29.16a11.061,11.061,0,0,1,21.87-.64l.01.1v6.3Z"/><path class="b" d="M48.22,59.66A1.662,1.662,0,0,0,49.88,58V55.17l.35-.11a6.94,6.94,0,1,0-4.04,0l.35.11V58A1.693,1.693,0,0,0,48.22,59.66ZM44.61,48.42a3.61,3.61,0,1,1,3.86,3.6h-.05L48.13,52l-.17.01A3.611,3.611,0,0,1,44.61,48.42Z"/><path class="a" d="M88.3,74.56a1.6,1.6,0,0,0-3.18.32,4.134,4.134,0,1,1-3.32-3.64.847.847,0,0,1,.17.04,1.6,1.6,0,1,0,.75-3.11c-.1-.02-.2-.05-.31-.07a1.811,1.811,0,0,0-.23-.03l.02-2.79a5.343,5.343,0,0,0-5.34-5.38H71.73a1.5,1.5,0,0,0,0,3h5.13a2.378,2.378,0,0,1,1.67.69,2.327,2.327,0,0,1,.68,1.67l-.02,2.95a7.386,7.386,0,0,0-4.9,4.16,7.688,7.688,0,0,0-.62,3.14A7.334,7.334,0,0,0,88.2,76.73,7.569,7.569,0,0,0,88.3,74.56Z"/><path class="a" d="M76.58,39.27h-.04l-4.55-.03a1.5,1.5,0,0,1,.02-3l4.55.03h.02a2.339,2.339,0,0,0,2.34-2.34V28.8a1.5,1.5,0,1,1,3,0v5.13a5.343,5.343,0,0,1-5.34,5.34Z"/><path class="a" d="M93.41,48.01a1.6,1.6,0,0,0-3.18.32,4.134,4.134,0,1,1-3.32-3.64.847.847,0,0,1,.17.04,1.6,1.6,0,1,0,.75-3.11c-.1-.02-.2-.05-.31-.07a7.288,7.288,0,0,0-8.69,6.39h-7.1a1.5,1.5,0,0,0,0,3h7.4a7.33,7.33,0,0,0,14.28-2.93Z"/><path class="a" d="M24.44,59.89H19.31a5.343,5.343,0,0,0-5.34,5.39l.02,2.91a7.409,7.409,0,0,0-4.95,4.17,7.688,7.688,0,0,0-.62,3.14,7.335,7.335,0,1,0,14.63-.93,1.6,1.6,0,1,0-3.18.32,4.134,4.134,0,1,1-3.32-3.64.847.847,0,0,1,.17.04,1.6,1.6,0,0,0,.75-3.11c-.1-.02-.2-.05-.31-.07l-.18-.03-.02-2.82a2.369,2.369,0,0,1,.68-1.67,2.314,2.314,0,0,1,1.66-.69h5.13a1.505,1.505,0,0,0,.01-3.01Z"/><path class="a" d="M24.17,36.24h0l-4.56.03h-.02a2.322,2.322,0,0,1-1.65-.68,2.3,2.3,0,0,1-.69-1.66V29.39a7.332,7.332,0,0,0,5.82-7.92,1.6,1.6,0,1,0-3.18.32,4.134,4.134,0,1,1-3.32-3.64.847.847,0,0,1,.17.04,1.6,1.6,0,0,0,.75-3.11c-.1-.02-.2-.05-.31-.07a7.359,7.359,0,0,0-8.13,4.25,7.688,7.688,0,0,0-.62,3.14,7.355,7.355,0,0,0,5.81,6.98v4.55a5.343,5.343,0,0,0,5.35,5.34h.04l4.55-.03a1.5,1.5,0,0,0-.01-3Z"/><path class="a" d="M24.44,47.94H17.18a1.6,1.6,0,0,0-3.17.39,4.134,4.134,0,1,1-3.32-3.64.847.847,0,0,1,.17.04,1.6,1.6,0,0,0,.75-3.11c-.1-.02-.2-.05-.31-.07A7.359,7.359,0,0,0,3.17,45.8a7.688,7.688,0,0,0-.62,3.14,7.333,7.333,0,0,0,14.33,2h7.55a1.5,1.5,0,0,0,.01-3Z"/></g></svg>