<?xml version="1.0" encoding="utf-8"?>
<!-- Generator: Adobe Illustrator 25.4.1, SVG Export Plug-In . SVG Version: 6.00 Build 0)  -->
<svg version="1.1" id="Camada_1" xmlns="http://www.w3.org/2000/svg" xmlns:xlink="http://www.w3.org/1999/xlink" x="0px" y="0px"
	 viewBox="0 0 96 96" style="enable-background:new 0 0 96 96;" xml:space="preserve">
<style type="text/css">
	.st0{fill:#616161;}
</style>
<g>
	<path class="st0" d="M78.12,52.91c1.59,0.76,3.2,1.21,4.93,1.11c0.46-0.03,0.91-0.12,1.33-0.33c1.24-0.61,1.42-2.12,0.36-3
		c-0.69-0.57-1.53-0.87-2.35-1.18c-1.01-0.37-1.96-0.83-2.83-1.46c-3.01-2.2-2.48-6.49,0.39-8.26c1.54-0.94,3.22-1.18,4.97-1.11
		c1.24,0.05,2.45,0.29,3.62,0.76c0.26,0.1,0.3,0.2,0.17,0.45c-0.43,0.83-0.84,1.67-1.24,2.51c-0.1,0.2-0.18,0.23-0.39,0.15
		c-1.17-0.4-2.37-0.62-3.61-0.44c-0.41,0.06-0.8,0.18-1.14,0.42c-0.89,0.62-0.94,1.77-0.11,2.46c0.62,0.52,1.36,0.8,2.09,1.09
		c0.93,0.37,1.86,0.73,2.72,1.26c1.8,1.12,2.7,2.72,2.53,4.84c-0.17,2.18-1.35,3.67-3.33,4.52c-1.8,0.77-3.68,0.83-5.59,0.59
		c-1.05-0.14-2.07-0.39-3.04-0.82c-0.23-0.1-0.3-0.2-0.23-0.47C77.64,54.99,77.87,53.97,78.12,52.91z"/>
	<path class="st0" d="M53.52,38.72c1.6,0.01,3.36,0.66,4.92,1.86c0.17,0.13,0.24,0.23,0.12,0.45c-0.45,0.79-0.89,1.58-1.32,2.39
		c-0.13,0.24-0.21,0.28-0.46,0.11c-3.35-2.27-8.12-0.54-8.73,3.82c-0.59,4.22,3.68,7.55,7.63,5.86c0.4-0.17,0.79-0.36,1.14-0.62
		c0.17-0.13,0.26-0.1,0.36,0.07c0.45,0.83,0.9,1.67,1.38,2.49c0.14,0.24-0.03,0.3-0.15,0.4c-3.01,2.38-7.23,2.46-10.33,0.19
		c-5.53-4.04-4.98-12.72,1.01-16.01C50.28,39.07,51.72,38.71,53.52,38.72z"/>
	<path class="st0" d="M65.44,49.78c0-2.39-0.01-4.78,0.01-7.17c0-0.31-0.07-0.4-0.39-0.39c-1.62,0.02-3.25,0-4.87,0.01
		c-0.32,0-0.45-0.06-0.42-0.4c0.04-0.51,0-1.03,0.05-1.54c0.08-0.84,0.8-1.5,1.64-1.56c0.16-0.01,0.32-0.01,0.47-0.01
		c4.21,0,8.42,0,12.63-0.01c0.34,0,0.45,0.07,0.44,0.43c-0.03,0.91-0.02,1.82,0,2.73c0.01,0.31-0.09,0.37-0.38,0.37
		c-1.69-0.01-3.38,0-5.07-0.02c-0.34,0-0.41,0.1-0.41,0.42c0.01,4.25,0.01,8.5,0.01,12.75c0,1.26-0.75,2.03-2,2.04
		c-0.45,0-0.9-0.02-1.35,0.01c-0.3,0.02-0.37-0.07-0.37-0.37C65.44,54.64,65.44,52.21,65.44,49.78z"/>
	<path class="st0" d="M42.41,48.07c0,3,0,5.99,0.01,8.99c0,0.31-0.08,0.4-0.39,0.39c-0.99-0.02-1.98-0.02-2.97,0
		c-0.26,0-0.32-0.08-0.32-0.33c0.01-5.53,0-11.06,0.01-16.59c0-0.99,0.75-1.76,1.73-1.8c0.53-0.02,1.06,0.01,1.58-0.02
		c0.32-0.02,0.36,0.1,0.36,0.38C42.4,42.08,42.41,45.08,42.41,48.07z"/>
	<g>
		<path class="st0" d="M28.61,37.09l-3.26,5.42c1.41,1.4,2.28,3.35,2.28,5.49c0,4.28-3.47,7.75-7.75,7.75
			c-0.8,0-1.57-0.12-2.29-0.34l-3.26,5.42c1.7,0.74,3.58,1.15,5.55,1.15c7.72,0,13.97-6.26,13.97-13.97
			C33.86,43.59,31.81,39.65,28.61,37.09z"/>
		<path class="st0" d="M14.53,53.6c-1.47-1.41-2.39-3.4-2.39-5.6c0-4.28,3.47-7.75,7.75-7.75c0.85,0,1.67,0.14,2.44,0.39l3.25-5.41
			c-1.74-0.78-3.66-1.21-5.69-1.21c-7.72,0-13.97,6.26-13.97,13.97c0,4.47,2.1,8.45,5.36,11L14.53,53.6z"/>
	</g>
</g>
</svg>
