<?xml version="1.0" encoding="utf-8"?>
<!-- Generator: Adobe Illustrator 25.4.1, SVG Export Plug-In . SVG Version: 6.00 Build 0)  -->
<svg version="1.1" id="Camada_1" xmlns="http://www.w3.org/2000/svg" xmlns:xlink="http://www.w3.org/1999/xlink" x="0px" y="0px"
	 viewBox="0 0 96 96" style="enable-background:new 0 0 96 96;" xml:space="preserve">
<style type="text/css">
	.st0{fill:#616161;}
</style>
<g>
	<path class="st0" d="M91.54,74.41c-0.33-0.14-0.67-0.22-1.02-0.28c-0.59-0.1-1.18-0.14-1.78-0.21c-0.43-0.05-0.87-0.09-1.29-0.23
		c-0.43-0.14-0.58-0.35-0.58-0.8c0-0.33,0.01-0.66,0-0.98c-0.01-0.34,0.13-0.56,0.43-0.7c0.11-0.05,0.21-0.11,0.32-0.15
		c0.71-0.29,1.46-0.31,2.21-0.24c0.48,0.05,0.94,0.19,1.36,0.43c0.22,0.13,0.33,0.31,0.34,0.55c0.01,0.09,0.02,0.19,0.02,0.41h1.1
		c0.04-0.3,0.03-0.59-0.04-0.89c-0.23-0.69-0.75-1.06-1.39-1.31c-0.85-0.33-1.73-0.4-2.62-0.32c-0.7,0.06-1.37,0.23-1.98,0.61
		c-0.53,0.33-0.85,0.78-0.85,1.42c0,0.48,0.01,0.96,0.01,1.44c0.01,0.74,0.41,1.22,1.07,1.5c0.2,0.08,0.41,0.15,0.62,0.2
		c0.76,0.18,1.55,0.22,2.32,0.31c0.42,0.05,0.85,0.09,1.25,0.25c0.4,0.16,0.54,0.36,0.54,0.78c0,0.32-0.03,0.64,0.01,0.96
		c0.05,0.5-0.2,0.76-0.62,0.94c-0.62,0.27-1.27,0.36-1.94,0.34c-0.63-0.02-1.24-0.12-1.79-0.44c-0.21-0.12-0.38-0.27-0.43-0.53
		c-0.02-0.14-0.03-0.27-0.02-0.45h-1.02c0,0.01,0,0.01,0,0.02c-0.02,0.55,0.02,1.08,0.45,1.49c0.23,0.22,0.48,0.39,0.77,0.52
		c0.93,0.42,1.91,0.52,2.91,0.39c1.12-0.14,2.17-0.42,2.71-1.56c0-0.74,0-1.48,0-2.22C92.53,75.02,92.11,74.65,91.54,74.41z"/>
	<path class="st0" d="M6.53,66.59c0.28,0,1.05,0,1.05,0s0,0.23,0,0.29c-0.01,3.31-0.01,6.63,0,9.94c0,0.31,0,0.96,0,0.96
		s0.05,0.49,0.49,0.5c0.13,0,0.24,0,0.36,0c1.84,0,3.92,0,5.76,0c0,0.18,0,0.24,0,0.24l0,0.78c0,0-0.52,0-0.78,0
		c-1.71,0-3.41,0-5.12,0c-0.21,0-0.71,0-0.71,0c-0.69,0.01-1.05-0.5-1.05-1.37C6.53,74.16,6.53,70.37,6.53,66.59z"/>
	<path class="st0" d="M50.48,70.87c-0.47,0-1.6,0-1.6,0s0,0.03,0,0.26c0.01,1.96,0.01,3.92,0.01,5.88c0,0.23,0,0.45,0,0.68
		c0.01,0.38,0.21,0.59,0.59,0.59c0.39,0.01,0.77,0.01,1.16,0c0.13,0,0.2,0.02,0.19,0.17c-0.01,0.23-0.01,0.45,0,0.68
		c0.01,0.15-0.05,0.18-0.19,0.18c-0.43-0.01-0.86,0-1.29,0c-0.84-0.01-1.51-0.68-1.52-1.53c0-2.21-0.01-4.42,0.01-6.63
		c0-0.1,0-0.28,0-0.28h-0.3c0,0-0.77-0.01-1.06,0c0-0.12-0.01-0.03,0-0.18c0-0.25,0-0.47,0-0.71c0-0.06,0-0.16,0-0.16s0.11,0,0.18,0
		c0.31,0.01,1.18,0,1.18,0s0-0.04,0-0.24c-0.01-0.92,0-1.83-0.01-2.75c0-0.17,0.04-0.24,0.22-0.23c0.2,0.02,0.4,0.02,0.6,0
		c0.18-0.01,0.23,0.04,0.23,0.22c-0.01,0.91,0,1.82-0.01,2.72c0,0.22,0,0.27,0,0.27l2.5,0l0.23,0l0.05,0.26c0,0,0.66,3.81,0.98,5.72
		c0.12,0.72,0.39,2.23,0.41,2.32c0.31-0.79,0.61-1.55,0.91-2.31c0.54-1.39,1.08-2.78,1.62-4.17c0.18-0.46,0.46-0.66,0.93-0.67
		c0.47,0,0.76,0.2,0.94,0.68c0.81,2.08,2.52,6.45,2.52,6.45s0.43-2.45,0.63-3.66c0.25-1.49,0.55-3.14,0.79-4.63
		c0.04,0,0.04,0,0.04,0s0.05,0,0.11,0c0.23,0.01,0.92,0,0.92,0s-0.53,3.04-0.77,4.45c-0.24,1.44-0.49,2.88-0.74,4.32
		c-0.08,0.49-0.36,0.76-0.82,0.81c-0.52,0.05-0.87-0.15-1.06-0.62c-0.69-1.77-1.38-3.55-2.06-5.32c-0.15-0.39-0.3-0.78-0.45-1.17
		c-0.02-0.04-0.03-0.08-0.08-0.09c-0.85,2.19-1.7,4.37-2.55,6.56c-0.23,0.6-0.88,0.84-1.45,0.53c-0.23-0.12-0.37-0.3-0.42-0.57
		c-0.4-2.36-0.81-4.71-1.21-7.07c-0.03-0.2-0.11-0.6-0.11-0.6l-0.03-0.17"/>
	<path class="st0" d="M22.2,67.65v-1.06c0,0-0.07,0-0.25,0c-2.18,0.01-4.36,0.01-6.53,0c-0.1,0-0.24,0-0.24,0s0,0.18,0,0.26
		c0.01,1.85,0.01,3.7,0,5.55c0,0.1,0,0.25,0,0.25s0.15,0,0.25,0c1.2-0.01,2.41-0.01,3.61,0c0.55,0,1.11,0.04,1.64,0.23
		c0.66,0.24,0.94,0.63,0.94,1.33c0,0.9,0,1.8,0,2.7c0,0.43-0.19,0.76-0.53,1c-0.21,0.15-0.43,0.25-0.68,0.33
		c-0.76,0.26-1.55,0.29-2.34,0.22c-0.57-0.05-1.13-0.18-1.63-0.48c-0.34-0.21-0.58-0.48-0.63-0.89c-0.02-0.22-0.01-0.67-0.01-0.67
		h-0.72c0,0-0.13,0-0.2,0c-0.04,0-0.13,0-0.13,0s0,0.09,0,0.13c-0.06,0.92,0.21,1.69,1,2.23c0.71,0.49,1.52,0.69,2.37,0.74
		c0.08,0,0.17,0,0.25,0c0.22,0,0.44,0,0.67,0c0.08,0,0.17,0,0.26,0.01c0.87-0.05,1.69-0.25,2.41-0.77c0.6-0.43,0.94-1.02,0.95-1.77
		c0.01-0.94,0.01-1.88,0-2.82c-0.01-1.04-0.55-1.82-1.52-2.19c-0.51-0.2-1.03-0.29-1.57-0.32c-1.03-0.06-3.35-0.03-3.35-0.03v-3.95
		c0,0,0.15,0,0.25,0c1.63,0.01,3.26,0.01,4.89,0C21.63,67.65,22.2,67.65,22.2,67.65z"/>
	<path class="st0" d="M81.42,74.24c0.03-0.08,0.09-0.08,0.13-0.09c0.69-0.27,1.35-0.6,1.94-1.06c0.99-0.78,1.65-1.74,1.56-3.07
		c0-0.06-0.01-0.1-0.03-0.13h-1.03c0,0.04,0,0.06,0,0.12c0,0.24,0.03,0.49-0.03,0.73c-0.15,0.63-0.55,1.09-1.04,1.47
		c-1.01,0.78-2.17,1.21-3.43,1.43c-0.26,0.04-0.3-0.02-0.29-0.26c0.01-1.99,0.01-3.99,0-5.98c0-0.22,0-0.49,0-0.67h-1.03
		c0,0.05,0,0.1,0,0.17c0.01,4.05,0,12.33,0.01,12.35h1.03c0,0,0-0.09,0-0.17c0,0,0-2.66-0.01-3.99c0-0.2,0.05-0.24,0.24-0.21
		c0.9,0.12,1.78,0.33,2.59,0.77c0.84,0.45,1.47,1.08,1.79,1.99c0.17,0.48,0.2,0.99,0.17,1.49c0,0.05,0,0.08,0.01,0.11h1.04
		c0-0.01,0-0.02,0.01-0.03c0.06-1.16-0.19-2.24-0.93-3.17C83.41,75.14,82.47,74.6,81.42,74.24z"/>
	<path class="st0" d="M29.2,70.5c1.19-0.79,2.52-0.9,3.87-0.8c0.8,0.06,1.57,0.26,2.27,0.68c0.85,0.5,1.29,1.22,1.28,2.23
		c-0.02,2.15-0.01,4.3,0,6.45c0,0.1,0,0.24,0,0.24h-1.05c0,0,0-0.13,0-0.21c0.01-1.24,0-2.47,0-3.71c0-0.96-0.01-1.92,0-2.87
		c0.01-0.46-0.18-0.81-0.54-1.08c-0.55-0.41-1.19-0.61-1.87-0.69c-0.96-0.11-1.91-0.06-2.82,0.33c-0.2,0.09-0.39,0.19-0.57,0.32
		c-0.4,0.28-0.6,0.66-0.6,1.15c0.01,2.17,0,4.34,0.01,6.51c0,0.1,0,0.25,0,0.25l-0.27,0H28.4l-0.26,0c0,0,0-0.14,0-0.24
		c0.01-0.7,0.01-1.4,0.01-2.09c0-2.29,0-4.59-0.01-6.88c0-0.11,0-0.29,0-0.29h1.05C29.2,69.8,29.19,70.28,29.2,70.5z"/>
	<path class="st0" d="M77.43,69.68c-0.03-0.01-0.08-0.02-0.13-0.02c-1.28-0.03-2.53,0.08-3.67,0.86c0-0.22-0.01-0.39,0.01-0.56
		c0-0.04,0-0.1,0-0.13H72.6c0,0.04,0,0.18,0,0.27c0.01,2.82,0.01,5.63,0.01,8.45c0,0.24,0,0.76,0,0.76s0.79,0,1.04,0
		c0-0.21,0-0.02,0.01-0.26c-0.01-2.18,0-4.35-0.01-6.53c0-0.41,0.15-0.73,0.44-1c0.35-0.32,0.76-0.52,1.21-0.64
		c0.61-0.17,1.24-0.21,1.87-0.17c0.14,0.01,0.22,0.01,0.27-0.01V69.68z"/>
	<path class="st0" d="M25.12,79.41c-0.43,0-0.76-0.35-0.76-0.78c0.01-0.43,0.36-0.75,0.79-0.74c0.42,0.01,0.74,0.35,0.74,0.77
		C25.89,79.09,25.56,79.41,25.12,79.41z"/>
	<path class="st0" d="M45.57,77.26c-0.03,0.03-0.06,0.06-0.11,0.12c-0.35,0.38-0.76,0.66-1.26,0.81c-0.97,0.29-1.96,0.35-2.97,0.19
		c-0.62-0.1-1.21-0.28-1.73-0.64c-0.4-0.27-0.62-0.65-0.61-1.15c0.01-0.41,0.01-0.82,0-1.24c-0.01-0.19,0.04-0.25,0.24-0.25
		c0.95,0.01,1.9,0.01,2.85,0.01c0.96,0,1.92,0,2.87,0c0.8-0.01,1.38-0.58,1.38-1.39c0-0.37,0-0.71,0-1.11
		c0.04-1.01-0.43-1.73-1.27-2.24c-0.85-0.51-1.8-0.69-2.77-0.7c-1.11-0.02-2.18,0.15-3.14,0.74c-0.79,0.49-1.22,1.18-1.21,2.15
		c0.02,1.4,0,2.79,0.01,4.19c0,0.58,0.21,1.08,0.62,1.49c0.37,0.37,0.81,0.62,1.29,0.81c1.19,0.46,2.42,0.53,3.67,0.38
		c1.06-0.13,2.01-0.5,2.76-1.31c0.04-0.05,0.07-0.08,0.11-0.12C46.04,77.72,45.64,77.33,45.57,77.26z M38.89,72.59
		c-0.02-0.56,0.23-0.96,0.69-1.25c0.65-0.41,1.37-0.58,2.13-0.61c0.95-0.04,1.88,0.06,2.72,0.55c0.51,0.3,0.79,0.71,0.79,1.34
		c0.01,0.35,0.01,0.65-0.02,1.01c0,0.35-0.09,0.43-0.43,0.43c-0.94,0-1.88,0-2.82,0c-0.95,0-1.9,0-2.85,0
		c-0.17,0-0.21-0.04-0.21-0.21C38.9,73.43,38.91,73.01,38.89,72.59z"/>
	<path class="st0" d="M71.34,74.58c0-0.73,0-1.46,0-2.19c0-0.58-0.21-1.08-0.61-1.5c-0.36-0.38-0.8-0.63-1.28-0.82
		c-1.09-0.42-2.21-0.48-3.35-0.32c-0.76,0.1-1.47,0.34-2.1,0.78c-0.68,0.48-1.05,1.13-1.04,1.99c0.01,1.35,0.03,2.69,0,4.04
		c-0.02,1.03,0.43,1.75,1.3,2.25c1.06,0.61,2.23,0.75,3.43,0.67c0.94-0.06,1.82-0.28,2.61-0.82c0.7-0.48,1.07-1.13,1.05-2
		C71.33,75.96,71.34,75.27,71.34,74.58z M70.31,76.59c0.01,0.53-0.21,0.92-0.64,1.2c-0.63,0.42-1.35,0.6-2.09,0.64
		c-0.94,0.06-1.86-0.04-2.71-0.5c-0.59-0.32-0.92-0.77-0.88-1.48C64.02,75.83,64,75.2,64,74.57c0-0.67,0.01-1.35,0-2.02
		c-0.01-0.49,0.19-0.86,0.58-1.14c0.68-0.48,1.44-0.66,2.25-0.69c0.88-0.04,1.74,0.06,2.54,0.47c0.62,0.32,0.96,0.77,0.94,1.51
		C70.28,74,70.29,75.29,70.31,76.59z"/>
	<g>
		<path class="st0" d="M59.7,46.41c0.01-1.2-0.32-2.3-1-3.28c-0.47-0.76-1.1-1.36-1.86-1.82c-0.94-0.61-1.97-0.91-3.09-0.91
			c-3.58-0.01-7.15,0-10.73,0c-0.53,0-0.79-0.21-0.88-0.7c0-1.34,0-2.69-0.01-4.03v-6c0-0.3,0.01-0.6,0.01-0.9
			c0-0.76-0.58-1.36-1.31-1.38c-0.75-0.02-1.37,0.56-1.4,1.32c-0.01,0.42,0,0.84,0,1.26v11.35c-0.13,1.19,0.58,1.82,1.69,1.81
			c4.07-0.03,8.13-0.01,12.2-0.02c0.49,0,0.97,0.02,1.44,0.17c0.64,0.27,1.2,0.65,1.61,1.23c0.48,0.66,0.65,1.41,0.62,2.21
			c-0.07,0.77-0.38,1.43-0.88,2.02c-0.04,0.03-0.08,0.06-0.11,0.1c-0.66,0.64-1.45,0.96-2.36,0.96c-0.94,0-1.72-0.37-2.39-1.01
			c-0.54-0.6-0.86-1.3-0.93-2.11c0-0.08,0.01-0.17,0-0.25c-0.02-0.95-1.01-1.59-1.89-1.21c-0.64,0.28-0.87,0.87-0.79,1.72
			c0.16,1.53,0.89,2.77,1.16,3.12c0.29,0.43,0.66,0.79,1.06,1.12c0.34,0.29,0.72,0.54,1.12,0.73c1.16,0.55,2.39,0.74,3.67,0.53
			c1.04-0.17,1.96-0.62,2.78-1.27c0.43-0.29,0.77-0.67,1.06-1.09c0.28-0.38,0.51-0.79,0.7-1.22C59.56,48.07,59.72,47.26,59.7,46.41z
			"/>
		<path class="st0" d="M59.59,33.74c-0.24-0.53-0.68-0.8-1.26-0.8c-1.93-0.01-3.87,0-5.8,0c-1.13,0-2.25,0-3.38,0
			c-0.68,0-1.27,0.49-1.34,1.13c-0.07,0.62-0.04,1.24-0.01,1.86c-0.05,0.94-0.01,1.87-0.02,2.81h2.72c0-0.01,0-0.01,0-0.02
			c-0.01-0.71,0-1.41-0.01-2.12c0-0.2,0.02-0.4,0.09-0.59c0.19-0.27,0.45-0.37,0.78-0.36c2.32,0.01,4.64,0,6.96,0
			c0.42,0,0.78-0.14,1.05-0.46C59.74,34.76,59.83,34.26,59.59,33.74z"/>
		<path class="st0" d="M52.55,47.94c0.62,0.46,1.31,0.52,1.99,0.15c0.64-0.34,0.99-0.89,0.98-1.63c0.05-0.88-0.65-1.75-1.54-1.86
			c-0.69-0.09-1.38-0.02-2.06-0.03c-0.12,0-0.13,0.06-0.13,0.16c0.01,0.58,0.01,1.16,0.01,1.74l0,0
			C51.78,47.08,52.06,47.58,52.55,47.94z"/>
	</g>
	<path class="st0" d="M48.61,18.25"/>
</g>
<path class="st0" d="M61.06,33.46"/>
<path class="st0" d="M49.56,18.25c-17.98,0-18.37,11.2-18.37,11.2V50.7c0,0-0.38,10.03,17.57,10.91
	c17.94,0.87,19.13-10.5,19.13-10.5l0.08-21.35C67.97,29.76,67.54,18.25,49.56,18.25z M52.02,38.71c0,0.01,0,0.02,0,0.02
	c0.58,0,1.16,0,1.74,0c1.42,0,2.73,0.39,3.89,1.14c0.96,0.57,1.74,1.34,2.34,2.28c0.84,1.23,1.25,2.61,1.25,4.11
	c0.03,1.08-0.19,2.11-0.63,3.07c-0.24,0.55-0.52,1.03-0.85,1.48c-0.41,0.59-0.87,1.06-1.39,1.43c-1.05,0.82-2.21,1.34-3.44,1.55
	c-0.42,0.07-0.85,0.11-1.27,0.11c-1.13,0-2.24-0.25-3.3-0.76c-0.53-0.25-1.02-0.57-1.46-0.94c-0.4-0.33-0.9-0.79-1.31-1.39
	c-0.31-0.39-0.64-0.87-0.84-1.47c-0.36-0.76-0.55-3.73-0.55-3.73c0.01-0.05,0.19-1.11-0.23-1.11c-1.39,0-3.09,0-4.81,0.02l-0.03,0
	c-1.01,0-1.88-0.36-2.47-1.01c-0.39-0.44-0.83-1.21-0.73-2.4v-7.95l0-3.32c0-0.13,0-0.26,0-0.39c0-0.3-0.01-0.6,0-0.93
	c0.05-1.57,1.32-2.8,2.89-2.8c0,0,0,0,0,0c0.03,0,0.05,0,0.07,0c1.57,0.04,2.8,1.31,2.81,2.9c0,0.23,0,0.45-0.01,0.67l0,0.25v5.99
	c0,0.67,0,1.34,0,2.01c0,0.4,0,0.79,0,1.19l1.08,0l1.5,0c0-0.31,0-0.62,0-0.95c0-0.6-0.03-3.2,0.05-3.89
	c0.16-1.41,1.39-2.48,2.85-2.49c0.45,0,0.91,0,1.36,0c0.34,0,0.68,0,1.02,0c0.34,0,0.67,0,1.01,0c0.58,0,1.16,0,1.74,0
	c0.58,0,1.16,0,1.74,0c0.77,0,1.55,0,2.32,0c1.19,0,2.16,0.62,2.65,1.69c0.49,1.07,0.32,2.19-0.46,3.1
	c-0.55,0.63-1.33,0.98-2.2,0.98c-0.58,0-1.16,0-1.74,0c-0.58,0-1.16,0-1.74,0c-1.1,0-2,0-2.82,0c0,0.13,0,0.26,0,0.39
	C52.01,37.94,52.01,38.33,52.02,38.71z"/>
</svg>
