<svg xmlns="http://www.w3.org/2000/svg" width="158.945" height="52.276" viewBox="0 0 158.945 52.276"><defs><style>.a{fill:#474747;}.a,.b,.c,.d,.e{fill-rule:evenodd;}.b{fill:#828282;}.c{fill:#5b5b5b;}.d{fill:#a0a0a0;}.e,.f{fill:#616262;}</style></defs><g transform="translate(-6.69 -35.74)"><g transform="translate(6.69 35.74)"><path class="a" d="M17.44,46.49V65.538L36.507,46.49Z" transform="translate(3.243 -25.807)"/><path class="a" d="M6.69,54.807,26.585,35.74,46.46,54.807Z" transform="translate(-6.69 -35.74)"/><path class="b" d="M6.69,54.807,26.585,35.74V47.881Z" transform="translate(-6.69 -35.74)"/><path class="c" d="M17.03,47.881V35.74L36.905,54.807Z" transform="translate(2.865 -35.74)"/><path class="c" d="M17.44,46.49V65.538l6.234-12.853Z" transform="translate(3.243 -25.807)"/><path class="b" d="M17.44,46.49l6.234,6.2,12.833-6.2Z" transform="translate(3.243 -25.807)"/><path class="d" d="M32.323,48.222,19.509,48.2,17.45,46.49l1.982,2h12.91l4.156-2Z" transform="translate(3.253 -25.807)"/><path class="a" d="M25.777,46.49V65.538L6.71,46.49Z" transform="translate(-6.672 -25.807)"/><path class="c" d="M19.614,46.49V65.538L13.38,52.685Z" transform="translate(-0.508 -25.807)"/><path class="b" d="M25.777,46.49l-6.234,6.2L6.71,46.49Z" transform="translate(-6.672 -25.807)"/><g transform="translate(4.175 3.829)"><path class="e" d="M23.452,37.73,10.08,50.7H36.8Z" transform="translate(-7.733 -37.73)"/><path class="e" d="M18.48,47.53V60.44L31.39,47.53Z" transform="translate(0.029 -28.674)"/><path class="e" d="M21.77,60.44V47.53H8.86Z" transform="translate(-8.86 -28.674)"/></g><g transform="translate(2.059 3.848)"><path class="d" d="M12.224,50.689,7.76,52.247l4.368-1.789L25.577,37.74Z" transform="translate(-7.76 -37.74)"/></g><path class="d" d="M10.885,48.222,23.7,48.2l2.059-1.712-2,2H10.866l-4.156-2Z" transform="translate(-6.672 -25.807)"/></g><g transform="translate(53.079 45.168)"><path class="e" d="M40.863,44.422h5.926l.75-3.5H31.55l-.75,3.5h5.945L33.3,60.757h4.117Z" transform="translate(-30.8 -40.381)"/><path class="e" d="M56.394,40.92H41.925L37.75,60.757H52.681l.731-3.521H42.522L43.6,52.1h9.582l.75-3.5h-9.6l.885-4.175H55.644Z" transform="translate(-24.378 -40.381)"/><path class="e" d="M65.444,47.673c.4-2.925-1.116-7.023-7-7.023-5.06,0-9.774,3.54-11.236,10.467C45.761,57.966,48.762,61.526,54,61.526c4.926,0,8.35-3.021,10.082-7.331h-4.1a5.463,5.463,0,0,1-5.137,3.733c-3.483,0-4.194-3.194-3.444-6.773,1.174-5.618,4.368-6.927,6.33-6.927,3.386,0,3.559,2.232,3.617,3.425h4.1Z" transform="translate(-15.976 -40.631)"/><path class="e" d="M69.189,54.735h-.058L64.244,40.92H59.915L55.74,60.757h3.829l2.982-14.142h.058L67.65,60.757h4.1L75.923,40.92H72.094Z" transform="translate(-7.754 -40.381)"/><path class="e" d="M73.393,40.92H69.275L65.1,60.757h4.117Z" transform="translate(0.895 -40.381)"/><path class="e" d="M68.608,54.9c-.519,2.463-.173,6.638,7,6.638,1.732,0,7.85-.539,9.1-6.5.75-3.559-1.481-4.675-4.021-5.33L76.15,48.509c-.789-.192-1.963-.519-1.655-2.078.385-1.789,2.367-2.367,3.925-2.367,3.579,0,3.483,2.1,3.406,2.982H85.77c.481-2.424-.289-6.407-6.311-6.407-6.388,0-8.37,3.887-8.851,6.1-.924,4.368,2,5.079,5.022,5.83l2,.5c1.963.5,3.367.9,3.04,2.463-.443,2.1-2.713,2.578-4.656,2.578-3.579,0-3.694-2.1-3.483-3.194L68.608,54.9Z" transform="translate(3.987 -40.64)"/><path class="e" d="M82.792,56.668h7.254l.4,4.079h4.464L92.162,40.91H87.429L76.25,60.747h4.329l2.213-4.079Zm5.984-11.275h.058l.789,7.85h-5l4.156-7.85Z" transform="translate(11.198 -40.391)"/></g><g transform="translate(46.479 75.529)"><path class="f" d="M28.447,66.3H27.37V56.43h1.866l2.29,8.273h.019l2.309-8.273h1.9V66.3H34.6V57.527h-.019L32.045,66.3h-1.1l-2.482-8.774h-.019V66.3Z" transform="translate(-27.37 -56.411)"/><path class="f" d="M36.038,63.942h-.019a1.561,1.561,0,0,1-1.6,1.135c-1.347,0-1.732-.943-1.732-2.27,0-2.1,1.886-2.193,3.329-2.155.019-.924.038-1.9-1.058-1.9-.693,0-1.058.5-1,1.231H32.844A1.866,1.866,0,0,1,35,57.9a1.809,1.809,0,0,1,2.059,2.078v3.329a11.716,11.716,0,0,0,.135,1.635H36.057l-.019-1ZM33.71,62.883c0,.673.308,1.27,1,1.27.635,0,1.4-.423,1.308-2.655C35.037,61.517,33.71,61.421,33.71,62.883Z" transform="translate(-22.454 -55.052)"/><path class="f" d="M35.95,56.43H37.1v1.193H35.95Zm1.1,9.87H36.008V59.393h1.039Z" transform="translate(-19.442 -56.411)"/><path class="f" d="M39.464,65.086a1.949,1.949,0,0,1-2.193-2.251h1.174c0,.4.019,1.328,1.058,1.328A1,1,0,0,0,40.6,63.1c0-1.231-3.155-1.251-3.155-3.329,0-.731.4-1.886,2.193-1.886,1.135,0,2.1.6,2,1.943H40.5c.019-.731-.346-1.1-1-1.1a.894.894,0,0,0-.981.924c0,1.212,3.155,1.193,3.155,3.29A1.956,1.956,0,0,1,39.464,65.086Z" transform="translate(-18.223 -55.062)"/><path class="f" d="M45.09,60.266c.019-1.135-.481-1.443-.885-1.443-.789,0-1.328.4-1.328,2.29,0,2.251.269,3.04,1.328,3.04.231,0,.962-.269.924-1.52h1.077a2.082,2.082,0,0,1-2,2.424c-1.347,0-2.405-.443-2.405-3.483,0-2.02.212-3.694,2.405-3.694,1.27,0,2,.808,1.943,2.347l-1.058.038Z" transform="translate(-14.036 -55.071)"/><path class="f" d="M44.95,61.594c0-2.02.212-3.694,2.405-3.694s2.405,1.674,2.405,3.694c0,3.04-1.058,3.483-2.405,3.483C46.027,65.077,44.95,64.634,44.95,61.594Zm3.752-.481c0-1.886-.539-2.29-1.328-2.29s-1.328.4-1.328,2.29c0,2.251.269,3.04,1.328,3.04S48.7,63.345,48.7,61.113Z" transform="translate(-11.125 -55.052)"/><path class="f" d="M51.772,64.951V60.16c0-.731-.231-1.347-1.116-1.347-1.135,0-1.289,1.1-1.289,2.039v4.079H48.328V59.468q0-.722-.058-1.443h1.1v.885h.058a1.663,1.663,0,0,1,1.693-1.02c1.366,0,1.693.885,1.693,2.251v4.791l-1.039.019Z" transform="translate(-8.057 -55.062)"/><path class="f" d="M53.594,65.086A1.949,1.949,0,0,1,51.4,62.835h1.174c0,.4.019,1.328,1.058,1.328a1,1,0,0,0,1.1-1.058c0-1.231-3.155-1.251-3.155-3.329,0-.731.4-1.886,2.193-1.886,1.135,0,2.1.6,2,1.943H54.633c.019-.731-.346-1.1-1-1.1a.894.894,0,0,0-.981.924c0,1.212,3.155,1.193,3.155,3.29A1.964,1.964,0,0,1,53.594,65.086Z" transform="translate(-5.166 -55.062)"/><path class="f" d="M55.019,58.848V57.52l1.039-.5v1.828h1.385v.847H56.058v4.214c0,.443,0,1,.943,1a3.542,3.542,0,0,0,.462-.058v.866c-.346.019-.673.115-1.02.115-.981,0-1.424-.443-1.424-1.231V59.694H53.98v-.847Z" transform="translate(-2.781 -55.866)"/><path class="f" d="M57.329,59.074h.019c.423-1.058.962-1.174,1.963-1.174v1.154c-.1-.019-.192-.019-.269-.038A1.183,1.183,0,0,0,58.772,59c-1.135,0-1.443.943-1.443,1.866v4.079H56.29V58.035h1.039v1.039Z" transform="translate(-0.647 -55.052)"/><path class="f" d="M61.818,57.97h1.039v5.464q0,.722.058,1.443h-1.1V64.05h-.038a1.8,1.8,0,0,1-1.6.981,1.561,1.561,0,0,1-1.712-1.77V58.008h1.02V62.8c0,.827.346,1.4,1.077,1.4.558,0,1.251-.443,1.251-1.6V57.97Z" transform="translate(1.368 -54.988)"/><path class="f" d="M62.278,58.848V57.52l1.039-.5v1.828H64.7v.847H63.3v4.214c0,.443,0,1,.943,1a3.541,3.541,0,0,0,.462-.058v.866c-.346.019-.673.115-1.02.115-.981,0-1.424-.443-1.424-1.231V59.694H61.22v-.847Z" transform="translate(3.909 -55.866)"/><path class="f" d="M63.43,61.594c0-2.02.212-3.694,2.405-3.694s2.405,1.674,2.405,3.694c0,3.04-1.058,3.483-2.405,3.483S63.43,64.634,63.43,61.594Zm3.733-.481c0-1.886-.539-2.29-1.328-2.29s-1.328.4-1.328,2.29c0,2.251.269,3.04,1.328,3.04C66.913,64.153,67.163,63.345,67.163,61.113Z" transform="translate(5.951 -55.052)"/><path class="f" d="M67.839,59.074h.019c.423-1.058.962-1.174,1.963-1.174v1.154c-.1-.019-.192-.019-.269-.038A1.27,1.27,0,0,0,69.282,59c-1.135,0-1.443.943-1.443,1.866v4.079H66.8V58.035h1.039v1.039Z" transform="translate(9.065 -55.052)"/><path class="f" d="M72.258,63.942h-.019a1.561,1.561,0,0,1-1.6,1.135c-1.347,0-1.732-.943-1.732-2.27,0-2.1,1.886-2.193,3.329-2.155.019-.924.038-1.9-1.058-1.9-.693,0-1.058.5-1,1.231H69.064A1.866,1.866,0,0,1,71.219,57.9a1.809,1.809,0,0,1,2.059,2.078v3.329a11.716,11.716,0,0,0,.135,1.635H72.277l-.019-1ZM69.93,62.883c0,.673.308,1.27,1,1.27.635,0,1.4-.423,1.308-2.655C71.257,61.517,69.93,61.421,69.93,62.883Z" transform="translate(11.015 -55.052)"/><path class="f" d="M74.739,58.862h.019A1.57,1.57,0,0,1,76.22,57.9c1.02,0,2.039.443,2.039,3.463,0,1.732-.058,3.694-2.1,3.694a1.579,1.579,0,0,1-1.385-.827h-.038v3.309H73.7v-9.5h1.039v.827Zm2.444,2.5c0-1.039,0-2.559-1.289-2.559-1.27,0-1.154,1.9-1.154,2.963,0,.924.058,2.367,1.193,2.367C77.048,64.153,77.183,63.21,77.183,61.363Z" transform="translate(15.441 -55.052)"/><path class="f" d="M76.83,61.594c0-2.02.212-3.694,2.405-3.694s2.405,1.674,2.405,3.694c0,3.04-1.058,3.483-2.405,3.483C77.907,65.077,76.83,64.634,76.83,61.594Zm3.733-.481c0-1.886-.539-2.29-1.328-2.29s-1.328.4-1.328,2.29c0,2.251.269,3.04,1.328,3.04C80.313,64.153,80.563,63.345,80.563,61.113Z" transform="translate(18.333 -55.052)"/><path class="f" d="M81.239,59.074h.019c.423-1.058.962-1.174,1.963-1.174v1.154c-.1-.019-.192-.019-.269-.038A1.27,1.27,0,0,0,82.682,59c-1.135,0-1.424.943-1.424,1.866v4.079H80.2V58.035h1.039v1.039Z" transform="translate(21.447 -55.052)"/><path class="f" d="M86.963,64.951V60.16c0-.693-.173-1.347-1-1.347a1.189,1.189,0,0,0-.885.462,2.153,2.153,0,0,0-.231,1.02v4.637H83.808V59.468q0-.722-.058-1.443h1.1v.866h.019a1.536,1.536,0,0,1,1.578-1,1.509,1.509,0,0,1,1.482.885,1.488,1.488,0,0,1,1.5-.885c.654,0,1.732.173,1.732,1.789v5.253H90.119V60.141c0-.693-.173-1.347-1-1.347a.9.9,0,0,0-.77.25A1.87,1.87,0,0,0,88,60.257v4.637l-1.039.058Z" transform="translate(24.728 -55.062)"/><path class="f" d="M88.171,60.942v-.519c1.193-1.828,1.539-2.155,1.539-2.925,0-.346-.154-.6-.5-.6-.4,0-.481.366-.481.731h-.558c-.038-.731.289-1.212,1-1.212.731,0,1.077.366,1.077,1.174,0,1-.462,1.328-1.52,2.848h1.616v.5H88.171Z" transform="translate(28.81 -56.42)"/></g></g></svg>