<svg xmlns="http://www.w3.org/2000/svg" width="118.895" height="93.382" viewBox="0 0 118.895 93.382"><defs><style>.a{fill:#616161;}</style></defs><path class="a" d="M38.583,74.813a1.538,1.538,0,0,1,1.538-.969,12.3,12.3,0,0,1,2.6,0,1.538,1.538,0,0,1,1.538,1.538v4.476H42.536V76.2c0-.846-.246-.877-.907-.892a13.55,13.55,0,0,0-1.369,0c-.692,0-.923.261-.938.954v3.676H37.783V76.213A.754.754,0,0,0,37,75.321a13.094,13.094,0,0,0-1.738,0c-.6,0-.692.492-.708.969V79.95H33V75.8a1.7,1.7,0,0,1,1.784-1.984,18.98,18.98,0,0,1,2.292,0A1.538,1.538,0,0,1,38.583,74.813Z" transform="translate(2.253 11.663)"/><path class="a" d="M65.863,77.3v1a.692.692,0,0,0,.692.692h5.906v1.538H65.54a1.4,1.4,0,0,1-1.4-1.4V74.21a1.4,1.4,0,0,1,1.4-1.4h3.445v1.369h-2.43a.692.692,0,0,0-.692.692v1.046h6.6V77.3Z" transform="translate(19.009 11.144)"/><path class="a" d="M25.921,76.046a14.412,14.412,0,0,1-.092,2.107,1.769,1.769,0,0,1-1.677,1.661,16.917,16.917,0,0,1-4.322,0,1.784,1.784,0,0,1-1.707-1.723C18,76.769,18,74.108,18,74.108V73.8h1.723v3.4c0,.984.292,1.246,1.261,1.277h2.092c.692,0,1.077-.277,1.092-1.123s0-3.538,0-3.538h1.738v2.246Z" transform="translate(-5.818 11.677)"/><path class="a" d="M58.273,75.78A1.8,1.8,0,0,1,60,73.918a17.3,17.3,0,0,1,4.368,0,1.815,1.815,0,0,1,1.723,1.738v3.83a3.324,3.324,0,0,1,0,.4H64.426V76.333c0-.815-.292-1.077-1.092-1.107s-1.538,0-2.292,0-1.123.308-1.138,1.138,0,2.015,0,3.076v.492H58.243V77.7S58.212,76.441,58.273,75.78Z" transform="translate(15.832 11.666)"/><path class="a" d="M24.507,72.68h1.738V74.4h1.892v1.415H26.245v4.707H24.507V75.818H23.63V74.4h.877V72.68" transform="translate(-2.789 11.074)"/><path class="a" d="M50.36,73.91h1.753v5.952H50.36Z" transform="translate(11.594 11.736)"/><path class="a" d="M21.353,80.209c-1.446-2.307-2.845-4.614-4.322-6.906a1.4,1.4,0,0,0-2.384,0c-1.538,2.246-2.861,4.614-4.291,6.8l-.246.4h1.984c.215-.354.461-.769.692-1.123,0,0,.4-.631.415-.708h5.245l1.107,1.8h2.015ZM14,77.456l1.83-2.984,1.8,2.984Z" transform="translate(-10.064 11.051)"/><path class="a" d="M60.144,75.63a1.815,1.815,0,0,0-1.723-1.661,11.167,11.167,0,0,0-2.153-.092,12.783,12.783,0,0,0-2.169,0,1.815,1.815,0,0,0-1.723,1.661,8.475,8.475,0,0,0,0,2.646,1.769,1.769,0,0,0,1.677,1.63,19,19,0,0,0,4.384,0,1.784,1.784,0,0,0,1.707-1.677A8.09,8.09,0,0,0,60.144,75.63Zm-1.538,1.723a1.23,1.23,0,0,1-1.23,1.23H55.206a1.23,1.23,0,0,1-1.23-1.23v-.784a1.23,1.23,0,0,1,1.23-1.23h2.138a1.23,1.23,0,0,1,1.23,1.23Z" transform="translate(12.623 11.693)"/><path class="a" d="M34.9,75.522a1.846,1.846,0,0,0-1.753-1.646,12.075,12.075,0,0,0-2.107,0,11.874,11.874,0,0,0-2.215.092,1.83,1.83,0,0,0-1.707,1.661,8.244,8.244,0,0,0,0,2.461,1.8,1.8,0,0,0,1.769,1.738,17.949,17.949,0,0,0,4.261,0A1.8,1.8,0,0,0,34.9,78.2a9.644,9.644,0,0,0,0-2.676Zm-2.63,2.922H29.742c-.846,0-.969-.338-.984-1.077v-.615c0-1.292.2-1.538,1.538-1.538h2.153a.8.8,0,0,1,.815.892v1.23C33.219,78.137,32.988,78.4,32.265,78.444Z" transform="translate(-0.965 11.693)"/><path class="a" d="M47.754,73.925a12,12,0,0,0-2.461-.108h-.385v1.23h1.538a3.261,3.261,0,0,1,.677.077.569.569,0,0,1,.492.723c0,.338-.6.292-.6.292H42.571c-1.107,0-1.538.569-1.538,1.661a3.891,3.891,0,0,0,0,.431,1.384,1.384,0,0,0,1.415,1.538,35.113,35.113,0,0,0,5.245,0A1.646,1.646,0,0,0,49.308,78V75.709a1.8,1.8,0,0,0-1.553-1.784Zm-.615,4.8a2.123,2.123,0,0,1-.538,0H43.386c-.523,0-.723-.215-.723-.738s.108-.846.708-.831h3.507s.723-.108.723.446S47.831,78.493,47.139,78.724Z" transform="translate(6.571 11.675)"/><path class="a" d="M47.831,72.68h1.738V74.4H51.46v1.415H49.569V80.54H47.831V75.818H47V74.4h.877V72.68" transform="translate(9.786 11.074)"/><rect class="a" width="1.753" height="1.707" rx="0.42" transform="translate(61.954 83.477)"/><path class="a" d="M76.48,72.51v1.969H71.758a1.538,1.538,0,0,0-1.538,1.538v3.076a1.538,1.538,0,0,0,1.538,1.538h4.891a1.538,1.538,0,0,0,1.538-1.538V72.51Zm0,6.4a.431.431,0,0,1-.446.508H72.05a.431.431,0,0,1-.415-.431V76.2a.415.415,0,0,1,.415-.431h4.43v3.076Z" transform="translate(22.281 10.982)"/><path class="a" d="M90.1,77.748V75.072a1.307,1.307,0,0,0-1.292-1.292h-5.2a1.307,1.307,0,0,0-1.292,1.292v3.661a1.277,1.277,0,0,0,1.292,1.292h3.276V78.886H83.812V77.748Zm-6.368-2.43a.431.431,0,0,1,.446-.4H88.5a.431.431,0,0,1,.446.4v1.369H83.735Z" transform="translate(28.792 11.666)"/><path class="a" d="M82.5,73.79H77.881a1.661,1.661,0,0,0-1.661,1.661v2.123a1.677,1.677,0,0,0,1.661,1.677H82.5v.661a.431.431,0,0,1-.415.431H79.5v1.369h3.292a1.369,1.369,0,0,0,1.369-1.369V75.451A1.661,1.661,0,0,0,82.5,73.79Zm0,4.107h-4.23a.677.677,0,0,1-.677-.677V75.682a.677.677,0,0,1,.677-.677H81.88a.677.677,0,0,1,.677.677Z" transform="translate(25.509 11.671)"/><path class="a" d="M69.943,49.916c-6.337,10.505-12.72,20.58-18.8,30.654-3.368,5.583-7.029,11.136-10.29,16.781-.6,1.031-1.031,1.538-1.646,2.507h-2.03c-8.8-.123-17.734,0-27.1,0,2.722-4.46,5.291-8.521,7.69-12.5,11.2-18.3,22.5-36.5,33.7-54.818,1.2-1.969,3.907-6.337,3.907-6.337,7.952-10.674,21.749-10.767,28.778.554S98.5,50.578,105.688,61.76c.677,1.077,1.43,2.384,1.43,2.384l-2.261,1.323c-5.4,3.076-16.073,9.475-16.073,9.475L86.2,76.479s-.969-1.538-1.43-2.369C80.125,66.1,75.064,58.253,69.943,49.916Z" transform="translate(-10.08 -18.227)"/><path class="a" d="M61.24,63.12,82.158,50.8,85.3,55.937l-20.918,12.3Z" transform="translate(17.449 -0.7)"/><path class="a" d="M64.92,69.13l20.9-12.32,3.138,5.137-20.918,12.3Z" transform="translate(19.429 2.534)"/><path class="a" d="M68.5,75.772,89.726,62.99l7.813,12.782Z" transform="translate(21.355 5.86)"/></svg>