<svg xmlns="http://www.w3.org/2000/svg" width="174.208" height="94.163" viewBox="0 0 174.208 94.163"><defs><style>.a{fill:#616161;}</style></defs><path class="a" d="M62.011,87.881,82.343,72.5l6.14-45.209H35.54l6.182,45.124ZM85.381,30.009l-5.566,41L62.011,84.46,44.272,70.948l-5.63-40.939Z" transform="translate(25.093 -27.29)"/><path class="a" d="M38.94,30.23l.956,6.883L64.434,30.23Z" transform="translate(28.916 -23.984)"/><path class="a" d="M57.378,76.492l14.4-10.856,2.124-16.274-18.1,6.926.977,6.99,4.249-2.783-.255-2.124,3.569-1.381-.85,6.246-6.119,4.079-6.055-4.079-1.19-8.647L74.5,45.283,76.626,30.22,39.66,40.842l3.378,24.814ZM55.126,40.609l-5.885,6.522-.574-3.973Z" transform="translate(29.726 -23.995)"/><path class="a" d="M20.512,65.88a2.231,2.231,0,0,0-.595.722l-1.508,2.953h8.5v2.911H17.537a10.493,10.493,0,0,1-1.848-.17,3.8,3.8,0,0,1-1.572-.722,3.591,3.591,0,0,1-1.083-1.466,8.27,8.27,0,0,1,0-4.971,3.654,3.654,0,0,1,1.083-1.487,4.249,4.249,0,0,1,1.572-.744,8.8,8.8,0,0,1,1.848-.191H27.629a1.955,1.955,0,0,0,.85-.127,1.891,1.891,0,0,0,.595-.7l1.636-3.144H16.942a13.9,13.9,0,0,0-4.44.637,8.243,8.243,0,0,0-3.081,1.785,6.947,6.947,0,0,0-1.806,2.8,11.09,11.09,0,0,0,0,7.287,6.947,6.947,0,0,0,1.806,2.911A8.243,8.243,0,0,0,12.5,75.95a13.894,13.894,0,0,0,4.44.637H30.369a1,1,0,0,0,.786-.34,1.1,1.1,0,0,0,.319-.807V65.667H21.361a2.124,2.124,0,0,0-.85.212Z" transform="translate(-7 8.074)"/><path class="a" d="M36.269,58.763h-6.1a2.125,2.125,0,0,0-.892.127,2.358,2.358,0,0,0-.574.765l-.51.85c-.276.51-.616,1.19-1.062,2l-1.445,2.7-1.657,3.059C22.693,70.7,21.206,73.443,19.57,76.5h6.1l7.075-13.639,3.527,6.671H32.3a1.721,1.721,0,0,0-.892.149,2.592,2.592,0,0,0-.574.722l-1.636,3.187h8.286a2.125,2.125,0,0,1,.871.127,2.124,2.124,0,0,1,.595.744l1.062,2.125h5.97Z" transform="translate(7.134 8.095)"/><path class="a" d="M49.28,72.4,41.186,58.76H34.218a1.147,1.147,0,0,0-.829.319,1.02,1.02,0,0,0-.319.786V76.5h5.417V62.861L46.582,76.5h6.99a1.168,1.168,0,0,0,1.147-1.147V58.76H49.28Z" transform="translate(22.315 8.098)"/><path class="a" d="M47.128,58.762a2.125,2.125,0,0,0-.85.127,2,2,0,0,0-.552.722L44.09,62.734h9.284V76.5h5.4V63.882a1.1,1.1,0,0,1,.319-.807,1.083,1.083,0,0,1,.829-.34h5.226a1.934,1.934,0,0,0,.871-.127,2.4,2.4,0,0,0,.595-.7l1.615-3.144Z" transform="translate(34.707 8.096)"/><path class="a" d="M61.68,70.723a1.211,1.211,0,0,1,.446-.786,1.126,1.126,0,0,1,.829-.319h8.5a1.87,1.87,0,0,0,.871-.127,2.974,2.974,0,0,0,.595-.722l1.4-3.081H61.68V63.84a1.126,1.126,0,0,1,.34-.807,1.062,1.062,0,0,1,.829-.34H74.363a1.244,1.244,0,0,0,1.466-.829l1.636-3.144H56.22V76.46H74.469a1.954,1.954,0,0,0,.85-.127,2.124,2.124,0,0,0,.595-.722l1.636-3.165H61.68Z" transform="translate(48.347 8.053)"/><path class="a" d="M75.644,72.316a3.8,3.8,0,0,1-1.572-.722,3.59,3.59,0,0,1-1.084-1.466,8.27,8.27,0,0,1,0-4.971,3.654,3.654,0,0,1,1.084-1.487,4.249,4.249,0,0,1,1.572-.744,8.858,8.858,0,0,1,1.87-.191h8.753a1.244,1.244,0,0,0,1.466-.829l1.636-3.144H76.9a13.81,13.81,0,0,0-4.44.637,8.328,8.328,0,0,0-3.187,1.785,6.947,6.947,0,0,0-1.806,2.8,11.451,11.451,0,0,0,0,7.287,6.947,6.947,0,0,0,1.806,2.868,8.328,8.328,0,0,0,3.1,1.785,13.81,13.81,0,0,0,4.44.637h9.709a2.125,2.125,0,0,0,.892-.127,2.294,2.294,0,0,0,.574-.722l1.636-3.165H77.429A10.621,10.621,0,0,1,75.644,72.316Z" transform="translate(60.323 8.096)"/><path class="a" d="M91.48,58.76v6.883H84.937a2.124,2.124,0,0,0-.892.127,2.592,2.592,0,0,0-.574.722L81.92,69.446h9.56v6.968h5.481V58.76Z" transform="translate(77.247 8.098)"/><rect class="a" width="5.439" height="17.74" transform="translate(152.687 66.858)"/><rect class="a" width="1.041" height="4.716" transform="translate(1.423 89.356)"/><path class="a" d="M14.418,70.858v1.806h0a12.6,12.6,0,0,0-.659-1.445l-.977-1.87H11.55v4.716h.956V72.282q.038-.775,0-1.551h0c.212.51.4.977.637,1.445l1.041,1.976H15.4v-4.8h-.977Z" transform="translate(-1.884 20.006)"/><path class="a" d="M16.73,74.088h1.02V72.3h1.53v-.85H17.75V70.2h1.785v-.85h-2.8Z" transform="translate(3.941 20.006)"/><path class="a" d="M23.156,69.32c-1.147,0-1.976.744-1.976,2.464s.744,2.4,1.912,2.4,2-.744,2-2.464S24.324,69.32,23.156,69.32Zm0,3.994c-.574,0-.914-.4-.914-1.593s.34-1.551.85-1.551.935.425.935,1.593S23.687,73.314,23.156,73.314Z" transform="translate(8.945 19.973)"/><path class="a" d="M28.447,72.068h0a1.19,1.19,0,0,0,1-1.317c0-.977-.595-1.381-1.636-1.381H26.28v4.716H27.3V72.344h0c.212,0,.34,0,.425.212l.786,1.53h1.232l-.659-1.253C28.851,72.366,28.7,72.174,28.447,72.068Zm-.765-.595H27.3v-1.3h.51c.446,0,.7.191.7.637s-.276.659-.829.659Z" transform="translate(14.68 20.029)"/><path class="a" d="M33.574,71.9h0l-.892-2.549H31.11v4.716h.935V70.582h0L33,73.514h.85l1.041-2.932h0v3.484h.977V69.35H34.318Z" transform="translate(20.111 20.006)"/><path class="a" d="M37.993,69.35,36.57,74.066h1.041l.3-1.084h1.7l.3,1.084h1.083L39.544,69.35Zm.149,2.783.212-.68c.17-.595.255-.977.34-1.381h0a6.468,6.468,0,0,0,.361,1.4l.191.659Z" transform="translate(26.251 20.006)"/><path class="a" d="M41.36,70.2h1.168v3.888h1.041V70.2h1.168v-.85H41.36Z" transform="translate(31.637 20.006)"/><rect class="a" width="1.041" height="4.716" transform="translate(83.067 89.356)"/><path class="a" d="M51.846,69.32c-1.147,0-1.976.744-1.976,2.464s.744,2.4,1.912,2.4,2-.744,2-2.464S53.014,69.32,51.846,69.32Zm0,3.994c-.574,0-.914-.4-.914-1.593s.34-1.551.85-1.551.935.425.935,1.593S52.4,73.314,51.846,73.314Z" transform="translate(41.207 19.973)"/><path class="a" d="M57.783,70.858v1.806h0c-.191-.467-.446-1-.68-1.445l-.956-1.87H55v4.716h.977V72.282a15.662,15.662,0,0,0,0-1.636h0a14.869,14.869,0,0,0,.637,1.445l1.02,1.976h1.211V69.35h-.977Z" transform="translate(46.975 20.006)"/><path class="a" d="M65.007,70.641c0-.234.191-.425.531-.425a1.1,1.1,0,0,1,.871.425l.637-.744a1.785,1.785,0,0,0-1.423-.574,1.53,1.53,0,0,0-1.678,1.4c0,1.487,2.124,1.381,2.124,2.124,0,.255-.191.467-.616.467a1.7,1.7,0,0,1-1.19-.574l-.574.85a2.125,2.125,0,0,0,1.636.595c1.19,0,1.785-.7,1.785-1.4C67.174,71.279,65.007,71.406,65.007,70.641Z" transform="translate(56.747 19.968)"/><path class="a" d="M69.753,69.35,68.33,74.066h1.041l.3-1.084h1.593l.3,1.084h1.084L71.2,69.35Zm.149,2.783.212-.68c.17-.595.255-.977.34-1.381h0a6.468,6.468,0,0,0,.361,1.4l.191.659Z" transform="translate(61.965 20.006)"/><path class="a" d="M73.5,74.088h1.02V72.3h1.53v-.85H74.52V70.2H76.3v-.85H73.5Z" transform="translate(67.778 20.006)"/><path class="a" d="M79.08,72.091h1.53v-.829H79.08V70.2h1.785v-.85h-2.8v4.738h2.868v-.871H79.08Z" transform="translate(72.906 20.006)"/><path class="a" d="M82.45,70.2h1.168v3.888h1.041V70.2h1.168v-.85H82.45Z" transform="translate(77.843 20.006)"/><path class="a" d="M89.056,71.538h-.042l-.956-2.188H86.91L88.5,72.558v1.53h1.02v-1.53l1.593-3.208H90.033Z" transform="translate(82.858 20.006)"/></svg>