<svg width="159" height="38" viewBox="0 0 159 38" fill="none" xmlns="http://www.w3.org/2000/svg">
<g clip-path="url(#clip0_129_1279)">
<path d="M12.5527 36.8359C8.91618 36.8435 5.97753 34.6494 4.88341 31.018C3.33754 25.8916 1.8427 20.7499 0.332851 15.6113C0.0491913 14.647 0.280321 14.1997 1.21835 13.8752C2.32597 13.4916 3.4411 13.1232 4.55623 12.7593C5.61432 12.4136 6.08709 12.6774 6.39326 13.7418C7.73802 18.4301 9.08427 23.1168 10.435 27.8035C10.5326 28.1402 10.6482 28.4768 10.7982 28.7937C11.1479 29.5366 11.7453 29.99 12.5602 29.9945C13.3797 29.9991 13.9695 29.5351 14.3177 28.7921C14.7365 27.9006 14.9346 26.9332 15.2062 25.9916C16.3784 21.9341 17.528 17.8706 18.6912 13.81C19.0259 12.644 19.4836 12.3969 20.6273 12.7744C21.6688 13.1186 22.7044 13.481 23.743 13.8358C24.8461 14.2134 25.0788 14.6455 24.7531 15.7675C24.2188 17.6022 23.677 19.4338 23.1337 21.2655C22.1926 24.4481 21.2666 27.6352 20.3001 30.8088C19.296 34.1021 17.1783 36.1854 13.7489 36.7828C13.6258 36.804 13.5028 36.8298 13.3782 36.8328C13.1035 36.8404 12.8289 36.8359 12.5542 36.8359H12.5527Z" fill="#616161"/>
<path d="M57.6305 15.1216C57.6305 10.6062 57.6305 6.09231 57.6305 1.57691C57.6305 0.330545 57.9442 0.0106156 59.1749 0.00455055C60.299 1.79186e-06 61.4231 -0.00454697 62.5473 0.00455055C63.6474 0.0151643 63.9686 0.345708 63.9701 1.45561C63.9716 10.0816 63.9716 18.7075 63.9686 27.3335C63.9686 27.7899 63.9896 28.2402 64.0976 28.6845C64.3228 29.6185 64.9531 30.1598 65.9016 30.1992C66.451 30.222 67.0018 30.1856 67.5496 30.2114C68.3885 30.2508 68.7893 30.6526 68.7998 31.4865C68.8163 32.8739 68.8208 34.2613 68.7983 35.6487C68.7848 36.4689 68.396 36.8344 67.5781 36.8404C66.1313 36.8526 64.683 36.9117 63.2692 36.475C59.9853 35.4606 57.7326 32.56 57.6725 28.9665C57.596 24.3526 57.6545 19.7356 57.6545 15.1201C57.647 15.1201 57.6395 15.1201 57.632 15.1201L57.6305 15.1216Z" fill="#616161"/>
<path d="M63.5694 50C59.5576 49.9424 56.0562 48.6293 53.2091 45.706C52.274 44.7462 52.3176 44.0896 53.3561 43.2769C54.1246 42.675 54.8915 42.07 55.6659 41.4771C56.4539 40.8752 57.1218 40.8539 57.8121 41.5347C60.8048 44.4869 66.2874 44.5293 69.3221 41.5302C70.0095 40.8509 70.6909 40.8767 71.4743 41.4771C72.2893 42.1018 73.0982 42.7326 73.9012 43.3709C74.7882 44.076 74.8482 44.7386 74.0393 45.5953C71.9831 47.7772 69.4677 49.1342 66.5441 49.7089C65.5655 49.9014 64.5735 50.0106 63.5694 50Z" fill="#616161"/>
<path d="M50.0393 20.7423C49.8862 18.0192 48.8386 15.7023 46.6594 14.0253C44.093 12.0497 41.1453 11.704 38.0521 12.1831C33.9578 12.8169 30.9246 16.001 30.4998 20.1252C30.2402 22.6377 30.4053 25.1622 30.4023 27.6807C30.3993 29.9005 31.1467 31.8777 32.604 33.5547C35.9029 37.3559 41.528 37.6061 45.4167 35.6866C46.0966 35.3515 46.2767 34.7313 45.939 33.9474C45.5713 33.0938 45.1556 32.2613 44.7578 31.4213C44.1815 30.2068 43.7253 30.0097 42.439 30.4524C41.7727 30.6814 41.0943 30.8088 40.3889 30.833C38.4423 30.9043 36.8664 29.9111 36.4432 28.3752C36.2976 27.849 36.4312 27.7186 36.9489 27.7277C38.5969 27.752 40.2448 27.7368 41.8942 27.7368C43.3921 27.7368 44.8914 27.7368 46.3893 27.7368C48.4994 27.7368 49.8652 26.5071 50.0153 24.3662C50.0993 23.1623 50.1083 21.9447 50.0408 20.7393L50.0393 20.7423ZM43.6277 21.8871C42.5081 21.872 41.3869 21.8811 40.2658 21.8811C39.1702 21.8811 38.0731 21.8507 36.979 21.8932C36.4131 21.9159 36.3051 21.7037 36.3816 21.1942C36.6863 19.1518 38.1436 17.9722 40.3394 18.0176C42.5186 18.0631 43.9294 19.3322 44.129 21.3898C44.171 21.828 43.9909 21.8917 43.6277 21.8856V21.8871Z" fill="#616161"/>
<path d="M120.094 20.2602C119.988 18.9395 119.6 17.6856 118.927 16.5469C117.04 13.3597 114.104 12.0921 110.567 12.0042C104.826 11.8616 100.52 15.5158 100.483 21.5141C100.469 23.7824 100.436 26.0538 100.537 28.3191C100.642 30.689 101.619 32.7344 103.408 34.2689C107.034 37.3802 111.088 37.5076 115.334 35.7775C116.198 35.4258 116.39 34.7616 115.98 33.8428C115.602 32.9937 115.198 32.1552 114.792 31.3197C114.251 30.2114 113.777 30.0006 112.631 30.4206C111.649 30.78 110.649 30.9073 109.617 30.7906C108.048 30.6132 106.813 29.6109 106.519 28.3373C106.411 27.8687 106.506 27.7217 107.002 27.7308C108.676 27.7581 110.349 27.7414 112.021 27.7414C113.519 27.7414 115.018 27.7414 116.516 27.7414C118.482 27.7414 119.647 26.824 120.028 24.8544C120.322 23.3367 120.217 21.7916 120.093 20.2617L120.094 20.2602ZM113.426 21.8811C112.402 21.8826 111.377 21.8811 110.354 21.8811C109.204 21.8811 108.056 21.8765 106.906 21.8841C106.594 21.8856 106.417 21.872 106.452 21.4398C106.617 19.4429 107.91 18.1693 109.979 18.0328C112.209 17.8842 113.747 18.9683 114.139 20.9622C114.305 21.8083 114.251 21.8795 113.426 21.8811Z" fill="#616161"/>
<path d="M94.4417 24.7574C94.4417 23.5034 94.4537 22.4951 94.4402 21.4853C94.3772 17.1776 92.1244 13.9328 88.2717 12.5834C86.6628 12.0209 85.0014 11.9177 83.3204 12.0315C78.3601 12.3696 74.7986 15.9813 74.5855 20.9789C74.4895 23.2199 74.515 25.467 74.551 27.711C74.5885 30.0461 75.3915 32.1082 77.0274 33.7776C79.7995 36.6069 83.2004 37.3878 86.948 36.5569C90.9567 35.6668 93.4917 33.1529 94.3141 29.0408C94.6113 27.5518 94.3997 26.0219 94.4447 24.7559L94.4417 24.7574ZM85.15 30.9088C84.248 31.0483 83.3565 30.9194 82.519 30.5237C81.3708 29.9824 80.7495 29.0787 80.7435 27.7869C80.7345 25.5944 80.727 23.4003 80.745 21.2078C80.7615 19.2519 81.8886 18.0677 83.8307 17.9267C84.2029 17.8994 84.5796 17.8994 84.9519 17.916C87.1131 18.0176 88.2282 19.1988 88.2357 21.3852C88.2387 22.4193 88.2357 23.4519 88.2357 24.486C88.2357 25.4443 88.1877 26.404 88.2447 27.3593C88.3753 29.5351 87.017 30.6192 85.147 30.9073L85.15 30.9088Z" fill="#616161"/>
</g>
<defs>
<clipPath id="clip0_129_1279">
<rect width="158" height="38" fill="white" transform="translate(0.21875)"/>
</clipPath>
</defs>
</svg>
