<svg xmlns="http://www.w3.org/2000/svg" width="136.119" height="63.415" viewBox="0 0 136.119 63.415"><defs><style>.a{fill:#616161;}.a,.b{fill-rule:evenodd;}.b,.c{fill:#fff;}</style></defs><path class="a" d="M18.04,92.08A9.706,9.706,0,0,1,8.35,82.39V39.87a9.706,9.706,0,0,1,9.69-9.69H133.215a9.706,9.706,0,0,1,9.69,9.69V92.08Zm0,0" transform="translate(-7.568 -29.398)"/><path class="b" d="M133.527,31.358a8.89,8.89,0,0,1,8.89,8.824V91.61H18.352A8.907,8.907,0,0,1,9.445,82.7V40.182a8.907,8.907,0,0,1,8.907-8.89Zm0-1.582H18.352A10.472,10.472,0,0,0,7.88,40.182V82.636A10.489,10.489,0,0,0,18.352,93.125H144V40.182A10.472,10.472,0,0,0,133.527,29.71Zm0,0" transform="translate(-7.88 -29.71)"/><path class="b" d="M73.73,40.11h4.712l7.042,9.406H80.839l3.53,4.695H78.442l-3.53-4.695H77.26L73.73,44.8h3.53Zm0,0" transform="translate(35.901 -22.795)"/><path class="b" d="M78.424,40.11H73.712L66.67,49.516h4.695l-3.53,4.695h5.894l3.48-4.695H74.894l3.53-4.712h-3.53Zm0,0" transform="translate(31.207 -22.795)"/><rect class="c" width="0.816" height="33.93" transform="translate(94.548 14.801)"/><path class="b" d="M21.755,40.67H16.76v7.991c0,3.879,2.88,5.394,6.56,5.394,3.979,0,6.659-1.4,6.659-5.661V40.67H24.984v7.825c0,1.282-.283,2.164-1.665,2.164s-1.565-.932-1.565-2.181Zm0,0" transform="translate(-1.976 -22.423)"/><path class="b" d="M25.48,52.581h4.745V46.937c0-.566,0-1.349.849-1.349s.832.782.832,1.349v5.644h4.745V45.772c0-1.915-.916-3.23-3.446-3.23a3.33,3.33,0,0,0-3.2,1.915h0V42.792H25.48Zm0,0" transform="translate(3.822 -21.182)"/><path class="b" d="M33.28,54.215h4.745V44.409H33.28ZM38.025,40.08H33.28v3.33h4.745Zm0,0" transform="translate(9.008 -22.815)"/><path class="b" d="M37.07,52.615h4.745V46.971c0-.566,0-1.349.849-1.349s.832.782.832,1.349v5.644h4.745V46.971c0-.566,0-1.349.832-1.349s.849.782.849,1.349v5.644h4.745V46.671c0-1.915,0-4.162-3.463-4.162-1.165,0-2.83.549-3.147,1.665h0a3,3,0,0,0-3.063-1.665,3.33,3.33,0,0,0-3.33,1.915h0V42.759h-4.6Zm0,0" transform="translate(11.527 -21.215)"/><path class="b" d="M52.828,46.709c0-.766.183-1.931,1.282-1.931s1.182,1.182,1.182,1.931Zm6.659,2.081v-.516c0-3.33-1.332-5.694-5.144-5.694s-6.093,1.665-6.093,4.995,2.114,5.311,6.093,5.311a14.984,14.984,0,0,0,4.429-.566V49.672a7.192,7.192,0,0,1-3.213.633c-1.4,0-2.547-.283-2.63-1.515Zm0,0" transform="translate(18.961 -21.153)"/><path class="b" d="M67.434,54.215V40.08H62.689v5.577h0a3.33,3.33,0,0,0-3.013-1.482c-2.963,0-4.2,2.314-4.2,4.995s1.182,5.294,4.329,5.294a3.08,3.08,0,0,0,3.2-2.031h0v1.781ZM62.822,49.22c0,.916-.15,2.014-1.182,2.014s-1.2-1.1-1.2-2.131.166-2.031,1.165-2.031S62.822,48.088,62.822,49.22Zm0,0" transform="translate(23.767 -22.815)"/><rect class="c" width="106.651" height="0.816" transform="translate(14.734 33.93)"/><path class="c" d="M46.14,56.569h.816a2.148,2.148,0,0,0,.266.8,1.5,1.5,0,0,0,.666.5,2.63,2.63,0,0,0,1.881,0,1.182,1.182,0,0,0,.549-.4A.882.882,0,0,0,50.5,56.9a.849.849,0,0,0-.166-.533,1.282,1.282,0,0,0-.6-.383,8.641,8.641,0,0,0-1.149-.316,5.777,5.777,0,0,1-1.265-.416,1.665,1.665,0,0,1-.7-.6,1.548,1.548,0,0,1-.233-.816,1.665,1.665,0,0,1,.283-.932,1.781,1.781,0,0,1,.816-.649,3.13,3.13,0,0,1,1.2-.216,3.33,3.33,0,0,1,1.282.233,1.748,1.748,0,0,1,.849.683,2,2,0,0,1,.333,1.032h-.832a1.349,1.349,0,0,0-.45-.932,2.314,2.314,0,0,0-2.281,0,.832.832,0,0,0-.366.7.683.683,0,0,0,.266.566,3.329,3.329,0,0,0,1.3.466,10.107,10.107,0,0,1,1.448.416,2.131,2.131,0,0,1,.832.666,1.719,1.719,0,0,1-.017,1.915,1.931,1.931,0,0,1-.866.716,3,3,0,0,1-1.249.266,3.9,3.9,0,0,1-1.5-.266,1.965,1.965,0,0,1-.932-.782A2.148,2.148,0,0,1,46.14,56.569Z" transform="translate(17.558 -14.864)"/><path class="c" d="M53.113,57.373a2.913,2.913,0,0,1-.866.533,2.514,2.514,0,0,1-.882.15,1.665,1.665,0,0,1-1.2-.383,1.215,1.215,0,0,1-.416-.966,1.315,1.315,0,0,1,.15-.633,1.415,1.415,0,0,1,.416-.466,2.315,2.315,0,0,1,.583-.266,6.374,6.374,0,0,1,.716-.117,7.125,7.125,0,0,0,1.432-.283v-.2a.9.9,0,0,0-.233-.7,1.4,1.4,0,0,0-.916-.266,1.432,1.432,0,0,0-.832.2,1.282,1.282,0,0,0-.4.7l-.782-.083a2.314,2.314,0,0,1,.283-.832,1.665,1.665,0,0,1,.716-.483,3.33,3.33,0,0,1,1.066-.166,2.813,2.813,0,0,1,1,.15,1.415,1.415,0,0,1,.549.35,1.4,1.4,0,0,1,.25.549,4.079,4.079,0,0,1,0,.749v1.066a11.655,11.655,0,0,0,0,1.415,1.815,1.815,0,0,0,.216.566h-.849A1.665,1.665,0,0,1,53.113,57.373Zm0-1.8a6.244,6.244,0,0,1-1.315.3,2.663,2.663,0,0,0-.7.166.716.716,0,0,0-.316.266.749.749,0,0,0-.117.383.7.7,0,0,0,.25.533,1.116,1.116,0,0,0,.716.216,1.665,1.665,0,0,0,.816-.216,1.215,1.215,0,0,0,.533-.549,1.981,1.981,0,0,0,.133-.8Z" transform="translate(19.957 -14.153)"/><path class="c" d="M53,57.923V53.228h.716v.666a1.877,1.877,0,0,1,2.3-.616,1.216,1.216,0,0,1,.533.4,1.665,1.665,0,0,1,.25.583,4.178,4.178,0,0,1,0,.782v2.88H56V55.076a2.031,2.031,0,0,0-.1-.733.749.749,0,0,0-.333-.383,1,1,0,0,0-.549-.15,1.265,1.265,0,0,0-.882.333,1.665,1.665,0,0,0-.383,1.232v2.547Z" transform="translate(22.119 -14.153)"/><path class="c" d="M57.9,57.857l.117.7a3,3,0,0,1-.616.083,1.232,1.232,0,0,1-.666-.15.749.749,0,0,1-.35-.366,3.446,3.446,0,0,1,0-.932v-2.73h-.6v-.616h.6V52.663l.782-.483v1.665h.816v.616h-.816v2.764a1.249,1.249,0,0,0,0,.45.3.3,0,0,0,.133.15.649.649,0,0,0,.283,0Z" transform="translate(23.974 -14.771)"/><path class="c" d="M57.356,55.592a2.447,2.447,0,0,1,.733-1.948,2.181,2.181,0,0,1,1.482-.533,2.114,2.114,0,0,1,1.665.649,2.4,2.4,0,0,1,.533,1.765,3.13,3.13,0,0,1-.266,1.432,1.981,1.981,0,0,1-.8.816,2.447,2.447,0,0,1-1.149.283,2.081,2.081,0,0,1-1.665-.633,2.514,2.514,0,0,1-.533-1.831Zm.832,0a1.981,1.981,0,0,0,.383,1.349,1.3,1.3,0,0,0,2,0,2.048,2.048,0,0,0,.4-1.382,1.965,1.965,0,0,0-.4-1.332,1.332,1.332,0,0,0-2,0,2,2,0,0,0-.383,1.365Z" transform="translate(25.005 -14.154)"/><path class="c" d="M60.38,56.54l.8-.117a1.1,1.1,0,0,0,.366.716,1.282,1.282,0,0,0,.866.266,1.248,1.248,0,0,0,.816-.233.649.649,0,0,0,.266-.533.5.5,0,0,0-.233-.416,3.214,3.214,0,0,0-.816-.283,5.743,5.743,0,0,1-1.232-.383,1.049,1.049,0,0,1-.516-.45,1.315,1.315,0,0,1,0-1.215,1.3,1.3,0,0,1,.4-.45,1.882,1.882,0,0,1,.516-.233,2.181,2.181,0,0,1,.683-.1,2.581,2.581,0,0,1,.982.166,1.249,1.249,0,0,1,.616.433,1.665,1.665,0,0,1,.283.733l-.782.1a.882.882,0,0,0-.316-.566,1.149,1.149,0,0,0-.716-.2,1.382,1.382,0,0,0-.8.183.549.549,0,0,0-.233.433.416.416,0,0,0,.083.2.583.583,0,0,0,.3.216l.716.216a8.757,8.757,0,0,1,1.182.366,1.215,1.215,0,0,1,.533.416,1.132,1.132,0,0,1,.183.683,1.3,1.3,0,0,1-.233.766,1.465,1.465,0,0,1-.666.549,2.73,2.73,0,0,1-1,.183,2.131,2.131,0,0,1-1.4-.383,1.781,1.781,0,0,1-.649-1.066Z" transform="translate(27.025 -14.153)"/></svg>
