<svg width="159" height="38" viewBox="0 0 159 38" fill="none" xmlns="http://www.w3.org/2000/svg">
<g clip-path="url(#clip0_129_1286)">
<path d="M0.46875 28.6413V31.6945H5.03182C6.98953 31.6945 8.57924 30.0832 8.57924 28.0935V18.9938C8.57924 15.8236 11.111 13.2561 14.2316 13.2561H17.7226V31.8862H18.7554C21.3338 31.8862 23.4215 29.7645 23.4215 27.1496V17.7387C23.4215 15.2633 25.3988 13.2561 27.8374 13.2561H32.3784V27.817C32.3784 30.0633 34.1741 31.8862 36.387 31.8862H38.016V7.72253H25.4994C23.5613 7.72253 21.1473 9.31635 21.1473 11.2837H21.1449C21.1449 9.31635 19.1602 7.72253 17.2221 7.72253H13.135C7.60775 7.72253 3.12809 12.2699 3.12809 17.8806V28.6264L0.46875 28.6413H0.46875Z" fill="#616161"/>
<path d="M41.6957 15.6368H45.9718V30.3721C45.9718 31.2064 45.3045 31.8812 44.4851 31.8812H40.3979V16.9542C40.3979 16.227 40.9794 15.6343 41.6982 15.6343L41.6957 15.6368Z" fill="#616161"/>
<path d="M45.8785 7.72253H45.9718V13.2859H40.3979C40.3979 10.2154 42.8537 7.72253 45.8785 7.72253Z" fill="#616161"/>
<path d="M48.3196 7.72253V9.50312C48.3196 11.5925 49.9878 13.2859 52.0461 13.2859H54.8183C55.3114 13.2859 55.7113 13.6919 55.7113 14.1924V29.4358C55.7113 30.788 56.7907 31.8838 58.1228 31.8838H61.5672V14.0629C61.5672 13.6321 61.9107 13.2834 62.3351 13.2834H68.5664C69.3195 13.2834 69.9279 12.6634 69.9279 11.9013V7.72253H48.3171H48.3196Z" fill="#616161"/>
<path d="M72.2168 7.72252V31.8837H74.2947C76.2966 31.8837 77.9182 30.2376 77.9182 28.2055V12.9995H88.3568C89.7527 12.9995 90.8837 14.1476 90.8837 15.5646V16.6553C90.9695 20.2838 87.14 21.5887 84.4954 20.3112L83.2467 19.6437C81.998 18.9788 80.499 19.0162 79.2871 19.7483L78.7744 20.0571L90.8837 31.8837H97.7528L89.7773 23.8499C93.0524 23.8499 95.7068 21.1554 95.7068 17.8308V14.8001C95.7068 10.8902 92.5838 7.72003 88.7322 7.72003H72.2168V7.72252Z" fill="#616161"/>
<path d="M96.9998 7.72253H122.305C122.305 10.6014 120.006 12.9373 117.168 12.9373H104.306V24.6792C104.306 25.7799 105.184 26.6715 106.268 26.6715H117.627C120.21 26.6715 122.303 28.7982 122.303 31.4181V31.8838H106.413C102.228 31.8838 98.8348 28.4396 98.8348 24.1911V11.5801C98.5208 10.2652 97.9639 9.23915 96.9973 8.69875V7.72502L96.9998 7.72253Z" fill="#616161"/>
<path d="M110.086 16.9243H116.785C117.517 16.9243 118.108 17.527 118.108 18.2666V21.0284C118.108 21.6086 117.644 22.0818 117.07 22.0818H105.002C105.002 19.2353 107.279 16.9243 110.083 16.9243H110.086Z" fill="#616161"/>
<path d="M149.46 34.0304C148.621 34.0304 147.714 33.7465 147.086 33.1787L146.666 32.8251C146.038 32.3992 145.479 31.9037 144.991 31.4778C142.756 29.7047 141.22 28.7833 139.893 28.7833C138.566 28.7833 137.03 29.7047 134.724 31.4778C134.164 31.9037 133.607 32.3993 132.908 32.967L132.629 33.1787C129.3 35.542 126.623 32.3993 126.623 32.3993C125.016 30.6261 124.319 28.0735 126.064 26.3029C126.763 25.5234 127.32 24.8859 127.879 24.3181C131.162 20.4905 131.022 18.2218 127.81 13.8961C127.182 13.1863 126.623 12.4791 125.995 11.6971C124.459 9.85426 125.087 7.44362 126.343 5.88467L126.832 5.38909C128.647 3.89987 130.813 3.61597 132.557 4.8213C133.325 5.31687 133.885 5.74272 134.444 6.16857L135.352 6.73636C140.03 10.0684 139.613 10.0684 144.431 6.73636L144.78 6.45246C145.479 5.95689 146.247 5.38909 147.083 4.8213C148.899 3.61597 151.345 3.89987 152.88 5.45882C154.416 7.15972 155.419 9.792 153.788 11.6274C153.44 11.9113 152.532 13.2585 152.041 13.8961C148.199 19.1432 148.199 19.9924 151.833 24.1762C152.321 24.8859 153.02 25.5234 153.648 26.3029C155.255 28.076 154.627 30.4867 153.16 32.1876C153.091 32.3992 152.88 32.5412 152.74 32.6831C151.762 33.5348 150.506 34.0304 149.458 34.0304H149.46ZM139.893 27.0127C141.708 27.0127 143.455 28.076 145.898 30.133C146.526 30.4867 147.086 30.9847 147.714 31.4803L148.133 31.7642C148.482 32.1901 148.972 32.2598 149.46 32.2598C150.299 32.2598 151.067 31.7642 151.627 31.4081C151.767 31.2661 151.835 31.1964 151.975 30.9822C152.044 30.9822 153.651 28.9252 152.395 27.5082C151.767 26.7288 151.067 26.019 150.508 25.3815C146.387 20.4905 146.387 18.7174 150.717 12.9049C151.205 12.1952 152.323 10.6362 152.323 10.6362C153.44 9.21922 152.532 7.51584 151.835 6.87831C150.719 5.67299 149.181 5.46131 148.065 6.24079C147.157 6.87831 146.389 7.30416 145.761 7.79973L145.341 8.08363C140.033 11.9113 139.615 11.9113 134.307 8.08363L133.539 7.65779C132.911 7.23194 132.351 6.73636 131.584 6.24079C130.536 5.60326 129.302 5.63563 128.021 6.73636C127.523 7.08252 125.995 9.07478 127.322 10.564C127.95 11.3435 128.578 12.123 129.138 12.763C132.84 17.7262 132.84 20.986 129.138 25.4537C128.649 26.0215 127.95 26.7288 127.182 27.5107C125.855 28.9277 127.95 31.2686 127.95 31.2686C128.718 32.0481 130.465 32.7579 131.581 31.7642C131.861 31.6223 133.257 30.4892 133.816 30.133C136.399 28.076 138.077 27.0127 139.893 27.0127Z" fill="#616161"/>
<path d="M139.822 38H139.542C137.795 37.9303 136.191 36.6527 135.212 34.526C134.584 33.2509 134.025 32.1876 133.536 31.2636C131.861 28.3574 130.813 27.2218 128.088 25.6629C127.18 25.1673 124.665 23.82 124.665 23.82C122.499 22.6147 121.174 20.8416 121.174 18.9987V18.7148C121.314 16.9417 122.502 15.3131 124.665 14.3194C126.061 13.6819 127.109 13.1141 127.948 12.6185C130.742 11.0596 132.069 9.64007 133.605 6.73385C134.093 5.88216 134.653 4.81878 135.212 3.61346C136.191 1.48672 137.726 0.211666 139.402 -0.00250244H140.101C141.917 0.209176 143.452 1.48672 144.502 3.61346C145.062 4.81878 145.55 5.88216 146.038 6.73385C147.645 9.78202 148.901 10.9176 151.764 12.6185C152.743 13.1863 153.79 13.6819 154.978 14.3194C157.213 15.4525 158.469 17.1559 158.469 18.9987V19.2104C158.329 21.0533 157.073 22.7542 154.978 23.8175C153.651 24.4551 152.534 25.0926 151.556 25.5184C148.972 27.0077 147.854 28.1408 146.247 31.1889C145.619 32.1826 145.059 33.2459 144.431 34.521C143.452 36.6477 141.917 37.9228 140.17 37.995H139.822V38ZM140.03 1.77062H139.611C138.494 1.91256 137.444 2.83399 136.748 4.32321C136.188 5.59826 135.631 6.66163 135.141 7.65527C133.394 10.7757 131.79 12.4043 128.855 14.1775C127.948 14.673 126.829 15.2408 125.364 15.8784C123.897 16.5881 122.99 17.7212 122.921 18.8568C122.921 20.2041 123.9 21.3372 125.364 22.2586C125.703 22.4628 127.958 23.708 128.927 24.1014C132.001 25.8746 133.257 27.2218 135.072 30.4119C135.492 31.2636 136.12 32.469 136.748 33.744C137.447 35.303 138.494 36.2966 139.611 36.2966H140.099C141.146 36.1547 142.194 35.303 142.962 33.744C143.661 32.469 144.218 31.2636 144.708 30.4119C146.524 27.0799 147.851 25.6629 150.714 24.1014C151.622 23.5336 152.809 22.8961 154.205 22.2586C155.741 21.4791 156.72 20.4157 156.72 19.2104C156.72 17.8632 155.741 16.6578 154.205 15.8784C153.018 15.2408 151.83 14.673 150.991 14.1775C147.709 12.3346 146.313 10.8454 144.566 7.65527C144.007 6.66163 143.519 5.59826 142.959 4.32321C142.191 2.83399 141.144 1.91256 140.025 1.77062" fill="#616161"/>
</g>
<defs>
<clipPath id="clip0_129_1286">
<rect width="158" height="38" fill="white" transform="translate(0.46875)"/>
</clipPath>
</defs>
</svg>
