<svg xmlns="http://www.w3.org/2000/svg" width="236.919" height="27.85" viewBox="0 0 236.919 27.85"><defs><style>.a{fill:#616161;}</style></defs><path class="a" d="M8,67.866V52.247a5.282,5.282,0,0,1,5.875-5.225H30v4.1H13.649s-2.175.339-2.175,2.147v2.514H27.348v3.9H12.1v8.191Z" transform="translate(-8 -40.017)"/><path class="a" d="M17,44.66V63.415s.311,7.88,7,7.88h4.011V67.284H23.751a3.3,3.3,0,0,1-2.825-3.248V44.66Z" transform="translate(8.421 -44.265)"/><path class="a" d="M41.368,47.22H25.438s-3.9.876-3.9,4.1V62.049a4.886,4.886,0,0,0,5.649,4.576H43.628V62.614H27.1s-1.921.311-1.921-3.107H40.436s4.519-1.356,4.519-5.084V51.316S44.475,47.22,41.368,47.22Zm-1.779,7.852H25.014V52.558a1.892,1.892,0,0,1,2.005-2.005H39.5s2.316.537,2.316,2.288S39.589,55.072,39.589,55.072Z" transform="translate(16.704 -39.594)"/><path class="a" d="M31.2,62.565v3.841h5a1.666,1.666,0,0,0,1.186-.48l5.649-5.649a1.666,1.666,0,0,1,2.4,0l6.242,6.129a1.751,1.751,0,0,0,1.215.508h6.553a1.667,1.667,0,0,0,1.186-.48l6.016-5.649-3.107-3.107-4.18,4.152a1.7,1.7,0,0,1-1.186.508H53.8a1.751,1.751,0,0,1-1.186-.508L38.488,47.708a1.808,1.808,0,0,0-1.215-.508H30.89v3.389h3.644a1.723,1.723,0,0,1,1.215.48l4.519,4.547a1.666,1.666,0,0,1,0,2.4L36.313,62a1.808,1.808,0,0,1-1.186.508Z" transform="translate(33.763 -39.63)"/><path class="a" d="M71.418,51.491V47.65h-5a1.779,1.779,0,0,0-1.215.48l-5.649,5.649a1.666,1.666,0,0,1-2.4,0l-6.186-6.157a1.7,1.7,0,0,0-1.1-.621H43.314a1.638,1.638,0,0,0-1.158.48L36.14,53.129l3.107,3.107L43.4,52.084a1.808,1.808,0,0,1,1.215-.508h4.152a1.808,1.808,0,0,1,1.215.508L64.1,66.207a1.7,1.7,0,0,0,1.186.508h6.553V63.467H68.17a1.667,1.667,0,0,1-1.186-.48l-4.547-4.547a1.666,1.666,0,0,1,0-2.4l3.983-3.983a1.808,1.808,0,0,1,1.158-.508Z" transform="translate(43.341 -39.995)"/><path class="a" d="M50,47.19h4.237V59.872h0a2.457,2.457,0,0,0,2.457,2.486h3.587v4.067H56.129A6.186,6.186,0,0,1,50,60.38Z" transform="translate(68.629 -39.649)"/><path class="a" d="M71.895,51.525H58.14v-7H54.27V66.325a5.112,5.112,0,0,0,5.084,5.084H71.895a5.649,5.649,0,0,0,5.649-5.649V57.4a5.649,5.649,0,0,0-5.649-5.875Zm1.638,12.993a2.6,2.6,0,0,1-2.6,2.6H60.145a2.005,2.005,0,0,1-2.005-2.005V55.366H70.935a2.6,2.6,0,0,1,2.6,2.57Z" transform="translate(76.42 -44.52)"/><path class="a" d="M64,44.52V64.292a7.2,7.2,0,0,0,7.09,7h3.785V66.834H72.05A3.926,3.926,0,0,1,68.1,62.879V44.52Z" transform="translate(94.172 -44.52)"/><path class="a" d="M72.959,59.6H86.4a5.423,5.423,0,0,0,5.423-5.423v-1.61A5.423,5.423,0,0,0,86.4,47.14H73.128a4.35,4.35,0,0,0-4.378,4.378V61.686a5,5,0,0,0,5.056,5.028H90.188a20.9,20.9,0,0,0,0-4.209H72.959a.734.734,0,0,1-.734-.734v-1.5a.734.734,0,0,1,.734-.678Zm-.537-7.033a1.836,1.836,0,0,1,1.836-1.836h11.3A2.4,2.4,0,0,1,87.928,53.1v.339a2.4,2.4,0,0,1-2.373,2.373H72.422Z" transform="translate(102.838 -39.74)"/><path class="a" d="M102.913,46.81H83.961a3.531,3.531,0,0,0-3.531,3.531V63.7a3.531,3.531,0,0,0,3.531,3.418h18.952a3.531,3.531,0,0,0,3.531-3.531V50.341A3.531,3.531,0,0,0,102.913,46.81ZM89.384,62.853H85.853V51.838h3.531ZM102.8,55.368H98.987v7.485H95.513V55.368H91.784V51.838H102.8Z" transform="translate(124.149 -40.342)"/><path class="a" d="M90.675,46.4a2.994,2.994,0,0,1,.763,0,1.243,1.243,0,0,1,.819.2.593.593,0,0,1,.254.537.621.621,0,0,1-.452.593h0a.593.593,0,0,1,.339.452c0,.311,0,.621.2.734H92l-.254-.621c0-.311-.169-.4-.424-.4h-.169v.989H90.59Zm.565,1.073h.226c.282,0,.452,0,.452-.367s0-.339-.4-.339H91.24Z" transform="translate(142.686 -41.142)"/><path class="a" d="M92.606,50.891a2.486,2.486,0,1,1,2.486-2.457A2.486,2.486,0,0,1,92.606,50.891Zm0-4.745a2.175,2.175,0,0,0-2.147,2.175,2.147,2.147,0,0,0,2.147,2.147,2.175,2.175,0,0,0,2.175-2.147A2.2,2.2,0,0,0,92.606,46.146Z" transform="translate(141.828 -41.966)"/></svg>