<svg width="159" height="53" viewBox="0 0 159 53" fill="none" xmlns="http://www.w3.org/2000/svg">
<g clip-path="url(#clip0_128_593)">
<path fill-rule="evenodd" clip-rule="evenodd" d="M20.6909 20.6789V39.7231L39.7541 20.6789H20.6909Z" fill="#474747"/>
<path fill-rule="evenodd" clip-rule="evenodd" d="M0.0120239 19.0632L19.9031 0L39.7741 19.0632H0.0120239Z" fill="#474747"/>
<path fill-rule="evenodd" clip-rule="evenodd" d="M0.0120239 19.0632L19.9031 0V12.1386L0.0120239 19.0632Z" fill="#828282"/>
<path fill-rule="evenodd" clip-rule="evenodd" d="M19.9031 12.1386V0L39.7741 19.0632L19.9031 12.1386Z" fill="#5B5B5B"/>
<path fill-rule="evenodd" clip-rule="evenodd" d="M20.6909 20.6789V39.7231L26.9237 26.8727L20.6909 20.6789Z" fill="#5B5B5B"/>
<path fill-rule="evenodd" clip-rule="evenodd" d="M20.6909 20.6789L26.9237 26.8777L39.7541 20.6789H20.6909Z" fill="#828282"/>
<path fill-rule="evenodd" clip-rule="evenodd" d="M35.581 22.4105L22.7695 22.3886L20.7109 20.6789L22.6925 22.6785H35.6L39.7552 20.6789L35.581 22.4105Z" fill="#A0A0A0"/>
<path fill-rule="evenodd" clip-rule="evenodd" d="M19.1132 20.6789V39.7231L0.0499878 20.6789H19.1132Z" fill="#474747"/>
<path fill-rule="evenodd" clip-rule="evenodd" d="M19.1142 20.6789V39.7231L12.8815 26.8727L19.1142 20.6789Z" fill="#5B5B5B"/>
<path fill-rule="evenodd" clip-rule="evenodd" d="M19.1132 20.6789L12.8804 26.8777L0.0499878 20.6789H19.1132Z" fill="#828282"/>
<path fill-rule="evenodd" clip-rule="evenodd" d="M19.9021 3.82825L6.53278 16.7957H33.2475L19.9021 3.82825Z" fill="#616262"/>
<path fill-rule="evenodd" clip-rule="evenodd" d="M22.6915 22.6805V35.5879L35.599 22.6805H22.6915Z" fill="#616262"/>
<path fill-rule="evenodd" clip-rule="evenodd" d="M17.0937 35.5879V22.6805H4.18622L17.0937 35.5879Z" fill="#616262"/>
<path fill-rule="evenodd" clip-rule="evenodd" d="M6.53373 16.7937L2.07062 18.3513L6.43775 16.5627L19.8841 3.84723L6.53373 16.7937Z" fill="#A0A0A0"/>
<path fill-rule="evenodd" clip-rule="evenodd" d="M4.22416 22.4105L17.0366 22.3885L19.0952 20.6769L17.0956 22.6765H4.20516L0.0499878 20.6769L4.22416 22.4105Z" fill="#A0A0A0"/>
<path fill-rule="evenodd" clip-rule="evenodd" d="M56.4528 13.4664H62.3777L63.1275 9.96713H47.1417L46.3918 13.4664H52.3357L48.8913 29.7982H53.0075L56.4528 13.4664Z" fill="#616262"/>
<path fill-rule="evenodd" clip-rule="evenodd" d="M78.4015 9.96503H63.9353L59.7612 29.7981H74.6892L75.4201 26.2778H64.5322L65.61 21.1428H75.1901L75.94 17.6435H66.3419L67.2267 13.4693H77.6516L78.4015 9.96503Z" fill="#616262"/>
<path fill-rule="evenodd" clip-rule="evenodd" d="M95.85 16.4667C96.2499 13.5423 94.7342 9.44513 88.8514 9.44513C83.7924 9.44513 79.0793 12.9844 77.6176 19.9101C76.1709 26.7577 79.1713 30.317 84.4083 30.317C89.3333 30.317 92.7566 27.2966 94.4883 22.9874H90.3891C90.0287 24.0672 89.3399 25.0073 88.4191 25.6764C87.4983 26.3456 86.3914 26.7103 85.2531 26.7197C81.7708 26.7197 81.06 23.5263 81.8098 19.948C82.9836 14.3312 86.1769 13.0224 88.1385 13.0224C91.5239 13.0224 91.6968 15.254 91.7548 16.4467H95.854L95.85 16.4667Z" fill="#616262"/>
<path fill-rule="evenodd" clip-rule="evenodd" d="M107.815 23.7773H107.757L102.871 9.96503H98.5425L94.3683 29.7981H98.1966L101.178 15.6589H101.236L106.276 29.7981H110.375L114.547 9.96503H110.719L107.815 23.7773Z" fill="#616262"/>
<path fill-rule="evenodd" clip-rule="evenodd" d="M120.665 9.96503H116.548L112.374 29.7981H116.49L120.665 9.96503Z" fill="#616262"/>
<path fill-rule="evenodd" clip-rule="evenodd" d="M118.972 23.6833C118.454 26.1458 118.799 30.32 125.971 30.32C127.703 30.32 133.819 29.7811 135.069 23.8213C135.819 20.263 133.589 19.1472 131.049 18.4923L126.513 17.2936C125.724 17.1016 124.55 16.7747 124.858 15.216C125.243 13.4273 127.225 12.8495 128.782 12.8495C132.361 12.8495 132.265 14.949 132.188 15.8309H136.131C136.612 13.4074 135.842 9.42514 129.821 9.42514C123.435 9.42514 121.453 13.3114 120.972 15.5239C120.048 19.8911 122.972 20.6019 125.993 21.3528L127.993 21.8527C129.955 22.3526 131.359 22.7525 131.032 24.3152C130.589 26.4148 128.32 26.8927 126.377 26.8927C122.799 26.8927 122.684 24.7931 122.895 23.6993L118.972 23.6833Z" fill="#616262"/>
<path fill-rule="evenodd" clip-rule="evenodd" d="M140.363 25.6999H147.616L148.016 29.7781H152.479L149.731 9.94504H144.999L133.823 29.7781H138.151L140.363 25.6999ZM146.346 14.4271H146.404L147.193 22.2756H142.194L146.349 14.4271H146.346Z" fill="#616262"/>
<path d="M40.8699 49.6682H39.7932V39.8001H41.6588L43.9483 48.0715H43.9673L46.2759 39.8001H48.1755V49.6682H47.0217V40.8969H47.0027L44.4672 49.6682H43.3674L40.8859 40.8959H40.8669V49.6682H40.8699Z" fill="#616262"/>
<path d="M53.3744 48.6694H53.3554C53.2587 49.0129 53.0472 49.3129 52.7561 49.5194C52.465 49.7259 52.112 49.8264 51.7558 49.8041C50.409 49.8041 50.0241 48.8613 50.0241 47.5346C50.0241 45.435 51.9097 45.342 53.3524 45.38C53.3714 44.4562 53.3904 43.4804 52.2947 43.4804C51.6018 43.4804 51.2369 43.9803 51.2949 44.7111H50.1811C50.1433 44.4222 50.1736 44.1285 50.2698 43.8535C50.3659 43.5784 50.5251 43.3297 50.7346 43.1272C50.9442 42.9248 51.1982 42.7742 51.4764 42.6876C51.7546 42.601 52.0492 42.5808 52.3366 42.6286C52.6186 42.5855 52.9067 42.6096 53.1774 42.6991C53.4482 42.7886 53.694 42.9408 53.8947 43.1434C54.0954 43.346 54.2454 43.5932 54.3324 43.8647C54.4194 44.1363 54.4409 44.4246 54.3952 44.7061V48.0345C54.402 48.5819 54.4471 49.1281 54.5302 49.6692H53.3934L53.3744 48.6694ZM51.0469 47.6106C51.0469 48.2834 51.3548 48.8803 52.0467 48.8803C52.6816 48.8803 53.4464 48.4574 53.3544 46.2258C52.3736 46.2448 51.0469 46.1489 51.0469 47.6106Z" fill="#616262"/>
<path d="M56.2979 39.8001H57.4476V40.9929H56.2979V39.8001ZM57.3976 49.6682H56.3558V42.7625H57.3946L57.3976 49.6682Z" fill="#616262"/>
<path d="M61.0299 49.8031C60.727 49.8456 60.4182 49.8161 60.1287 49.7171C59.8393 49.6181 59.5772 49.4523 59.3637 49.2332C59.1502 49.014 58.9913 48.7477 58.8998 48.4557C58.8084 48.1637 58.787 47.8543 58.8374 47.5526H60.0111C60.0111 47.9525 60.0301 48.8803 61.0689 48.8803C61.2136 48.8947 61.3597 48.8774 61.497 48.8296C61.6343 48.7818 61.7596 48.7046 61.864 48.6034C61.9684 48.5023 62.0495 48.3795 62.1016 48.2438C62.1537 48.108 62.1756 47.9626 62.1657 47.8175C62.1657 46.5868 59.0113 46.5668 59.0113 44.4892C59.0113 43.7583 59.4113 42.6035 61.2039 42.6035C62.3387 42.6035 63.3035 43.2034 63.2035 44.5462H62.0657C62.0847 43.8153 61.7198 43.4464 61.0659 43.4464C60.9389 43.4339 60.8106 43.4487 60.6898 43.4899C60.569 43.5311 60.4584 43.5977 60.3655 43.6852C60.2725 43.7728 60.1994 43.8792 60.1511 43.9973C60.1027 44.1155 60.0802 44.2426 60.0851 44.3702C60.0851 45.582 63.2395 45.563 63.2395 47.6595C63.2707 47.9545 63.2345 48.2527 63.1335 48.5315C63.0325 48.8104 62.8694 49.0626 62.6565 49.2691C62.4436 49.4757 62.1865 49.6311 61.9047 49.7236C61.623 49.8161 61.3238 49.8433 61.0299 49.8031Z" fill="#616262"/>
<path d="M70.841 44.9751C70.86 43.8403 70.3601 43.5324 69.9561 43.5324C69.1673 43.5324 68.6284 43.9323 68.6284 45.8219C68.6284 48.0724 68.8973 48.8613 69.9561 48.8613C70.1871 48.8613 70.9179 48.5923 70.88 47.3416H71.9567C72.0058 47.6354 71.9912 47.9362 71.914 48.2239C71.8367 48.5115 71.6987 48.7793 71.5092 49.009C71.3196 49.2387 71.083 49.4251 70.8152 49.5555C70.5475 49.686 70.2549 49.7574 69.9571 49.7651C68.6104 49.7651 67.5526 49.3222 67.5526 46.2828C67.5526 44.2632 67.7646 42.5895 69.9571 42.5895C71.2269 42.5895 71.9567 43.3974 71.8997 44.9361L70.842 44.9741L70.841 44.9751Z" fill="#616262"/>
<path d="M73.6115 46.3218C73.6115 44.3022 73.8234 42.6285 76.016 42.6285C78.2085 42.6285 78.4205 44.3022 78.4205 46.3218C78.4205 49.3612 77.3627 49.8041 76.016 49.8041C74.6882 49.8041 73.6115 49.3612 73.6115 46.3218ZM77.3627 45.8409C77.3627 43.9553 76.8238 43.5514 76.035 43.5514C75.2461 43.5514 74.7072 43.9513 74.7072 45.8409C74.7072 48.0915 74.9762 48.8803 76.035 48.8803C77.0938 48.8803 77.3607 48.0725 77.3607 45.8409H77.3627Z" fill="#616262"/>
<path d="M83.4995 49.6682V44.8781C83.4995 44.1473 83.2685 43.5314 82.3837 43.5314C81.2489 43.5314 81.095 44.6312 81.095 45.57V49.6482H80.0562V44.1862C80.0562 43.705 80.0368 43.2241 79.9982 42.7435H81.0979V43.6284H81.1559C81.2919 43.2997 81.5297 43.0233 81.8343 42.8397C82.139 42.6561 82.4945 42.5751 82.8486 42.6086C84.2143 42.6086 84.5413 43.4934 84.5413 44.8591V49.6492L83.5025 49.6682H83.4995Z" fill="#616262"/>
<path d="M88.2115 49.8031C87.9084 49.8458 87.5996 49.8164 87.31 49.7175C87.0204 49.6186 86.7581 49.4528 86.5445 49.2336C86.3309 49.0145 86.1719 48.7481 86.0804 48.456C85.9889 48.1639 85.9675 47.8544 86.0179 47.5526H87.1917C87.1917 47.9525 87.2107 48.8803 88.2495 48.8803C88.394 48.8951 88.5399 48.8783 88.6772 48.831C88.8145 48.7836 88.9399 48.707 89.0446 48.6063C89.1492 48.5056 89.2307 48.3834 89.2833 48.248C89.336 48.1127 89.3585 47.9675 89.3493 47.8225C89.3493 46.5918 86.1949 46.5718 86.1949 44.4942C86.1949 43.7633 86.5948 42.6086 88.3875 42.6086C89.5223 42.6086 90.4871 43.2084 90.3871 44.5512H89.2503C89.2693 43.8203 88.9044 43.4514 88.2505 43.4514C88.1235 43.4389 87.9952 43.4537 87.8744 43.4949C87.7535 43.5361 87.6429 43.6027 87.55 43.6903C87.4571 43.7778 87.384 43.8842 87.3356 44.0024C87.2873 44.1205 87.2648 44.2476 87.2697 44.3752C87.2697 45.587 90.4241 45.568 90.4241 47.6645C90.453 47.959 90.415 48.2563 90.3129 48.534C90.2109 48.8117 90.0473 49.0628 89.8345 49.2685C89.6218 49.4741 89.3653 49.629 89.0842 49.7216C88.8032 49.8142 88.5048 49.8421 88.2115 49.8031Z" fill="#616262"/>
<path d="M92.0208 42.7625V41.4348L93.0596 40.9349V42.7625H94.4443V43.6093H93.0596V47.8225C93.0596 48.2654 93.0596 48.8223 94.0024 48.8223C94.1575 48.8131 94.3118 48.7938 94.4643 48.7643V49.6302C94.1184 49.6491 93.7914 49.7451 93.4445 49.7451C92.4637 49.7451 92.0208 49.3022 92.0208 48.5144V43.6083H90.982V42.7615L92.0208 42.7625Z" fill="#616262"/>
<path d="M96.4639 43.8023H96.4829C96.9058 42.7445 97.4447 42.6285 98.4455 42.6285V43.7823C98.3455 43.7633 98.2535 43.7633 98.1766 43.7443C98.0875 43.7287 97.9969 43.7233 97.9066 43.7283C96.7718 43.7283 96.4639 44.6711 96.4639 45.594V49.6721H95.4251V42.7635H96.4639V43.8023Z" fill="#616262"/>
<path d="M102.967 42.7625H104.005V48.2254C104.005 48.7067 104.025 49.1876 104.063 49.6681H102.964V48.8413H102.926C102.775 49.1361 102.546 49.3837 102.264 49.5567C101.981 49.7297 101.657 49.8216 101.326 49.8221C101.09 49.8474 100.851 49.8185 100.628 49.7376C100.405 49.6567 100.203 49.526 100.038 49.3553C99.8728 49.1847 99.7489 48.9786 99.6755 48.7529C99.6021 48.5271 99.5811 48.2875 99.6143 48.0525V42.8005H100.634V47.5916C100.634 48.4184 100.98 48.9913 101.711 48.9913C102.269 48.9913 102.962 48.5484 102.962 47.3916V42.7625H102.967Z" fill="#616262"/>
<path d="M105.967 42.7625V41.4348L107.006 40.9349V42.7625H108.389V43.6093H106.989V47.8225C106.989 48.2654 106.989 48.8223 107.932 48.8223C108.087 48.8131 108.241 48.7938 108.394 48.7643V49.6302C108.048 49.6491 107.721 49.7451 107.374 49.7451C106.393 49.7451 105.95 49.3022 105.95 48.5144V43.6083H104.909V42.7615L105.967 42.7625Z" fill="#616262"/>
<path d="M109.16 46.3218C109.16 44.3022 109.372 42.6285 111.565 42.6285C113.757 42.6285 113.969 44.3022 113.969 46.3218C113.969 49.3612 112.912 49.8041 111.565 49.8041C110.218 49.8041 109.16 49.3612 109.16 46.3218ZM112.893 45.8409C112.893 43.9553 112.354 43.5514 111.565 43.5514C110.776 43.5514 110.237 43.9513 110.237 45.8409C110.237 48.0915 110.506 48.8803 111.565 48.8803C112.643 48.8803 112.893 48.0725 112.893 45.8409Z" fill="#616262"/>
<path d="M116.682 43.8023H116.701C117.124 42.7445 117.663 42.6285 118.663 42.6285V43.7823C118.563 43.7633 118.472 43.7633 118.395 43.7443C118.305 43.7294 118.215 43.724 118.125 43.7283C116.99 43.7283 116.682 44.6711 116.682 45.594V49.6721H115.643V42.7635H116.682V43.8023Z" fill="#616262"/>
<path d="M123.05 48.6693H123.031C122.934 49.0129 122.722 49.3129 122.431 49.5194C122.14 49.7259 121.787 49.8264 121.431 49.8041C120.084 49.8041 119.699 48.8613 119.699 47.5346C119.699 45.435 121.585 45.342 123.028 45.38C123.047 44.4562 123.066 43.4804 121.97 43.4804C121.277 43.4804 120.912 43.9803 120.97 44.7111H119.856C119.818 44.4223 119.849 44.1287 119.945 43.8537C120.041 43.5788 120.2 43.3301 120.41 43.1277C120.619 42.9253 120.873 42.7747 121.151 42.688C121.429 42.6013 121.723 42.581 122.011 42.6285C122.293 42.5854 122.581 42.6096 122.852 42.6991C123.122 42.7886 123.368 42.9408 123.569 43.1434C123.77 43.346 123.92 43.5931 124.007 43.8647C124.094 44.1363 124.115 44.4246 124.069 44.7061V48.0345C124.076 48.5818 124.121 49.1281 124.204 49.6691H123.069L123.05 48.6693ZM120.722 47.6105C120.722 48.2834 121.03 48.8803 121.722 48.8803C122.357 48.8803 123.122 48.4574 123.03 46.2258C122.049 46.2448 120.722 46.1488 120.722 47.6105Z" fill="#616262"/>
<path d="M129.955 43.5904H129.974C130.095 43.3031 130.298 43.0582 130.559 42.8869C130.819 42.7156 131.124 42.6257 131.436 42.6285C132.456 42.6285 133.475 43.0715 133.475 46.0909C133.475 47.8225 133.417 49.7841 131.375 49.7841C131.091 49.7835 130.813 49.7064 130.569 49.5609C130.325 49.4154 130.125 49.2069 129.99 48.9573H129.952V52.2656H128.916V42.7675H129.955V43.5944V43.5904ZM132.399 46.0899C132.399 45.0511 132.399 43.5314 131.11 43.5314C129.84 43.5314 129.956 45.431 129.956 46.4938C129.956 47.4176 130.014 48.8603 131.149 48.8603C132.264 48.8803 132.399 47.9375 132.399 46.0909V46.0899Z" fill="#616262"/>
<path d="M134.937 46.3218C134.937 44.3022 135.149 42.6285 137.342 42.6285C139.534 42.6285 139.746 44.3022 139.746 46.3218C139.746 49.3612 138.689 49.8041 137.342 49.8041C136.014 49.8041 134.937 49.3612 134.937 46.3218ZM138.67 45.8409C138.67 43.9553 138.131 43.5514 137.342 43.5514C136.553 43.5514 136.014 43.9513 136.014 45.8409C136.014 48.0915 136.283 48.8803 137.342 48.8803C138.42 48.8803 138.67 48.0725 138.67 45.8409Z" fill="#616262"/>
<path d="M142.459 43.8023H142.478C142.901 42.7445 143.44 42.6285 144.44 42.6285V43.7823C144.34 43.7633 144.248 43.7633 144.171 43.7443C144.082 43.7294 143.992 43.724 143.901 43.7283C142.767 43.7283 142.478 44.6711 142.478 45.594V49.6721H141.42V42.7635H142.459V43.8023Z" fill="#616262"/>
<path d="M151.462 49.6681V44.8781C151.462 44.1852 151.289 43.5314 150.462 43.5314C150.29 43.5396 150.122 43.5852 149.969 43.665C149.816 43.7447 149.683 43.8567 149.577 43.9933C149.418 44.3091 149.338 44.6593 149.346 45.0131V49.6492H148.308V44.1862C148.308 43.705 148.288 43.2241 148.25 42.7435H149.349V43.6094H149.368C149.485 43.2924 149.703 43.0228 149.988 42.842C150.273 42.6613 150.61 42.5796 150.946 42.6095C151.254 42.5878 151.561 42.661 151.826 42.8192C152.091 42.9774 152.301 43.2131 152.428 43.4944C152.553 43.208 152.765 42.9685 153.035 42.8096C153.304 42.6508 153.616 42.5808 153.928 42.6095C154.581 42.6095 155.659 42.7825 155.659 44.3982V49.6502H154.617V44.8591C154.617 44.1662 154.444 43.5124 153.618 43.5124C153.479 43.491 153.337 43.5025 153.203 43.5459C153.069 43.5893 152.948 43.6634 152.848 43.7623C152.594 44.1139 152.471 44.5426 152.499 44.9751V49.6112L151.46 49.6692L151.462 49.6681Z" fill="#616262"/>
<path d="M156.751 44.3031V43.7841C157.944 41.9561 158.29 41.6291 158.29 40.8591C158.29 40.5131 158.136 40.2591 157.79 40.2591C157.39 40.2591 157.309 40.6251 157.309 40.9901H156.751C156.713 40.2591 157.04 39.7781 157.751 39.7781C158.482 39.7781 158.828 40.1441 158.828 40.9521C158.828 41.9521 158.366 42.2801 157.308 43.8001H158.924V44.3001H156.751V44.3031Z" fill="#616262"/>
</g>
<defs>
<clipPath id="clip0_128_593">
<rect width="158.913" height="52.2656" fill="white" transform="translate(0.0120239)"/>
</clipPath>
</defs>
</svg>
