<svg xmlns="http://www.w3.org/2000/svg" width="129.893" height="67.631" viewBox="0 0 129.893 67.631"><defs><style>.a{fill:#616161;}</style></defs><path class="a" d="M85.064,58.076H84.88v-1.8h.783a.783.783,0,0,1,.46.123.583.583,0,0,1,.153.46.645.645,0,0,1-.092.384.522.522,0,0,1-.307.184l.46.645h-.246l-.476-.691h-.553Zm0-1.627v.829h.629A.43.43,0,0,0,86,57.186a.721.721,0,0,0,0-.645.43.43,0,0,0-.307-.092Z" transform="translate(36.647 -9.802)"/><path class="a" d="M85.919,59.2a1.719,1.719,0,1,1,1.719-1.7,1.719,1.719,0,0,1-1.719,1.7Zm0-3.285a.639.639,0,1,0,0-.031Z" transform="translate(36.284 -10.079)"/><path class="a" d="M56.1,55.763s-6.048,4.6-5.311,8.289,5.572-5.818,15.626-7.23,11.359,2.349,22.625-4.6,10.146-7.337,15.565-7.168c0,0-6.8-2.609-15.718,2.594,0,0-4.1.752-1.535-6.217,0,0,.261-2.164,7.92-1.965a12.019,12.019,0,0,0,6.263-2.594c3.239-2.5,14.782-5.6,17.637-4.973.169.138,1.673.184,2.18.767,0,0,.215-.706-.691-1.688a4.912,4.912,0,0,1,4.022,1.612s.553-.829-.645-2.441c0,0,1.274-.844,4.912,2.471a2.164,2.164,0,0,0-.814-2.441s4.037,0,5.234.767a1.535,1.535,0,0,0-1.228-1.335,4.421,4.421,0,0,1,3.454-1.2,1.427,1.427,0,0,0-1.642-.767A1.274,1.274,0,0,0,133.1,26s1.535,2.609-4.283,2.471S118.808,27.7,117,27.6s-7.92-2.533-24.329,8.089a1.535,1.535,0,0,0-.368.338,9.409,9.409,0,0,1-5.8,2.84,22.411,22.411,0,0,0-11.159,4.19c-3.285,2.548-12.955,0-31.666,5.418a33.4,33.4,0,0,1-23.347-6.339c-.292.292-1.735,1.535.292,2.256l10.3,3.776H27.155S15.52,44.42,11.959,43.7s-1.919,2.456,1.535,2.824a97.043,97.043,0,0,1,13.17,3.561c-.215,0-4.405-.583-4.405-.583S8.689,46.354,6.371,47.735s17.545,4.037,17.545,4.037-15.472-1-16.685-.952-2.5,2.18,0,2.395,13.968,0,13.968,0S4.407,53.322,5.788,56.7c0,0,23.439,3.408,31.237-.8C37.025,55.917,54.355,53.8,56.1,55.763Z" transform="translate(-5.707 -26)"/><path class="a" d="M65.218,35.727s-1.274,1.535-.184,1.658,1.827-.783,2.64-.829S68.411,35.558,65.218,35.727Z" transform="translate(25.794 -20.807)"/><path class="a" d="M19.214,69.268a8.35,8.35,0,0,1-5.5-1.535,6.447,6.447,0,0,1-1.857-5.219,11.144,11.144,0,0,1,.445-3.392,4.144,4.144,0,0,1,1.32-2.088,5.372,5.372,0,0,1,2.088-1,12.71,12.71,0,0,1,2.87-.276,7.859,7.859,0,0,1,4.881,1.2A4.866,4.866,0,0,1,25,60.994V63.4a.307.307,0,0,1-.307.307H15.975a.292.292,0,0,0-.292.353A2.855,2.855,0,0,0,16.7,65.845a4.6,4.6,0,0,0,2.763.645,26.1,26.1,0,0,0,4.6-.568.307.307,0,0,1,.368.292v2.026a.307.307,0,0,1-.215.292,17.407,17.407,0,0,1-5,.737Zm-.6-10.745a3.331,3.331,0,0,0-2.272.6,2.87,2.87,0,0,0-.737,1.8.307.307,0,0,0,.292.338h5.4v-.322a2.41,2.41,0,0,0-.6-1.719,3.07,3.07,0,0,0-2.088-.629Z" transform="translate(-2.433 -10.095)"/><path class="a" d="M20.8,68.927l4.221-6.585L21.107,55.91h4.175l2.84,4.927h.23l2.824-4.927h4.175L31.33,62.342l4.206,6.585H31.33L28.26,64h-.246l-3.07,4.927Z" transform="translate(2.367 -9.999)"/><path class="a" d="M34.857,74.31h-3.07a.307.307,0,0,1-.307-.292V56.29A.292.292,0,0,1,31.787,56H34.2a.276.276,0,0,1,.276.2l.307.936a6.6,6.6,0,0,1,4.359-1.381,8.749,8.749,0,0,1,2.456.292,4.713,4.713,0,0,1,1.857,1.013,4.329,4.329,0,0,1,1.274,2.149,11.558,11.558,0,0,1,.414,3.346,10.115,10.115,0,0,1-.476,3.331A4.6,4.6,0,0,1,43.361,68a5.234,5.234,0,0,1-1.873,1.028,8.182,8.182,0,0,1-2.333.307,6.339,6.339,0,0,1-3.53-.936.292.292,0,0,0-.46.246V74.1A.307.307,0,0,1,34.857,74.31Zm3.423-15.7a2.855,2.855,0,0,0-2.425.936,4.85,4.85,0,0,0-.721,2.932,5.157,5.157,0,0,0,.691,3.07,2.855,2.855,0,0,0,2.456.921,3.346,3.346,0,0,0,2.471-.767,4.973,4.973,0,0,0,.737-3.223A9.118,9.118,0,0,0,41.3,60.45a2.1,2.1,0,0,0-1.535-1.719,6.876,6.876,0,0,0-1.489-.123Z" transform="translate(8.08 -10.087)"/><path class="a" d="M41.66,68.7V56.272a.292.292,0,0,1,.307-.292h2.425a.276.276,0,0,1,.276.184l.307.814a8.3,8.3,0,0,1,3.623-1.2.307.307,0,0,1,.338.307v2.272a.307.307,0,0,1-.246.292,10.1,10.1,0,0,0-3.177,1.167.292.292,0,0,0-.154.261V68.7a.292.292,0,0,1-.307.292h-3.07a.292.292,0,0,1-.322-.292Z" transform="translate(13.526 -10.069)"/><path class="a" d="M54.734,69.257a8.35,8.35,0,0,1-5.5-1.535A6.493,6.493,0,0,1,47.381,62.5a11.144,11.144,0,0,1,.445-3.392,4.144,4.144,0,0,1,1.351-2.057,5.372,5.372,0,0,1,2.088-1,12.756,12.756,0,0,1,2.886-.276,7.844,7.844,0,0,1,4.866,1.2,4.866,4.866,0,0,1,1.535,4.037v2.41a.307.307,0,0,1-.292.307H51.51a.292.292,0,0,0-.292.353,2.855,2.855,0,0,0,.982,1.781,4.6,4.6,0,0,0,2.763.645,26.372,26.372,0,0,0,4.7-.568.307.307,0,0,1,.353.292v2.026a.307.307,0,0,1-.215.292,17.406,17.406,0,0,1-5.065.706ZM54.15,58.512a3.377,3.377,0,0,0-2.287.6,2.87,2.87,0,0,0-.737,1.8.307.307,0,0,0,.307.338h5.418v-.322a2.41,2.41,0,0,0-.629-1.719,3.07,3.07,0,0,0-2.072-.629Z" transform="translate(16.57 -10.084)"/><path class="a" d="M56.855,59.894c0-2.763,1.949-4.144,5.879-4.144a20.691,20.691,0,0,1,5.5.767.292.292,0,0,1,.23.292v2.272a.292.292,0,0,1-.368.292,20.461,20.461,0,0,0-5.633-.8,3.285,3.285,0,0,0-1.535.261,1,1,0,0,0-.476.982,1.044,1.044,0,0,0,.353.86,3.07,3.07,0,0,0,1.535.261h2.134a11.636,11.636,0,0,1,1.827.307,4.359,4.359,0,0,1,1.535.645,2.963,2.963,0,0,1,.952,1.151,3.822,3.822,0,0,1,.368,1.75,5.111,5.111,0,0,1-.445,2.241,2.824,2.824,0,0,1-1.32,1.351,6.14,6.14,0,0,1-1.888.629,16.149,16.149,0,0,1-2.471.169,17.069,17.069,0,0,1-5.679-.767.292.292,0,0,1-.2-.276V65.85a.292.292,0,0,1,.384-.276,19.125,19.125,0,0,0,5.833.86,3.377,3.377,0,0,0,1.75-.322,1.243,1.243,0,0,0,.476-1.09.936.936,0,0,0-.629-.967,6.539,6.539,0,0,0-2.057-.246,9.64,9.64,0,0,1-4.6-.844,3.331,3.331,0,0,1-1.443-3.07Z" transform="translate(21.647 -10.085)"/><path class="a" d="M65.6,59.894q0-4.144,5.879-4.144a20.8,20.8,0,0,1,5.511.767.307.307,0,0,1,.215.292v2.272a.292.292,0,0,1-.368.292,20.384,20.384,0,0,0-5.633-.8,3.285,3.285,0,0,0-1.535.261,1.028,1.028,0,0,0-.476.982,1.044,1.044,0,0,0,.353.86,3.147,3.147,0,0,0,1.535.261h2.134a11.636,11.636,0,0,1,1.827.307,4.359,4.359,0,0,1,1.535.645,2.963,2.963,0,0,1,.952,1.151,3.822,3.822,0,0,1,.368,1.75,5.126,5.126,0,0,1-.43,2.241,2.963,2.963,0,0,1-1.32,1.351,6.14,6.14,0,0,1-1.9.629,16.149,16.149,0,0,1-2.471.169,17.131,17.131,0,0,1-5.679-.767.292.292,0,0,1-.2-.276V65.85a.292.292,0,0,1,.384-.276,19.126,19.126,0,0,0,5.833.86,3.377,3.377,0,0,0,1.8-.322,1.243,1.243,0,0,0,.476-1.09.936.936,0,0,0-.629-.967,6.539,6.539,0,0,0-2.1-.246,9.64,9.64,0,0,1-4.6-.844,3.331,3.331,0,0,1-1.443-3.07Z" transform="translate(26.323 -10.085)"/><path class="a" d="M75.01,64.9a3.623,3.623,0,0,1,1.2-3.177,6.846,6.846,0,0,1,3.822-.829,17.161,17.161,0,0,1,3.546.368v-.445a1.949,1.949,0,0,0-.89-1.765,4.513,4.513,0,0,0-2.471-.522,16.286,16.286,0,0,0-3.853.537.292.292,0,0,1-.368-.292v-1.98a.322.322,0,0,1,.215-.292A16.67,16.67,0,0,1,81,55.75a12.694,12.694,0,0,1,3.223.384,3.838,3.838,0,0,1,1.888,1.028A3.638,3.638,0,0,1,87,58.7a7.414,7.414,0,0,1,.2,2.042v7.982a.276.276,0,0,1-.292.292H84.22l-.322-.844a8.12,8.12,0,0,1-4.022,1.09,5.6,5.6,0,0,1-3.73-.982A4.375,4.375,0,0,1,75.01,64.9Zm6.032-1.535a3.9,3.9,0,0,0-1.765.322,1.274,1.274,0,0,0-.614,1.213,4.007,4.007,0,0,0,.107,1,.967.967,0,0,0,.553.583,3.07,3.07,0,0,0,1.4.246,5.71,5.71,0,0,0,2.7-.6.292.292,0,0,0,.153-.261v-2a.307.307,0,0,0-.246-.292,11.865,11.865,0,0,0-2.318-.169Z" transform="translate(31.352 -10.085)"/><path class="a" d="M41.957,70.171a5.572,5.572,0,0,1,0-1.842,1.965,1.965,0,0,1,.23-.66,1.7,1.7,0,0,1,.338-.445,1.274,1.274,0,0,1,.491-.276,2.594,2.594,0,0,1,.6-.123,4.606,4.606,0,0,1,.706,0,4.483,4.483,0,0,1,1.428.23v.476a4.605,4.605,0,0,0-1.428-.23,4.741,4.741,0,0,0-.721,0,1.535,1.535,0,0,0-.537.169.906.906,0,0,0-.368.353,1.627,1.627,0,0,0-.2.568,4.451,4.451,0,0,0-.077.86,3.884,3.884,0,0,0,.107,1.044,1.044,1.044,0,0,0,.338.6,1.167,1.167,0,0,0,.583.292,3.408,3.408,0,0,0,.875,0,3.668,3.668,0,0,0,.982-.123V69.373H43.768v-.46h1.965v2.471a3.485,3.485,0,0,1-.6.322,5.172,5.172,0,0,1-.8,0,4.606,4.606,0,0,1-.737,0,2.594,2.594,0,0,1-.6-.123,1.274,1.274,0,0,1-.491-.276,1.8,1.8,0,0,1-.338-.46,1.857,1.857,0,0,1-.215-.675Z" transform="translate(13.644 -4.167)"/><path class="a" d="M52.087,71.687H51.58V66.852h2.18a1.857,1.857,0,0,1,1.228.338A1.535,1.535,0,0,1,55.4,68.4a1.734,1.734,0,0,1-.276,1.059,1.259,1.259,0,0,1-.783.46l1.121,1.765h-.614l-1.182-1.7H52.133Zm0-4.375v2.226H53.76a1.074,1.074,0,0,0,.814-.261,1.827,1.827,0,0,0,0-1.719,1.074,1.074,0,0,0-.814-.246Z" transform="translate(18.833 -4.149)"/><path class="a" d="M64.027,71.708a4.451,4.451,0,0,1-1.535,0,2.087,2.087,0,0,1-.645-.2,1.428,1.428,0,0,1-.522-.43,1.75,1.75,0,0,1-.338-.721,4.252,4.252,0,0,1,0-2.149,1.75,1.75,0,0,1,.338-.721,1.535,1.535,0,0,1,.522-.414,2.087,2.087,0,0,1,.645-.2,4.451,4.451,0,0,1,1.535,0,2.087,2.087,0,0,1,.645.2,1.535,1.535,0,0,1,.522.414,2.257,2.257,0,0,1,.338.721,4.252,4.252,0,0,1,0,2.149,2.257,2.257,0,0,1-.338.721,1.427,1.427,0,0,1-.522.43,2.087,2.087,0,0,1-.645.2Zm-2.579-2.425a3.853,3.853,0,0,0,.123,1.028,1.351,1.351,0,0,0,.4.629,1.535,1.535,0,0,0,.583.276,3.577,3.577,0,0,0,1.535,0,1.4,1.4,0,0,0,.568-.276,1.243,1.243,0,0,0,.4-.629,3.269,3.269,0,0,0,.138-1.028,3.591,3.591,0,0,0-.092-.86,2.088,2.088,0,0,0-.246-.583,1.2,1.2,0,0,0-.4-.338,1.32,1.32,0,0,0-.507-.169,3.914,3.914,0,0,0-1.2,0,1.32,1.32,0,0,0-.507.169,1.075,1.075,0,0,0-.4.338,1.719,1.719,0,0,0-.246.583,3.591,3.591,0,0,0-.153.844Z" transform="translate(23.792 -4.17)"/><path class="a" d="M70.93,70.15v-3.3h.522v3.3q0,1.151,1.535,1.151a2,2,0,0,0,1.121-.292.921.921,0,0,0,.445-.86v-3.3h.522v3.3c0,1.09-.691,1.627-2.088,1.627S70.93,71.194,70.93,70.15Z" transform="translate(29.185 -4.147)"/><path class="a" d="M80.79,66.852h2.1a1.857,1.857,0,0,1,1.228.338,1.98,1.98,0,0,1,0,2.425,1.857,1.857,0,0,1-1.228.353H81.358v1.719h-.507Zm.507,2.671h1.658a1.028,1.028,0,0,0,.814-.261,1.719,1.719,0,0,0,0-1.719,1.028,1.028,0,0,0-.814-.246H81.3Z" transform="translate(34.459 -4.149)"/></svg>