<svg id="Layer_3" data-name="Layer 3" xmlns="http://www.w3.org/2000/svg" viewBox="0 0 283.46 283.46"><defs><style>.cls-1{fill:#323436;}</style></defs><path class="cls-1" d="M221.06,189.55V159.2a3.84,3.84,0,0,0-3.83-3.83c-.19,0-19.73.13-22,.13-2.12,0-2.8,1.16-2.8,4.75a2.58,2.58,0,0,0,2.89,2.77H213.4v22.7H195.31a3.81,3.81,0,0,0-3.71,2.89A57.41,57.41,0,0,1,185.24,204a3.81,3.81,0,0,0,.57,4.67l12.79,12.79-16,16-12.78-12.79a3.83,3.83,0,0,0-4.67-.58,56.93,56.93,0,0,1-15.38,6.36,3.83,3.83,0,0,0-2.9,3.71v18.1h-22.7V234.22a3.82,3.82,0,0,0-2.89-3.71,57.43,57.43,0,0,1-15.4-6.36,3.8,3.8,0,0,0-4.66.58L88.38,237.51l-16-16,12.78-12.78A3.83,3.83,0,0,0,85.7,204a57.61,57.61,0,0,1-6.36-15.39,3.83,3.83,0,0,0-3.71-2.89H57.54V163H75.63a3.83,3.83,0,0,0,3.71-2.89,56.86,56.86,0,0,1,6.36-15.39,3.81,3.81,0,0,0-.58-4.66L72.34,127.29l16-16.05L101.17,124a3.84,3.84,0,0,0,4.67.58,57.52,57.52,0,0,1,15.38-6.37,3.82,3.82,0,0,0,2.9-3.71V96.44h22.69v18.09c0,1.68.68,3.68,3.94,3.68a3.41,3.41,0,0,0,3.71-3.33V92.61a3.84,3.84,0,0,0-3.83-3.83H120.29a3.83,3.83,0,0,0-3.83,3.83v19l-.7.22a65.4,65.4,0,0,0-10.59,4.38l-.65.34L91.09,103.12a3.92,3.92,0,0,0-5.41,0L64.21,124.58a3.84,3.84,0,0,0,0,5.42l13.43,13.43-.34.65a65.66,65.66,0,0,0-4.38,10.58l-.22.71h-19a3.83,3.83,0,0,0-3.82,3.83v30.35a3.83,3.83,0,0,0,3.82,3.83h19l.22.7a64.83,64.83,0,0,0,4.37,10.59l.34.65L64.21,218.75a3.84,3.84,0,0,0,0,5.42l21.47,21.46a3.93,3.93,0,0,0,5.41,0l13.43-13.43.65.34a65.77,65.77,0,0,0,10.59,4.38l.7.22v19a3.83,3.83,0,0,0,3.83,3.82h30.35a3.83,3.83,0,0,0,3.83-3.82v-19l.71-.22a65.14,65.14,0,0,0,10.58-4.38l.65-.34,13.43,13.43a3.84,3.84,0,0,0,5.42,0l21.46-21.46a3.84,3.84,0,0,0,0-5.42l-13.43-13.43.34-.65A65.4,65.4,0,0,0,198,194.08l.22-.7h19A3.84,3.84,0,0,0,221.06,189.55Z"/><path class="cls-1" d="M106.06,148.55a3.5,3.5,0,0,0-2-.68,3.17,3.17,0,0,0-.53,0,3.43,3.43,0,0,0-2.27,1.37,42.31,42.31,0,1,0,18.63-14.41,3.49,3.49,0,0,0-2,4.51,3.47,3.47,0,0,0,4.51,2,35.52,35.52,0,1,1-15.6,12.06A3.48,3.48,0,0,0,106.06,148.55Z"/><path class="cls-1" d="M214.6,82.63a32.18,32.18,0,0,1,0-64.35,31.87,31.87,0,0,1,19,6.21,3.31,3.31,0,1,1-3.91,5.34,25.46,25.46,0,1,0,8.68,11.22,3.31,3.31,0,0,1,6.15-2.44,32.2,32.2,0,0,1-29.93,44Z"/><path class="cls-1" d="M259.1,133.17,247,96.74a14,14,0,0,0-12.65-9.12H193.63A14.06,14.06,0,0,0,181,96.74l-12.14,36.43a3.33,3.33,0,1,0,6.31,2.11l12.15-36.43a7.45,7.45,0,0,1,6.34-4.57h10.08l-7.62,24.53a3.32,3.32,0,0,0,.82,3.34l14.43,14.43a3.34,3.34,0,0,0,4.71,0l14.43-14.43a3.32,3.32,0,0,0,.82-3.34l-7.61-24.53H234.3a7.47,7.47,0,0,1,6.34,4.57l12.14,36.43a3.33,3.33,0,0,0,3.16,2.27,3.21,3.21,0,0,0,1.05-.17A3.32,3.32,0,0,0,259.1,133.17Zm-34.75-14.3s-8.21,8.2-9.23,9.23-1.61,1-2.91-.07-9.17-9.16-9.17-9.16l7.64-24.59h6Z"/></svg>