<svg xmlns="http://www.w3.org/2000/svg" width="55.967" height="66.21" viewBox="0 0 55.967 66.21"><defs><style>.a{fill:#3a3d3e;}.b{fill:#393b3e;}</style></defs><g transform="translate(-22.94 -15.76)"><path class="a" d="M77.96,40.73c-.09-.02-8.68-1.69-12.76-5.54a1.166,1.166,0,0,0-.85-.31,1.152,1.152,0,0,0-.81.4,19.174,19.174,0,0,1-12.55,5.44,1.163,1.163,0,0,0-1.08,1.14,35.661,35.661,0,0,0,1.66,10.06c2.26,7.19,6.54,12.48,12.39,15.28a1.216,1.216,0,0,0,.5.11,1.15,1.15,0,0,0,.41-.08A23.161,23.161,0,0,0,76.9,54.13a1.152,1.152,0,0,0-2.15-.83A21.745,21.745,0,0,1,64.48,64.89c-5.07-2.59-8.67-7.17-10.7-13.61a35.582,35.582,0,0,1-1.53-8.35,21.727,21.727,0,0,0,12.22-5.31c3.86,3.07,9.92,4.68,12.14,5.19,0,.72-.03,1.42-.07,2.1a1.148,1.148,0,0,0,1.9.94,1.136,1.136,0,0,0,.39-.79c.07-1.04.09-2.12.07-3.21A1.176,1.176,0,0,0,77.96,40.73Z"/><path class="b" d="M29.84,59.55,23.02,80a1.457,1.457,0,0,0,.08,1.14,1.511,1.511,0,0,0,.86.75,1.46,1.46,0,0,0,1.14-.08,1.5,1.5,0,0,0,.75-.87l6.82-20.45a4.538,4.538,0,0,1,3.91-2.82H51.92a29.982,29.982,0,0,1-1.31-2.99l-5.84-.01-8.2.01A7.516,7.516,0,0,0,29.84,59.55Z"/><path class="b" d="M72.9,81.14A1.46,1.46,0,0,0,72.98,80L68.9,67.75a19.1,19.1,0,0,1-2.63,1.55l3.88,11.64a1.5,1.5,0,0,0,1.89.94A1.46,1.46,0,0,0,72.9,81.14Z"/><path class="a" d="M70.24,51.04a.713.713,0,0,0,.71-.71v-.6a2.263,2.263,0,0,0-1.76-2.21V45.49l-.01-.06a4.816,4.816,0,0,0-9.54.22v1.86a2.263,2.263,0,0,0-1.76,2.21v5.64a2.275,2.275,0,0,0,2.27,2.27h8.54a2.275,2.275,0,0,0,2.27-2.27.71.71,0,0,0-1.42,0,.866.866,0,0,1-.86.86H60.14a.866.866,0,0,1-.86-.86V49.72a.866.866,0,0,1,.86-.86h8.54a.866.866,0,0,1,.86.86v.6A.7.7,0,0,0,70.24,51.04ZM64.42,42.8a3.384,3.384,0,0,1,3.35,2.81v1.85H61.04V45.78A3.4,3.4,0,0,1,64.42,42.8Z"/><path class="a" d="M64.41,55.88a.713.713,0,0,0,.71-.71v-.8a2.42,2.42,0,1,0-1.4,0v.8A.684.684,0,0,0,64.41,55.88Zm-1.02-3.83a1.01,1.01,0,0,1,2.02,0,1.022,1.022,0,0,1-.94,1.01c-.02,0-.05-.01-.07-.01a.17.17,0,0,0-.07.01A1.015,1.015,0,0,1,63.39,52.05Z"/><path class="a" d="M63.35,32.88a1.158,1.158,0,0,1,.83-.4h.06a1.167,1.167,0,0,1,.81.32,9.79,9.79,0,0,0,1,.83v-.17A17.565,17.565,0,0,0,64.83,27a1.554,1.554,0,0,0-1.72-.96,1.451,1.451,0,0,0-.99.76,1.491,1.491,0,0,0-.07,1.24,14.649,14.649,0,0,1,1.03,5.12C63.25,32.98,63.34,32.88,63.35,32.88Z"/><path class="a" d="M58.71,21.65a1.539,1.539,0,0,0,.71-1.24,1.5,1.5,0,0,0-.61-1.23,17.518,17.518,0,0,0-10.44-3.42c-.22,0-.45,0-.67.01A17.824,17.824,0,0,0,30.71,32.34a17.532,17.532,0,0,0,4.78,13.21,17.77,17.77,0,0,0,12.88,5.58q.435,0,.87-.03c-.26-.96-.48-1.94-.67-2.94-.07,0-.13.01-.2.01a14.738,14.738,0,0,1-14.7-15.52A14.927,14.927,0,0,1,48.22,18.73a14.311,14.311,0,0,1,8.8,2.81A1.486,1.486,0,0,0,58.71,21.65Z"/></g></svg>