<svg xmlns="http://www.w3.org/2000/svg" width="80.432" height="81.255" viewBox="0 0 80.432 81.255"><defs><style>.a,.c{fill:#393b3e;}.b{fill:none;}.c{stroke:#fff;stroke-miterlimit:10;}</style></defs><g transform="translate(0.5)"><g transform="translate(35.033)"><path class="a" d="M78.586,32.96V26.419a.827.827,0,0,0-.826-.826c-.042,0-4.255.032-4.742.032-.455,0-.6.243-.6,1.027a.553.553,0,0,0,.624.593h3.905v4.89H73.04a.827.827,0,0,0-.8.624,12.178,12.178,0,0,1-1.376,3.313.817.817,0,0,0,.127,1.005l2.762,2.762L70.288,43.3l-2.762-2.762a.831.831,0,0,0-1.005-.127,12.461,12.461,0,0,1-3.313,1.376.827.827,0,0,0-.624.8V46.5h-4.9V42.591a.827.827,0,0,0-.624-.8,12.529,12.529,0,0,1-3.323-1.376.831.831,0,0,0-1.005.127L49.978,43.29l-3.461-3.461,2.752-2.752a.831.831,0,0,0,.127-1.005,12.738,12.738,0,0,1-1.376-3.323.827.827,0,0,0-.8-.624H43.31v-4.89h3.905a.827.827,0,0,0,.8-.624A11.987,11.987,0,0,1,49.4,23.3a.831.831,0,0,0-.127-1.005l-2.752-2.762,3.461-3.461L52.73,18.82a.831.831,0,0,0,1.005.127,12.385,12.385,0,0,1,3.323-1.376.827.827,0,0,0,.624-.8V12.861h4.89v3.905c0,.36.148.794.847.794a.748.748,0,0,0,.8-.72V12.036a.791.791,0,0,0-.243-.582.826.826,0,0,0-.582-.243H56.847a.827.827,0,0,0-.826.826v4.1l-.148.042a13.856,13.856,0,0,0-2.286.942l-.138.074-2.9-2.9a.851.851,0,0,0-1.164,0L44.76,18.915a.818.818,0,0,0,0,1.164l2.9,2.9-.074.138a13.487,13.487,0,0,0-.942,2.286l-.042.148h-4.1a.827.827,0,0,0-.826.826v6.541a.827.827,0,0,0,.826.826h4.1l.042.148a13.855,13.855,0,0,0,.942,2.286l.074.138-2.9,2.9a.818.818,0,0,0,0,1.164L49.385,45a.851.851,0,0,0,1.164,0l2.9-2.9.138.074a13.855,13.855,0,0,0,2.286.942l.148.042v4.1a.827.827,0,0,0,.826.826h6.541a.827.827,0,0,0,.826-.826v-4.1l.148-.042a13.855,13.855,0,0,0,2.286-.942l.138-.074,2.9,2.9a.831.831,0,0,0,1.164,0l4.625-4.625a.818.818,0,0,0,0-1.164l-2.9-2.9.074-.138a13.487,13.487,0,0,0,.942-2.286l.042-.148h4.1A.776.776,0,0,0,78.586,32.96Z" transform="translate(-41.68 -11.21)"/><path class="a" d="M53.265,23.6a.748.748,0,0,0-.445-.148.434.434,0,0,0-.116.011.739.739,0,0,0-.487.3,9.109,9.109,0,1,0,4.022-3.112.734.734,0,0,0-.413.4.763.763,0,0,0-.011.572.734.734,0,0,0,.4.413.763.763,0,0,0,.572.011,7.525,7.525,0,0,1,2.815-.54,7.663,7.663,0,1,1-7.663,7.663,7.531,7.531,0,0,1,1.482-4.519A.736.736,0,0,0,53.265,23.6Z" transform="translate(-41.168 -10.696)"/></g><g transform="translate(0 10.298)"><path class="b" d="M12.13,58.5v7.9a4.657,4.657,0,0,0,9.314,0V58.5a4.657,4.657,0,1,0-9.314,0Z" transform="translate(-8.373 -19.019)"/><path class="b" d="M41.675,85.29a1.725,1.725,0,1,0-1.725-1.725A1.725,1.725,0,0,0,41.675,85.29Z" transform="translate(-6.748 -17.384)"/><path class="b" d="M75.867,53.84A4.657,4.657,0,0,0,71.21,58.5v7.9a4.657,4.657,0,0,0,9.314,0V58.5A4.664,4.664,0,0,0,75.867,53.84Z" transform="translate(-4.923 -19.019)"/><path class="c" d="M78.388,51.224A33.537,33.537,0,0,0,75.53,39.55L72,43.085a29.434,29.434,0,0,1,1.757,8.181,8.427,8.427,0,0,0-6.022,8.065v7.9a8.414,8.414,0,0,0,16.828,0v-7.9A8.449,8.449,0,0,0,78.388,51.224Zm2.339,16a4.657,4.657,0,1,1-9.314,0v-7.9a4.657,4.657,0,1,1,9.314,0Z" transform="translate(-5.126 -19.853)"/><path class="c" d="M43.507,82.411a4.487,4.487,0,0,0-3.842,2.17H30.309c-6.149,0-9.134-5.355-10.33-8.425a8.4,8.4,0,0,0,5.43-7.853v-7.9a8.46,8.46,0,0,0-6.435-8.171A29.1,29.1,0,0,1,42.935,25.682V20.94A33.868,33.868,0,0,0,14.316,52.448a8.4,8.4,0,0,0-5.736,7.97v7.9a8.465,8.465,0,0,0,6.594,8.2C17.068,82.5,22.1,89.227,30.319,89.227h9.356a4.49,4.49,0,1,0,3.831-6.816Zm-31.17-14.1v-7.9a4.657,4.657,0,1,1,9.314,0v7.9a4.657,4.657,0,1,1-9.314,0Zm31.17,20.533a1.725,1.725,0,1,1,1.725-1.725A1.725,1.725,0,0,1,43.507,88.846Z" transform="translate(-8.58 -20.94)"/></g></g></svg>