<svg xmlns="http://www.w3.org/2000/svg" xmlns:xlink="http://www.w3.org/1999/xlink" width="653.529" height="490.86" viewBox="0 0 653.529 490.86">
  <defs>
    <clipPath id="clip-path">
      <path id="Caminho_787" data-name="Caminho 787" d="M442.446,715.64c3.226,6.1,6.292,30.877,8.464,39.7s-3.466,5.124-6.362,7.7c-1.742,1.551-2.913,3.2-4.273,10.644-.836,4.575-5.284,5.5-7.785,9.817-1.993,3.437,4.983,6.016-2.907,13.2-5.734,5.223-1.069,6.256,2.877,9.53,5.737,4.761,9.361,2.218,9.361,2.218s24.984-28.67,30.412-38.715,1.128-12.178,0-22.475c-.552-5.043-6.7-22.428-8.7-27.209-7.322-17.47-6.1-13.681-6.1-13.681l-11.808-5.894Z" transform="translate(-426.904 -700.48)" fill="none"/>
    </clipPath>
  </defs>
  <g id="ilustracao_Home_01" data-name="ilustracao Home 01" transform="translate(-273.167 -210.715)">
    <path id="Caminho_774" data-name="Caminho 774" d="M307.7,653.293c-11.439-57.3-53.383-177.738,55.29-222.379s156.631,27.337,219.4-52.5S658.525,257.281,742.4,279.834s188.736,69.676,190.642,172.9-35.772,200-35.772,200Z" transform="translate(-6.417 -23.795)" fill="#e9f3fe"/>
    <g id="Grupo_481" data-name="Grupo 481" transform="translate(273.167 210.715)">
      <rect id="Retângulo_226" data-name="Retângulo 226" width="69.87" height="68.927" transform="translate(436.233 349.292)" fill="#7ba3f3"/>
      <rect id="Retângulo_227" data-name="Retângulo 227" width="69.87" height="216.045" transform="translate(535.938 202.174)" fill="#367fd3"/>
      <rect id="Retângulo_228" data-name="Retângulo 228" width="258.945" height="17.409" transform="translate(0 418.219)" fill="#7ba3f3"/>
      <path id="Caminho_775" data-name="Caminho 775" d="M984.883,900.2H817.517l.014-17.409H984.883Z" transform="translate(-478.781 -464.575)" fill="#367fd3"/>
      <rect id="Retângulo_229" data-name="Retângulo 229" width="52.133" height="17.409" transform="translate(565.553 418.219)" fill="#7ba3f3"/>
      <g id="Grupo_469" data-name="Grupo 469" transform="translate(47.529 245.176)">
        <path id="Caminho_776" data-name="Caminho 776" d="M518.935,863.926c-1.08,1.31-1.116,2.307,3.1,3.068,4.035.727,2.944,1.467,3.108,2.282l-4.783-.062s-1.157,0-4.146-.029c-2.83-.024-2.463-2.594-1.84-5.125.472-1.917,5.63-12.923,5.63-12.923l5.835,2.516S521.079,861.327,518.935,863.926Z" transform="translate(-411.64 -697.793)" fill="#ad5a49"/>
        <rect id="Retângulo_230" data-name="Retângulo 230" width="12.663" height="1.507" transform="translate(114.721 173.027) rotate(-179.735)" fill="#90a3f5"/>
        <path id="Caminho_777" data-name="Caminho 777" d="M468.32,729.808c9.292,3.727,23.146,23.673,30.528,31.281s-7.633,6.068-5.335,13.389c1.413,4.5-5.073,4.4-5.849,9.125-.618,3.768,6.47,1.928.595,10.866-4.27,6.5,1.933,6.054,5.549,10.507,3.436,4.231,11.513,3.466,11.513,3.466s12.658-27.893,13.976-38.8-2.024-15.28-8.908-24.559c-3.371-4.544-15.227-7.923-20.246-11.811-18.335-14.207-20.1-24.417-20.1-24.417s-14.385-3.736-15.073.958a39.807,39.807,0,0,0,.912,14.176Z" transform="translate(-389.254 -643.519)" fill="#233775"/>
        <path id="Caminho_778" data-name="Caminho 778" d="M526.207,876.02s.284-1.359-2.113-2.03-5.678-1.841-5.678-1.841-.495-1.089-.255-1.615c.892-1.954-2.19-2.284-2.265-.318-.046,1.208-.321,1.488-.321,1.488l-2.065.168.035,4.09Z" transform="translate(-411.479 -704.501)" fill="#262626"/>
        <path id="Caminho_779" data-name="Caminho 779" d="M525.626,877.658a.639.639,0,0,1-.424-1.12,6.293,6.293,0,0,1,2.7-1.129.641.641,0,0,1,.274,1.253,5.437,5.437,0,0,0-2.14.847A.645.645,0,0,1,525.626,877.658Z" transform="translate(-415.813 -706.956)" fill="#fff"/>
        <path id="Caminho_780" data-name="Caminho 780" d="M521.391,876.505a.64.64,0,0,1-.425-1.119,6.291,6.291,0,0,1,2.7-1.129.641.641,0,0,1,.274,1.253,5.432,5.432,0,0,0-2.141.846A.645.645,0,0,1,521.391,876.505Z" transform="translate(-414.213 -706.521)" fill="#fff"/>
        <path id="Caminho_781" data-name="Caminho 781" d="M517.5,874.922a.64.64,0,0,1-.425-1.12,6.311,6.311,0,0,1,2.7-1.129.641.641,0,0,1,.274,1.253,5.442,5.442,0,0,0-2.14.848A.645.645,0,0,1,517.5,874.922Z" transform="translate(-412.745 -705.922)" fill="#fff"/>
        <path id="Caminho_782" data-name="Caminho 782" d="M430.241,865.543c-1.081,1.31-1.117,2.307,3.1,3.068,4.035.728,2.943,1.467,3.108,2.282l-4.783-.062s-1.157,0-4.146-.029c-2.829-.025-2.462-2.595-1.84-5.125.472-1.917,5.63-12.923,5.63-12.923l5.836,2.515S432.385,862.945,430.241,865.543Z" transform="translate(-378.138 -698.404)" fill="#ad5a49"/>
        <path id="Caminho_783" data-name="Caminho 783" d="M424.906,881.833l12.664-.016.007-1.507-12.663-.059Z" transform="translate(-378.011 -708.79)" fill="#90a3f5"/>
        <path id="Caminho_784" data-name="Caminho 784" d="M437.56,876.02s.284-1.359-2.113-2.03-5.678-1.841-5.678-1.841-.495-1.089-.255-1.615c.892-1.954-2.191-2.284-2.266-.318-.046,1.208-.321,1.488-.321,1.488l-2.065.168.035,4.09Z" transform="translate(-377.995 -704.501)" fill="#262626"/>
        <path id="Caminho_785" data-name="Caminho 785" d="M442.446,713.973c3.226,6.1,6.292,30.877,8.464,39.7s-3.466,5.124-6.362,7.7c-1.742,1.551-2.913,3.2-4.273,10.644-.836,4.575-5.284,5.5-7.785,9.817-1.993,3.437,4.983,6.016-2.907,13.2-5.734,5.223-1.069,6.256,2.877,9.53,5.737,4.761,9.361,2.218,9.361,2.218s24.984-28.669,30.412-38.715,2.863-13.045,1.736-23.343c-.552-5.043-8.431-21.559-10.435-26.341-7.322-17.47-6.1-13.681-6.1-13.681l-5.91-8.641Z" transform="translate(-378.766 -639.219)" fill="#415996"/>
        <g id="Grupo_468" data-name="Grupo 468" transform="translate(48.138 59.594)">
          <g id="Grupo_467" data-name="Grupo 467" clip-path="url(#clip-path)">
            <path id="Caminho_786" data-name="Caminho 786" d="M425.73,808.125a2.638,2.638,0,0,1-1.691-.656.641.641,0,1,1,.867-.945,1.253,1.253,0,0,0,1.108.274c.473-.155,1.366-.866,2.032-3.89.7-3.158,3.154-4.612,5.322-5.894,2.635-1.558,4.91-2.9,4.245-6.918-1.287-7.766.016-10.689,5.808-13.029,3.182-1.285,2.948-4.192,2.7-7.268a15.621,15.621,0,0,1-.01-3.823c.383-2.177,2.909-2.748,5.138-3.252,2.553-.578,4.1-1.032,4.037-2.48-.042-.984-.535-4.424-1.217-9.186-2.045-14.274-5.852-40.843-4.96-53.321a.641.641,0,0,1,1.279.091c-.882,12.342,2.912,38.823,4.95,53.048.713,4.978,1.184,8.266,1.229,9.314.111,2.622-2.623,3.24-5.035,3.786-2.017.456-3.922.887-4.157,2.223a14.7,14.7,0,0,0,.025,3.5c.248,3.083.556,6.922-3.5,8.56-4.887,1.975-6.3,3.933-5.023,11.631.808,4.881-2.2,6.66-4.857,8.231-2.132,1.261-4.146,2.452-4.722,5.065-.625,2.836-1.576,4.419-2.907,4.84A2.177,2.177,0,0,1,425.73,808.125Z" transform="translate(-425.743 -699.218)" fill="#fff"/>
          </g>
        </g>
        <path id="Caminho_788" data-name="Caminho 788" d="M511.709,660.578c-.49,11.08,5.933,49.8,5.19,58.111-1.194,13.36-8.665,13.816-11.065,14.508s-2.528-4.832-2.528-4.832l5.118-9.742s-2.738-45.367-2.589-47.877S511.709,660.578,511.709,660.578Z" transform="translate(-407.625 -625.815)" fill="#ad5a49"/>
        <path id="Caminho_789" data-name="Caminho 789" d="M488.384,667.612c-9.825,21.96-3.678,38.3,3.751,43.005s-11.054-.679-19.264,1.036-5.813,6.7-11.95,7.53-8.706-7.919-11.773-18.116c-4.22-14.029,10.251-45.642,14.257-51.648,5.4-8.1,20.678-5.109,26.18,1.641C493.465,655.824,489.957,664.1,488.384,667.612Z" transform="translate(-386.879 -619.757)" fill="#fff"/>
        <path id="Caminho_790" data-name="Caminho 790" d="M369.237,878.373,349.546,875.5c5.8-39.7,18.716-73.506,37.349-97.765,16.721-21.767,37.612-34.778,57.317-35.7l.93,19.879C416.4,763.254,380.027,804.529,369.237,878.373Z" transform="translate(-349.546 -656.581)" fill="#e5605f"/>
        <path id="Caminho_791" data-name="Caminho 791" d="M495.691,679.293c-4.367,6.542-7.064,19.312-5.587,23.275,0,0-12.009,2.956-13.357,2.705s-.706-23.9-.706-24.218,3.349-6.794,4.243-7.171S495.691,679.293,495.691,679.293Z" transform="translate(-397.268 -630.834)" fill="#233775"/>
        <path id="Caminho_792" data-name="Caminho 792" d="M489.379,724.791c-9.162,3.876-9.227,1.973-12.823.251s-14.427-23.331-16.483-34.4,5.988-36.533,8.721-40.332c3.654-5.08,12.5-3.96,10.322,6.407s-9.492,26.087-8.809,32.208,10.222,32.7,11.382,33.5a11.221,11.221,0,0,0,2.948,1.259Z" transform="translate(-391.169 -620.826)" fill="#ad5a49"/>
        <path id="Caminho_793" data-name="Caminho 793" d="M505.514,645.426c-.159-.174-1.964-2.816-1.964-2.816l2.312-5.85-.849-2.008-6.82-5.316-6.394,9.49s5.728,4.768,7.911,5.634A19.775,19.775,0,0,0,505.514,645.426Z" transform="translate(-403.278 -614.051)" fill="#ad5a49"/>
        <path id="Caminho_794" data-name="Caminho 794" d="M497.358,624.836c-2.631-3.35-1.767-8.323,1.93-11.107s8.826-2.325,11.457,1.025,1.936,10.089-1,12.3C506.774,629.291,499.989,628.187,497.358,624.836Z" transform="translate(-404.803 -607.431)" fill="#ad5a49"/>
        <path id="Caminho_795" data-name="Caminho 795" d="M509.435,611.106c.306,3.811-6.492,1.848-6.782,2.6,0,0,.932,5.261,1.766,6.389l-1.367.488s-1.266-2.159-2.133-1.876-.418,1.762.385,2.328-1.168,1.573-1.168,1.573a7.305,7.305,0,0,1-3.37-4.12c-.663-2.674-1.851-8.775-1.851-8.775s8.894-3.806,8.927-5C503.842,604.713,509.249,608.787,509.435,611.106Z" transform="translate(-404.455 -604.713)" fill="#424242"/>
        <path id="Caminho_796" data-name="Caminho 796" d="M440.1,878.665a.64.64,0,0,1-.424-1.119,6.281,6.281,0,0,1,2.7-1.129.641.641,0,1,1,.274,1.253,5.433,5.433,0,0,0-2.14.846A.642.642,0,0,1,440.1,878.665Z" transform="translate(-383.507 -707.336)" fill="#fff"/>
        <path id="Caminho_797" data-name="Caminho 797" d="M435.861,877.513a.64.64,0,0,1-.424-1.12,6.292,6.292,0,0,1,2.7-1.129.641.641,0,1,1,.274,1.253,5.437,5.437,0,0,0-2.14.848A.645.645,0,0,1,435.861,877.513Z" transform="translate(-381.907 -706.901)" fill="#fff"/>
        <path id="Caminho_798" data-name="Caminho 798" d="M431.974,875.929a.64.64,0,0,1-.424-1.12,6.31,6.31,0,0,1,2.7-1.129.641.641,0,0,1,.274,1.253,5.427,5.427,0,0,0-2.14.848A.646.646,0,0,1,431.974,875.929Z" transform="translate(-380.439 -706.302)" fill="#fff"/>
      </g>
      <rect id="Retângulo_231" data-name="Retângulo 231" width="69.87" height="84.665" transform="translate(215.321 264.696)" fill="#367fd3"/>
      <rect id="Retângulo_232" data-name="Retângulo 232" width="69.87" height="154.055" transform="translate(325.777 264.164)" fill="#7ba3f3"/>
      <path id="Caminho_799" data-name="Caminho 799" d="M497.166,570.827l-1.383-19.852c34.543-2.407,42.048-22.8,52.34-58.629,7.548-26.281,16.1-56.068,43.8-75.825,26.128-18.635,64.288-12.267,84.791-8.846,4.245.707,8.253,1.376,10.09,1.441,80.786,2.841,116.771-40.954,183.921-174l17.767,8.966c-32.52,64.432-60.521,113.568-91.483,143.944-30.541,29.963-64.745,42.6-110.9,40.978a111.538,111.538,0,0,1-12.666-1.7c-17.663-2.948-50.539-8.433-69.959,5.419-22.045,15.724-29.257,40.833-36.231,65.116-4.995,17.391-9.713,33.817-19.477,47.21C536.273,560.823,519.72,569.256,497.166,570.827Z" transform="translate(-357.254 -219.932)" fill="#e5605f"/>
      <path id="Caminho_800" data-name="Caminho 800" d="M500.25,769.5c-8.259-.619-7.885-9.154-5.368-11.143,4.25-3.359,6.066-1.233,6.786,2.839s2.254,4.488,2.254,4.488-.673-4.217.223-5.607,3.693,4.266,4.76,5.118S502.288,769.65,500.25,769.5Z" transform="translate(-356.315 -416.943)" fill="#ad5a49"/>
      <g id="Grupo_470" data-name="Grupo 470" transform="translate(436.232 92.91)">
        <path id="Caminho_801" data-name="Caminho 801" d="M1037.856,745.828s.462,4.37.536,6.38c.063,1.717.388,2.62-3.876,3.456-4.078.8-4.248,2.312-4.393,3.137,0,0,9.627.075,12.663,0,0,0-.256-8.2-.256-9.331,0-2,.049-9.973.049-9.973l-4.872,3.329Z" transform="translate(-995.32 -503.358)" fill="#fff"/>
        <path id="Caminho_802" data-name="Caminho 802" d="M1058.315,559.936c.343,1.235,8.516,13.388,8.454,15.163-1.154,32.9-9.879,49.014-9.617,52.566.293,3.965,13.158,14.887,12.12,22.253s3.158,11.385,3.7,15-2.147,8.712.7,12.888-7.055,6.7-7.055,6.7-21.431-39.477-23.591-48.6c-1.614-6.816-5.6-62.371-5.6-62.371S1056.92,554.917,1058.315,559.936Z" transform="translate(-998.078 -435.209)" fill="#415996"/>
        <rect id="Retângulo_233" data-name="Retângulo 233" width="12.663" height="0.933" transform="translate(34.804 255.442)" fill="#232323"/>
        <path id="Caminho_803" data-name="Caminho 803" d="M1035.352,561.4s-2.779,65.624-1.7,69.5,5.972,55.144,5.972,55.144,3.833-3.933,7.905-3.147a4.386,4.386,0,0,0,5.047-3.634,12.436,12.436,0,0,0-.226-6.412c-1.177-3.592-1.819-6.388.047-16.032s-5.411-15.866-3.693-22.427,16.548-58.416,16.548-58.416Z" transform="translate(-996.558 -436.087)" fill="#233775"/>
        <path id="Caminho_804" data-name="Caminho 804" d="M1079.522,755.93l1.908,3.364s-6.157,2.4-6.479,3.2a4.973,4.973,0,0,0,.06,2.322l7.15-1.08,5.705-2.785-3.133-6.8Z" transform="translate(-1012.204 -508.894)" fill="#fff"/>
        <path id="Caminho_805" data-name="Caminho 805" d="M1088.1,765.107l-5.658,2.689-7.315,1.226-.248-1.118,7.379-1.224,5.343-2.592Z" transform="translate(-1012.226 -512.647)" fill="#262626"/>
        <path id="Caminho_806" data-name="Caminho 806" d="M1061.872,495.494c3.115,7.594,4.793,53.166,1.2,74.655-.524,3.132-8.617,3.376-16.158,2.228-1.332-.2-2.164-15.62-2.164-15.62s-4.768,14.132-6.052,13.687c-2.986-1.034-4.977-2.278-4.879-3.53,1.24-15.843-1.291-69.46-1.291-69.46C1043.608,494.6,1058.618,487.561,1061.872,495.494Z" transform="translate(-996.227 -409.813)" fill="#fff"/>
        <path id="Caminho_807" data-name="Caminho 807" d="M1064.475,452.588c-4.992-16.693-18.255-73.021-18.6-74.338l-6.457.9a97.544,97.544,0,0,0,.955,10.573c.981,7.925,4.185,14.334,3.909,18.98s.154,13.179,3.269,18.113c5.309,8.41,6.941,30.729,6.941,30.729Z" transform="translate(-998.83 -366.907)" fill="#fff"/>
        <path id="Caminho_808" data-name="Caminho 808" d="M1012.482,486.853c-3.294.236-20.114,2.419-22.022.814S979.5,465.048,979.5,465.048l-3.363,3.386s-2.617,6.592-.622,8.574-1.991,10.584,3.275,11.387,5.917,10.745,11.152,11.583C1006.3,502.6,1015,502.6,1015,502.6Z" transform="translate(-974.411 -399.692)" fill="#fff"/>
        <path id="Caminho_809" data-name="Caminho 809" d="M1055.374,486.72c-2.657,1.173-8.793,2.447-10.773,2.258l-.829-12.69,6.182-1.647Z" transform="translate(-1000.475 -403.316)" fill="#7b4935"/>
        <path id="Caminho_810" data-name="Caminho 810" d="M1035.11,460.415c2.91-3.467,7.894-4.133,11.133-1.487s3.505,7.6.6,11.067-9.6,4.816-12.166,2.718C1032.067,470.585,1032.2,463.883,1035.11,460.415Z" transform="translate(-996.338 -396.769)" fill="#7b4935"/>
        <path id="Caminho_811" data-name="Caminho 811" d="M1046.285,469.958c-3.6.36-6.843-.334-7.124-.83a34.765,34.765,0,0,1-1-3.733,1.821,1.821,0,0,0,.771-2.584c-.389-.838-1.348-1.522-1.976-.492a7.432,7.432,0,0,0-.718,2.853l-1.439.027s-.2-3.133-.355-3.728-2.42-.816-2.42-.816-3.118-3.113-3.112-6.459,7.373-5.392,9.432-2.486a6.33,6.33,0,0,1,5.393-1.394,3.745,3.745,0,0,1,2.726,4.938s4.241-.8,4.2,2.087-1.793,3.5-1.793,3.5Z" transform="translate(-994.862 -394.07)" fill="#262626"/>
        <path id="Caminho_812" data-name="Caminho 812" d="M1045.132,371.365s-.484-8.044-2.9-10.46c-1.144-1.144-5.571-2.163-4.659,3.668.476,3.048,1.1,7.7,1.1,7.7Z" transform="translate(-998.088 -360.021)" fill="#7b4935"/>
        <path id="Caminho_813" data-name="Caminho 813" d="M979.287,459.622c-.369-2.423,1.728-5.592-.841-8.169s-5.1,1.96-3.982,4.085-.719,4.453,1.46,7.47Z" transform="translate(-974.194 -394.266)" fill="#7b4935"/>
        <path id="Caminho_814" data-name="Caminho 814" d="M1037.916,376.954c-1.466-2.016-3.136-4.676-2.2-4.518a3.715,3.715,0,0,1,1.74,1.011l1.609,2Z" transform="translate(-997.329 -364.708)" fill="#7b4935"/>
        <path id="Caminho_815" data-name="Caminho 815" d="M982.635,456.124a16.335,16.335,0,0,1,1.284-1.859c.257-.19.479.911-.584,2.936s-.956,2.367-.956,2.367Z" transform="translate(-977.285 -395.611)" fill="#7b4935"/>
      </g>
      <g id="Grupo_472" data-name="Grupo 472" transform="translate(359.305 322.809)">
        <path id="Caminho_816" data-name="Caminho 816" d="M1070.691,879.412c-.845-.4-1.067-.994.2-3.282s1.55-2.792,1.55-2.792l9.215,1.395,1.437,4.686Z" transform="translate(-933.454 -783.812)" fill="#e88e73"/>
        <path id="Caminho_817" data-name="Caminho 817" d="M1090.865,861.2c1.362-2.253,2.4-1.907,2.4-1.907l1.121-.017s-.059,12.38-.07,14.83h-4.149l-1.437-4.686a.2.2,0,0,0,.046-.026C1089.349,868.708,1089.51,863.442,1090.865,861.2Z" transform="translate(-940.529 -778.5)" fill="#fff"/>
        <rect id="Retângulo_234" data-name="Retângulo 234" width="14.831" height="1.431" transform="matrix(-0.005, 1, -1, -0.005, 153.855, 80.776)" fill="#262626"/>
        <path id="Caminho_818" data-name="Caminho 818" d="M1009.639,864.856l5.3-1.845,1.091,1.444s2.047,2.633,2.664,3.345l-4.074,2.313Z" transform="translate(-910.655 -779.911)" fill="#4d66a1"/>
        <path id="Caminho_819" data-name="Caminho 819" d="M1029.737,871.287c2.347.808,2.175,1.861,2.175,1.861l.2,1.015-13.844,2.389-.626-3.532,4.074-2.313.032.037C1022.327,871.4,1027.39,870.479,1029.737,871.287Z" transform="translate(-913.679 -782.818)" fill="#7288e8"/>
        <path id="Caminho_820" data-name="Caminho 820" d="M1018.279,876.561l13.844-2.389.231,1.3-13.844,2.389Z" transform="translate(-913.919 -784.127)" fill="#262626"/>
        <path id="Caminho_821" data-name="Caminho 821" d="M876.442,846.837c2.471,1.6,7.039,1.9,9.591-.987l26.031-29.464c5.309-4.742,9.445-7.765,10.728-4.38,1.315,3.471-.081,5.876,4.878,8.343s6.834,3.683,7.75,7.745c1.295,5.742,7.393,2.576,9.841,6.672s4.5,7.565,11.542,5.49,7.849-4.334,7.849-4.334-28.805-36.271-34.212-42.122-9.39-5.922-16.1-.742c-5.68,4.387-21.5,18.346-30.683,25.969C878.854,823.018,871.749,843.792,876.442,846.837Z" transform="translate(-859.763 -752.064)" fill="#5876ca"/>
        <path id="Caminho_822" data-name="Caminho 822" d="M925.386,791.569c1.375-4.2,3.55-5.857,4.406-5.465.367.169-.959,1.607-.786,1.927s5.356.246,6.469.033,3.9.538.38,1.5a19.277,19.277,0,0,0-6.4,3.371Z" transform="translate(-878.831 -750.841)" fill="#e88e73"/>
        <path id="Caminho_823" data-name="Caminho 823" d="M874.654,763.83l.632-5.4-1.5-2.989-8.189-3.728-1.689,10.229Z" transform="translate(-855.61 -737.873)" fill="#e88e73"/>
        <path id="Caminho_824" data-name="Caminho 824" d="M903.358,792.362c-10.384,16.434-13.446,23.971-18.187,27.173s-28.89-30.162-28.89-30.162l3.5-4.85c8.556-.36,15.154,26.456,18.5,23.615,1.074-.912,2.553-.086,2.793-.813,1.263-3.823,2.955-1.067,4.575-3.022,2.956-3.569,13.923-14.215,13.923-14.215Z" transform="translate(-852.728 -750.263)" fill="#415996"/>
        <path id="Caminho_825" data-name="Caminho 825" d="M866.875,871.527c14.49.386,59.439.734,64.047,0s16.847,8.759,24.917,5.7,13.949.366,18.238-.011,9.259-4.595,14.9-2.658,5.444-9.307,5.444-9.307-51.616-12.465-62.684-12.362c-8.265.076-71.364-1.42-71.364-1.42S860.724,871.362,866.875,871.527Z" transform="translate(-854.274 -775.553)" fill="#415996"/>
        <path id="Caminho_826" data-name="Caminho 826" d="M881.126,778.672c-.66,9.912,5.75,40.114,5.97,43.48-10.031,3.689-10.568,6.657-13.768,11.649-4.019,6.27-11.77,6.282-11.77,6.282-6.7-4.722-3.763-5.862-10.093-46.218-1.833-11.686-2.382-21.138,14.154-21.829a31.867,31.867,0,0,1,11.477,2.021Z" transform="translate(-850.572 -745.541)" fill="#233775"/>
        <path id="Caminho_827" data-name="Caminho 827" d="M874.757,773.252l-1.352-4.059-11.714-1.04-3.656,5.166Z" transform="translate(-853.391 -744.081)" fill="#424242"/>
        <path id="Caminho_828" data-name="Caminho 828" d="M864.645,743.884a7.794,7.794,0,0,1,2.979-10.686c3.737-1.9,8.462-.2,10.553,3.8s.727,10.6-2.236,12.106C872.934,750.634,866.737,747.884,864.645,743.884Z" transform="translate(-855.514 -730.584)" fill="#e88e73"/>
        <path id="Caminho_829" data-name="Caminho 829" d="M870.7,729.52a26.406,26.406,0,0,1,3.962,3.563s.062,2.922.067,4.63-2,3.774-2.362,4.059c0,0-.841-1.358-1.907-1.1s-.632,2.019.493,2.51-.207,3.376-1.187,3.427a42.773,42.773,0,0,1-5.787-1.34s-2.59-7.068-3.5-8.686C862.257,731.805,865.166,729.06,870.7,729.52Z" transform="translate(-854.317 -729.47)" fill="#424242"/>
        <g id="Grupo_471" data-name="Grupo 471" transform="translate(46.555 19.191)">
          <path id="Caminho_830" data-name="Caminho 830" d="M965.39,777.965a1.516,1.516,0,0,1-1.309.744l-37.95,0a.687.687,0,0,1-.745-.739v-.607l38.67-.147,9.625-16.393c.213-.361.145-.249.3-.51.8.453,1.1,1.067.753,1.744Z" transform="translate(-925.386 -760.31)" fill="#262626"/>
          <path id="Caminho_831" data-name="Caminho 831" d="M962.367,760.736l21.588-.426-9.926,16.906-22.23.086Z" transform="translate(-935.363 -760.31)" fill="#424242"/>
          <path id="Caminho_832" data-name="Caminho 832" d="M983.292,761.8l-19.3.38-9.419,14.766,19.872-.077Z" transform="translate(-936.41 -760.872)" fill="#fff"/>
        </g>
        <path id="Caminho_833" data-name="Caminho 833" d="M970.759,792.826c3.856-1.442,3.363-.508,9.282-3.184,3.579-1.618.707-3.43-2.215-2.566s-2.806-.911-2.806-.911.764-1.567.182-1.741-1.387.753-1.757,1.917-5.135,3.561-5.135,3.561Z" transform="translate(-895.044 -750.219)" fill="#e88e73"/>
        <path id="Caminho_834" data-name="Caminho 834" d="M937.926,786.717c2.312.87,1.835,3.709,3.276,6.108,0,0-23.394,10.1-26.157,11.221s-5.1-.421-8.411-2.759-19.235-6.257-21.094-7.538-2.339-19.38,4.779-15.327c2.7,1.535,10.7,4.594,17.043,9.429,3.47,2.646,4.383,3.321,4.53,4.58.29,2.479,3.266-.565,4.508-.147s1.169,1.917,3.275,1.31S937.926,786.717,937.926,786.717Z" transform="translate(-863.333 -747.737)" fill="#233775"/>
        <path id="Caminho_835" data-name="Caminho 835" d="M982.539,764.729l-4.255,6.772h-2.922l4.482-6.772Z" transform="translate(-897.709 -742.788)" fill="#e5605f"/>
        <path id="Caminho_836" data-name="Caminho 836" d="M972.42,780.725c.553.491,1.668.159,2.491-.743s1.043-2.03.49-2.521-1.668-.159-2.491.743S971.867,780.233,972.42,780.725Z" transform="translate(-896.482 -747.511)" fill="#e5605f"/>
      </g>
      <g id="Grupo_473" data-name="Grupo 473" transform="translate(411.702 293.78)">
        <path id="Caminho_837" data-name="Caminho 837" d="M941.35,683.76l15.625,36.287,2.242-.939L943.592,682.82Z" transform="translate(-937.258 -682.82)" fill="#f3e2bc"/>
        <path id="Caminho_838" data-name="Caminho 838" d="M934.774,728.09,949.122,742l1.707-1.713-14.348-13.914Z" transform="translate(-934.774 -699.273)" fill="#f3e2bc"/>
        <path id="Caminho_839" data-name="Caminho 839" d="M988.686,702.8l-4.943,24.387,2.388.471,4.943-24.387Z" transform="translate(-953.271 -690.366)" fill="#f3e2bc"/>
      </g>
      <g id="Grupo_474" data-name="Grupo 474" transform="translate(219.555 168.96)">
        <path id="Caminho_840" data-name="Caminho 840" d="M681.522,540.457c6.421,0,15.058-3.8,15.882-3.935a86.728,86.728,0,0,1,13.52-.908s-18.289,9.717-25.539,12.32-4.471-3.823-4.471-3.823Z" transform="translate(-646.54 -502.395)" fill="#773024"/>
        <path id="Caminho_841" data-name="Caminho 841" d="M650.68,558.567c.734-4.67-2.089-13.5,0-14.418s19.221-1.318,21.376-.542c2.078.749,1.8,7.063,1.8,7.805l-5.672,8.966Z" transform="translate(-635.021 -505.261)" fill="#773024"/>
        <path id="Caminho_842" data-name="Caminho 842" d="M786.627,663.575l5.794-.958.859,1.681s1.627,3.075,2.131,3.918l-4.617,1.658Z" transform="translate(-686.668 -550.369)" fill="#773024"/>
        <path id="Caminho_843" data-name="Caminho 843" d="M806.093,673.636c2.269,1.25,1.9,2.3,1.9,2.3l.022,1.08h-14.69v-3.747l4.617-1.658.026.044C798.443,672.439,803.825,672.387,806.093,673.636Z" transform="translate(-689.198 -553.768)" fill="#fff"/>
        <rect id="Retângulo_235" data-name="Retângulo 235" width="14.69" height="1.379" transform="translate(118.817 123.252) rotate(180)" fill="#262626"/>
        <path id="Caminho_844" data-name="Caminho 844" d="M808.943,675.479a.629.629,0,0,1-.467-1.05l1.262-1.4a.629.629,0,1,1,.935.841l-1.262,1.4A.629.629,0,0,1,808.943,675.479Z" transform="translate(-694.86 -554.223)" fill="#262626"/>
        <path id="Caminho_845" data-name="Caminho 845" d="M804.9,674.806a.629.629,0,0,1-.467-1.05l1.261-1.4a.629.629,0,0,1,.935.842l-1.262,1.4A.627.627,0,0,1,804.9,674.806Z" transform="translate(-693.332 -553.968)" fill="#262626"/>
        <path id="Caminho_846" data-name="Caminho 846" d="M800.992,674.282a.629.629,0,0,1-.467-1.05l1.262-1.4a.629.629,0,1,1,.935.841l-1.263,1.4A.63.63,0,0,1,800.992,674.282Z" transform="translate(-691.857 -553.771)" fill="#262626"/>
        <path id="Caminho_847" data-name="Caminho 847" d="M668.646,525.637c-2.75-3.462-2.358-8.295.875-10.8s8.085-1.721,10.835,1.74,2.665,10.042.1,12.024C677.856,530.619,671.4,529.1,668.646,525.637Z" transform="translate(-641.412 -493.998)" fill="#773024"/>
        <path id="Caminho_848" data-name="Caminho 848" d="M747.844,717.156l5.114,2.852-.4,1.839s-.7,3.4-.843,4.368l-4.645-1.578Z" transform="translate(-671.725 -570.97)" fill="#773024"/>
        <path id="Caminho_849" data-name="Caminho 849" d="M755.3,737.39c.966,2.38.008,2.969.008,2.969l-.672.853-11.416-9.12,2.391-2.912,4.645,1.578-.008.05C750.123,731.71,754.339,735.011,755.3,737.39Z" transform="translate(-670.274 -575.512)" fill="#fff"/>
        <path id="Caminho_850" data-name="Caminho 850" d="M744.1,732.137l11.416,9.12-.88,1.072-11.416-9.12Z" transform="translate(-670.274 -576.629)" fill="#262626"/>
        <path id="Caminho_851" data-name="Caminho 851" d="M758.482,740.526a.629.629,0,0,1-.1-1.25l1.876-.306a.629.629,0,1,1,.2,1.241l-1.875.306A.638.638,0,0,1,758.482,740.526Z" transform="translate(-675.8 -579.207)" fill="#262626"/>
        <path id="Caminho_852" data-name="Caminho 852" d="M755.362,737.785a.629.629,0,0,1-.1-1.25l1.876-.306a.629.629,0,0,1,.2,1.242l-1.876.306A.715.715,0,0,1,755.362,737.785Z" transform="translate(-674.621 -578.172)" fill="#262626"/>
        <path id="Caminho_853" data-name="Caminho 853" d="M752.744,734.165a.629.629,0,0,1-.1-1.25l1.875-.307a.629.629,0,0,1,.2,1.242l-1.876.306A.637.637,0,0,1,752.744,734.165Z" transform="translate(-673.632 -576.804)" fill="#262626"/>
        <path id="Caminho_854" data-name="Caminho 854" d="M719.4,612.207c-.021,3.546-4.142,4.44.111,7.922s5.8,5.062,5.825,9.047c.034,5.631,6.574,4.171,8.065,8.556s-.148,5.719,7.072,5.5,9.848-1.544,9.848-1.544-14.166-29.261-18.079-37.5c-3.642-7.669-7.912-8.685-19.928-7.051a382.989,382.989,0,0,1-42.793,3.136S719.414,608.775,719.4,612.207Z" transform="translate(-642.432 -525.383)" fill="#5876ca"/>
        <path id="Caminho_855" data-name="Caminho 855" d="M644.829,608.847c.416,3.022,3.317,6.777,7.375,6.777h41.41c7.434.87,12.689,2.009,10.866,5.33-1.869,3.406-4.749,3.973-3.314,9.522s1.752,7.842-.864,11.343c-3.7,4.95,3.021,7.516,1.429,12.232s-2.953,8.691,3.542,12.742,8.852,3.124,8.852,3.124,9.188-47.3,10.149-55.521-1.719-11.366-10.463-13.022c-7.4-1.4-29.421-4.116-41.814-6.015-6.486-.994-9.586-16.5-20.994-12.9C651,582.457,644.039,603.108,644.829,608.847Z" transform="translate(-633.084 -519.887)" fill="#233775"/>
        <path id="Caminho_856" data-name="Caminho 856" d="M648.934,563.054c.157-.819-2.014,20.678-3.661,31.243,0,0,3.207-5.492,7.693-4.507,4.347.954,7.724-3.913,12.319-3.166s7.971-6.129,7.971-6.129-.159-17.418-.622-21.368-.8-4.049-.8-4.049C664.394,554.876,648.934,563.054,648.934,563.054Z" transform="translate(-633.275 -509.748)" fill="#5876ca"/>
        <path id="Caminho_857" data-name="Caminho 857" d="M660.617,541.837a117.722,117.722,0,0,1,8.684-11.122l4.666,5.22-.933,5.327Z" transform="translate(-639.071 -500.547)" fill="#773024"/>
        <path id="Caminho_858" data-name="Caminho 858" d="M653.333,518.043c-7.243,7.9-30.952.558-26.871-21.53,3.208-17.366,30.993-19.573,36.643-2.844a8.619,8.619,0,0,1-.077,5.141c3.291-.17,6,.372,6.055,2.413.118,4.481-5.156,5.379-7.6,5.269-3.05-.136-2.382-1.658-3.443-1.078-1.652.9-1,6.65-1.4,7.3s-1.811-1.609-3.233-1.385.2,2.689,1.014,3.169S654.251,517.04,653.333,518.043Z" transform="translate(-625.993 -482.235)" fill="#262626"/>
        <path id="Caminho_859" data-name="Caminho 859" d="M671.523,521.845c-1.762-6.647,2.606-11.469,7.928-13.137a8.742,8.742,0,0,0-6.612.96c-2.99,1.993-4.408,7.341-2.5,11.574Z" transform="translate(-642.415 -492.133)" fill="#f86e52"/>
        <path id="Caminho_860" data-name="Caminho 860" d="M659.569,543.851c3.105-.144,7.276,9.126,7.276,9.126l.731-.264a50.082,50.082,0,0,0-3.47-6.164c-2.47-3.607-4.1-3.357-4.1-3.357Z" transform="translate(-638.675 -505.258)" fill="#5876ca"/>
        <path id="Caminho_861" data-name="Caminho 861" d="M681.231,543.337c1.765,2.359,3.014,7.341,3.014,7.341l.559-.037s-1.549-5.767-2.965-7.265Z" transform="translate(-646.858 -505.314)" fill="#5876ca"/>
      </g>
      <g id="Grupo_475" data-name="Grupo 475" transform="translate(204.069 345.558)">
        <rect id="Retângulo_236" data-name="Retângulo 236" width="69.87" height="68.927" transform="translate(11.252 3.366)" fill="#367fd3"/>
        <path id="Caminho_862" data-name="Caminho 862" d="M662.746,798.787c6.146,6.709,12.855,19.129,14.919,20.076s20.292-9.242,20.292-9.242l1.1,3.868s-19.373,11.893-22.211,13.083-16.787-19.036-16.787-19.036Z" transform="translate(-623.372 -778.402)" fill="#dfb09e"/>
        <path id="Caminho_863" data-name="Caminho 863" d="M739.246,972.9l5.879,1.242.176,1.919s.374,3.531.532,4.52l-5.026-.138Z" transform="translate(-653.285 -844.17)" fill="#dfb09e"/>
        <path id="Caminho_864" data-name="Caminho 864" d="M752.9,990.117c1.681,2.032.928,2.9.928,2.9l-.391,1.037-13.978-5.46,1.431-3.566,5.026.138.008.052C746.073,986.135,751.214,988.085,752.9,990.117Z" transform="translate(-653.363 -848.748)" fill="#424242"/>
        <path id="Caminho_865" data-name="Caminho 865" d="M685.205,779.315a7.85,7.85,0,0,0-5.971-9.388,7.943,7.943,0,0,0-9,6.636c-.836,4.425,2.4,10.356,5.675,10.958C679.237,788.134,684.37,783.74,685.205,779.315Z" transform="translate(-627.168 -767.456)" fill="#dfb09e"/>
        <path id="Caminho_866" data-name="Caminho 866" d="M630.173,870.308c10.043-.583,19.368,7.221,29.484,11.117s11.6,6.77,11.118,10.757c-.288,2.4-3.124,3.315,2.52,8.969,8.933,8.946,1.561.789,1.712,16.8.076,8.011,7.284,9.086,12.574,11.676,5.025,2.46,11.914-1.8,11.914-1.8s-9.4-34.148-13.236-44.955-6.9-15.884-17.342-21.566a87.611,87.611,0,0,0-19.535-7.467c-22.968-5.277-27.295-3.939-27.295-3.939l-20.935,7.152s-.393,2.749,1.148,7.454c2.3,7.03,14.051,5.807,14.051,5.807Z" transform="translate(-601.106 -797.651)" fill="#415996"/>
        <path id="Caminho_867" data-name="Caminho 867" d="M658.735,852.187c19.7,2.985,35.707.65,42.881,2.712,5.142,1.477,7.363,9.536,4.262,12.877-4.324,4.659-10.448,3.793-37.643,15.254,2.676-4.045-10.2-11.26,0-17.422,4.356-2.632,8.64,2.77,8.45-2.344-.1-2.591,11.954-2.1,11.954-2.1Z" transform="translate(-622.874 -798.572)" fill="#233775"/>
        <path id="Caminho_868" data-name="Caminho 868" d="M739.454,989.974l.517-1.287,13.853,5.71-.392,1.036Z" transform="translate(-653.364 -850.131)" fill="#232323"/>
        <path id="Caminho_869" data-name="Caminho 869" d="M667.736,879.542c1.286-2.489,3.591-3.649,3.535-1.447s-.344,4.9.358,6.063,2.165,7.439,0,8.217-2.467-4.551-3.27-7.724A16.747,16.747,0,0,1,667.736,879.542Z" transform="translate(-626.267 -807.918)" fill="#233775"/>
        <path id="Caminho_870" data-name="Caminho 870" d="M666.632,878.8c-.1,2.674-.115,5.091.358,6.063l-2.889.993s-3.278,1.465-4.179,1.925l-4.484-3.759Z" transform="translate(-621.629 -808.626)" fill="#dfb09e"/>
        <path id="Caminho_871" data-name="Caminho 871" d="M662.4,896.841c.647,2.544-.408,3.011-.408,3.011l-.8.774-10.3-10.8,2.831-2.629,5.327,3.352c0,.016,0-.014,0,0C658.789,891.446,661.751,894.3,662.4,896.841Z" transform="translate(-619.91 -811.797)" fill="#424242"/>
        <path id="Caminho_872" data-name="Caminho 872" d="M650.888,890.845l1.022-.949,10.081,10.976-.893.864Z" transform="translate(-619.91 -812.816)" fill="#232323"/>
        <path id="Caminho_873" data-name="Caminho 873" d="M601.178,857.143l20.936-7.152h0l-19.493.343Z" transform="translate(-601.133 -797.743)" fill="#415996"/>
        <path id="Caminho_874" data-name="Caminho 874" d="M603.5,828.341s8.1-20.065,11.841-26.183c8.376-13.706,23.655-12.08,28.77-5.293,2.574,3.415-.92,12.742-4.057,15.627-6.31,5.8-15.8,15.483-15.8,15.483Z" transform="translate(-602.009 -775.749)" fill="#fff"/>
        <path id="Caminho_875" data-name="Caminho 875" d="M626.557,801.13c-4.851,4.165-8.438,15.029-5.184,14.488,9.846-1.636,11.973-10.354,13.459-13.87S632.383,796.127,626.557,801.13Z" transform="translate(-608.289 -778.167)" fill="#dfb09e"/>
        <path id="Caminho_876" data-name="Caminho 876" d="M712.978,829.484,697.59,847.762H717l14.687-18.278Z" transform="translate(-637.55 -789.997)" fill="#ddd"/>
        <path id="Caminho_877" data-name="Caminho 877" d="M627.382,809.544c.48,3.9,9.071,21.255,13.688,28.74.783,1.27,2.543,3.761,4.813,3.579,8.991-.719,22.5-5.719,25.189-6.512,4.249-1.25,6.381.446,8.8-1.1s3.961-6.176,1.045-5.376a23.776,23.776,0,0,0-5.143,2.1s1.984-1.882,1.5-2.561-2.637,1.618-3.28,2.137c-1.337,1.079-23.972,4.351-26.28,4.151s-8.242-31.776-9.906-34.289S627.382,809.544,627.382,809.544Z" transform="translate(-611.031 -778.884)" fill="#dfb09e"/>
        <path id="Caminho_878" data-name="Caminho 878" d="M719.02,816.669c2.627-2.182,4.418-1.109,5.828,1.18s-.841,4.357-1.461,3.327a3.107,3.107,0,0,0-1.991-1.246Z" transform="translate(-645.645 -784.707)" fill="#dfb09e"/>
        <path id="Caminho_879" data-name="Caminho 879" d="M723.41,821.927a.642.642,0,0,1-.511-.251l-6.171-8.032a.644.644,0,0,1,1.021-.784l6.17,8.033a.643.643,0,0,1-.51,1.035Z" transform="translate(-644.729 -783.622)" fill="#262626"/>
        <path id="Caminho_880" data-name="Caminho 880" d="M720.417,821.776c1.815-.123,3.629-1.2,2.282-1.655a10.108,10.108,0,0,0-2.834-.452Z" transform="translate(-645.964 -786.29)" fill="#dfb09e"/>
        <path id="Caminho_881" data-name="Caminho 881" d="M651.926,787.709c-1.512.841.312,12.208,4.862,15.311,4.088,2.788,4.637-9.792,5.2-11.054s6.248-7,6.248-7l-4.212-3.934S656.994,784.889,651.926,787.709Z" transform="translate(-620.105 -771.694)" fill="#dfb09e"/>
        <path id="Caminho_882" data-name="Caminho 882" d="M647.359,783.866c-8.064,1.955-8.984,9.739-1.8,13.887,0,0,6.406-.607,7.184-5.979C653.5,786.566,647.359,783.866,647.359,783.866Z" transform="translate(-616.06 -772.766)" fill="#424242"/>
        <path id="Caminho_883" data-name="Caminho 883" d="M644.931,803.611c-5.562.853-10.153,9.317.648,12.484C655.145,809.853,644.931,803.611,644.931,803.611Z" transform="translate(-615.432 -780.224)" fill="#424242"/>
        <path id="Caminho_884" data-name="Caminho 884" d="M646.475,821.846c-6.277,6.752-1.863,9.149,3.8,11.658C652.651,828.67,652.236,826.422,646.475,821.846Z" transform="translate(-617.085 -787.112)" fill="#424242"/>
        <path id="Caminho_885" data-name="Caminho 885" d="M648.84,805.247a.639.639,0,0,1-.255-.053,9.284,9.284,0,0,0-3.9-.647.643.643,0,0,1-.106-1.282,10.37,10.37,0,0,1,4.521.749.643.643,0,0,1-.257,1.233Z" transform="translate(-617.302 -780.083)" fill="#fff"/>
        <path id="Caminho_886" data-name="Caminho 886" d="M648.683,823.217a.633.633,0,0,1-.176-.024,7.727,7.727,0,0,0-2.808.017.643.643,0,1,1-.191-1.273,8.684,8.684,0,0,1,3.348.017.644.644,0,0,1-.174,1.263Z" transform="translate(-617.671 -787.094)" fill="#fff"/>
        <path id="Caminho_887" data-name="Caminho 887" d="M649.977,777.437c-.724-3.309,5-2.616,8.671-6.078s15.105-8.629,19.081-2.45,2.517,12.2-.453,12.624-9.132-.806-8.687-2.883-1.213-3.285-2.065-2.078-.84,2.256-1.49,2.477c-8.814,2.993-10.922-1.871-13.3-.12S649.977,777.437,649.977,777.437Z" transform="translate(-619.539 -766.028)" fill="#424242"/>
        <path id="Caminho_888" data-name="Caminho 888" d="M652.6,785.329a.642.642,0,0,1-.46-.193c-.017-.017-1.767-1.772-3.669-1.354a.644.644,0,0,1-.272-1.258c2.607-.565,4.77,1.62,4.862,1.713a.643.643,0,0,1-.461,1.093Z" transform="translate(-618.703 -772.224)" fill="#fff"/>
      </g>
      <g id="Grupo_476" data-name="Grupo 476" transform="translate(530.347 156.746)">
        <path id="Caminho_889" data-name="Caminho 889" d="M1136.16,480.8a7.728,7.728,0,0,1,12.421-6.024l7.469-7.634a18.511,18.511,0,0,0-12.174-4.533,18.193,18.193,0,1,0,0,36.383V488.41A7.665,7.665,0,0,1,1136.16,480.8Z" transform="translate(-1125.436 -462.607)" fill="#f38072"/>
        <path id="Caminho_890" data-name="Caminho 890" d="M1173.509,483.55a18.04,18.04,0,0,0-6.266-13.658l-7.469,7.634a7.557,7.557,0,0,1,3.011,6.024,7.664,7.664,0,0,1-7.716,7.612v10.579A18.317,18.317,0,0,0,1173.509,483.55Z" transform="translate(-1136.629 -465.359)" fill="#fff"/>
      </g>
      <g id="Grupo_477" data-name="Grupo 477" transform="translate(200.425 15.88)">
        <path id="Caminho_891" data-name="Caminho 891" d="M601.832,251.965l4.811,13.713,12.1-4.232-4.811-13.713,6.474-2.265-16.943-9.234-8.212,18.033Z" transform="translate(-595.252 -236.234)" fill="#aed0f3"/>
        <rect id="Retângulo_237" data-name="Retângulo 237" width="12.843" height="4.031" transform="translate(11.969 31.083) rotate(-19.28)" fill="#aed0f3"/>
        <rect id="Retângulo_238" data-name="Retângulo 238" width="12.843" height="2.902" transform="matrix(0.944, -0.33, 0.33, 0.944, 13.878, 36.526)" fill="#aed0f3"/>
      </g>
      <path id="Caminho_892" data-name="Caminho 892" d="M1037.93,229.489l72.893,32.984-19.559-51.758Z" transform="translate(-562.036 -210.715)" fill="#e5605f"/>
      <path id="Caminho_893" data-name="Caminho 893" d="M593.744,596.911c-4.2-.591-7.278,3.21-4.2,6.42s2.911-2.047,3.168-3.241A28.1,28.1,0,0,1,593.744,596.911Z" transform="translate(-392.2 -356.567)" fill="#773024"/>
      <path id="Caminho_894" data-name="Caminho 894" d="M749.927,502.847c-2.569,1.279-.856,5.165,3,4.4s4.881-2.9,3.424-4.4S749.927,502.847,749.927,502.847Z" transform="translate(-452.789 -320.807)" fill="#773024"/>
      <g id="Grupo_479" data-name="Grupo 479" transform="translate(254.043 30.626)">
        <path id="Caminho_895" data-name="Caminho 895" d="M785.392,344.48c-10.7-5.141-5.781-11.75-2.67-10.218,2.771,1.365,15.832,25.195,18.34,25.3,12.195.537,24.134-4.849,24.134-4.849l2.317,6.6S806.8,367.6,800.2,365.995,785.392,344.48,785.392,344.48Z" transform="translate(-718.216 -287.923)" fill="#ffe5df"/>
        <path id="Caminho_896" data-name="Caminho 896" d="M903.708,607.549s2.312,3.755,3.251,5.54c.8,1.525,1.487,2.2-2,4.759-3.34,2.444-3.193,3.2-2.966,4.01l5.52-2.754s1.053-.515,3.765-1.864c2.567-1.276,1.044-3.427-.694-5.428-1.317-1.516-5.345-11.979-5.345-11.979l-2.961,5.064Z" transform="translate(-764.692 -388.32)" fill="#ffe5df"/>
        <path id="Caminho_897" data-name="Caminho 897" d="M914.052,627.532l-11.3,5.64-.695-1.355,11.3-5.64Z" transform="translate(-764.757 -398.271)" fill="#424242"/>
        <path id="Caminho_898" data-name="Caminho 898" d="M905.391,628.19l1.244,1.694,4.078-2.041-2.2-2.414Z" transform="translate(-766.016 -397.988)" fill="#5994a0"/>
        <path id="Caminho_899" data-name="Caminho 899" d="M852.888,610.759s.35,4.381.373,6.391c.02,1.718.321,2.629-3.962,3.358-4.1.7-4.313,1.442-4.479,2.263l6.185-.008s1.175.008,4.213.009c2.874,0,2.5-2.6,1.858-5.155-.484-1.939.7-13.07.7-13.07l-4.956,3.206Z" transform="translate(-743.137 -390.101)" fill="#ffe5df"/>
        <rect id="Retângulo_239" data-name="Retângulo 239" width="12.663" height="1.518" transform="matrix(1, -0.001, 0.001, 1, 101.684, 232.68)" fill="#424242"/>
        <path id="Caminho_900" data-name="Caminho 900" d="M850.251,629.875l.337,2.065,4.572-.01L854.3,628.8Z" transform="translate(-745.188 -399.26)" fill="#5994a0"/>
        <path id="Caminho_901" data-name="Caminho 901" d="M850.257,427.684s-2.917,60.458-1.849,64.028,5.4,50.787,5.4,50.787,4.3-3.632,8.37-2.917a4.386,4.386,0,0,0,5.055-3.358,10.584,10.584,0,0,0-.212-5.906c-1.169-3.307-1.805-5.881.08-14.769s-5.377-14.6-3.645-20.652,5.589-67.7,5.589-67.7Z" transform="translate(-744.404 -323.11)" fill="#415996"/>
        <path id="Caminho_902" data-name="Caminho 902" d="M851.5,427.684c-.5,10.874,3.33,48.753,5.343,60.528s27.543,53.637,27.543,53.637.935-4.012,4.472-5.324c4.068-1.51,4.847-2.715,4.847-2.715s2.685-2.167-3.29-7.28,2-11.119-5.655-16.254c-11.151-7.477,1.007-8.592-7.76-18.928-4.5-5.3.859-33.749-1.292-45.017a151.139,151.139,0,0,0-5.424-19.137Z" transform="translate(-745.642 -323.11)" fill="#233775"/>
        <path id="Caminho_903" data-name="Caminho 903" d="M901.074,600.928c1.233,2.2,2.051,3.408,2.051,3.408s1.288-4.089,4.948-5.014a7.48,7.48,0,0,0,4.477-2.81,2.811,2.811,0,0,0-.172-3.887c-1.434,1.306-3.678,1.809-7.09,3.579A9.349,9.349,0,0,0,901.074,600.928Z" transform="translate(-764.385 -385.597)" fill="#5876ca"/>
        <path id="Caminho_904" data-name="Caminho 904" d="M857.142,608.029l.245,2.993a8.854,8.854,0,0,1,5.9-2.667c3.881-.276,5.046-.655,6.025-1.9a10.363,10.363,0,0,0,1.309-4.046A12.587,12.587,0,0,1,864.145,605C859.836,605.209,857.955,606.646,857.142,608.029Z" transform="translate(-747.791 -389.292)" fill="#5876ca"/>
        <rect id="Retângulo_240" data-name="Retângulo 240" width="18.79" height="2.237" transform="matrix(1, -0.026, 0.026, 1, 105.795, 102.337)" fill="#ddd"/>
        <path id="Caminho_905" data-name="Caminho 905" d="M849.36,401.616c-2.259-5.7-3.582-3.663-2.081-14.173s-3.559-13.495-.067-18.915,14.739-4.967,21.373-3.328a4.236,4.236,0,0,1,1.562.749c4.812,3.653,3.483,17.714,2.691,24.93-.868,7.909-4.694,10.247-4.694,10.247Z" transform="translate(-743.566 -299.279)" fill="#5876ca"/>
        <path id="Caminho_906" data-name="Caminho 906" d="M857.851,352.794a59.35,59.35,0,0,1,.8,7.19s-.45,3.671,2.252,3.706,7.09-3.968,7.09-3.968l-3.521-7.8Z" transform="translate(-748.059 -294.68)" fill="#ffe5df"/>
        <path id="Caminho_907" data-name="Caminho 907" d="M864.1,339.778a7.845,7.845,0,0,0-5.766-9.512,7.948,7.948,0,0,0-9.14,6.444c-.932,4.406,2.171,10.4,5.435,11.077C857.945,348.468,863.172,344.184,864.1,339.778Z" transform="translate(-744.727 -286.442)" fill="#ffe5df"/>
        <path id="Caminho_908" data-name="Caminho 908" d="M848.968,338.122a20.708,20.708,0,0,0,7.068.854l1.317-2.851s-.306,9.518,3.93,17.345,14.383,13.585,14.383,13.585,7.028-.861,12.251-10.793c0,0-14-1.333-19.66-17.607-2.85-8.19-8.132-10-10.7-9.92s-5.342.212-7.312,3.253A8.7,8.7,0,0,0,848.968,338.122Z" transform="translate(-744.659 -285.918)" fill="#232323"/>
        <path id="Caminho_909" data-name="Caminho 909" d="M866.492,344.386c-.424,1.15,1.027,2.724,1.027,2.724s1.541-1.678,1.413-2.724S866.748,343.69,866.492,344.386Z" transform="translate(-751.293 -291.582)" fill="#ffe5df"/>
        <path id="Caminho_910" data-name="Caminho 910" d="M879.5,343.218c1.89,3.637,11.17,9.18,11.17,9.18l-1.862,2.47-9.308-4.91Z" transform="translate(-756.235 -291.39)" fill="#232323"/>
        <g id="Grupo_478" data-name="Grupo 478" transform="translate(0 4.003)">
          <path id="Caminho_911" data-name="Caminho 911" d="M717.41,309.636a18.781,18.781,0,0,1,.672,2.764c.2,3.815-36.667,7.211-36.667,7.211l12.812-13.652-12.216-10.1,29.6-4.864Z" transform="translate(-681.415 -275.669)" fill="#f38072"/>
          <path id="Caminho_912" data-name="Caminho 912" d="M735.34,319.573c.695,1.683,2.671.624,3.126,2.489l-1.345-5.528-1.79,1.108A6.634,6.634,0,0,0,735.34,319.573Z" transform="translate(-701.752 -285.314)" fill="#f38072"/>
          <path id="Caminho_913" data-name="Caminho 913" d="M751.1,268.864c-21.489-7.627-30.481,4.446-30.105,6.384s8.951,25.375,8.951,25.375.615-1.475,3.251-3.309,13.105-6.276,24.68-2.548Z" transform="translate(-696.362 -266.364)" fill="#f86e52"/>
        </g>
        <rect id="Retângulo_241" data-name="Retângulo 241" width="2.041" height="85.14" transform="translate(50.539 0.513) rotate(-14.549)" fill="#424242"/>
        <path id="Caminho_914" data-name="Caminho 914" d="M795.76,388.043c-11.847-1.166-9.548-9.049-6.091-8.674,3.078.334,23.7,18.228,26.087,17.475,11.628-3.662,21.73-13,21.73-13l3.7,5.611s-17.225,12.97-23.979,13.717S795.76,388.043,795.76,388.043Z" transform="translate(-721.253 -305.041)" fill="#ffe5df"/>
      </g>
      <g id="Grupo_480" data-name="Grupo 480" transform="translate(566.782 80.446)">
        <path id="Caminho_915" data-name="Caminho 915" d="M1220.1,353.032a18.49,18.49,0,0,0-24.164-11.875,18.086,18.086,0,0,0-2.3,33.011,16.844,16.844,0,0,1,8.257,9.986l.573,1.914,15.274-4.449-.572-1.913a16.373,16.373,0,0,1,1.383-12.717A17.913,17.913,0,0,0,1220.1,353.032Z" transform="translate(-1183.988 -339.992)" fill="#f3e2bc"/>
        <path id="Caminho_916" data-name="Caminho 916" d="M1213.018,392.82l-6.766-22.6-1.978.576a3.091,3.091,0,0,1-3.822-2.057l-.291-.972a2.993,2.993,0,0,1,.24-2.306,3.049,3.049,0,0,1,1.842-1.479,3.09,3.09,0,0,1,3.822,2.056l.874,2.918,4.2-1.225-.871-2.91a2.994,2.994,0,0,1,.24-2.306,3.054,3.054,0,0,1,1.843-1.478l.235-.068a3.087,3.087,0,0,1,3.823,2.056l.291.973a2.993,2.993,0,0,1-.24,2.306,3.05,3.05,0,0,1-1.842,1.479l-2.206.642,6.763,22.6-.978.292-6.765-22.6-4.2,1.225,6.763,22.6Zm-9.9-27.943a2.067,2.067,0,0,0-.584.084,2.041,2.041,0,0,0-1.232.986,1.984,1.984,0,0,0-.159,1.526l.29.973a2.066,2.066,0,0,0,2.561,1.368l1.97-.574-.871-2.91A2.057,2.057,0,0,0,1203.114,364.877Zm10.346-3.014a2.1,2.1,0,0,0-.584.084l-.235.068a2.046,2.046,0,0,0-1.232.986,1.983,1.983,0,0,0-.159,1.526l.872,2.917,2.214-.645a2.041,2.041,0,0,0,1.231-.986,1.987,1.987,0,0,0,.159-1.526l-.291-.973A2.059,2.059,0,0,0,1213.46,361.862Z" transform="translate(-1190.049 -347.867)"/>
        <path id="Caminho_917" data-name="Caminho 917" d="M1232.621,416.458s-2.1,2.46-8.61,4.357c-6.729,1.96-9.62.953-9.62.953l-3.073-10.266,18.231-5.311Z" transform="translate(-1194.311 -364.997)" fill="#424242"/>
      </g>
      <path id="Caminho_918" data-name="Caminho 918" d="M642.794,544.728c-8.279,13.5-8.481,27.424-10.9,30.248l-2.875,5.938s4.313.065,8.853-5.459,8.4-19.22,8.4-19.22l-3.332-10.709Z" transform="translate(-407.58 -336.88)" fill="#773024"/>
    </g>
  </g>
</svg>
