<svg id="_ÎÓÈ_1" data-name="—ÎÓÈ_1" xmlns="http://www.w3.org/2000/svg" xmlns:xlink="http://www.w3.org/1999/xlink" viewBox="0 0 434.68 332.84"><defs><style>.cls-1{fill:none;}.cls-2{opacity:1;}.cls-3{fill:#e5f0fd;opacity:0.7;isolation:isolate;}.cls-4{fill:#6f98f0;}.cls-5{fill:#2f74cc;}.cls-6{fill:#a25040;}.cls-7{fill:#8498f2;}.cls-8{fill:#20306a;}.cls-9{fill:#222;}.cls-10{fill:#fff;}.cls-11{fill:#394f8a;}.cls-12{clip-path:url(#clip-path);}.cls-13{fill:#e05554;}.cls-14{fill:#3a3a3a;}.cls-15{fill:#202020;}.cls-16{fill:#70402f;}.cls-17{fill:#e48268;}.cls-18{fill:#d7d7d7;}.cls-19{fill:#445b96;}.cls-20{fill:#667de4;}.cls-21{fill:#4e6bc2;}.cls-22{fill:#6c2a21;}.cls-23{fill:#f66348;}.cls-24{fill:#d9a693;}.cls-25{fill:#a3c9f0;}.cls-26{fill:#ffdad3;}.cls-27{fill:#333;}.cls-28{fill:#457d89;}.cls-29{fill:#32467f;}.cls-30{fill:#1d2b5f;}.cls-31{fill:#4460b9;}.cls-32{fill:#d0d0d0;}.cls-33{fill:#1d1d1d;}.cls-34{fill:#ed685c;}.cls-35{fill:#f4583f;}</style><clipPath id="clip-path"><path class="cls-1" d="M93.4,216.94c2.19,4.13,4.27,20.93,5.74,26.92s-2.35,3.47-4.31,5.22c-1.18,1-2,2.17-2.9,7.22-.57,3.1-3.58,3.73-5.28,6.65-1.35,2.33,3.38,4.08-2,8.95-3.89,3.55-.73,4.25,1.95,6.47,3.89,3.22,6.35,1.5,6.35,1.5s16.94-19.44,20.62-26.25.76-8.26,0-15.24c-.38-3.42-4.54-15.21-5.9-18.45-5-11.85-4.14-9.28-4.14-9.28l-8-4Z"/></clipPath></defs><g id="ilustracao_Home_01" data-name="ilustracao Home 01" class="cls-2"><path id="Path_774" data-name="Path 774" class="cls-3" d="M11,296.59C3.31,257.74-23.18,162.25,50.12,132s105.66,18.53,148-35.6,51.35-82.14,107.93-66.84,127.31,47.24,128.6,117.23-51.54,147.52-51.54,147.52Z"/><g id="Group_481" data-name="Group 481"><rect id="Rectangle_226" data-name="Rectangle 226" class="cls-4" x="313.79" y="236.85" width="47.38" height="46.74"/><rect id="Rectangle_228" data-name="Rectangle 228" class="cls-4" x="1" y="283.58" width="192.58" height="11.8"/><path id="Path_775" data-name="Path 775" class="cls-5" d="M361.17,295.39H247.68v-11.8H361.17Z"/><g id="Group_469" data-name="Group 469"><path id="Path_776" data-name="Path 776" class="cls-6" d="M123,278.9c-.73.89-.76,1.56,2.1,2.08s2,1,2.11,1.55l-3.25,0-2.81,0c-1.92,0-1.67-1.75-1.25-3.47.32-1.3,3.82-8.76,3.82-8.76l4,1.7S124.43,277.14,123,278.9Z"/><rect id="Rectangle_230" data-name="Rectangle 230" class="cls-7" x="123.21" y="278.75" width="1.02" height="8.59" transform="translate(-159.89 405.45) rotate(-89.74)"/><path id="Path_777" data-name="Path 777" class="cls-8" d="M103.84,224.76c6.3,2.53,15.69,16.05,20.7,21.21s-5.18,4.11-3.62,9.08c1,3.05-3.44,3-4,6.19-.41,2.55,4.39,1.3.4,7.36-2.9,4.4,1.32,4.1,3.77,7.13,2.33,2.87,7.8,2.35,7.8,2.35s8.59-18.92,9.48-26.31-1.37-10.36-6-16.65c-2.29-3.08-10.32-5.37-13.73-8C106.2,217.48,105,210.55,105,210.55s-9.75-2.53-10.22.65a27.1,27.1,0,0,0,.62,9.62Z"/><path id="Path_778" data-name="Path 778" class="cls-9" d="M128,282.55s.19-.92-1.43-1.38-3.85-1.24-3.85-1.24-.34-.74-.18-1.1c.61-1.32-1.48-1.55-1.53-.22,0,.82-.22,1-.22,1l-1.4.12,0,2.77Z"/><path id="Path_779" data-name="Path 779" class="cls-10" d="M124.69,282a.44.44,0,0,1-.44-.44.41.41,0,0,1,.15-.32,4.25,4.25,0,0,1,1.83-.77.44.44,0,1,1,.19.85,3.73,3.73,0,0,0-1.45.57A.43.43,0,0,1,124.69,282Z"/><path id="Path_780" data-name="Path 780" class="cls-10" d="M122.9,281.51a.43.43,0,0,1-.43-.43.44.44,0,0,1,.14-.33,4.22,4.22,0,0,1,1.84-.76.42.42,0,0,1,.51.33.43.43,0,0,1-.33.52,3.64,3.64,0,0,0-1.45.57A.42.42,0,0,1,122.9,281.51Z"/><path id="Path_781" data-name="Path 781" class="cls-10" d="M121.26,280.84a.43.43,0,0,1-.43-.43.44.44,0,0,1,.14-.33,4.27,4.27,0,0,1,1.84-.76.42.42,0,0,1,.53.3.45.45,0,0,1-.31.54h0a3.81,3.81,0,0,0-1.45.58A.42.42,0,0,1,121.26,280.84Z"/><path id="Path_782" data-name="Path 782" class="cls-6" d="M85.55,279.58c-.73.89-.75,1.56,2.1,2.08s2,1,2.11,1.55l-3.24,0-2.81,0c-1.92,0-1.67-1.75-1.25-3.47.32-1.3,3.82-8.76,3.82-8.76l4,1.7S87,277.82,85.55,279.58Z"/><path id="Path_783" data-name="Path 783" class="cls-7" d="M82,283.58h8.59v-1l-8.59,0Z"/><path id="Path_784" data-name="Path 784" class="cls-9" d="M90.61,282.55s.2-.92-1.43-1.38-3.85-1.24-3.85-1.24-.33-.74-.17-1.1c.6-1.32-1.49-1.55-1.54-.22,0,.82-.22,1-.22,1l-1.4.12,0,2.77Z"/><path id="Path_785" data-name="Path 785" class="cls-11" d="M93.41,216.94c2.18,4.13,4.26,20.93,5.73,26.92s-2.35,3.47-4.31,5.22c-1.18,1-2,2.17-2.9,7.22-.57,3.1-3.58,3.73-5.28,6.65-1.35,2.33,3.38,4.08-2,8.95-3.89,3.55-.72,4.25,1.95,6.47,3.89,3.22,6.35,1.5,6.35,1.5s16.94-19.44,20.62-26.25,1.94-8.85,1.18-15.83c-.38-3.42-5.72-14.62-7.08-17.86-5-11.85-4.14-9.28-4.14-9.28l-4-5.86Z"/><g id="Group_468" data-name="Group 468"><g class="cls-12"><g id="Group_467" data-name="Group 467"><path id="Path_786" data-name="Path 786" class="cls-10" d="M82.86,280.5a1.79,1.79,0,0,1-1.15-.44.44.44,0,1,1,.58-.65h0a.81.81,0,0,0,.75.18c.32-.1.93-.58,1.38-2.64s2.14-3.12,3.61-4c1.78-1,3.32-2,2.87-4.69-.87-5.26,0-7.24,3.94-8.83,2.16-.87,2-2.84,1.83-4.93a10.21,10.21,0,0,1,0-2.59c.26-1.48,2-1.86,3.48-2.2,1.73-.39,2.78-.7,2.74-1.68,0-.67-.37-3-.83-6.23-1.38-9.68-4-27.7-3.36-36.16a.43.43,0,0,1,.46-.4.45.45,0,0,1,.41.47c-.6,8.36,2,26.32,3.35,36,.49,3.38.8,5.6.84,6.32.07,1.78-1.78,2.2-3.42,2.57-1.37.31-2.66.6-2.82,1.51a10.44,10.44,0,0,0,0,2.37c.17,2.09.38,4.69-2.37,5.8-3.32,1.34-4.27,2.66-3.41,7.88.55,3.31-1.49,4.52-3.29,5.58-1.45.86-2.81,1.67-3.2,3.44-.43,1.92-1.07,3-2,3.28A1.41,1.41,0,0,1,82.86,280.5Z"/></g></g></g><path id="Path_788" data-name="Path 788" class="cls-6" d="M120.8,189.82c-.34,7.51,4,33.77,3.52,39.4-.81,9.06-5.88,9.37-7.5,9.84s-1.72-3.28-1.72-3.28l3.47-6.6s-1.85-30.77-1.75-32.47S120.8,189.82,120.8,189.82Z"/><path id="Path_789" data-name="Path 789" class="cls-10" d="M119.05,198.7c-6.66,14.89-2.49,26,2.55,29.16s-7.5-.46-13.07.7-3.94,4.54-8.1,5.1-5.9-5.37-8-12.28c-2.86-9.51,7-30.95,9.67-35,3.66-5.49,14-3.46,17.75,1.11C122.5,190.7,120.12,196.31,119.05,198.7Z"/><path id="Path_790" data-name="Path 790" class="cls-13" d="M63.58,316.64l-13.35-1.95c3.93-26.92,12.69-49.85,25.32-66.29,11.34-14.76,25.5-23.59,38.87-24.21l.63,13.48C95.56,238.58,70.89,266.57,63.58,316.64Z"/><path id="Path_791" data-name="Path 791" class="cls-8" d="M117,199.11c-3,4.43-4.79,13.09-3.79,15.78,0,0-8.14,2-9,1.83s-.48-16.21-.48-16.42,2.27-4.61,2.87-4.86S117,199.11,117,199.11Z"/><path id="Path_792" data-name="Path 792" class="cls-6" d="M116.82,236.74c-6.22,2.63-6.26,1.34-8.7.17S98.34,221.09,97,213.59s4.06-24.77,5.91-27.35c2.48-3.45,8.47-2.69,7,4.34s-6.44,17.69-6,21.84,6.93,22.18,7.71,22.72a8.19,8.19,0,0,0,2,.85Z"/><path id="Path_793" data-name="Path 793" class="cls-6" d="M119.55,187.52c-.11-.12-1.33-1.91-1.33-1.91l1.56-4-.57-1.37-4.63-3.59-4.33,6.43s3.88,3.23,5.36,3.82A13.19,13.19,0,0,0,119.55,187.52Z"/><path id="Path_794" data-name="Path 794" class="cls-6" d="M113,178.05a5.34,5.34,0,0,1,1.2-7.45l.11-.08a5.6,5.6,0,0,1,7.77.69c1.78,2.28,1.31,6.85-.68,8.34S114.77,180.32,113,178.05Z"/><path id="Path_795" data-name="Path 795" class="cls-14" d="M121.41,170.58c.21,2.59-4.4,1.26-4.6,1.77,0,0,.63,3.57,1.2,4.33l-.93.33s-.86-1.46-1.45-1.27-.28,1.19.27,1.58-.8,1.06-.8,1.06a4.93,4.93,0,0,1-2.28-2.79c-.45-1.81-1.26-6-1.26-6s6-2.58,6.06-3.39C117.62,166.25,121.28,169,121.41,170.58Z"/><path id="Path_796" data-name="Path 796" class="cls-10" d="M88.6,282.42a.44.44,0,0,1-.44-.43.45.45,0,0,1,.15-.33,4.23,4.23,0,0,1,1.83-.76.43.43,0,0,1,.52.33.44.44,0,0,1-.33.52,3.64,3.64,0,0,0-1.45.57A.42.42,0,0,1,88.6,282.42Z"/><path id="Path_797" data-name="Path 797" class="cls-10" d="M86.81,281.93a.42.42,0,0,1-.43-.43.43.43,0,0,1,.14-.32,4.28,4.28,0,0,1,1.84-.77.43.43,0,1,1,.22.84h0a3.64,3.64,0,0,0-1.45.57A.37.37,0,0,1,86.81,281.93Z"/><path id="Path_798" data-name="Path 798" class="cls-10" d="M85.17,281.27a.44.44,0,0,1-.29-.76,4.25,4.25,0,0,1,1.83-.77.44.44,0,0,1,.52.33.43.43,0,0,1-.33.52,3.66,3.66,0,0,0-1.45.58A.48.48,0,0,1,85.17,281.27Z"/></g><rect id="Rectangle_231" data-name="Rectangle 231" class="cls-5" x="164" y="179.49" width="47.38" height="57.41"/><rect id="Rectangle_232" data-name="Rectangle 232" class="cls-4" x="238.9" y="179.12" width="47.38" height="104.46"/><path id="Path_799" data-name="Path 799" class="cls-13" d="M112.87,237.93l-.94-13.46c23.42-1.63,28.51-15.46,35.49-39.75,5.12-17.82,10.92-38,29.7-51.42,17.72-12.63,43.59-8.31,57.49-6,2.88.48,5.6.94,6.84,1,54.78,1.93,79.18-27.77,124.71-118l12,6.08c-22,43.69-41,77-62,97.6-20.71,20.32-43.9,28.88-75.2,27.78a73.21,73.21,0,0,1-8.59-1.15c-12-2-34.27-5.72-47.44,3.68C170,155,165.12,172,160.39,188.44c-3.39,11.79-6.59,22.93-13.21,32C139.38,231.15,128.16,236.87,112.87,237.93Z"/><path id="Path_800" data-name="Path 800" class="cls-6" d="M115.6,239.06c-5.6-.42-5.35-6.21-3.64-7.56,2.88-2.28,4.11-.83,4.6,1.93s1.52,3,1.52,3-.45-2.86.16-3.8,2.5,2.89,3.22,3.47S117,239.16,115.6,239.06Z"/><g id="Group_470" data-name="Group 470"><path id="Path_801" data-name="Path 801" class="cls-10" d="M342.63,227.41s.32,3,.37,4.33c0,1.16.26,1.78-2.63,2.34s-2.88,1.57-3,2.13c0,0,6.53,0,8.59,0,0,0-.18-5.56-.18-6.33,0-1.35,0-6.76,0-6.76l-3.3,2.26Z"/><path id="Path_802" data-name="Path 802" class="cls-11" d="M354.64,147.58c.23.83,5.77,9.07,5.73,10.28-.78,22.31-6.7,33.23-6.52,35.64.2,2.69,8.92,10.1,8.22,15.09s2.14,7.72,2.5,10.17-1.45,5.91.48,8.74-4.79,4.54-4.79,4.54-14.53-26.76-16-32.95c-1.09-4.62-3.8-42.29-3.8-42.29S353.69,144.17,354.64,147.58Z"/><rect id="Rectangle_233" data-name="Rectangle 233" class="cls-15" x="337.39" y="236.21" width="8.59" height="0.63"/><path id="Path_803" data-name="Path 803" class="cls-8" d="M340.1,148s-1.89,44.5-1.16,47.13S343,232.49,343,232.49s2.6-2.66,5.36-2.13a3,3,0,0,0,3.42-2.45v0a8.41,8.41,0,0,0-.15-4.34c-.8-2.44-1.24-4.34,0-10.87s-3.67-10.76-2.5-15.21,11.22-39.61,11.22-39.61Z"/><path id="Path_804" data-name="Path 804" class="cls-10" d="M359.44,230.51l1.29,2.28s-4.17,1.63-4.39,2.17a3.38,3.38,0,0,0,0,1.58l4.85-.73,3.86-1.89L363,229.3Z"/><path id="Path_805" data-name="Path 805" class="cls-9" d="M365.24,234.19,361.4,236l-5,.83-.17-.76,5-.83,3.63-1.75Z"/><path id="Path_806" data-name="Path 806" class="cls-10" d="M358.3,121.1c2.11,5.15,3.25,36.05.81,50.62-.35,2.13-5.84,2.29-10.95,1.51-.9-.14-1.47-10.59-1.47-10.59s-3.23,9.58-4.1,9.28c-2-.7-3.37-1.54-3.31-2.39.84-10.74-.87-47.1-.87-47.1C345.92,120.49,356.1,115.72,358.3,121.1Z"/><path id="Path_807" data-name="Path 807" class="cls-10" d="M358.3,121.1c-3.38-11.32-12.38-49.51-12.61-50.41l-4.38.62a66.31,66.31,0,0,0,.65,7.17c.66,5.37,2.84,9.71,2.65,12.87s.1,8.93,2.21,12.28c3.6,5.7,4.71,20.83,4.71,20.83Z"/><path id="Path_808" data-name="Path 808" class="cls-10" d="M339.6,122.1c-2.23.16-13.63,1.64-14.93.56s-7.43-15.34-7.43-15.34l-2.28,2.3s-1.77,4.47-.42,5.81-1.35,7.18,2.22,7.72,4,7.29,7.56,7.86a119.65,119.65,0,0,0,17,1.77Z"/><path id="Path_809" data-name="Path 809" class="cls-16" d="M351,119.56a23.22,23.22,0,0,1-7.31,1.53l-.56-8.6,4.19-1.12Z"/><path id="Path_810" data-name="Path 810" class="cls-16" d="M340.08,106.16a5.45,5.45,0,0,1,7.55-1,5.28,5.28,0,0,1,.45,7.45l-.05.05c-2,2.35-6.51,3.27-8.25,1.84S338.11,108.51,340.08,106.16Z"/><path id="Path_811" data-name="Path 811" class="cls-9" d="M348.66,114.46c-2.44.24-4.64-.23-4.83-.56a24.86,24.86,0,0,1-.68-2.53,1.25,1.25,0,0,0,.58-1.65l-.06-.11c-.26-.56-.91-1-1.34-.33a5.19,5.19,0,0,0-.49,1.94h-1s-.14-2.12-.24-2.52-1.64-.56-1.64-.56-2.12-2.11-2.11-4.38,5-3.65,6.4-1.68a4.29,4.29,0,0,1,3.65-1,2.54,2.54,0,0,1,1.95,3c0,.11-.06.22-.1.33s2.88-.54,2.85,1.42-1.21,2.37-1.21,2.37Z"/><path id="Path_812" data-name="Path 812" class="cls-16" d="M345.69,70.7s-.33-5.46-2-7.1c-.77-.77-3.77-1.46-3.15,2.49.32,2.07.74,5.22.74,5.22Z"/><path id="Path_813" data-name="Path 813" class="cls-16" d="M317.24,107.32c-.25-1.64,1.18-3.79-.57-5.54s-3.45,1.33-2.7,2.77-.48,3,1,5.06Z"/><path id="Path_814" data-name="Path 814" class="cls-16" d="M341.31,71.31c-1-1.37-2.12-3.17-1.49-3.06a2.51,2.51,0,0,1,1.18.68l1.09,1.36Z"/><path id="Path_815" data-name="Path 815" class="cls-16" d="M317.42,104a11.78,11.78,0,0,1,.87-1.26c.17-.12.32.62-.4,2s-.65,1.6-.65,1.6Z"/></g><g id="Group_472" data-name="Group 472"><path id="Path_816" data-name="Path 816" class="cls-17" d="M354.68,283.71c-.57-.27-.72-.67.14-2.22l1.05-1.9,6.25,1,1,3.18Z"/><path id="Path_817" data-name="Path 817" class="cls-18" d="M363.57,275c.92-1.53,1.62-1.3,1.62-1.3H366s0,8.4-.05,10.06h-2.81l-1-3.18a.05.05,0,0,0,0,0C362.54,280.06,362.65,276.49,363.57,275Z"/><rect id="Rectangle_234" data-name="Rectangle 234" class="cls-9" x="360.41" y="278.2" width="10.06" height="0.97" transform="translate(84.93 642.73) rotate(-89.71)"/><path id="Path_818" data-name="Path 818" class="cls-19" d="M328.75,276.49l3.59-1.25.74,1s1.39,1.78,1.81,2.26l-2.77,1.57Z"/><path id="Path_819" data-name="Path 819" class="cls-20" d="M340.32,278.88c1.6.54,1.48,1.26,1.48,1.26l.14.69-9.39,1.62-.43-2.4,2.77-1.57,0,0C335.3,279,338.73,278.33,340.32,278.88Z"/><path id="Path_820" data-name="Path 820" class="cls-9" d="M332.39,281.57l9.39-1.62.16.88-9.39,1.62Z"/><path id="Path_821" data-name="Path 821" class="cls-21" d="M272.94,283.15c1.67,1.09,4.77,1.29,6.5-.67l17.65-20c3.6-3.21,6.4-5.26,7.28-3s-.06,4,3.3,5.66,4.64,2.5,5.26,5.25c.88,3.9,5,1.75,6.67,4.53s3,5.13,7.83,3.72,5.32-2.94,5.32-2.94-19.53-24.59-23.2-28.56-6.37-4-10.92-.5c-3.85,3-14.58,12.44-20.8,17.61C274.57,267,269.76,281.09,272.94,283.15Z"/><path id="Path_822" data-name="Path 822" class="cls-17" d="M293.2,246.51c.93-2.85,2.4-4,3-3.71.25.12-.65,1.09-.53,1.31a17.43,17.43,0,0,0,4.39,0c.75-.14,2.64.36.26,1a13,13,0,0,0-4.34,2.29Z"/><path id="Path_823" data-name="Path 823" class="cls-17" d="M274.55,236.49l.42-3.66-1-2-5.55-2.53-1.15,6.93Z"/><path id="Path_824" data-name="Path 824" class="cls-11" d="M296,247.43c-7,11.15-9.12,16.26-12.33,18.43S264,245.41,264,245.41l2.37-3.29c5.8-.25,10.27,17.94,12.54,16,.73-.62,1.73-.06,1.9-.55.85-2.59,2-.72,3.1-2,2-2.42,9.44-9.64,9.44-9.64Z"/><path id="Path_825" data-name="Path 825" class="cls-11" d="M270.17,284c9.83.26,40.3.5,43.43,0s11.42,5.94,16.9,3.86,9.46.25,12.37,0,6.28-3.12,10.1-1.8,3.69-6.31,3.69-6.31-35-8.46-42.5-8.39c-5.6.06-48.39-1-48.39-1S266,283.85,270.17,284Z"/><path id="Path_826" data-name="Path 826" class="cls-8" d="M282.35,241.35c-.45,6.73,3.9,27.21,4,29.49-6.8,2.5-7.17,4.51-9.34,7.9-2.72,4.25-8,4.26-8,4.26-4.55-3.2-2.55-4-6.84-31.34-1.25-7.93-1.62-14.33,9.6-14.8a21.56,21.56,0,0,1,7.78,1.37Z"/><path id="Path_827" data-name="Path 827" class="cls-14" d="M276.12,238.67l-.92-2.75-7.94-.71-2.48,3.5Z"/><path id="Path_828" data-name="Path 828" class="cls-17" d="M267.82,227.91a5.29,5.29,0,0,1,2-7.21l.06,0a5.44,5.44,0,0,1,7.16,2.58c1.42,2.71.49,7.19-1.52,8.21S269.24,230.62,267.82,227.91Z"/><path id="Path_829" data-name="Path 829" class="cls-14" d="M272.74,218.92a17.17,17.17,0,0,1,2.69,2.42s0,2,0,3.13-1.36,2.56-1.6,2.76c0,0-.57-.92-1.29-.75s-.43,1.37.33,1.7-.14,2.29-.8,2.33a31.35,31.35,0,0,1-3.92-.91s-1.76-4.8-2.37-5.89C267,220.47,269,218.61,272.74,218.92Z"/><g id="Group_471" data-name="Group 471"><path id="Path_830" data-name="Path 830" class="cls-9" d="M320.32,243.87a1,1,0,0,1-.89.5H293.7a.45.45,0,0,1-.5-.42.22.22,0,0,1,0-.08v-.41l26.22-.1,6.52-11.11c.15-.25.1-.17.2-.35.54.31.75.72.51,1.18Z"/><path id="Path_831" data-name="Path 831" class="cls-14" d="M311.51,232.19l14.64-.29-6.74,11.47-15.07.06Z"/><path id="Path_832" data-name="Path 832" class="cls-10" d="M325,232.53l-13.08.26-6.39,10,13.47-.05Z"/></g><path id="Path_833" data-name="Path 833" class="cls-17" d="M313,247.78c2.61-1,2.28-.34,6.29-2.16,2.43-1.1.48-2.32-1.5-1.74s-1.9-.62-1.9-.62.52-1.06.13-1.18-.94.51-1.2,1.3-3.48,2.42-3.48,2.42Z"/><path id="Path_834" data-name="Path 834" class="cls-8" d="M312.21,245.32c1.57.59,1.24,2.52,2.22,4.14,0,0-15.86,6.85-17.74,7.61s-3.46-.28-5.7-1.87-13-4.24-14.3-5.11-1.58-13.14,3.24-10.39c1.83,1,7.26,3.11,11.56,6.39,2.35,1.79,3,2.25,3.07,3.11.2,1.68,2.21-.39,3.06-.1s.79,1.3,2.22.88S312.21,245.32,312.21,245.32Z"/><path id="Path_835" data-name="Path 835" class="cls-13" d="M319.15,233.77l-2.88,4.59h-2l3-4.59Z"/><path id="Path_836" data-name="Path 836" class="cls-13" d="M313.12,241.41c.38.33,1.13.11,1.69-.5s.71-1.38.33-1.71-1.13-.11-1.69.5S312.75,241.08,313.12,241.41Z"/></g><g id="Group_474" data-name="Group 474"><path id="Path_840" data-name="Path 840" class="cls-22" d="M190.59,140.38c4.35,0,10.21-2.57,10.77-2.67a58.55,58.55,0,0,1,9.17-.61s-12.4,6.59-17.32,8.35-3-2.59-3-2.59Z"/><path id="Path_841" data-name="Path 841" class="cls-22" d="M177.49,150.72c.5-3.17-1.42-9.16,0-9.78s13-.89,14.49-.37,1.22,4.79,1.22,5.29l-3.84,6.08Z"/><path id="Path_842" data-name="Path 842" class="cls-22" d="M234.65,191.33l3.93-.65.58,1.14s1.1,2.09,1.44,2.66l-3.13,1.12Z"/><path id="Path_843" data-name="Path 843" class="cls-10" d="M246.13,195.85c1.54.85,1.29,1.56,1.29,1.56l0,.73h-10V195.6l3.13-1.12,0,0C241,195,244.59,195,246.13,195.85Z"/><rect id="Rectangle_235" data-name="Rectangle 235" class="cls-9" x="237.47" y="197.21" width="9.96" height="0.94"/><path id="Path_844" data-name="Path 844" class="cls-9" d="M244.23,196.79a.42.42,0,0,1-.43-.42.44.44,0,0,1,.11-.29l.85-1a.44.44,0,0,1,.61,0,.43.43,0,0,1,0,.58l-.86,1A.41.41,0,0,1,244.23,196.79Z"/><path id="Path_845" data-name="Path 845" class="cls-9" d="M242.52,196.51a.42.42,0,0,1-.42-.43.37.37,0,0,1,.11-.28l.85-1a.43.43,0,0,1,.6,0,.42.42,0,0,1,0,.58l-.85,1A.43.43,0,0,1,242.52,196.51Z"/><path id="Path_846" data-name="Path 846" class="cls-9" d="M240.87,196.29a.44.44,0,0,1-.43-.43.49.49,0,0,1,.11-.29l.86-.95a.43.43,0,0,1,.6,0,.42.42,0,0,1,0,.6h0l-.85.95A.48.48,0,0,1,240.87,196.29Z"/><path id="Path_847" data-name="Path 847" class="cls-22" d="M185.34,136a5.14,5.14,0,0,1,.53-7.26l.06-.06a5.33,5.33,0,0,1,7.35,1.18c1.86,2.35,1.81,6.81.07,8.16S187.2,138.37,185.34,136Z"/><path id="Path_848" data-name="Path 848" class="cls-22" d="M218.48,213.69l3.47,1.94-.27,1.24s-.48,2.31-.57,3L218,218.77Z"/><path id="Path_849" data-name="Path 849" class="cls-10" d="M224.53,224.34c.65,1.61,0,2,0,2l-.45.58-7.75-6.19,1.63-2,3.15,1.07v0C221,220.49,223.87,222.72,224.53,224.34Z"/><path id="Path_850" data-name="Path 850" class="cls-9" d="M216.93,220l7.74,6.18-.6.73-7.74-6.19Z"/><path id="Path_851" data-name="Path 851" class="cls-9" d="M222.93,224a.44.44,0,0,1-.42-.43.42.42,0,0,1,.36-.42l1.27-.21a.42.42,0,0,1,.5.33.42.42,0,0,1-.33.51h0L223,224Z"/><path id="Path_852" data-name="Path 852" class="cls-9" d="M221.62,222.8a.43.43,0,0,1-.07-.85l1.27-.21a.44.44,0,0,1,.49.36.43.43,0,0,1-.35.49l-1.27.2Z"/><path id="Path_853" data-name="Path 853" class="cls-9" d="M220.51,221.27a.43.43,0,0,1-.07-.85l1.28-.21a.43.43,0,0,1,.47.38.43.43,0,0,1-.34.47l-1.27.2Z"/><path id="Path_854" data-name="Path 854" class="cls-21" d="M219.05,173.44c0,2.4-2.8,3,.08,5.37s3.93,3.44,4,6.14c0,3.82,4.46,2.83,5.47,5.8s-.1,3.88,4.8,3.73,6.68-1,6.68-1-9.61-19.84-12.27-25.43c-2.47-5.2-5.36-5.89-13.51-4.78a260.64,260.64,0,0,1-29,2.13S219.07,171.12,219.05,173.44Z"/><path id="Path_855" data-name="Path 855" class="cls-8" d="M174.83,174.89c.29,2.05,2.25,4.6,5,4.6h28.08c5,.59,8.6,1.36,7.37,3.61s-3.22,2.7-2.25,6.46,1.19,5.32-.58,7.69c-2.51,3.36,2.05,5.1,1,8.3s-2,5.89,2.4,8.64,6,2.11,6,2.11,6.23-32.07,6.88-37.64-1.17-7.71-7.1-8.83c-5-1-19.95-2.79-28.35-4.08-4.4-.67-6.5-11.19-14.23-8.75C179,157,174.3,171,174.83,174.89Z"/><path id="Path_856" data-name="Path 856" class="cls-21" d="M177.49,150.72c.1-.56-1.37,14-2.49,21.18,0,0,2.18-3.72,5.22-3.06s5.24-2.65,8.35-2.14,5.4-4.16,5.4-4.16-.1-11.81-.42-14.49-.54-2.74-.54-2.74C188,145.17,177.49,150.72,177.49,150.72Z"/><path id="Path_857" data-name="Path 857" class="cls-22" d="M181.48,142.57a79.5,79.5,0,0,1,5.89-7.54l3.16,3.54-.63,3.61Z"/><path id="Path_858" data-name="Path 858" class="cls-9" d="M185.41,138.85c-4.91,5.36-21,.38-18.22-14.6,2.17-11.78,21-13.27,24.84-1.93a5.85,5.85,0,0,1-.05,3.49c2.23-.12,4.07.25,4.11,1.63.08,3-3.5,3.65-5.16,3.58-2.07-.09-1.61-1.13-2.33-.73-1.12.61-.68,4.51-.95,4.94s-1.23-1.09-2.19-.93.13,1.82.68,2.14S186,138.17,185.41,138.85Z"/><path id="Path_859" data-name="Path 859" class="cls-23" d="M186.61,134.72c-1.2-4.51,1.76-7.78,5.37-8.91a5.91,5.91,0,0,0-4.48.65c-2,1.35-3,5-1.7,7.85Z"/><path id="Path_860" data-name="Path 860" class="cls-21" d="M181,140.74c2.1-.1,4.93,6.19,4.93,6.19l.5-.18a32.92,32.92,0,0,0-2.35-4.18c-1.68-2.45-2.78-2.28-2.78-2.28Z"/><path id="Path_861" data-name="Path 861" class="cls-21" d="M190.18,140.35a18.34,18.34,0,0,1,2,5l.38,0s-1-3.91-2-4.92Z"/></g><g id="Group_475" data-name="Group 475"><rect id="Rectangle_236" data-name="Rectangle 236" class="cls-5" x="164" y="236.6" width="47.38" height="46.74"/><path id="Path_862" data-name="Path 862" class="cls-24" d="M183.07,248.14c4.16,4.55,8.71,13,10.11,13.61s13.76-6.27,13.76-6.27l.75,2.63s-13.14,8.06-15.06,8.87-11.39-12.91-11.39-12.91Z"/><path id="Path_863" data-name="Path 863" class="cls-24" d="M214.66,321.61l4,.84.12,1.3s.26,2.39.36,3.06l-3.41-.09Z"/><path id="Path_864" data-name="Path 864" class="cls-14" d="M223.86,330.17c1.14,1.38.63,2,.63,2l-.27.7-9.48-3.7,1-2.42,3.4.09v0C219.23,327.47,222.72,328.79,223.86,330.17Z"/><path id="Path_865" data-name="Path 865" class="cls-24" d="M195.72,242.36a5.31,5.31,0,0,0-4-6.36h0a5.39,5.39,0,0,0-6.1,4.5c-.56,3,1.63,7,3.85,7.43S195.16,245.36,195.72,242.36Z"/><path id="Path_866" data-name="Path 866" class="cls-11" d="M176.08,283.58c6.81-.4,13.13,4.9,20,7.54s7.86,4.59,7.54,7.29c-.2,1.63-2.12,2.25,1.71,6.08,6.05,6.07,1.06.54,1.16,11.4.05,5.43,4.94,6.16,8.52,7.91,3.41,1.67,8.08-1.22,8.08-1.22s-6.37-23.15-9-30.48-4.68-10.77-11.76-14.62a59.73,59.73,0,0,0-13.25-5.07c-15.57-3.57-18.5-2.67-18.5-2.67l-14.2,4.85a12.48,12.48,0,0,0,.77,5.06c1.57,4.76,9.53,3.93,9.53,3.93Z"/><path id="Path_867" data-name="Path 867" class="cls-8" d="M180.69,270.67c13.36,2,24.21.44,29.07,1.84,3.49,1,5,6.46,2.89,8.73-2.93,3.16-7.08,2.57-25.52,10.34,1.81-2.74-6.92-7.63,0-11.81,3-1.78,5.86,1.88,5.73-1.59-.07-1.76,8.1-1.42,8.1-1.42Z"/><path id="Path_868" data-name="Path 868" class="cls-15" d="M214.74,329.14l.35-.88,9.4,3.88-.27.7Z"/><path id="Path_869" data-name="Path 869" class="cls-8" d="M184.49,282.88c.87-1.69,2.43-2.47,2.4-1s-.24,3.32.24,4.11,1.47,5,0,5.57-1.67-3.08-2.22-5.23A11.31,11.31,0,0,1,184.49,282.88Z"/><path id="Path_870" data-name="Path 870" class="cls-24" d="M186.88,281.9a12.1,12.1,0,0,0,.25,4.11l-2,.67s-2.22,1-2.84,1.31l-3-2.55Z"/><path id="Path_871" data-name="Path 871" class="cls-14" d="M185.18,292c.44,1.72-.28,2-.28,2l-.54.53-7-7.33,1.92-1.78,3.62,2.27h0C182.73,288.32,184.74,290.25,185.18,292Z"/><path id="Path_872" data-name="Path 872" class="cls-15" d="M177.37,287.22l.7-.64L184.9,294l-.6.59Z"/><path id="Path_873" data-name="Path 873" class="cls-11" d="M156.4,274.59l14.2-4.85h0l-13.22.24Z"/><path id="Path_874" data-name="Path 874" class="cls-10" d="M157.38,270s5.5-13.6,8-17.75c5.68-9.29,16-8.19,19.51-3.59,1.74,2.32-.63,8.64-2.75,10.6-4.28,3.94-10.72,10.5-10.72,10.5Z"/><path id="Path_875" data-name="Path 875" class="cls-24" d="M168.76,249.88c-3.29,2.83-5.73,10.2-3.52,9.83,6.68-1.11,8.12-7,9.13-9.4S172.71,246.49,168.76,249.88Z"/><path id="Path_876" data-name="Path 876" class="cls-18" d="M207.51,261.09l-10.43,12.39h13.16l10-12.39Z"/><path id="Path_877" data-name="Path 877" class="cls-24" d="M167.46,255.1c.32,2.65,6.15,14.42,9.28,19.49.53.86,1.72,2.55,3.26,2.43,6.1-.49,15.25-3.88,17.08-4.42,2.88-.85,4.33.3,6-.74s2.68-4.19.71-3.65a16.11,16.11,0,0,0-3.49,1.43s1.35-1.28,1-1.74-1.79,1.1-2.23,1.45c-.9.73-16.25,2.95-17.82,2.82s-5.59-21.55-6.72-23.25S167.46,255.1,167.46,255.1Z"/><path id="Path_878" data-name="Path 878" class="cls-24" d="M206.12,256c1.78-1.48,3-.76,3.95.8s-.57,2.95-1,2.25a2.09,2.09,0,0,0-1.35-.84Z"/><path id="Path_879" data-name="Path 879" class="cls-9" d="M209.72,260.29a.44.44,0,0,1-.35-.17l-4.18-5.45a.44.44,0,0,1,.11-.61.45.45,0,0,1,.58.08l4.18,5.45a.43.43,0,0,1-.08.61.48.48,0,0,1-.26.09Z"/><path id="Path_880" data-name="Path 880" class="cls-24" d="M206.85,258.38c1.23-.09,2.46-.82,1.55-1.12a6.59,6.59,0,0,0-1.92-.31Z"/><path id="Path_881" data-name="Path 881" class="cls-24" d="M178,245.17c-1,.57.21,8.28,3.3,10.38,2.77,1.9,3.14-6.64,3.52-7.5s4.24-4.74,4.24-4.74l-2.86-2.67S181.38,243.26,178,245.17Z"/><path id="Path_882" data-name="Path 882" class="cls-14" d="M177.59,241.84c-5.47,1.33-6.09,6.6-1.22,9.42,0,0,4.34-.41,4.87-4.06S177.59,241.84,177.59,241.84Z"/><path id="Path_883" data-name="Path 883" class="cls-14" d="M176.37,250.17c-3.77.58-6.88,6.32.44,8.47C183.3,254.41,176.37,250.17,176.37,250.17Z"/><path id="Path_884" data-name="Path 884" class="cls-14" d="M176.3,257.87c-4.26,4.57-1.26,6.2,2.58,7.9C180.49,262.49,180.2,261,176.3,257.87Z"/><path id="Path_885" data-name="Path 885" class="cls-10" d="M177.75,251.38a.35.35,0,0,1-.17,0,6.46,6.46,0,0,0-2.65-.44.44.44,0,0,1-.07-.87h0a7,7,0,0,1,3.07.51.44.44,0,0,1,.23.57.45.45,0,0,1-.41.27Z"/><path id="Path_886" data-name="Path 886" class="cls-10" d="M177.4,258.81l-.12,0a5.28,5.28,0,0,0-1.9,0,.43.43,0,0,1-.5-.36.45.45,0,0,1,.37-.5,6,6,0,0,1,2.27,0,.44.44,0,0,1,.31.54.45.45,0,0,1-.43.32Z"/><path id="Path_887" data-name="Path 887" class="cls-14" d="M177,242.05c-.49-2.24,3.39-1.77,5.88-4.12s10.24-5.85,12.94-1.66,1.7,8.27-.31,8.56-6.19-.55-5.89-2-.82-2.22-1.4-1.41-.57,1.53-1,1.68c-6,2-7.41-1.27-9-.08S177,242.05,177,242.05Z"/><path id="Path_888" data-name="Path 888" class="cls-10" d="M179.36,243.21a.48.48,0,0,1-.32-.13,3.08,3.08,0,0,0-2.48-.92.44.44,0,0,1-.5-.37.43.43,0,0,1,.31-.49,4,4,0,0,1,3.3,1.17.43.43,0,0,1,0,.61.48.48,0,0,1-.31.13Z"/></g><g id="Group_477" data-name="Group 477"><path id="Path_891" data-name="Path 891" class="cls-25" d="M54.69,152.06l3.26,9.3,8.2-2.87-3.26-9.3,4.39-1.54-11.49-6.26-5.57,12.23Z"/><rect id="Rectangle_237" data-name="Rectangle 237" class="cls-25" x="58.55" y="160.96" width="8.71" height="2.73" transform="translate(-50.07 29.87) rotate(-19.28)"/><rect id="Rectangle_238" data-name="Rectangle 238" class="cls-25" x="59.72" y="164.67" width="8.71" height="1.97" transform="translate(-51.08 30.42) rotate(-19.27)"/></g><path id="Path_892" data-name="Path 892" class="cls-13" d="M340.68,12.73,390.11,35.1,376.85,0Z"/><path id="Path_893" data-name="Path 893" class="cls-22" d="M154.66,163c-2.85-.4-4.94,2.18-2.85,4.36s2-1.39,2.15-2.2A18.74,18.74,0,0,1,154.66,163Z"/><path id="Path_894" data-name="Path 894" class="cls-22" d="M219.48,123.44c-1.75.87-.59,3.5,2,3s3.31-2,2.32-3S219.48,123.44,219.48,123.44Z"/><path id="Path_918" data-name="Path 918" class="cls-22" d="M177.49,140.94c-5.62,9.15-5.75,18.59-7.4,20.51l-1.94,4s2.92,0,6-3.7,5.7-13,5.7-13l-2.26-7.26Z"/><g id="Group_479" data-name="Group 479"><path id="Path_895" data-name="Path 895" class="cls-26" d="M283.38,73.15C278.91,74.23,264.87,70,264.87,70l1.57-4.47a41.23,41.23,0,0,0,16.36,3.29c1.7-.08,10.56-16.24,12.44-17.16,2.11-1,5.45,3.44-1.81,6.93C293.43,58.56,287.86,72.06,283.38,73.15Z"/><path id="Path_896" data-name="Path 896" class="cls-26" d="M245.69,167.06l-2-3.43s-2.73,7.09-3.62,8.12c-1.18,1.36-2.21,2.81-.47,3.68l2.55,1.26,3.74,1.87c.15-.55.26-1.06-2-2.72s-1.9-2.19-1.36-3.22c.64-1.21,2.2-3.76,2.2-3.76Z"/><path id="Path_897" data-name="Path 897" class="cls-27" d="M238.22,174.74l7.66,3.83-.47.92-7.66-3.83Z"/><path id="Path_898" data-name="Path 898" class="cls-28" d="M242.36,174.43l-1.49,1.64,2.76,1.38.84-1.15Z"/><path id="Path_899" data-name="Path 899" class="cls-26" d="M264.61,167.79l-3.36-2.17s.8,7.54.47,8.86c-.43,1.73-.69,3.5,1.26,3.5h7c-.11-.56-.26-1.06-3-1.54s-2.7-1.11-2.68-2.27c0-1.37.25-4.34.25-4.34Z"/><rect id="Rectangle_239" data-name="Rectangle 239" class="cls-27" x="261.44" y="177.98" width="8.59" height="1.03"/><path id="Path_900" data-name="Path 900" class="cls-28" d="M265,175.85l-.58,2.12h3.1l.23-1.4Z"/><path id="Path_901" data-name="Path 901" class="cls-29" d="M254.47,90.79s2.61,41.8,3.79,45.9-3.75,8-2.48,14,.85,7.77.06,10a7.2,7.2,0,0,0-.15,4,3,3,0,0,0,3.43,2.27c2.76-.48,5.68,2,5.68,2s2.93-32,3.66-34.44-1.26-43.41-1.26-43.41Z"/><path id="Path_902" data-name="Path 902" class="cls-30" d="M254.47,90.79a102.13,102.13,0,0,0-3.68,13c-1.46,7.63,2.17,26.92-.88,30.52-5.94,7,2.3,7.76-5.26,12.83-5.19,3.48.22,7.56-3.83,11s-2.23,4.94-2.23,4.94.52.82,3.28,1.84a5.41,5.41,0,0,1,3,3.61s17.32-28.39,18.68-36.37,4-33.67,3.62-41Z"/><path id="Path_903" data-name="Path 903" class="cls-31" d="M243.44,163c-2.31-1.2-3.83-1.54-4.8-2.42a1.89,1.89,0,0,0-.12,2.63,5,5,0,0,0,3,1.9,5.41,5.41,0,0,1,3.36,3.4s.55-.81,1.39-2.31A6.37,6.37,0,0,0,243.44,163Z"/><path id="Path_904" data-name="Path 904" class="cls-31" d="M260.08,166.47a8.52,8.52,0,0,1-4.39-1.76,7.23,7.23,0,0,0,.89,2.75c.67.84,1.46,1.1,4.09,1.29a6,6,0,0,1,4,1.81l.16-2C264.28,167.59,263,166.61,260.08,166.47Z"/><rect id="Rectangle_240" data-name="Rectangle 240" class="cls-32" x="260.1" y="83.82" width="1.52" height="12.75" transform="translate(163.91 348.61) rotate(-88.51)"/><path id="Path_905" data-name="Path 905" class="cls-10" d="M254.51,89.26s-2.6-1.58-3.19-7c-.53-4.88-1.43-14.42,1.83-16.89a2.61,2.61,0,0,1,1.06-.51c4.5-1.11,12.12-1.42,14.49,2.26s-1.06,5.7-.05,12.82.12,5.75-1.41,9.61Z"/><path id="Path_906" data-name="Path 906" class="cls-26" d="M260,59l-2.38,5.29s3,2.71,4.8,2.69S264,64.49,264,64.49a40,40,0,0,1,.54-4.88Z"/><path id="Path_907" data-name="Path 907" class="cls-26" d="M264.45,61.8c2.22-.45,4.32-4.52,3.69-7.51a5.39,5.39,0,0,0-6.2-4.37h0A5.32,5.32,0,0,0,258,56.37C258.66,59.36,262.21,62.27,264.45,61.8Z"/><path id="Path_908" data-name="Path 908" class="cls-33" d="M267.38,51.44c-1.34-2.06-3.22-2.15-5-2.2s-5.32,1.17-7.25,6.73c-3.84,11-13.33,11.94-13.33,11.94,3.54,6.73,8.3,7.31,8.3,7.31S257,71.32,259.9,66a26.32,26.32,0,0,0,2.66-11.76l.89,1.93a13.94,13.94,0,0,0,4.8-.58A5.94,5.94,0,0,0,267.38,51.44Z"/><path id="Path_909" data-name="Path 909" class="cls-26" d="M259.21,56c-.09.71,1,1.85,1,1.85s1-1.07.7-1.85C260.69,55.54,259.29,55.3,259.21,56Z"/><path id="Path_910" data-name="Path 910" class="cls-33" d="M255.4,59.93l-6.31,3.33-1.27-1.68s6.29-3.76,7.57-6.22Z"/><g id="Group_478" data-name="Group 478"><path id="Path_911" data-name="Path 911" class="cls-34" d="M318.51,33.32l20.07,3.3-8.29,6.85L339,52.72s-25-2.3-24.86-4.89a12.15,12.15,0,0,1,.46-1.87Z"/><path id="Path_912" data-name="Path 912" class="cls-34" d="M316.21,44.84,315,44.08l-.91,3.75c.31-1.26,1.65-.54,2.12-1.68A4.42,4.42,0,0,0,316.21,44.84Z"/><path id="Path_913" data-name="Path 913" class="cls-35" d="M297.26,42.18A21.15,21.15,0,0,1,314,43.91a6.29,6.29,0,0,1,2.2,2.24S322,30.26,322.27,29s-5.84-9.49-20.41-4.33Z"/></g><rect id="Rectangle_241" data-name="Rectangle 241" class="cls-27" x="267.92" y="47.63" width="57.73" height="1.38" transform="translate(175.46 323.45) rotate(-75.45)"/><path id="Path_914" data-name="Path 914" class="cls-26" d="M273.92,86.75c-4.58-.51-16.26-9.3-16.26-9.3l2.5-3.8S267,80,274.9,82.46c1.62.51,15.6-11.62,17.69-11.85,2.34-.25,3.9,5.09-4.13,5.88C288.46,76.48,278.5,87.25,273.92,86.75Z"/></g></g></g></svg>