<svg xmlns="http://www.w3.org/2000/svg" width="492.984" height="402.095" viewBox="0 0 492.984 402.095">
  <g id="Ilustração_Home01" transform="translate(-0.353 -0.353)">
    <path id="Config_icon01" d="M30.129,0H39.28a2.219,2.219,0,0,1,1.506,1.946c.435,2.56.937,5.121,1.405,7.681a.565.565,0,0,0,.4.461c1.455.6,2.911,1.195,4.366,1.826a.547.547,0,0,0,.619-.051c2.208-1.553,4.433-3.107,6.641-4.643a1.745,1.745,0,0,1,2.476.222l5.721,5.838a1.867,1.867,0,0,1,.234,2.594q-2.258,3.38-4.534,6.759a.552.552,0,0,0-.084.6c.6,1.451,1.2,2.9,1.773,4.37a.526.526,0,0,0,.435.376c2.526.478,5.052.99,7.578,1.434a2.2,2.2,0,0,1,1.924,1.519v9.337a2.174,2.174,0,0,1-1.89,1.5c-2.526.444-5.052.956-7.578,1.434a.5.5,0,0,0-.452.393c-.569,1.468-1.154,2.919-1.773,4.37a.658.658,0,0,0,.05.717l4.517,6.708a1.805,1.805,0,0,1-.2,2.441q-2.911,3-5.838,5.957a1.761,1.761,0,0,1-2.426.2q-3.312-2.3-6.608-4.626a.546.546,0,0,0-.652-.051c-1.405.614-2.827,1.195-4.266,1.775a.6.6,0,0,0-.435.512c-.452,2.543-.954,5.087-1.389,7.647A2.176,2.176,0,0,1,39.3,71.194H30.146A2.164,2.164,0,0,1,28.724,69.4c-.452-2.646-.97-5.274-1.439-7.92a.526.526,0,0,0-.385-.461c-1.372-.563-2.744-1.144-4.1-1.741a.571.571,0,0,0-.669.051q-3.212,2.253-6.424,4.489a1.79,1.79,0,0,1-2.626-.239l-5.587-5.7a1.89,1.89,0,0,1-.251-2.748c1.472-2.185,2.928-4.37,4.4-6.554a.6.6,0,0,0,.033-.649c-.586-1.417-1.171-2.833-1.723-4.267a.646.646,0,0,0-.552-.495c-2.493-.461-4.969-.956-7.461-1.4A2.22,2.22,0,0,1,0,40.265V30.929a2.141,2.141,0,0,1,1.807-1.5c2.543-.461,5.069-.973,7.612-1.434a.592.592,0,0,0,.519-.461c.535-1.383,1.087-2.765,1.656-4.131a.708.708,0,0,0-.067-.785C10.021,20.4,8.549,18.178,7.06,15.959a1.857,1.857,0,0,1,.217-2.56c1.907-1.946,3.831-3.892,5.738-5.838a1.755,1.755,0,0,1,2.509-.222L22.049,11.9a.6.6,0,0,0,.686.051c1.355-.6,2.727-1.178,4.1-1.741a.6.6,0,0,0,.435-.512c.485-2.68.987-5.36,1.472-8.039A1.822,1.822,0,0,1,29.376.478,5.087,5.087,0,0,1,30.129,0Zm-9.8,35.588A14.548,14.548,0,1,0,34.847,20.773,14.69,14.69,0,0,0,20.326,35.588Z" transform="translate(0.853 8.91)" fill="none" stroke="#000" stroke-width="1"/>
    <g id="Group">
      <path id="Vector" d="M0,0H181.008V118.594H0Z" transform="translate(42.542 50.78)" fill="#f4f4f4" stroke="#000" stroke-width="1"/>
      <path id="Vector-2" data-name="Vector" d="M0,0H181.008V118.594H0Z" transform="translate(61.68 63.786)"/>
      <g id="Group-2" data-name="Group">
        <path id="Vector-3" data-name="Vector" d="M0,0H181.008V118.594H0Z" transform="translate(83.193 86.3)" fill="#f4f4f4" stroke="#000" stroke-width="1"/>
        <g id="Group-3" data-name="Group">
          <g id="Group-4" data-name="Group">
            <path id="Vector-4" data-name="Vector" d="M0,0H136.961V9.678H0Z" transform="translate(113.841 129.33)" fill="#f4f4f4" stroke="#000" stroke-width="1"/>
            <path id="Vector-5" data-name="Vector" d="M0,0H102.967V9.678H0Z" transform="translate(113.841 129.33)"/>
          </g>
          <g id="Group-5" data-name="Group">
            <path id="Vector-6" data-name="Vector" d="M0,0H136.961V9.678H0Z" transform="translate(113.958 155.941)" fill="#f4f4f4" stroke="#000" stroke-width="1"/>
            <path id="Vector-7" data-name="Vector" d="M0,0H62.583V9.678H0Z" transform="translate(113.958 155.941)"/>
          </g>
          <g id="Group-6" data-name="Group">
            <path id="Vector-8" data-name="Vector" d="M0,0H122.088V9.678H0Z" transform="translate(113.958 182.107)" fill="#77c5d5"/>
          </g>
          <g id="Group-7" data-name="Group">
            <path id="Vector-9" data-name="Vector" d="M0,0H136.961V9.678H0Z" transform="translate(113.958 101.867)" fill="#f4f4f4" stroke="#000" stroke-width="1"/>
            <path id="Vector-10" data-name="Vector" d="M0,0H115.715V9.678H0Z" transform="translate(113.958 101.867)"/>
          </g>
        </g>
      </g>
    </g>
    <g id="Group-8" data-name="Group">
      <path id="Vector-11" data-name="Vector" d="M0,0,10.623,34.257H218.1L207.473,0Z" transform="translate(223.55 368.192)" fill="none"/>
      <g id="Group-9" data-name="Group">
        <path id="Vector-12" data-name="Vector" d="M12.831,0H194.659A12.966,12.966,0,0,1,207.49,13.092V157.153H0V13.092A12.966,12.966,0,0,1,12.831,0Z" transform="translate(223.55 234.457)" fill="none" stroke="#000" stroke-width="1"/>
        <path id="Vector-13" data-name="Vector" d="M195.981,0H11.493A11.62,11.62,0,0,0,0,11.726V24.2H207.473V11.726A11.61,11.61,0,0,0,195.981,0Z" transform="translate(223.55 234.457)" fill="none" stroke="#000" stroke-width="1"/>
        <g id="Group-10" data-name="Group">
          <path id="Vector-14" data-name="Vector" d="M7.227,3.687A3.651,3.651,0,0,1,3.613,7.374,3.651,3.651,0,0,1,0,3.687,3.651,3.651,0,0,1,3.613,0,3.651,3.651,0,0,1,7.227,3.687Z" transform="translate(230.292 244.101)"/>
          <path id="Vector-15" data-name="Vector" d="M7.227,3.687A3.651,3.651,0,0,1,3.613,7.374,3.651,3.651,0,0,1,0,3.687,3.651,3.651,0,0,1,3.613,0,3.651,3.651,0,0,1,7.227,3.687Z" transform="translate(251.923 244.101)"/>
          <path id="Vector-16" data-name="Vector" d="M7.227,3.687A3.651,3.651,0,0,1,3.613,7.374,3.651,3.651,0,0,1,0,3.687,3.651,3.651,0,0,1,3.613,0,3.651,3.651,0,0,1,7.227,3.687Z" transform="translate(273.553 244.101)"/>
        </g>
      </g>
      <g id="Group-11" data-name="Group">
        <path id="Vector-17" data-name="Vector" d="M0,0V95.876H176.725" transform="translate(244.227 274.057)" fill="none" stroke="#000" stroke-linecap="round" stroke-linejoin="round" stroke-width="1"/>
        <g id="Group-12" data-name="Group">
          <path id="Vector-18" data-name="Vector" d="M0,0H8.2V37.654H0Z" transform="translate(260.17 331.647)"/>
          <path id="Vector-19" data-name="Vector" d="M0,0H8.2V59.536H0Z" transform="translate(271.529 309.748)" fill="#77c5d5"/>
          <path id="Vector-20" data-name="Vector" d="M0,0H8.2V50.66H0Z" transform="translate(302.678 318.641)"/>
          <path id="Vector-21" data-name="Vector" d="M0,0H8.2V66.039H0Z" transform="translate(314.021 303.245)"/>
          <path id="Vector-22" data-name="Vector" d="M0,0H8.2V28.966H0Z" transform="translate(345.17 340.318)" fill="#ff5c39"/>
          <path id="Vector-23" data-name="Vector" d="M0,0H8.2V40.026H0Z" transform="translate(356.529 329.258)"/>
          <path id="Vector-24" data-name="Vector" d="M0,0H8.2V65.834H0Z" transform="translate(387.678 303.449)"/>
          <path id="Vector-25" data-name="Vector" d="M0,0H8.2V44.362H0Z" transform="translate(399.038 324.922)"/>
        </g>
        <g id="Group-13" data-name="Group">
          <path id="Vector-26" data-name="Vector" d="M2.074,1.058A1.048,1.048,0,0,1,1.037,2.116,1.048,1.048,0,0,1,0,1.058,1.048,1.048,0,0,1,1.037,0,1.048,1.048,0,0,1,2.074,1.058Z" transform="translate(234.307 276.583)"/>
          <path id="Vector-27" data-name="Vector" d="M2.074,1.058A1.048,1.048,0,0,1,1.037,2.117,1.048,1.048,0,0,1,0,1.058,1.048,1.048,0,0,1,1.037,0,1.048,1.048,0,0,1,2.074,1.058Z" transform="translate(234.307 284.588)"/>
          <path id="Vector-28" data-name="Vector" d="M2.074,1.058A1.048,1.048,0,0,1,1.037,2.117,1.048,1.048,0,0,1,0,1.058,1.048,1.048,0,0,1,1.037,0,1.048,1.048,0,0,1,2.074,1.058Z" transform="translate(234.307 292.577)"/>
          <path id="Vector-29" data-name="Vector" d="M2.074,1.058A1.048,1.048,0,0,1,1.037,2.117,1.048,1.048,0,0,1,0,1.058,1.048,1.048,0,0,1,1.037,0,1.048,1.048,0,0,1,2.074,1.058Z" transform="translate(234.307 300.565)"/>
          <path id="Vector-30" data-name="Vector" d="M2.074,1.058A1.048,1.048,0,0,1,1.037,2.117,1.048,1.048,0,0,1,0,1.058,1.048,1.048,0,0,1,1.037,0,1.048,1.048,0,0,1,2.074,1.058Z" transform="translate(234.307 308.553)"/>
          <path id="Vector-31" data-name="Vector" d="M2.074,1.058A1.048,1.048,0,0,1,1.037,2.117,1.048,1.048,0,0,1,0,1.058,1.048,1.048,0,0,1,1.037,0,1.048,1.048,0,0,1,2.074,1.058Z" transform="translate(234.307 316.541)"/>
          <path id="Vector-32" data-name="Vector" d="M2.074,1.058A1.048,1.048,0,0,1,1.037,2.117,1.048,1.048,0,0,1,0,1.058,1.048,1.048,0,0,1,1.037,0,1.048,1.048,0,0,1,2.074,1.058Z" transform="translate(234.307 324.547)"/>
          <path id="Vector-33" data-name="Vector" d="M2.074,1.058A1.048,1.048,0,0,1,1.037,2.117,1.048,1.048,0,0,1,0,1.058,1.048,1.048,0,0,1,1.037,0,1.048,1.048,0,0,1,2.074,1.058Z" transform="translate(234.307 332.535)"/>
          <path id="Vector-34" data-name="Vector" d="M2.074,1.058A1.048,1.048,0,0,1,1.037,2.117,1.048,1.048,0,0,1,0,1.058,1.048,1.048,0,0,1,1.037,0,1.048,1.048,0,0,1,2.074,1.058Z" transform="translate(234.307 340.523)"/>
          <path id="Vector-35" data-name="Vector" d="M2.074,1.058A1.048,1.048,0,0,1,1.037,2.116,1.048,1.048,0,0,1,0,1.058,1.048,1.048,0,0,1,1.037,0,1.048,1.048,0,0,1,2.074,1.058Z" transform="translate(234.307 348.511)"/>
          <path id="Vector-36" data-name="Vector" d="M2.074,1.058A1.048,1.048,0,0,1,1.037,2.117,1.048,1.048,0,0,1,0,1.058,1.048,1.048,0,0,1,1.037,0,1.048,1.048,0,0,1,2.074,1.058Z" transform="translate(234.307 356.499)"/>
          <path id="Vector-37" data-name="Vector" d="M2.074,1.058A1.048,1.048,0,0,1,1.037,2.116,1.048,1.048,0,0,1,0,1.058,1.048,1.048,0,0,1,1.037,0,1.048,1.048,0,0,1,2.074,1.058Z" transform="translate(234.307 364.505)"/>
        </g>
      </g>
    </g>
    <g id="Group-14" data-name="Group">
      <path id="Vector-38" data-name="Vector" d="M118.977,60.7c0,33.522-26.634,60.7-59.488,60.7S0,94.219,0,60.7,26.634,0,59.488,0,118.977,27.175,118.977,60.7Z" transform="translate(73.089 242.48)" fill="#ffb81c"/>
      <path id="Vector-39" data-name="Vector" d="M78.158,0,0,98.316a61.258,61.258,0,0,0,41.923,16.608c34.328,0,62.148-28.385,62.148-63.411A63.648,63.648,0,0,0,78.158,0Z" transform="translate(90.22 251.407)" fill="#f4f4f4" stroke="#000" stroke-width="1"/>
      <path id="Vector-40" data-name="Vector" d="M132.226,67.473a67.9,67.9,0,0,0-18.285-46.547L62.784,65.391,72.253.307C70.228.119,68.188,0,66.113,0,29.594,0,0,30.195,0,67.456s29.594,67.456,66.113,67.456C102.616,134.946,132.226,104.734,132.226,67.473Z" transform="translate(66.95 235.208)" fill="#f4f4f4" stroke="#000" stroke-width="1"/>
    </g>
    <g id="Group-15" data-name="Group">
      <g id="Group-16" data-name="Group">
        <path id="Vector-41" data-name="Vector" d="M4.918,0H84.666a4.966,4.966,0,0,1,4.918,5.018V34.36a4.966,4.966,0,0,1-4.918,5.018H4.918A4.966,4.966,0,0,1,0,34.36V5.018A4.977,4.977,0,0,1,4.918,0Z" transform="translate(331.201 18.195)" fill="#f4f4f4" stroke="#000" stroke-width="1"/>
        <g id="Group-17" data-name="Group">
          <path id="Vector-42" data-name="Vector" d="M0,0H53.851V1.4H0Z" transform="translate(360.444 26.644)"/>
          <path id="Vector-43" data-name="Vector" d="M0,0H53.851V1.4H0Z" transform="translate(360.444 34.872)"/>
          <path id="Vector-44" data-name="Vector" d="M0,0H53.851V1.4H0Z" transform="translate(360.444 43.099)"/>
          <path id="Vector-45" data-name="Vector" d="M0,0H53.851V1.4H0Z" transform="translate(360.444 51.326)"/>
        </g>
        <path id="Vector-46" data-name="Vector" d="M20.46.563,16.261,0,10.238,7.459,4.2,0,0,.461,7.812,9.883,0,19.2l4.2.58,6.039-7.476,6.022,7.476,4.2-.478L12.647,9.883Z" transform="translate(336.019 28.146)" fill="#adabac"/>
      </g>
      <g id="Group-18" data-name="Group">
        <path id="Vector-47" data-name="Vector" d="M4.918,0H84.666a4.966,4.966,0,0,1,4.918,5.018V34.36a4.966,4.966,0,0,1-4.918,5.018H4.918A4.966,4.966,0,0,1,0,34.36V5.018A4.966,4.966,0,0,1,4.918,0Z" transform="translate(269.572 0.853)" fill="#f4f4f4" stroke="#000" stroke-width="1"/>
        <g id="Group-19" data-name="Group">
          <path id="Vector-48" data-name="Vector" d="M0,0H53.851V1.4H0Z" transform="translate(298.814 9.303)"/>
          <path id="Vector-49" data-name="Vector" d="M0,0H53.851V1.4H0Z" transform="translate(298.814 17.53)"/>
          <path id="Vector-50" data-name="Vector" d="M0,0H53.851V1.4H0Z" transform="translate(298.814 25.757)"/>
          <path id="Vector-51" data-name="Vector" d="M0,0H53.851V1.4H0Z" transform="translate(298.814 33.984)"/>
        </g>
        <path id="Vector-52" data-name="Vector" d="M18.8,0,7.26,11.76l-5-5.1L0,8.978l7.227,7.408L23.12.034Z" transform="translate(272.901 14.15)" fill="#73e2a1"/>
      </g>
    </g>
    <g id="Group-20" data-name="Group">
      <path id="Vector-53" data-name="Vector" d="M0,0H132.427V83.449H0Z" transform="translate(323.456 101.884)" fill="none"/>
      <path id="Vector-54" data-name="Vector" d="M150.394,97.224l-5.721-5.855v4.694H6.641V5.838h4.835L5.738,0,0,5.838H5.136V97.6H144.673v5.462Z" transform="translate(312.164 94.8)"/>
      <g id="Group-21" data-name="Group">
        <path id="Vector-55" data-name="Vector" d="M0,61.431l27.871-28.1L51.258,45.744,114.042,0" transform="translate(337.257 110.828)" fill="none" stroke="#000" stroke-linecap="round" stroke-linejoin="round" stroke-width="1"/>
        <path id="Vector-56" data-name="Vector" d="M7.7,3.926A3.887,3.887,0,0,1,3.848,7.852,3.887,3.887,0,0,1,0,3.926,3.887,3.887,0,0,1,3.848,0,3.887,3.887,0,0,1,7.7,3.926Z" transform="translate(333.41 168.333)"/>
        <path id="Vector-57" data-name="Vector" d="M0,3.926A3.888,3.888,0,0,1,3.848,0,3.888,3.888,0,0,1,7.7,3.926,3.888,3.888,0,0,1,3.848,7.852,3.888,3.888,0,0,1,0,3.926Z" transform="translate(361.28 140.237)" fill="#f4f4f4" stroke="#000" stroke-width="1"/>
        <path id="Vector-58" data-name="Vector" d="M7.7,3.926A3.887,3.887,0,0,1,3.848,7.852,3.887,3.887,0,0,1,0,3.926,3.887,3.887,0,0,1,3.848,0,3.887,3.887,0,0,1,7.7,3.926Z" transform="translate(384.667 152.646)"/>
        <path id="Vector-59" data-name="Vector" d="M0,3.926A3.888,3.888,0,0,1,3.848,0,3.888,3.888,0,0,1,7.7,3.926,3.888,3.888,0,0,1,3.848,7.852,3.91,3.91,0,0,1,0,3.926Z" transform="translate(447.451 106.902)" fill="#f4f4f4" stroke="#000" stroke-width="1"/>
      </g>
    </g>
    <path id="Vector-60" data-name="Vector" d="M0,0H136.961V9.678H0Z" transform="translate(113.958 182.107)" fill="none" stroke="#000" stroke-width="1"/>
    <path id="Config_icon02" d="M15.909,0h4.851a1.217,1.217,0,0,1,.8,1.024c.234,1.366.5,2.714.736,4.079a.271.271,0,0,0,.2.239c.77.307,1.539.632,2.309.956a.3.3,0,0,0,.335-.034l3.513-2.458a.935.935,0,0,1,1.322.119C31,4.95,32,5.991,33.006,7.015a.97.97,0,0,1,.117,1.366c-.8,1.195-1.589,2.39-2.392,3.584a.284.284,0,0,0-.033.324c.318.768.636,1.536.937,2.321a.293.293,0,0,0,.234.2c1.338.256,2.677.512,4.015.751a1.161,1.161,0,0,1,1.02.8v4.95a1.159,1.159,0,0,1-1,.8c-1.338.239-2.677.512-4.015.751-.134.017-.184.068-.234.2-.3.785-.619,1.553-.937,2.321a.313.313,0,0,0,.033.376c.8,1.178,1.589,2.373,2.392,3.55a.967.967,0,0,1-.1,1.3c-1.02,1.058-2.058,2.1-3.095,3.158a.941.941,0,0,1-1.288.1c-1.171-.819-2.342-1.639-3.5-2.458a.328.328,0,0,0-.351-.034c-.753.324-1.506.632-2.258.939a.329.329,0,0,0-.234.273c-.251,1.348-.5,2.7-.736,4.045a1.177,1.177,0,0,1-.786,1.041H15.943a1.146,1.146,0,0,1-.753-.956c-.234-1.4-.5-2.8-.753-4.2a.271.271,0,0,0-.2-.239c-.736-.307-1.455-.614-2.175-.922a.274.274,0,0,0-.351.034c-1.138.8-2.258,1.587-3.4,2.373a.954.954,0,0,1-1.389-.119L3.965,30.639a1,1,0,0,1-.134-1.451c.77-1.161,1.556-2.321,2.325-3.465a.315.315,0,0,0,.017-.341c-.318-.751-.619-1.5-.92-2.253-.067-.154-.134-.239-.284-.256-1.322-.239-2.626-.512-3.948-.734a1.161,1.161,0,0,1-1.02-.8v-4.95a1.1,1.1,0,0,1,.954-.8c1.338-.239,2.693-.512,4.032-.768a.364.364,0,0,0,.284-.256c.284-.734.569-1.468.887-2.185a.364.364,0,0,0-.033-.41C5.337,10.788,4.55,9.61,3.747,8.449a1,1,0,0,1,.117-1.366c1-1.041,2.024-2.065,3.028-3.089a.938.938,0,0,1,1.338-.119c1.154.8,2.309,1.6,3.446,2.424a.357.357,0,0,0,.368.034c.719-.324,1.439-.632,2.175-.922a.329.329,0,0,0,.234-.273c.251-1.417.519-2.833.786-4.25a.974.974,0,0,1,.335-.632A1.1,1.1,0,0,1,15.909,0ZM10.723,18.861a7.7,7.7,0,1,0,7.7-7.852A7.79,7.79,0,0,0,10.723,18.861Z" transform="translate(455.933 228.927)" fill="none" stroke="#000" stroke-width="1"/>
  </g>
</svg>
