<svg id="Layer_1" data-name="Layer 1" xmlns="http://www.w3.org/2000/svg" viewBox="0 0 1619 584.6"><defs><style>.cls-1,.cls-2{fill:#36393b;}.cls-1{opacity:0;}.cls-3{fill:#ea0029;}</style></defs><path class="cls-1" d="M280.77,0c39.42,0,59,18.34,59,54.75v68.84c0,9.3-2.21,11.95-9.92,15.15-11,4.51-27.58,6.9-49.64,6.9-23.43,0-39.43-3.45-48.25-10.63-8.83-6.91-13.23-17.8-13.23-32.42,0-31.62,17.64-42.79,62.59-42.79,1.92,0,10.75.53,26.47,1.33V53.69c0-17.27-7.72-26.31-27.58-26.31q-20.26,0-28.94,12.75c-4.14,5.59-5.52,6.12-11.87,4l-11-4.52c-6.07-2.65-7.72-6.64-4.69-12C233.62,9.3,252.64,0,280.77,0Zm27,86.38c-19.3-.8-29.23-1.33-30.05-1.33-19.86,0-26.47,5.58-26.47,17.27,0,12,5.78,17.81,25.91,17.81,11.86,0,21-.8,27.58-2.13,1.92-.79,3-1.86,3-3.71Z"/><path class="cls-2" d="M590.75,146.72H517.67c-6.84,0-9.58,2.47-9.58,9.4v23H542.8V179h44.7c20.09,0,32,11.79,32,31.71s-11.88,31.37-32,31.37H549.38v.08H508.09v90.95c0,6.93,2.74,9.41,9.58,9.41H533.4c6.92,0,9.4-2.48,9.4-9.41V274.42h48c40,0,65.14-24,65.14-63.68S630.75,146.72,590.75,146.72Z"/><path class="cls-2" d="M747.66,195.54c6.34,0,8.55,1.94,8.55,8.55v12.14c0,6.34-2.21,8.55-8.55,8.55h-9.92c-10.2,0-19,1.1-26.2,3.3-1.93.28-2.76,1.38-2.76,3.31V334c0,6.35-1.93,8.55-8.27,8.55H685.35c-6.35,0-8.55-2.2-8.55-8.55V219.53c0-8.82,1.93-12.12,10.75-15.71q20.26-7.44,51.29-8.28Z"/><path class="cls-2" d="M766.41,248.51c0-33.1,22.89-53,63.42-53,40.81,0,63.7,19.87,63.7,53v39.18c0,33.1-22.89,53-63.7,53-40.53,0-63.42-19.86-63.42-53Zm95.13,0c0-16.15-11.58-25.16-31.71-25.16s-31.43,9-31.43,25.16v39.18c0,15.89,11.3,25.16,31.43,25.16s31.71-9.27,31.71-25.16Z"/><path class="cls-2" d="M975.41,195.54c39.43,0,59,18.35,59,54.76v68.83c0,9.3-2.21,12-9.92,15.15-11,4.52-27.58,6.91-49.64,6.91-23.44,0-39.43-3.46-48.25-10.63-8.83-6.91-13.23-17.81-13.23-32.43,0-31.62,17.64-42.79,62.59-42.79,1.92,0,10.75.53,26.47,1.34v-7.44c0-17.28-7.73-26.32-27.58-26.32q-20.26,0-29,12.76c-4.14,5.58-5.51,6.11-11.86,4l-11-4.52c-6.07-2.66-7.73-6.65-4.69-12C928.27,204.85,947.29,195.54,975.41,195.54Zm27,86.39c-19.3-.81-29.23-1.34-30.06-1.34-19.85,0-26.47,5.58-26.47,17.28,0,12,5.79,17.8,25.92,17.8,11.86,0,21-.8,27.57-2.12,1.93-.8,3-1.86,3-3.72Z"/><path class="cls-2" d="M1078.51,161.25c6.35,0,8.55,1.94,8.55,8.3v24.89h31.44c6.34,0,8.55,1.93,8.55,8.3v12.71c0,6.37-2.21,8.58-8.55,8.58h-31.44v55.58q0,19.5,6.62,25.72c4.13,4.15,12.41,6.09,24.54,6.09,6.62,0,8.83,1.93,8.83,8.57v12.72c0,6.64-2.21,8.57-8.83,8.85-23.16.84-39.43-3.32-48.8-12.17-9.65-8.85-14.34-25.16-14.34-48.66V169.55c0-6.36,2.21-8.3,8.54-8.3Z"/><path class="cls-2" d="M1165.27,146.19c11.66,0,15.14,3.72,15.14,14.89v2.23c0,11.65-3.48,15.13-15.14,15.13h-1.73c-11.17,0-15.13-3.48-15.13-15.13v-2.23c0-11.17,3.47-14.89,15.13-14.89Zm6.71,48.69c6.35,0,8.55,2,8.55,8.55v129c0,6.56-2.2,8.84-8.55,8.84h-15.16c-6.34,0-8.27-2.28-8.27-8.84v-129c0-6.56,1.93-8.55,8.27-8.55Z"/><path class="cls-2" d="M1327,194.3c8.54,0,10.2,1.93,7.17,9.65l-54.15,130.5c-1.93,5.24-5.8,7.72-11.58,7.72h-9.1c-5.79,0-9.65-2.48-11.59-7.72l-53.82-130c-3-8-1.66-9.92,6.89-9.92h10.76c10.2,0,13,1.65,15.16,8.55l28.47,71.36c3.87,10.2,6.07,22.34,7.45,27.3l.28,2.21h1.37s3.59-17.37,7.45-29.23l28.77-71.83c3-6.9,5.24-8.55,15.44-8.55Z"/><path class="cls-2" d="M1345.69,253c0-37.2,22.34-57.41,64-57.41,41.91,0,63.7,22.86,63.7,55v16.22c0,7.7-4.14,11.42-12.41,11.42h-83.27V288c0,17.28,11.3,26.58,31.43,26.58,15.44,0,26.19-4.78,32.54-14.08,4.41-6.12,7.44-6.65,14.06-3.2l9.65,5.06c6.35,2.92,7.45,7.17,3.31,13.28q-16.12,25.51-59.56,25.52c-43,0-63.42-22.06-63.42-56.87Zm95.68-4.25c0-17.27-10.75-27.11-31.71-27.11-20.68,0-32,9.84-32,27.11v5.85h63.69Z"/><path class="cls-2" d="M525.79,363.25c1.69,0,2,.57,2,2v11.49h16.34a1.79,1.79,0,0,1,2,2v2.93a1.79,1.79,0,0,1-2,2H527.81v29.3c0,6.53,1.13,10.82,3.39,12.84s6.42,3.16,12.73,3.16c1.35,0,2,.67,2,2.14v3c0,1.47-.57,2-2,2-8.79.11-14.87-1.35-18.37-4.73s-5.29-9.35-5.29-18.26V383.76H509.56a1.8,1.8,0,0,1-2-2V378.8a1.8,1.8,0,0,1,2-2h10.71V365.28a1.79,1.79,0,0,1,2-2Z"/><path class="cls-2" d="M552.72,400.33c0-15,8.68-23.78,24.91-23.78s25,9.24,25,23.33v6.2c0,2.14-1.13,3.15-3.38,3.15h-39v6.53c0,9.81,6,15.44,16.9,15.44,8.34,0,14.2-3.15,17.7-9.35a2.29,2.29,0,0,1,3.26-.79l2.37,1.24c1.47.79,1.69,1.8.79,3.27-4.51,8.11-12.51,12.17-24.12,12.17-16.33,0-24.45-8.68-24.45-22.76Zm42.37-.9c0-10.26-6.08-16.34-17.46-16.34s-17.36,6.08-17.36,16.34v3.94h34.82Z"/><path class="cls-2" d="M612.68,398.75c0-14,8.34-22.2,24.56-22.2,12.62,0,20.51,5.07,23.55,15.21a2.1,2.1,0,0,1-1.35,2.93l-2.93,1a2,2,0,0,1-2.82-1.35c-2.36-7.67-7.21-11.05-16.67-11.05-10.93,0-16.79,5.64-16.79,15.21v17.24c0,9.58,6,15.33,16.79,15.33,8.79,0,14.42-3.83,16.79-11.6a2.25,2.25,0,0,1,2.93-1.36l2.93.9c1.46.57,1.91,1.47,1.35,2.93-3.5,10.48-11.49,15.78-24.23,15.78-15.77,0-24.11-8.23-24.11-22.2Z"/><path class="cls-2" d="M676.8,352.78c1.46,0,2,.56,2,2v24.9c4.62-2.15,10.59-3.16,17.69-3.16,15,0,22.42,7.33,22.42,22.09v35.49a1.8,1.8,0,0,1-2,2h-3.6a1.79,1.79,0,0,1-2-2V398.86c0-10.25-5.3-15.32-15.78-15.32-6.76,0-12.28,1.13-16.67,3.27v47.32c0,1.47-.57,2-2,2h-3.49c-1.69,0-2-.56-2-2V354.81c0-1.47.34-2,2-2Z"/><path class="cls-2" d="M754.61,376.55c15,0,22.42,7.33,22.42,22.09v35.49a1.8,1.8,0,0,1-2,2h-3.49c-1.47,0-2-.56-2-2V398.86c0-10.25-5.29-15.32-15.77-15.32a43.59,43.59,0,0,0-15,2.48,2.86,2.86,0,0,0-1.69,2.81v45.3a1.8,1.8,0,0,1-2,2h-3.61a1.79,1.79,0,0,1-2-2V386.58c0-3.49.79-4.73,4.28-6.2A53.93,53.93,0,0,1,754.61,376.55Z"/><path class="cls-2" d="M787.09,397.28c0-12.95,9.35-20.73,24.68-20.73s24.9,7.78,24.9,20.73v19.84c0,13-9.47,20.62-24.9,20.62s-24.68-7.89-24.68-20.62Zm41.92,0c0-8.56-6.53-13.85-17.24-13.85-10.48,0-17.13,5.29-17.13,13.85v19.84c0,8.56,6.76,13.74,17.13,13.74,10.71,0,17.24-5.18,17.24-13.74Z"/><path class="cls-2" d="M854,434.13c0,1.47-.34,2-2,2h-3.49c-1.47,0-2-.56-2-2V354.81c0-1.47.56-2,2-2h3.49c1.69,0,2,.56,2,2Z"/><path class="cls-2" d="M864.19,397.28c0-12.95,9.35-20.73,24.68-20.73s24.9,7.78,24.9,20.73v19.84c0,13-9.46,20.62-24.9,20.62s-24.68-7.89-24.68-20.62Zm41.92,0c0-8.56-6.53-13.85-17.24-13.85-10.48,0-17.13,5.29-17.13,13.85v19.84c0,8.56,6.76,13.74,17.13,13.74,10.71,0,17.24-5.18,17.24-13.74Z"/><path class="cls-2" d="M924.46,399.65c0-15.44,8.11-23.1,24.33-23.1a49.15,49.15,0,0,1,19,3.38c3.61,1.69,4.29,2.48,4.29,6.2v53.53c0,16.22-7.89,24.33-23.78,24.33-10.47,0-17.91-4.05-22.31-12.05-1-1.47-.67-2.6.79-3.38l2.48-1.25a2.2,2.2,0,0,1,3.27.8c3.26,6,8.45,9,15.55,9,10.93,0,16.45-5.75,16.45-17.13v-7a51.32,51.32,0,0,1-17.8,3.38q-22.32,0-22.31-22Zm24.78-16.11c-11.37,0-17.12,5.41-17.12,16.23v14.42q0,15.21,15.55,15.21a48.36,48.36,0,0,0,16.9-3.27V388.61c0-1.8-.23-2.14-2.14-2.93A36.69,36.69,0,0,0,949.24,383.54Z"/><path class="cls-2" d="M1028.77,378.24a1.8,1.8,0,0,1,2,2v59.39q0,24.33-24,24.33c-10.59,0-18-4.05-22.42-12.05-.91-1.47-.68-2.6.78-3.38l2.48-1.25a2.19,2.19,0,0,1,3.27.8c3.27,6,8.45,9,15.77,9,10.94,0,16.46-5.75,16.46-17.13v-6.65a64.76,64.76,0,0,1-17.69,2.93q-22.32,0-22.31-22v-34c0-1.47.56-2,2-2h3.5c1.69,0,2,.56,2,2V414c0,10.25,5.29,15.44,15.77,15.44a55.2,55.2,0,0,0,16.68-3V380.27a1.79,1.79,0,0,1,2-2Z"/><path class="cls-1" d="M0,278.8c0-39.42,18.34-59,54.75-59h68.84c9.3,0,11.95,2.21,15.15,9.93,4.51,11,6.9,27.58,6.9,49.63,0,23.44-3.45,39.43-10.63,48.26-6.91,8.82-17.8,13.23-32.42,13.23-31.62,0-42.79-17.65-42.79-62.59,0-1.93.53-10.75,1.33-26.47H53.69c-17.27,0-26.31,7.72-26.31,27.57q0,20.28,12.75,28.95c5.59,4.14,6.12,5.52,4,11.86l-4.52,11c-2.65,6.07-6.64,7.72-12,4.68C9.3,326,0,306.92,0,278.8Zm86.38-27c-.8,19.3-1.33,29.22-1.33,30,0,19.86,5.58,26.47,17.27,26.47,12,0,17.81-5.78,17.81-25.92,0-11.85-.8-20.95-2.13-27.57-.79-1.93-1.86-3-3.71-3Z"/><path class="cls-1" d="M288.5,439c39.42,0,59,18.34,59,54.75v68.84c0,9.3-2.21,12-9.92,15.15-11,4.51-27.58,6.9-49.64,6.9-23.43,0-39.43-3.45-48.25-10.63-8.83-6.91-13.23-17.81-13.23-32.42,0-31.63,17.64-42.79,62.59-42.79,1.92,0,10.75.53,26.47,1.33v-7.44c0-17.28-7.72-26.31-27.58-26.31q-20.26,0-28.94,12.75c-4.14,5.59-5.52,6.12-11.87,4l-11-4.52c-6.07-2.65-7.72-6.65-4.69-12C241.35,448.26,260.37,439,288.5,439Zm27,86.38c-19.3-.8-29.23-1.34-30-1.34-19.86,0-26.47,5.59-26.47,17.28,0,12,5.78,17.81,25.91,17.81,11.86,0,21-.8,27.58-2.13,1.92-.8,3-1.86,3-3.72Z"/><path class="cls-1" d="M1473.36,271.07c0-39.42,18.34-59,54.75-59H1597c9.3,0,12,2.21,15.15,9.93,4.51,11,6.9,27.58,6.9,49.63,0,23.44-3.45,39.43-10.63,48.26-6.91,8.82-17.8,13.23-32.42,13.23-31.63,0-42.79-17.65-42.79-62.59,0-1.93.53-10.75,1.33-26.47h-7.44c-17.27,0-26.31,7.72-26.31,27.57q0,20.28,12.75,28.95c5.59,4.14,6.12,5.52,4,11.86l-4.52,11c-2.65,6.07-6.64,7.72-12,4.68C1482.66,318.22,1473.36,299.19,1473.36,271.07Zm86.38-27c-.8,19.3-1.33,29.22-1.33,30.05,0,19.86,5.58,26.47,17.27,26.47,12,0,17.81-5.78,17.81-25.92,0-11.85-.8-20.95-2.13-27.57-.79-1.93-1.86-3-3.72-3Z"/><path class="cls-3" d="M310.75,352.84a25.2,25.2,0,0,1-37.6-.52h0L202.2,261.47a7.58,7.58,0,0,1,10.52-10.69L275.08,287a26.65,26.65,0,0,0,32.4-.74L411.3,206.94a146.19,146.19,0,1,0,11.07,18L310.75,352.84Z"/></svg>